%TF.GenerationSoftware,KiCad,Pcbnew,9.0.6*%
%TF.CreationDate,2025-12-28T15:40:13+00:00*%
%TF.ProjectId,ProPrj_SaturnAdapter_2025-11-23,50726f50-726a-45f5-9361-7475726e4164,rev?*%
%TF.SameCoordinates,Original*%
%TF.FileFunction,Profile,NP*%
%FSLAX46Y46*%
G04 Gerber Fmt 4.6, Leading zero omitted, Abs format (unit mm)*
G04 Created by KiCad (PCBNEW 9.0.6) date 2025-12-28 15:40:13*
%MOMM*%
%LPD*%
G01*
G04 APERTURE LIST*
%TA.AperFunction,Profile*%
%ADD10C,0.254000*%
%TD*%
%TA.AperFunction,Profile*%
%ADD11C,0.000000*%
%TD*%
G04 APERTURE END LIST*
D10*
X12800000Y-1353250D02*
X63800000Y-1353250D01*
X63800000Y-33400000D01*
X12800000Y-33400000D01*
X12800000Y-1353250D01*
D11*
%TA.AperFunction,Profile*%
%TO.C,U3*%
G36*
X61436500Y-29233000D02*
G01*
X41236500Y-29233000D01*
X41236500Y-16833000D01*
X61436500Y-16833000D01*
X61436500Y-29233000D01*
G37*
%TD.AperFunction*%
%TA.AperFunction,Profile*%
%TO.C,USB-1*%
G36*
X38243506Y-7656795D02*
G01*
X38328286Y-7705742D01*
X38397508Y-7774964D01*
X38446455Y-7859744D01*
X38471792Y-7954303D01*
X38471792Y-8052197D01*
X38446455Y-8146756D01*
X38397508Y-8231536D01*
X38328286Y-8300758D01*
X38243506Y-8349705D01*
X38148947Y-8375042D01*
X38051053Y-8375042D01*
X37956494Y-8349705D01*
X37871714Y-8300758D01*
X37802492Y-8231536D01*
X37753545Y-8146756D01*
X37728208Y-8052197D01*
X37728208Y-7954303D01*
X37753545Y-7859744D01*
X37802492Y-7774964D01*
X37871714Y-7705742D01*
X37956494Y-7656795D01*
X38051053Y-7631458D01*
X38148947Y-7631458D01*
X38243506Y-7656795D01*
G37*
%TD.AperFunction*%
%TA.AperFunction,Profile*%
G36*
X32443506Y-7656795D02*
G01*
X32528286Y-7705742D01*
X32597508Y-7774964D01*
X32646455Y-7859744D01*
X32671792Y-7954303D01*
X32671792Y-8052197D01*
X32646455Y-8146756D01*
X32597508Y-8231536D01*
X32528286Y-8300758D01*
X32443506Y-8349705D01*
X32348947Y-8375042D01*
X32251053Y-8375042D01*
X32156494Y-8349705D01*
X32071714Y-8300758D01*
X32002492Y-8231536D01*
X31953545Y-8146756D01*
X31928208Y-8052197D01*
X31928208Y-7954303D01*
X31953545Y-7859744D01*
X32002492Y-7774964D01*
X32071714Y-7705742D01*
X32156494Y-7656795D01*
X32251053Y-7631458D01*
X32348947Y-7631458D01*
X32443506Y-7656795D01*
G37*
%TD.AperFunction*%
%TA.AperFunction,Profile*%
%TO.C,SW1*%
G36*
X58472208Y-3434254D02*
G01*
X58573943Y-3492991D01*
X58657009Y-3576057D01*
X58715746Y-3677792D01*
X58746150Y-3791263D01*
X58746150Y-3908737D01*
X58715746Y-4022208D01*
X58657009Y-4123943D01*
X58573943Y-4207009D01*
X58472208Y-4265746D01*
X58358737Y-4296150D01*
X58241263Y-4296150D01*
X58127792Y-4265746D01*
X58026057Y-4207009D01*
X57942991Y-4123943D01*
X57884254Y-4022208D01*
X57853850Y-3908737D01*
X57853850Y-3791263D01*
X57884254Y-3677792D01*
X57942991Y-3576057D01*
X58026057Y-3492991D01*
X58127792Y-3434254D01*
X58241263Y-3403850D01*
X58358737Y-3403850D01*
X58472208Y-3434254D01*
G37*
%TD.AperFunction*%
%TA.AperFunction,Profile*%
G36*
X55472208Y-3434254D02*
G01*
X55573943Y-3492991D01*
X55657009Y-3576057D01*
X55715746Y-3677792D01*
X55746150Y-3791263D01*
X55746150Y-3908737D01*
X55715746Y-4022208D01*
X55657009Y-4123943D01*
X55573943Y-4207009D01*
X55472208Y-4265746D01*
X55358737Y-4296150D01*
X55241263Y-4296150D01*
X55127792Y-4265746D01*
X55026057Y-4207009D01*
X54942991Y-4123943D01*
X54884254Y-4022208D01*
X54853850Y-3908737D01*
X54853850Y-3791263D01*
X54884254Y-3677792D01*
X54942991Y-3576057D01*
X55026057Y-3492991D01*
X55127792Y-3434254D01*
X55241263Y-3403850D01*
X55358737Y-3403850D01*
X55472208Y-3434254D01*
G37*
%TD.AperFunction*%
%TD*%
M02*
