%TF.GenerationSoftware,KiCad,Pcbnew,9.0.6*%
%TF.CreationDate,2025-12-29T02:01:38+00:00*%
%TF.ProjectId,ProPrj_SaturnAdapter_2025-11-23,50726f50-726a-45f5-9361-7475726e4164,rev?*%
%TF.SameCoordinates,Original*%
%TF.FileFunction,Legend,Top*%
%TF.FilePolarity,Positive*%
%FSLAX46Y46*%
G04 Gerber Fmt 4.6, Leading zero omitted, Abs format (unit mm)*
G04 Created by KiCad (PCBNEW 9.0.6) date 2025-12-29 02:01:38*
%MOMM*%
%LPD*%
G01*
G04 APERTURE LIST*
G04 Aperture macros list*
%AMRoundRect*
0 Rectangle with rounded corners*
0 $1 Rounding radius*
0 $2 $3 $4 $5 $6 $7 $8 $9 X,Y pos of 4 corners*
0 Add a 4 corners polygon primitive as box body*
4,1,4,$2,$3,$4,$5,$6,$7,$8,$9,$2,$3,0*
0 Add four circle primitives for the rounded corners*
1,1,$1+$1,$2,$3*
1,1,$1+$1,$4,$5*
1,1,$1+$1,$6,$7*
1,1,$1+$1,$8,$9*
0 Add four rect primitives between the rounded corners*
20,1,$1+$1,$2,$3,$4,$5,0*
20,1,$1+$1,$4,$5,$6,$7,0*
20,1,$1+$1,$6,$7,$8,$9,0*
20,1,$1+$1,$8,$9,$2,$3,0*%
%AMFreePoly0*
4,1,5,0.300000,-0.650000,-0.300000,-0.650000,-0.300000,0.650000,0.300000,0.650000,0.300000,-0.650000,0.300000,-0.650000,$1*%
%AMFreePoly1*
4,1,5,0.299500,-0.650000,-0.300500,-0.650000,-0.300500,0.650000,0.299500,0.650000,0.299500,-0.650000,0.299500,-0.650000,$1*%
G04 Aperture macros list end*
%ADD10C,0.100000*%
%ADD11C,0.203000*%
%ADD12C,0.152375*%
%ADD13C,0.101500*%
%ADD14C,0.085000*%
%ADD15C,0.150000*%
%ADD16C,0.152500*%
%ADD17C,0.254000*%
%ADD18C,0.120000*%
%ADD19R,1.250000X0.700000*%
%ADD20R,0.806500X0.864000*%
%ADD21O,2.500000X1.800000*%
%ADD22R,0.700000X1.250000*%
%ADD23R,0.864000X0.806500*%
%ADD24R,1.200000X2.000000*%
%ADD25R,2.000000X1.200000*%
%ADD26C,2.200000*%
%ADD27RoundRect,0.250000X0.650000X-0.412500X0.650000X0.412500X-0.650000X0.412500X-0.650000X-0.412500X0*%
%ADD28RoundRect,0.250000X0.412500X0.650000X-0.412500X0.650000X-0.412500X-0.650000X0.412500X-0.650000X0*%
%ADD29C,1.600000*%
%ADD30C,4.200000*%
%ADD31O,1.200000X2.000000*%
%ADD32O,1.200000X1.800000*%
%ADD33FreePoly0,180.000000*%
%ADD34R,0.300000X1.300000*%
%ADD35FreePoly1,180.000000*%
%ADD36R,0.700000X1.500000*%
%ADD37R,1.000000X0.800000*%
G04 APERTURE END LIST*
D10*
X51313408Y-33096895D02*
X51046741Y-32715942D01*
X50856265Y-33096895D02*
X50856265Y-32296895D01*
X50856265Y-32296895D02*
X51161027Y-32296895D01*
X51161027Y-32296895D02*
X51237217Y-32334990D01*
X51237217Y-32334990D02*
X51275312Y-32373085D01*
X51275312Y-32373085D02*
X51313408Y-32449276D01*
X51313408Y-32449276D02*
X51313408Y-32563561D01*
X51313408Y-32563561D02*
X51275312Y-32639752D01*
X51275312Y-32639752D02*
X51237217Y-32677847D01*
X51237217Y-32677847D02*
X51161027Y-32715942D01*
X51161027Y-32715942D02*
X50856265Y-32715942D01*
X51656265Y-33096895D02*
X51656265Y-32296895D01*
X51656265Y-32296895D02*
X51961027Y-32296895D01*
X51961027Y-32296895D02*
X52037217Y-32334990D01*
X52037217Y-32334990D02*
X52075312Y-32373085D01*
X52075312Y-32373085D02*
X52113408Y-32449276D01*
X52113408Y-32449276D02*
X52113408Y-32563561D01*
X52113408Y-32563561D02*
X52075312Y-32639752D01*
X52075312Y-32639752D02*
X52037217Y-32677847D01*
X52037217Y-32677847D02*
X51961027Y-32715942D01*
X51961027Y-32715942D02*
X51656265Y-32715942D01*
X52418169Y-32373085D02*
X52456265Y-32334990D01*
X52456265Y-32334990D02*
X52532455Y-32296895D01*
X52532455Y-32296895D02*
X52722931Y-32296895D01*
X52722931Y-32296895D02*
X52799122Y-32334990D01*
X52799122Y-32334990D02*
X52837217Y-32373085D01*
X52837217Y-32373085D02*
X52875312Y-32449276D01*
X52875312Y-32449276D02*
X52875312Y-32525466D01*
X52875312Y-32525466D02*
X52837217Y-32639752D01*
X52837217Y-32639752D02*
X52380074Y-33096895D01*
X52380074Y-33096895D02*
X52875312Y-33096895D01*
X53370551Y-32296895D02*
X53446741Y-32296895D01*
X53446741Y-32296895D02*
X53522932Y-32334990D01*
X53522932Y-32334990D02*
X53561027Y-32373085D01*
X53561027Y-32373085D02*
X53599122Y-32449276D01*
X53599122Y-32449276D02*
X53637217Y-32601657D01*
X53637217Y-32601657D02*
X53637217Y-32792133D01*
X53637217Y-32792133D02*
X53599122Y-32944514D01*
X53599122Y-32944514D02*
X53561027Y-33020704D01*
X53561027Y-33020704D02*
X53522932Y-33058800D01*
X53522932Y-33058800D02*
X53446741Y-33096895D01*
X53446741Y-33096895D02*
X53370551Y-33096895D01*
X53370551Y-33096895D02*
X53294360Y-33058800D01*
X53294360Y-33058800D02*
X53256265Y-33020704D01*
X53256265Y-33020704D02*
X53218170Y-32944514D01*
X53218170Y-32944514D02*
X53180074Y-32792133D01*
X53180074Y-32792133D02*
X53180074Y-32601657D01*
X53180074Y-32601657D02*
X53218170Y-32449276D01*
X53218170Y-32449276D02*
X53256265Y-32373085D01*
X53256265Y-32373085D02*
X53294360Y-32334990D01*
X53294360Y-32334990D02*
X53370551Y-32296895D01*
X54322932Y-32563561D02*
X54322932Y-33096895D01*
X54132456Y-32258800D02*
X53941979Y-32830228D01*
X53941979Y-32830228D02*
X54437218Y-32830228D01*
X54894361Y-32296895D02*
X54970551Y-32296895D01*
X54970551Y-32296895D02*
X55046742Y-32334990D01*
X55046742Y-32334990D02*
X55084837Y-32373085D01*
X55084837Y-32373085D02*
X55122932Y-32449276D01*
X55122932Y-32449276D02*
X55161027Y-32601657D01*
X55161027Y-32601657D02*
X55161027Y-32792133D01*
X55161027Y-32792133D02*
X55122932Y-32944514D01*
X55122932Y-32944514D02*
X55084837Y-33020704D01*
X55084837Y-33020704D02*
X55046742Y-33058800D01*
X55046742Y-33058800D02*
X54970551Y-33096895D01*
X54970551Y-33096895D02*
X54894361Y-33096895D01*
X54894361Y-33096895D02*
X54818170Y-33058800D01*
X54818170Y-33058800D02*
X54780075Y-33020704D01*
X54780075Y-33020704D02*
X54741980Y-32944514D01*
X54741980Y-32944514D02*
X54703884Y-32792133D01*
X54703884Y-32792133D02*
X54703884Y-32601657D01*
X54703884Y-32601657D02*
X54741980Y-32449276D01*
X54741980Y-32449276D02*
X54780075Y-32373085D01*
X54780075Y-32373085D02*
X54818170Y-32334990D01*
X54818170Y-32334990D02*
X54894361Y-32296895D01*
X55503885Y-32792133D02*
X56113409Y-32792133D01*
X56418170Y-32563561D02*
X56837218Y-32563561D01*
X56837218Y-32563561D02*
X56418170Y-33096895D01*
X56418170Y-33096895D02*
X56837218Y-33096895D01*
X57446742Y-33058800D02*
X57370551Y-33096895D01*
X57370551Y-33096895D02*
X57218170Y-33096895D01*
X57218170Y-33096895D02*
X57141980Y-33058800D01*
X57141980Y-33058800D02*
X57103884Y-32982609D01*
X57103884Y-32982609D02*
X57103884Y-32677847D01*
X57103884Y-32677847D02*
X57141980Y-32601657D01*
X57141980Y-32601657D02*
X57218170Y-32563561D01*
X57218170Y-32563561D02*
X57370551Y-32563561D01*
X57370551Y-32563561D02*
X57446742Y-32601657D01*
X57446742Y-32601657D02*
X57484837Y-32677847D01*
X57484837Y-32677847D02*
X57484837Y-32754038D01*
X57484837Y-32754038D02*
X57103884Y-32830228D01*
X57827694Y-33096895D02*
X57827694Y-32563561D01*
X57827694Y-32715942D02*
X57865789Y-32639752D01*
X57865789Y-32639752D02*
X57903884Y-32601657D01*
X57903884Y-32601657D02*
X57980075Y-32563561D01*
X57980075Y-32563561D02*
X58056265Y-32563561D01*
X58437217Y-33096895D02*
X58361027Y-33058800D01*
X58361027Y-33058800D02*
X58322932Y-33020704D01*
X58322932Y-33020704D02*
X58284836Y-32944514D01*
X58284836Y-32944514D02*
X58284836Y-32715942D01*
X58284836Y-32715942D02*
X58322932Y-32639752D01*
X58322932Y-32639752D02*
X58361027Y-32601657D01*
X58361027Y-32601657D02*
X58437217Y-32563561D01*
X58437217Y-32563561D02*
X58551503Y-32563561D01*
X58551503Y-32563561D02*
X58627694Y-32601657D01*
X58627694Y-32601657D02*
X58665789Y-32639752D01*
X58665789Y-32639752D02*
X58703884Y-32715942D01*
X58703884Y-32715942D02*
X58703884Y-32944514D01*
X58703884Y-32944514D02*
X58665789Y-33020704D01*
X58665789Y-33020704D02*
X58627694Y-33058800D01*
X58627694Y-33058800D02*
X58551503Y-33096895D01*
X58551503Y-33096895D02*
X58437217Y-33096895D01*
X17656265Y-19296895D02*
X17656265Y-18496895D01*
X17656265Y-18496895D02*
X17846741Y-18496895D01*
X17846741Y-18496895D02*
X17961027Y-18534990D01*
X17961027Y-18534990D02*
X18037217Y-18611180D01*
X18037217Y-18611180D02*
X18075312Y-18687371D01*
X18075312Y-18687371D02*
X18113408Y-18839752D01*
X18113408Y-18839752D02*
X18113408Y-18954038D01*
X18113408Y-18954038D02*
X18075312Y-19106419D01*
X18075312Y-19106419D02*
X18037217Y-19182609D01*
X18037217Y-19182609D02*
X17961027Y-19258800D01*
X17961027Y-19258800D02*
X17846741Y-19296895D01*
X17846741Y-19296895D02*
X17656265Y-19296895D01*
X18418169Y-18573085D02*
X18456265Y-18534990D01*
X18456265Y-18534990D02*
X18532455Y-18496895D01*
X18532455Y-18496895D02*
X18722931Y-18496895D01*
X18722931Y-18496895D02*
X18799122Y-18534990D01*
X18799122Y-18534990D02*
X18837217Y-18573085D01*
X18837217Y-18573085D02*
X18875312Y-18649276D01*
X18875312Y-18649276D02*
X18875312Y-18725466D01*
X18875312Y-18725466D02*
X18837217Y-18839752D01*
X18837217Y-18839752D02*
X18380074Y-19296895D01*
X18380074Y-19296895D02*
X18875312Y-19296895D01*
X21556265Y-24796895D02*
X21556265Y-23996895D01*
X21556265Y-23996895D02*
X21746741Y-23996895D01*
X21746741Y-23996895D02*
X21861027Y-24034990D01*
X21861027Y-24034990D02*
X21937217Y-24111180D01*
X21937217Y-24111180D02*
X21975312Y-24187371D01*
X21975312Y-24187371D02*
X22013408Y-24339752D01*
X22013408Y-24339752D02*
X22013408Y-24454038D01*
X22013408Y-24454038D02*
X21975312Y-24606419D01*
X21975312Y-24606419D02*
X21937217Y-24682609D01*
X21937217Y-24682609D02*
X21861027Y-24758800D01*
X21861027Y-24758800D02*
X21746741Y-24796895D01*
X21746741Y-24796895D02*
X21556265Y-24796895D01*
X22318169Y-24073085D02*
X22356265Y-24034990D01*
X22356265Y-24034990D02*
X22432455Y-23996895D01*
X22432455Y-23996895D02*
X22622931Y-23996895D01*
X22622931Y-23996895D02*
X22699122Y-24034990D01*
X22699122Y-24034990D02*
X22737217Y-24073085D01*
X22737217Y-24073085D02*
X22775312Y-24149276D01*
X22775312Y-24149276D02*
X22775312Y-24225466D01*
X22775312Y-24225466D02*
X22737217Y-24339752D01*
X22737217Y-24339752D02*
X22280074Y-24796895D01*
X22280074Y-24796895D02*
X22775312Y-24796895D01*
X17656265Y-22096895D02*
X17656265Y-21296895D01*
X17656265Y-21296895D02*
X17846741Y-21296895D01*
X17846741Y-21296895D02*
X17961027Y-21334990D01*
X17961027Y-21334990D02*
X18037217Y-21411180D01*
X18037217Y-21411180D02*
X18075312Y-21487371D01*
X18075312Y-21487371D02*
X18113408Y-21639752D01*
X18113408Y-21639752D02*
X18113408Y-21754038D01*
X18113408Y-21754038D02*
X18075312Y-21906419D01*
X18075312Y-21906419D02*
X18037217Y-21982609D01*
X18037217Y-21982609D02*
X17961027Y-22058800D01*
X17961027Y-22058800D02*
X17846741Y-22096895D01*
X17846741Y-22096895D02*
X17656265Y-22096895D01*
X18380074Y-21296895D02*
X18875312Y-21296895D01*
X18875312Y-21296895D02*
X18608646Y-21601657D01*
X18608646Y-21601657D02*
X18722931Y-21601657D01*
X18722931Y-21601657D02*
X18799122Y-21639752D01*
X18799122Y-21639752D02*
X18837217Y-21677847D01*
X18837217Y-21677847D02*
X18875312Y-21754038D01*
X18875312Y-21754038D02*
X18875312Y-21944514D01*
X18875312Y-21944514D02*
X18837217Y-22020704D01*
X18837217Y-22020704D02*
X18799122Y-22058800D01*
X18799122Y-22058800D02*
X18722931Y-22096895D01*
X18722931Y-22096895D02*
X18494360Y-22096895D01*
X18494360Y-22096895D02*
X18418169Y-22058800D01*
X18418169Y-22058800D02*
X18380074Y-22020704D01*
D11*
X37228344Y-30230971D02*
X35094844Y-30230971D01*
X35094844Y-30230971D02*
X36618772Y-29621305D01*
X36618772Y-29621305D02*
X35094844Y-29011638D01*
X35094844Y-29011638D02*
X37228344Y-29011638D01*
X37126749Y-27443923D02*
X37228344Y-27618114D01*
X37228344Y-27618114D02*
X37228344Y-27966495D01*
X37228344Y-27966495D02*
X37126749Y-28140685D01*
X37126749Y-28140685D02*
X36923558Y-28227781D01*
X36923558Y-28227781D02*
X36110796Y-28227781D01*
X36110796Y-28227781D02*
X35907606Y-28140685D01*
X35907606Y-28140685D02*
X35806010Y-27966495D01*
X35806010Y-27966495D02*
X35806010Y-27618114D01*
X35806010Y-27618114D02*
X35907606Y-27443923D01*
X35907606Y-27443923D02*
X36110796Y-27356828D01*
X36110796Y-27356828D02*
X36313987Y-27356828D01*
X36313987Y-27356828D02*
X36517177Y-28227781D01*
X35806010Y-25789114D02*
X37533129Y-25789114D01*
X37533129Y-25789114D02*
X37736320Y-25876209D01*
X37736320Y-25876209D02*
X37837915Y-25963305D01*
X37837915Y-25963305D02*
X37939510Y-26137495D01*
X37939510Y-26137495D02*
X37939510Y-26398781D01*
X37939510Y-26398781D02*
X37837915Y-26572971D01*
X37126749Y-25789114D02*
X37228344Y-25963305D01*
X37228344Y-25963305D02*
X37228344Y-26311686D01*
X37228344Y-26311686D02*
X37126749Y-26485876D01*
X37126749Y-26485876D02*
X37025153Y-26572971D01*
X37025153Y-26572971D02*
X36821963Y-26660067D01*
X36821963Y-26660067D02*
X36212391Y-26660067D01*
X36212391Y-26660067D02*
X36009201Y-26572971D01*
X36009201Y-26572971D02*
X35907606Y-26485876D01*
X35907606Y-26485876D02*
X35806010Y-26311686D01*
X35806010Y-26311686D02*
X35806010Y-25963305D01*
X35806010Y-25963305D02*
X35907606Y-25789114D01*
X37228344Y-24134304D02*
X36110796Y-24134304D01*
X36110796Y-24134304D02*
X35907606Y-24221399D01*
X35907606Y-24221399D02*
X35806010Y-24395590D01*
X35806010Y-24395590D02*
X35806010Y-24743971D01*
X35806010Y-24743971D02*
X35907606Y-24918161D01*
X37126749Y-24134304D02*
X37228344Y-24308495D01*
X37228344Y-24308495D02*
X37228344Y-24743971D01*
X37228344Y-24743971D02*
X37126749Y-24918161D01*
X37126749Y-24918161D02*
X36923558Y-25005257D01*
X36923558Y-25005257D02*
X36720368Y-25005257D01*
X36720368Y-25005257D02*
X36517177Y-24918161D01*
X36517177Y-24918161D02*
X36415582Y-24743971D01*
X36415582Y-24743971D02*
X36415582Y-24308495D01*
X36415582Y-24308495D02*
X36313987Y-24134304D01*
D12*
X38990484Y-10995489D02*
X38990484Y-12147036D01*
X38990484Y-12147036D02*
X39048531Y-12282512D01*
X39048531Y-12282512D02*
X39106579Y-12350251D01*
X39106579Y-12350251D02*
X39222674Y-12417989D01*
X39222674Y-12417989D02*
X39454865Y-12417989D01*
X39454865Y-12417989D02*
X39570960Y-12350251D01*
X39570960Y-12350251D02*
X39629007Y-12282512D01*
X39629007Y-12282512D02*
X39687055Y-12147036D01*
X39687055Y-12147036D02*
X39687055Y-10995489D01*
X40209484Y-12350251D02*
X40383627Y-12417989D01*
X40383627Y-12417989D02*
X40673865Y-12417989D01*
X40673865Y-12417989D02*
X40789960Y-12350251D01*
X40789960Y-12350251D02*
X40848008Y-12282512D01*
X40848008Y-12282512D02*
X40906055Y-12147036D01*
X40906055Y-12147036D02*
X40906055Y-12011560D01*
X40906055Y-12011560D02*
X40848008Y-11876084D01*
X40848008Y-11876084D02*
X40789960Y-11808346D01*
X40789960Y-11808346D02*
X40673865Y-11740608D01*
X40673865Y-11740608D02*
X40441674Y-11672870D01*
X40441674Y-11672870D02*
X40325579Y-11605131D01*
X40325579Y-11605131D02*
X40267532Y-11537393D01*
X40267532Y-11537393D02*
X40209484Y-11401917D01*
X40209484Y-11401917D02*
X40209484Y-11266441D01*
X40209484Y-11266441D02*
X40267532Y-11130965D01*
X40267532Y-11130965D02*
X40325579Y-11063227D01*
X40325579Y-11063227D02*
X40441674Y-10995489D01*
X40441674Y-10995489D02*
X40731913Y-10995489D01*
X40731913Y-10995489D02*
X40906055Y-11063227D01*
X41834817Y-11672870D02*
X42008960Y-11740608D01*
X42008960Y-11740608D02*
X42067007Y-11808346D01*
X42067007Y-11808346D02*
X42125055Y-11943822D01*
X42125055Y-11943822D02*
X42125055Y-12147036D01*
X42125055Y-12147036D02*
X42067007Y-12282512D01*
X42067007Y-12282512D02*
X42008960Y-12350251D01*
X42008960Y-12350251D02*
X41892865Y-12417989D01*
X41892865Y-12417989D02*
X41428484Y-12417989D01*
X41428484Y-12417989D02*
X41428484Y-10995489D01*
X41428484Y-10995489D02*
X41834817Y-10995489D01*
X41834817Y-10995489D02*
X41950912Y-11063227D01*
X41950912Y-11063227D02*
X42008960Y-11130965D01*
X42008960Y-11130965D02*
X42067007Y-11266441D01*
X42067007Y-11266441D02*
X42067007Y-11401917D01*
X42067007Y-11401917D02*
X42008960Y-11537393D01*
X42008960Y-11537393D02*
X41950912Y-11605131D01*
X41950912Y-11605131D02*
X41834817Y-11672870D01*
X41834817Y-11672870D02*
X41428484Y-11672870D01*
X43402103Y-10995489D02*
X44098674Y-10995489D01*
X43750388Y-12417989D02*
X43750388Y-10995489D01*
X44679150Y-12417989D02*
X44563055Y-12350251D01*
X44563055Y-12350251D02*
X44505008Y-12282512D01*
X44505008Y-12282512D02*
X44446960Y-12147036D01*
X44446960Y-12147036D02*
X44446960Y-11740608D01*
X44446960Y-11740608D02*
X44505008Y-11605131D01*
X44505008Y-11605131D02*
X44563055Y-11537393D01*
X44563055Y-11537393D02*
X44679150Y-11469655D01*
X44679150Y-11469655D02*
X44853293Y-11469655D01*
X44853293Y-11469655D02*
X44969389Y-11537393D01*
X44969389Y-11537393D02*
X45027436Y-11605131D01*
X45027436Y-11605131D02*
X45085484Y-11740608D01*
X45085484Y-11740608D02*
X45085484Y-12147036D01*
X45085484Y-12147036D02*
X45027436Y-12282512D01*
X45027436Y-12282512D02*
X44969389Y-12350251D01*
X44969389Y-12350251D02*
X44853293Y-12417989D01*
X44853293Y-12417989D02*
X44679150Y-12417989D01*
X46478627Y-12350251D02*
X46652770Y-12417989D01*
X46652770Y-12417989D02*
X46943008Y-12417989D01*
X46943008Y-12417989D02*
X47059103Y-12350251D01*
X47059103Y-12350251D02*
X47117151Y-12282512D01*
X47117151Y-12282512D02*
X47175198Y-12147036D01*
X47175198Y-12147036D02*
X47175198Y-12011560D01*
X47175198Y-12011560D02*
X47117151Y-11876084D01*
X47117151Y-11876084D02*
X47059103Y-11808346D01*
X47059103Y-11808346D02*
X46943008Y-11740608D01*
X46943008Y-11740608D02*
X46710817Y-11672870D01*
X46710817Y-11672870D02*
X46594722Y-11605131D01*
X46594722Y-11605131D02*
X46536675Y-11537393D01*
X46536675Y-11537393D02*
X46478627Y-11401917D01*
X46478627Y-11401917D02*
X46478627Y-11266441D01*
X46478627Y-11266441D02*
X46536675Y-11130965D01*
X46536675Y-11130965D02*
X46594722Y-11063227D01*
X46594722Y-11063227D02*
X46710817Y-10995489D01*
X46710817Y-10995489D02*
X47001056Y-10995489D01*
X47001056Y-10995489D02*
X47175198Y-11063227D01*
X48162008Y-12350251D02*
X48045912Y-12417989D01*
X48045912Y-12417989D02*
X47813722Y-12417989D01*
X47813722Y-12417989D02*
X47697627Y-12350251D01*
X47697627Y-12350251D02*
X47639579Y-12214774D01*
X47639579Y-12214774D02*
X47639579Y-11672870D01*
X47639579Y-11672870D02*
X47697627Y-11537393D01*
X47697627Y-11537393D02*
X47813722Y-11469655D01*
X47813722Y-11469655D02*
X48045912Y-11469655D01*
X48045912Y-11469655D02*
X48162008Y-11537393D01*
X48162008Y-11537393D02*
X48220055Y-11672870D01*
X48220055Y-11672870D02*
X48220055Y-11808346D01*
X48220055Y-11808346D02*
X47639579Y-11943822D01*
X49264912Y-11469655D02*
X49264912Y-12621203D01*
X49264912Y-12621203D02*
X49206865Y-12756679D01*
X49206865Y-12756679D02*
X49148817Y-12824417D01*
X49148817Y-12824417D02*
X49032722Y-12892155D01*
X49032722Y-12892155D02*
X48858579Y-12892155D01*
X48858579Y-12892155D02*
X48742484Y-12824417D01*
X49264912Y-12350251D02*
X49148817Y-12417989D01*
X49148817Y-12417989D02*
X48916626Y-12417989D01*
X48916626Y-12417989D02*
X48800531Y-12350251D01*
X48800531Y-12350251D02*
X48742484Y-12282512D01*
X48742484Y-12282512D02*
X48684436Y-12147036D01*
X48684436Y-12147036D02*
X48684436Y-11740608D01*
X48684436Y-11740608D02*
X48742484Y-11605131D01*
X48742484Y-11605131D02*
X48800531Y-11537393D01*
X48800531Y-11537393D02*
X48916626Y-11469655D01*
X48916626Y-11469655D02*
X49148817Y-11469655D01*
X49148817Y-11469655D02*
X49264912Y-11537393D01*
X50367817Y-12417989D02*
X50367817Y-11672870D01*
X50367817Y-11672870D02*
X50309770Y-11537393D01*
X50309770Y-11537393D02*
X50193674Y-11469655D01*
X50193674Y-11469655D02*
X49961484Y-11469655D01*
X49961484Y-11469655D02*
X49845389Y-11537393D01*
X50367817Y-12350251D02*
X50251722Y-12417989D01*
X50251722Y-12417989D02*
X49961484Y-12417989D01*
X49961484Y-12417989D02*
X49845389Y-12350251D01*
X49845389Y-12350251D02*
X49787341Y-12214774D01*
X49787341Y-12214774D02*
X49787341Y-12079298D01*
X49787341Y-12079298D02*
X49845389Y-11943822D01*
X49845389Y-11943822D02*
X49961484Y-11876084D01*
X49961484Y-11876084D02*
X50251722Y-11876084D01*
X50251722Y-11876084D02*
X50367817Y-11808346D01*
X51877056Y-12417989D02*
X51877056Y-10995489D01*
X51877056Y-10995489D02*
X52283389Y-12011560D01*
X52283389Y-12011560D02*
X52689722Y-10995489D01*
X52689722Y-10995489D02*
X52689722Y-12417989D01*
X53270199Y-12417989D02*
X53270199Y-11469655D01*
X53270199Y-10995489D02*
X53212151Y-11063227D01*
X53212151Y-11063227D02*
X53270199Y-11130965D01*
X53270199Y-11130965D02*
X53328246Y-11063227D01*
X53328246Y-11063227D02*
X53270199Y-10995489D01*
X53270199Y-10995489D02*
X53270199Y-11130965D01*
X53850675Y-11469655D02*
X53850675Y-12417989D01*
X53850675Y-11605131D02*
X53908722Y-11537393D01*
X53908722Y-11537393D02*
X54024817Y-11469655D01*
X54024817Y-11469655D02*
X54198960Y-11469655D01*
X54198960Y-11469655D02*
X54315056Y-11537393D01*
X54315056Y-11537393D02*
X54373103Y-11672870D01*
X54373103Y-11672870D02*
X54373103Y-12417989D01*
X54953580Y-12417989D02*
X54953580Y-11469655D01*
X54953580Y-10995489D02*
X54895532Y-11063227D01*
X54895532Y-11063227D02*
X54953580Y-11130965D01*
X54953580Y-11130965D02*
X55011627Y-11063227D01*
X55011627Y-11063227D02*
X54953580Y-10995489D01*
X54953580Y-10995489D02*
X54953580Y-11130965D01*
D13*
X17757252Y-16496817D02*
X17757252Y-15696817D01*
X17757252Y-15696817D02*
X17947728Y-15696817D01*
X17947728Y-15696817D02*
X18062014Y-15734912D01*
X18062014Y-15734912D02*
X18138204Y-15811102D01*
X18138204Y-15811102D02*
X18176299Y-15887293D01*
X18176299Y-15887293D02*
X18214395Y-16039674D01*
X18214395Y-16039674D02*
X18214395Y-16153960D01*
X18214395Y-16153960D02*
X18176299Y-16306341D01*
X18176299Y-16306341D02*
X18138204Y-16382531D01*
X18138204Y-16382531D02*
X18062014Y-16458722D01*
X18062014Y-16458722D02*
X17947728Y-16496817D01*
X17947728Y-16496817D02*
X17757252Y-16496817D01*
X18976299Y-16496817D02*
X18519156Y-16496817D01*
X18747728Y-16496817D02*
X18747728Y-15696817D01*
X18747728Y-15696817D02*
X18671537Y-15811102D01*
X18671537Y-15811102D02*
X18595347Y-15887293D01*
X18595347Y-15887293D02*
X18519156Y-15925388D01*
D10*
X17756265Y-13696895D02*
X17756265Y-12896895D01*
X17756265Y-12896895D02*
X17946741Y-12896895D01*
X17946741Y-12896895D02*
X18061027Y-12934990D01*
X18061027Y-12934990D02*
X18137217Y-13011180D01*
X18137217Y-13011180D02*
X18175312Y-13087371D01*
X18175312Y-13087371D02*
X18213408Y-13239752D01*
X18213408Y-13239752D02*
X18213408Y-13354038D01*
X18213408Y-13354038D02*
X18175312Y-13506419D01*
X18175312Y-13506419D02*
X18137217Y-13582609D01*
X18137217Y-13582609D02*
X18061027Y-13658800D01*
X18061027Y-13658800D02*
X17946741Y-13696895D01*
X17946741Y-13696895D02*
X17756265Y-13696895D01*
X18708646Y-12896895D02*
X18784836Y-12896895D01*
X18784836Y-12896895D02*
X18861027Y-12934990D01*
X18861027Y-12934990D02*
X18899122Y-12973085D01*
X18899122Y-12973085D02*
X18937217Y-13049276D01*
X18937217Y-13049276D02*
X18975312Y-13201657D01*
X18975312Y-13201657D02*
X18975312Y-13392133D01*
X18975312Y-13392133D02*
X18937217Y-13544514D01*
X18937217Y-13544514D02*
X18899122Y-13620704D01*
X18899122Y-13620704D02*
X18861027Y-13658800D01*
X18861027Y-13658800D02*
X18784836Y-13696895D01*
X18784836Y-13696895D02*
X18708646Y-13696895D01*
X18708646Y-13696895D02*
X18632455Y-13658800D01*
X18632455Y-13658800D02*
X18594360Y-13620704D01*
X18594360Y-13620704D02*
X18556265Y-13544514D01*
X18556265Y-13544514D02*
X18518169Y-13392133D01*
X18518169Y-13392133D02*
X18518169Y-13201657D01*
X18518169Y-13201657D02*
X18556265Y-13049276D01*
X18556265Y-13049276D02*
X18594360Y-12973085D01*
X18594360Y-12973085D02*
X18632455Y-12934990D01*
X18632455Y-12934990D02*
X18708646Y-12896895D01*
X21556265Y-22696895D02*
X21556265Y-21896895D01*
X21556265Y-21896895D02*
X21746741Y-21896895D01*
X21746741Y-21896895D02*
X21861027Y-21934990D01*
X21861027Y-21934990D02*
X21937217Y-22011180D01*
X21937217Y-22011180D02*
X21975312Y-22087371D01*
X21975312Y-22087371D02*
X22013408Y-22239752D01*
X22013408Y-22239752D02*
X22013408Y-22354038D01*
X22013408Y-22354038D02*
X21975312Y-22506419D01*
X21975312Y-22506419D02*
X21937217Y-22582609D01*
X21937217Y-22582609D02*
X21861027Y-22658800D01*
X21861027Y-22658800D02*
X21746741Y-22696895D01*
X21746741Y-22696895D02*
X21556265Y-22696895D01*
X22280074Y-21896895D02*
X22775312Y-21896895D01*
X22775312Y-21896895D02*
X22508646Y-22201657D01*
X22508646Y-22201657D02*
X22622931Y-22201657D01*
X22622931Y-22201657D02*
X22699122Y-22239752D01*
X22699122Y-22239752D02*
X22737217Y-22277847D01*
X22737217Y-22277847D02*
X22775312Y-22354038D01*
X22775312Y-22354038D02*
X22775312Y-22544514D01*
X22775312Y-22544514D02*
X22737217Y-22620704D01*
X22737217Y-22620704D02*
X22699122Y-22658800D01*
X22699122Y-22658800D02*
X22622931Y-22696895D01*
X22622931Y-22696895D02*
X22394360Y-22696895D01*
X22394360Y-22696895D02*
X22318169Y-22658800D01*
X22318169Y-22658800D02*
X22280074Y-22620704D01*
X20957217Y-10272895D02*
X20576265Y-10272895D01*
X20576265Y-10272895D02*
X20538169Y-10653847D01*
X20538169Y-10653847D02*
X20576265Y-10615752D01*
X20576265Y-10615752D02*
X20652455Y-10577657D01*
X20652455Y-10577657D02*
X20842931Y-10577657D01*
X20842931Y-10577657D02*
X20919122Y-10615752D01*
X20919122Y-10615752D02*
X20957217Y-10653847D01*
X20957217Y-10653847D02*
X20995312Y-10730038D01*
X20995312Y-10730038D02*
X20995312Y-10920514D01*
X20995312Y-10920514D02*
X20957217Y-10996704D01*
X20957217Y-10996704D02*
X20919122Y-11034800D01*
X20919122Y-11034800D02*
X20842931Y-11072895D01*
X20842931Y-11072895D02*
X20652455Y-11072895D01*
X20652455Y-11072895D02*
X20576265Y-11034800D01*
X20576265Y-11034800D02*
X20538169Y-10996704D01*
X21223884Y-10272895D02*
X21490551Y-11072895D01*
X21490551Y-11072895D02*
X21757217Y-10272895D01*
X21256265Y-12596895D02*
X21256265Y-11796895D01*
X21256265Y-11796895D02*
X21446741Y-11796895D01*
X21446741Y-11796895D02*
X21561027Y-11834990D01*
X21561027Y-11834990D02*
X21637217Y-11911180D01*
X21637217Y-11911180D02*
X21675312Y-11987371D01*
X21675312Y-11987371D02*
X21713408Y-12139752D01*
X21713408Y-12139752D02*
X21713408Y-12254038D01*
X21713408Y-12254038D02*
X21675312Y-12406419D01*
X21675312Y-12406419D02*
X21637217Y-12482609D01*
X21637217Y-12482609D02*
X21561027Y-12558800D01*
X21561027Y-12558800D02*
X21446741Y-12596895D01*
X21446741Y-12596895D02*
X21256265Y-12596895D01*
X22475312Y-12596895D02*
X22018169Y-12596895D01*
X22246741Y-12596895D02*
X22246741Y-11796895D01*
X22246741Y-11796895D02*
X22170550Y-11911180D01*
X22170550Y-11911180D02*
X22094360Y-11987371D01*
X22094360Y-11987371D02*
X22018169Y-12025466D01*
X14741979Y-22596895D02*
X15199122Y-22596895D01*
X14970550Y-23396895D02*
X14970550Y-22596895D01*
X15922932Y-23396895D02*
X15656265Y-23015942D01*
X15465789Y-23396895D02*
X15465789Y-22596895D01*
X15465789Y-22596895D02*
X15770551Y-22596895D01*
X15770551Y-22596895D02*
X15846741Y-22634990D01*
X15846741Y-22634990D02*
X15884836Y-22673085D01*
X15884836Y-22673085D02*
X15922932Y-22749276D01*
X15922932Y-22749276D02*
X15922932Y-22863561D01*
X15922932Y-22863561D02*
X15884836Y-22939752D01*
X15884836Y-22939752D02*
X15846741Y-22977847D01*
X15846741Y-22977847D02*
X15770551Y-23015942D01*
X15770551Y-23015942D02*
X15465789Y-23015942D01*
X52813408Y-7320704D02*
X52775312Y-7358800D01*
X52775312Y-7358800D02*
X52661027Y-7396895D01*
X52661027Y-7396895D02*
X52584836Y-7396895D01*
X52584836Y-7396895D02*
X52470550Y-7358800D01*
X52470550Y-7358800D02*
X52394360Y-7282609D01*
X52394360Y-7282609D02*
X52356265Y-7206419D01*
X52356265Y-7206419D02*
X52318169Y-7054038D01*
X52318169Y-7054038D02*
X52318169Y-6939752D01*
X52318169Y-6939752D02*
X52356265Y-6787371D01*
X52356265Y-6787371D02*
X52394360Y-6711180D01*
X52394360Y-6711180D02*
X52470550Y-6634990D01*
X52470550Y-6634990D02*
X52584836Y-6596895D01*
X52584836Y-6596895D02*
X52661027Y-6596895D01*
X52661027Y-6596895D02*
X52775312Y-6634990D01*
X52775312Y-6634990D02*
X52813408Y-6673085D01*
X53156265Y-7092133D02*
X53765789Y-7092133D01*
X53461027Y-7396895D02*
X53461027Y-6787371D01*
X54527693Y-6596895D02*
X54146741Y-6596895D01*
X54146741Y-6596895D02*
X54108645Y-6977847D01*
X54108645Y-6977847D02*
X54146741Y-6939752D01*
X54146741Y-6939752D02*
X54222931Y-6901657D01*
X54222931Y-6901657D02*
X54413407Y-6901657D01*
X54413407Y-6901657D02*
X54489598Y-6939752D01*
X54489598Y-6939752D02*
X54527693Y-6977847D01*
X54527693Y-6977847D02*
X54565788Y-7054038D01*
X54565788Y-7054038D02*
X54565788Y-7244514D01*
X54565788Y-7244514D02*
X54527693Y-7320704D01*
X54527693Y-7320704D02*
X54489598Y-7358800D01*
X54489598Y-7358800D02*
X54413407Y-7396895D01*
X54413407Y-7396895D02*
X54222931Y-7396895D01*
X54222931Y-7396895D02*
X54146741Y-7358800D01*
X54146741Y-7358800D02*
X54108645Y-7320704D01*
X54794360Y-6596895D02*
X55061027Y-7396895D01*
X55061027Y-7396895D02*
X55327693Y-6596895D01*
X56203884Y-6863561D02*
X55594360Y-7092133D01*
X55594360Y-7092133D02*
X56203884Y-7320704D01*
X57194360Y-6863561D02*
X57803884Y-7092133D01*
X57803884Y-7092133D02*
X57194360Y-7320704D01*
X58184836Y-6977847D02*
X58451502Y-6977847D01*
X58565788Y-7396895D02*
X58184836Y-7396895D01*
X58184836Y-7396895D02*
X58184836Y-6596895D01*
X58184836Y-6596895D02*
X58565788Y-6596895D01*
X58832455Y-6596895D02*
X59365789Y-7396895D01*
X59365789Y-6596895D02*
X58832455Y-7396895D01*
X59556265Y-6596895D02*
X60013408Y-6596895D01*
X59784836Y-7396895D02*
X59784836Y-6596895D01*
X60661027Y-6596895D02*
X60280075Y-6596895D01*
X60280075Y-6596895D02*
X60241979Y-6977847D01*
X60241979Y-6977847D02*
X60280075Y-6939752D01*
X60280075Y-6939752D02*
X60356265Y-6901657D01*
X60356265Y-6901657D02*
X60546741Y-6901657D01*
X60546741Y-6901657D02*
X60622932Y-6939752D01*
X60622932Y-6939752D02*
X60661027Y-6977847D01*
X60661027Y-6977847D02*
X60699122Y-7054038D01*
X60699122Y-7054038D02*
X60699122Y-7244514D01*
X60699122Y-7244514D02*
X60661027Y-7320704D01*
X60661027Y-7320704D02*
X60622932Y-7358800D01*
X60622932Y-7358800D02*
X60546741Y-7396895D01*
X60546741Y-7396895D02*
X60356265Y-7396895D01*
X60356265Y-7396895D02*
X60280075Y-7358800D01*
X60280075Y-7358800D02*
X60241979Y-7320704D01*
X60927694Y-6596895D02*
X61194361Y-7396895D01*
X61194361Y-7396895D02*
X61461027Y-6596895D01*
X21256265Y-14396895D02*
X21256265Y-13596895D01*
X21256265Y-13596895D02*
X21446741Y-13596895D01*
X21446741Y-13596895D02*
X21561027Y-13634990D01*
X21561027Y-13634990D02*
X21637217Y-13711180D01*
X21637217Y-13711180D02*
X21675312Y-13787371D01*
X21675312Y-13787371D02*
X21713408Y-13939752D01*
X21713408Y-13939752D02*
X21713408Y-14054038D01*
X21713408Y-14054038D02*
X21675312Y-14206419D01*
X21675312Y-14206419D02*
X21637217Y-14282609D01*
X21637217Y-14282609D02*
X21561027Y-14358800D01*
X21561027Y-14358800D02*
X21446741Y-14396895D01*
X21446741Y-14396895D02*
X21256265Y-14396895D01*
X22208646Y-13596895D02*
X22284836Y-13596895D01*
X22284836Y-13596895D02*
X22361027Y-13634990D01*
X22361027Y-13634990D02*
X22399122Y-13673085D01*
X22399122Y-13673085D02*
X22437217Y-13749276D01*
X22437217Y-13749276D02*
X22475312Y-13901657D01*
X22475312Y-13901657D02*
X22475312Y-14092133D01*
X22475312Y-14092133D02*
X22437217Y-14244514D01*
X22437217Y-14244514D02*
X22399122Y-14320704D01*
X22399122Y-14320704D02*
X22361027Y-14358800D01*
X22361027Y-14358800D02*
X22284836Y-14396895D01*
X22284836Y-14396895D02*
X22208646Y-14396895D01*
X22208646Y-14396895D02*
X22132455Y-14358800D01*
X22132455Y-14358800D02*
X22094360Y-14320704D01*
X22094360Y-14320704D02*
X22056265Y-14244514D01*
X22056265Y-14244514D02*
X22018169Y-14092133D01*
X22018169Y-14092133D02*
X22018169Y-13901657D01*
X22018169Y-13901657D02*
X22056265Y-13749276D01*
X22056265Y-13749276D02*
X22094360Y-13673085D01*
X22094360Y-13673085D02*
X22132455Y-13634990D01*
X22132455Y-13634990D02*
X22208646Y-13596895D01*
X14741979Y-17096895D02*
X15199122Y-17096895D01*
X14970550Y-17896895D02*
X14970550Y-17096895D01*
X15465789Y-17896895D02*
X15465789Y-17096895D01*
X15465789Y-17477847D02*
X15922932Y-17477847D01*
X15922932Y-17896895D02*
X15922932Y-17096895D01*
D13*
X21442966Y-17896817D02*
X21900109Y-17896817D01*
X21671537Y-18696817D02*
X21671537Y-17896817D01*
X22623919Y-18696817D02*
X22357252Y-18315864D01*
X22166776Y-18696817D02*
X22166776Y-17896817D01*
X22166776Y-17896817D02*
X22471538Y-17896817D01*
X22471538Y-17896817D02*
X22547728Y-17934912D01*
X22547728Y-17934912D02*
X22585823Y-17973007D01*
X22585823Y-17973007D02*
X22623919Y-18049198D01*
X22623919Y-18049198D02*
X22623919Y-18163483D01*
X22623919Y-18163483D02*
X22585823Y-18239674D01*
X22585823Y-18239674D02*
X22547728Y-18277769D01*
X22547728Y-18277769D02*
X22471538Y-18315864D01*
X22471538Y-18315864D02*
X22166776Y-18315864D01*
D10*
X18037217Y-24096895D02*
X17656265Y-24096895D01*
X17656265Y-24096895D02*
X17618169Y-24477847D01*
X17618169Y-24477847D02*
X17656265Y-24439752D01*
X17656265Y-24439752D02*
X17732455Y-24401657D01*
X17732455Y-24401657D02*
X17922931Y-24401657D01*
X17922931Y-24401657D02*
X17999122Y-24439752D01*
X17999122Y-24439752D02*
X18037217Y-24477847D01*
X18037217Y-24477847D02*
X18075312Y-24554038D01*
X18075312Y-24554038D02*
X18075312Y-24744514D01*
X18075312Y-24744514D02*
X18037217Y-24820704D01*
X18037217Y-24820704D02*
X17999122Y-24858800D01*
X17999122Y-24858800D02*
X17922931Y-24896895D01*
X17922931Y-24896895D02*
X17732455Y-24896895D01*
X17732455Y-24896895D02*
X17656265Y-24858800D01*
X17656265Y-24858800D02*
X17618169Y-24820704D01*
X18303884Y-24096895D02*
X18570551Y-24896895D01*
X18570551Y-24896895D02*
X18837217Y-24096895D01*
X21441979Y-19896895D02*
X21899122Y-19896895D01*
X21670550Y-20696895D02*
X21670550Y-19896895D01*
X22546741Y-20696895D02*
X22165789Y-20696895D01*
X22165789Y-20696895D02*
X22165789Y-19896895D01*
D11*
X21343075Y-30142586D02*
X21009742Y-29571158D01*
X20771647Y-30142586D02*
X20771647Y-28942586D01*
X20771647Y-28942586D02*
X21152599Y-28942586D01*
X21152599Y-28942586D02*
X21247837Y-28999729D01*
X21247837Y-28999729D02*
X21295456Y-29056872D01*
X21295456Y-29056872D02*
X21343075Y-29171158D01*
X21343075Y-29171158D02*
X21343075Y-29342586D01*
X21343075Y-29342586D02*
X21295456Y-29456872D01*
X21295456Y-29456872D02*
X21247837Y-29514015D01*
X21247837Y-29514015D02*
X21152599Y-29571158D01*
X21152599Y-29571158D02*
X20771647Y-29571158D01*
X21771647Y-29514015D02*
X22104980Y-29514015D01*
X22247837Y-30142586D02*
X21771647Y-30142586D01*
X21771647Y-30142586D02*
X21771647Y-28942586D01*
X21771647Y-28942586D02*
X22247837Y-28942586D01*
X22533552Y-28942586D02*
X22866885Y-30142586D01*
X22866885Y-30142586D02*
X23200218Y-28942586D01*
X24485933Y-28942586D02*
X24581171Y-28942586D01*
X24581171Y-28942586D02*
X24676409Y-28999729D01*
X24676409Y-28999729D02*
X24724028Y-29056872D01*
X24724028Y-29056872D02*
X24771647Y-29171158D01*
X24771647Y-29171158D02*
X24819266Y-29399729D01*
X24819266Y-29399729D02*
X24819266Y-29685444D01*
X24819266Y-29685444D02*
X24771647Y-29914015D01*
X24771647Y-29914015D02*
X24724028Y-30028301D01*
X24724028Y-30028301D02*
X24676409Y-30085444D01*
X24676409Y-30085444D02*
X24581171Y-30142586D01*
X24581171Y-30142586D02*
X24485933Y-30142586D01*
X24485933Y-30142586D02*
X24390695Y-30085444D01*
X24390695Y-30085444D02*
X24343076Y-30028301D01*
X24343076Y-30028301D02*
X24295457Y-29914015D01*
X24295457Y-29914015D02*
X24247838Y-29685444D01*
X24247838Y-29685444D02*
X24247838Y-29399729D01*
X24247838Y-29399729D02*
X24295457Y-29171158D01*
X24295457Y-29171158D02*
X24343076Y-29056872D01*
X24343076Y-29056872D02*
X24390695Y-28999729D01*
X24390695Y-28999729D02*
X24485933Y-28942586D01*
X25247838Y-30028301D02*
X25295457Y-30085444D01*
X25295457Y-30085444D02*
X25247838Y-30142586D01*
X25247838Y-30142586D02*
X25200219Y-30085444D01*
X25200219Y-30085444D02*
X25247838Y-30028301D01*
X25247838Y-30028301D02*
X25247838Y-30142586D01*
X26200218Y-28942586D02*
X25724028Y-28942586D01*
X25724028Y-28942586D02*
X25676409Y-29514015D01*
X25676409Y-29514015D02*
X25724028Y-29456872D01*
X25724028Y-29456872D02*
X25819266Y-29399729D01*
X25819266Y-29399729D02*
X26057361Y-29399729D01*
X26057361Y-29399729D02*
X26152599Y-29456872D01*
X26152599Y-29456872D02*
X26200218Y-29514015D01*
X26200218Y-29514015D02*
X26247837Y-29628301D01*
X26247837Y-29628301D02*
X26247837Y-29914015D01*
X26247837Y-29914015D02*
X26200218Y-30028301D01*
X26200218Y-30028301D02*
X26152599Y-30085444D01*
X26152599Y-30085444D02*
X26057361Y-30142586D01*
X26057361Y-30142586D02*
X25819266Y-30142586D01*
X25819266Y-30142586D02*
X25724028Y-30085444D01*
X25724028Y-30085444D02*
X25676409Y-30028301D01*
D10*
X14841979Y-14296895D02*
X15299122Y-14296895D01*
X15070550Y-15096895D02*
X15070550Y-14296895D01*
X15946741Y-15096895D02*
X15565789Y-15096895D01*
X15565789Y-15096895D02*
X15565789Y-14296895D01*
D14*
X14765444Y-19935770D02*
X14689254Y-19897675D01*
X14689254Y-19897675D02*
X14574968Y-19897675D01*
X14574968Y-19897675D02*
X14460682Y-19935770D01*
X14460682Y-19935770D02*
X14384492Y-20011960D01*
X14384492Y-20011960D02*
X14346397Y-20088151D01*
X14346397Y-20088151D02*
X14308301Y-20240532D01*
X14308301Y-20240532D02*
X14308301Y-20354818D01*
X14308301Y-20354818D02*
X14346397Y-20507199D01*
X14346397Y-20507199D02*
X14384492Y-20583389D01*
X14384492Y-20583389D02*
X14460682Y-20659580D01*
X14460682Y-20659580D02*
X14574968Y-20697675D01*
X14574968Y-20697675D02*
X14651159Y-20697675D01*
X14651159Y-20697675D02*
X14765444Y-20659580D01*
X14765444Y-20659580D02*
X14803540Y-20621484D01*
X14803540Y-20621484D02*
X14803540Y-20354818D01*
X14803540Y-20354818D02*
X14651159Y-20354818D01*
X15146397Y-20697675D02*
X15146397Y-19897675D01*
X15146397Y-19897675D02*
X15603540Y-20697675D01*
X15603540Y-20697675D02*
X15603540Y-19897675D01*
X15984492Y-20697675D02*
X15984492Y-19897675D01*
X15984492Y-19897675D02*
X16174968Y-19897675D01*
X16174968Y-19897675D02*
X16289254Y-19935770D01*
X16289254Y-19935770D02*
X16365444Y-20011960D01*
X16365444Y-20011960D02*
X16403539Y-20088151D01*
X16403539Y-20088151D02*
X16441635Y-20240532D01*
X16441635Y-20240532D02*
X16441635Y-20354818D01*
X16441635Y-20354818D02*
X16403539Y-20507199D01*
X16403539Y-20507199D02*
X16365444Y-20583389D01*
X16365444Y-20583389D02*
X16289254Y-20659580D01*
X16289254Y-20659580D02*
X16174968Y-20697675D01*
X16174968Y-20697675D02*
X15984492Y-20697675D01*
D10*
X21441979Y-15996895D02*
X21899122Y-15996895D01*
X21670550Y-16796895D02*
X21670550Y-15996895D01*
X22165789Y-16796895D02*
X22165789Y-15996895D01*
X22165789Y-16377847D02*
X22622932Y-16377847D01*
X22622932Y-16796895D02*
X22622932Y-15996895D01*
D13*
X29614141Y-7815485D02*
X28547141Y-7815485D01*
X28547141Y-7815485D02*
X28547141Y-7467104D01*
X28547141Y-7467104D02*
X28597951Y-7380009D01*
X28597951Y-7380009D02*
X28648760Y-7336462D01*
X28648760Y-7336462D02*
X28750379Y-7292914D01*
X28750379Y-7292914D02*
X28902808Y-7292914D01*
X28902808Y-7292914D02*
X29004427Y-7336462D01*
X29004427Y-7336462D02*
X29055236Y-7380009D01*
X29055236Y-7380009D02*
X29106046Y-7467104D01*
X29106046Y-7467104D02*
X29106046Y-7815485D01*
X29614141Y-6770343D02*
X29563332Y-6857438D01*
X29563332Y-6857438D02*
X29512522Y-6900985D01*
X29512522Y-6900985D02*
X29410903Y-6944533D01*
X29410903Y-6944533D02*
X29106046Y-6944533D01*
X29106046Y-6944533D02*
X29004427Y-6900985D01*
X29004427Y-6900985D02*
X28953617Y-6857438D01*
X28953617Y-6857438D02*
X28902808Y-6770343D01*
X28902808Y-6770343D02*
X28902808Y-6639700D01*
X28902808Y-6639700D02*
X28953617Y-6552604D01*
X28953617Y-6552604D02*
X29004427Y-6509057D01*
X29004427Y-6509057D02*
X29106046Y-6465509D01*
X29106046Y-6465509D02*
X29410903Y-6465509D01*
X29410903Y-6465509D02*
X29512522Y-6509057D01*
X29512522Y-6509057D02*
X29563332Y-6552604D01*
X29563332Y-6552604D02*
X29614141Y-6639700D01*
X29614141Y-6639700D02*
X29614141Y-6770343D01*
X28902808Y-6160676D02*
X29614141Y-5986485D01*
X29614141Y-5986485D02*
X29106046Y-5812295D01*
X29106046Y-5812295D02*
X29614141Y-5638104D01*
X29614141Y-5638104D02*
X28902808Y-5463914D01*
X29563332Y-4767151D02*
X29614141Y-4854247D01*
X29614141Y-4854247D02*
X29614141Y-5028437D01*
X29614141Y-5028437D02*
X29563332Y-5115532D01*
X29563332Y-5115532D02*
X29461712Y-5159080D01*
X29461712Y-5159080D02*
X29055236Y-5159080D01*
X29055236Y-5159080D02*
X28953617Y-5115532D01*
X28953617Y-5115532D02*
X28902808Y-5028437D01*
X28902808Y-5028437D02*
X28902808Y-4854247D01*
X28902808Y-4854247D02*
X28953617Y-4767151D01*
X28953617Y-4767151D02*
X29055236Y-4723604D01*
X29055236Y-4723604D02*
X29156855Y-4723604D01*
X29156855Y-4723604D02*
X29258474Y-5159080D01*
X29614141Y-4331675D02*
X28902808Y-4331675D01*
X29106046Y-4331675D02*
X29004427Y-4288128D01*
X29004427Y-4288128D02*
X28953617Y-4244580D01*
X28953617Y-4244580D02*
X28902808Y-4157485D01*
X28902808Y-4157485D02*
X28902808Y-4070390D01*
X29614141Y-3068794D02*
X28547141Y-3068794D01*
X28902808Y-2633318D02*
X29614141Y-2633318D01*
X29004427Y-2633318D02*
X28953617Y-2589771D01*
X28953617Y-2589771D02*
X28902808Y-2502676D01*
X28902808Y-2502676D02*
X28902808Y-2372033D01*
X28902808Y-2372033D02*
X28953617Y-2284937D01*
X28953617Y-2284937D02*
X29055236Y-2241390D01*
X29055236Y-2241390D02*
X29614141Y-2241390D01*
D10*
X21175312Y-26134990D02*
X21099122Y-26096895D01*
X21099122Y-26096895D02*
X20984836Y-26096895D01*
X20984836Y-26096895D02*
X20870550Y-26134990D01*
X20870550Y-26134990D02*
X20794360Y-26211180D01*
X20794360Y-26211180D02*
X20756265Y-26287371D01*
X20756265Y-26287371D02*
X20718169Y-26439752D01*
X20718169Y-26439752D02*
X20718169Y-26554038D01*
X20718169Y-26554038D02*
X20756265Y-26706419D01*
X20756265Y-26706419D02*
X20794360Y-26782609D01*
X20794360Y-26782609D02*
X20870550Y-26858800D01*
X20870550Y-26858800D02*
X20984836Y-26896895D01*
X20984836Y-26896895D02*
X21061027Y-26896895D01*
X21061027Y-26896895D02*
X21175312Y-26858800D01*
X21175312Y-26858800D02*
X21213408Y-26820704D01*
X21213408Y-26820704D02*
X21213408Y-26554038D01*
X21213408Y-26554038D02*
X21061027Y-26554038D01*
X21556265Y-26896895D02*
X21556265Y-26096895D01*
X21556265Y-26096895D02*
X22013408Y-26896895D01*
X22013408Y-26896895D02*
X22013408Y-26096895D01*
X22394360Y-26896895D02*
X22394360Y-26096895D01*
X22394360Y-26096895D02*
X22584836Y-26096895D01*
X22584836Y-26096895D02*
X22699122Y-26134990D01*
X22699122Y-26134990D02*
X22775312Y-26211180D01*
X22775312Y-26211180D02*
X22813407Y-26287371D01*
X22813407Y-26287371D02*
X22851503Y-26439752D01*
X22851503Y-26439752D02*
X22851503Y-26554038D01*
X22851503Y-26554038D02*
X22813407Y-26706419D01*
X22813407Y-26706419D02*
X22775312Y-26782609D01*
X22775312Y-26782609D02*
X22699122Y-26858800D01*
X22699122Y-26858800D02*
X22584836Y-26896895D01*
X22584836Y-26896895D02*
X22394360Y-26896895D01*
D15*
X26883333Y-23654819D02*
X26550000Y-23178628D01*
X26311905Y-23654819D02*
X26311905Y-22654819D01*
X26311905Y-22654819D02*
X26692857Y-22654819D01*
X26692857Y-22654819D02*
X26788095Y-22702438D01*
X26788095Y-22702438D02*
X26835714Y-22750057D01*
X26835714Y-22750057D02*
X26883333Y-22845295D01*
X26883333Y-22845295D02*
X26883333Y-22988152D01*
X26883333Y-22988152D02*
X26835714Y-23083390D01*
X26835714Y-23083390D02*
X26788095Y-23131009D01*
X26788095Y-23131009D02*
X26692857Y-23178628D01*
X26692857Y-23178628D02*
X26311905Y-23178628D01*
X27454762Y-23083390D02*
X27359524Y-23035771D01*
X27359524Y-23035771D02*
X27311905Y-22988152D01*
X27311905Y-22988152D02*
X27264286Y-22892914D01*
X27264286Y-22892914D02*
X27264286Y-22845295D01*
X27264286Y-22845295D02*
X27311905Y-22750057D01*
X27311905Y-22750057D02*
X27359524Y-22702438D01*
X27359524Y-22702438D02*
X27454762Y-22654819D01*
X27454762Y-22654819D02*
X27645238Y-22654819D01*
X27645238Y-22654819D02*
X27740476Y-22702438D01*
X27740476Y-22702438D02*
X27788095Y-22750057D01*
X27788095Y-22750057D02*
X27835714Y-22845295D01*
X27835714Y-22845295D02*
X27835714Y-22892914D01*
X27835714Y-22892914D02*
X27788095Y-22988152D01*
X27788095Y-22988152D02*
X27740476Y-23035771D01*
X27740476Y-23035771D02*
X27645238Y-23083390D01*
X27645238Y-23083390D02*
X27454762Y-23083390D01*
X27454762Y-23083390D02*
X27359524Y-23131009D01*
X27359524Y-23131009D02*
X27311905Y-23178628D01*
X27311905Y-23178628D02*
X27264286Y-23273866D01*
X27264286Y-23273866D02*
X27264286Y-23464342D01*
X27264286Y-23464342D02*
X27311905Y-23559580D01*
X27311905Y-23559580D02*
X27359524Y-23607200D01*
X27359524Y-23607200D02*
X27454762Y-23654819D01*
X27454762Y-23654819D02*
X27645238Y-23654819D01*
X27645238Y-23654819D02*
X27740476Y-23607200D01*
X27740476Y-23607200D02*
X27788095Y-23559580D01*
X27788095Y-23559580D02*
X27835714Y-23464342D01*
X27835714Y-23464342D02*
X27835714Y-23273866D01*
X27835714Y-23273866D02*
X27788095Y-23178628D01*
X27788095Y-23178628D02*
X27740476Y-23131009D01*
X27740476Y-23131009D02*
X27645238Y-23083390D01*
X26883333Y-15304819D02*
X26550000Y-14828628D01*
X26311905Y-15304819D02*
X26311905Y-14304819D01*
X26311905Y-14304819D02*
X26692857Y-14304819D01*
X26692857Y-14304819D02*
X26788095Y-14352438D01*
X26788095Y-14352438D02*
X26835714Y-14400057D01*
X26835714Y-14400057D02*
X26883333Y-14495295D01*
X26883333Y-14495295D02*
X26883333Y-14638152D01*
X26883333Y-14638152D02*
X26835714Y-14733390D01*
X26835714Y-14733390D02*
X26788095Y-14781009D01*
X26788095Y-14781009D02*
X26692857Y-14828628D01*
X26692857Y-14828628D02*
X26311905Y-14828628D01*
X27264286Y-14400057D02*
X27311905Y-14352438D01*
X27311905Y-14352438D02*
X27407143Y-14304819D01*
X27407143Y-14304819D02*
X27645238Y-14304819D01*
X27645238Y-14304819D02*
X27740476Y-14352438D01*
X27740476Y-14352438D02*
X27788095Y-14400057D01*
X27788095Y-14400057D02*
X27835714Y-14495295D01*
X27835714Y-14495295D02*
X27835714Y-14590533D01*
X27835714Y-14590533D02*
X27788095Y-14733390D01*
X27788095Y-14733390D02*
X27216667Y-15304819D01*
X27216667Y-15304819D02*
X27835714Y-15304819D01*
X26883333Y-13354819D02*
X26550000Y-12878628D01*
X26311905Y-13354819D02*
X26311905Y-12354819D01*
X26311905Y-12354819D02*
X26692857Y-12354819D01*
X26692857Y-12354819D02*
X26788095Y-12402438D01*
X26788095Y-12402438D02*
X26835714Y-12450057D01*
X26835714Y-12450057D02*
X26883333Y-12545295D01*
X26883333Y-12545295D02*
X26883333Y-12688152D01*
X26883333Y-12688152D02*
X26835714Y-12783390D01*
X26835714Y-12783390D02*
X26788095Y-12831009D01*
X26788095Y-12831009D02*
X26692857Y-12878628D01*
X26692857Y-12878628D02*
X26311905Y-12878628D01*
X27740476Y-12688152D02*
X27740476Y-13354819D01*
X27502381Y-12307200D02*
X27264286Y-13021485D01*
X27264286Y-13021485D02*
X27883333Y-13021485D01*
X33904819Y-17542857D02*
X33428628Y-17876190D01*
X33904819Y-18114285D02*
X32904819Y-18114285D01*
X32904819Y-18114285D02*
X32904819Y-17733333D01*
X32904819Y-17733333D02*
X32952438Y-17638095D01*
X32952438Y-17638095D02*
X33000057Y-17590476D01*
X33000057Y-17590476D02*
X33095295Y-17542857D01*
X33095295Y-17542857D02*
X33238152Y-17542857D01*
X33238152Y-17542857D02*
X33333390Y-17590476D01*
X33333390Y-17590476D02*
X33381009Y-17638095D01*
X33381009Y-17638095D02*
X33428628Y-17733333D01*
X33428628Y-17733333D02*
X33428628Y-18114285D01*
X33904819Y-16590476D02*
X33904819Y-17161904D01*
X33904819Y-16876190D02*
X32904819Y-16876190D01*
X32904819Y-16876190D02*
X33047676Y-16971428D01*
X33047676Y-16971428D02*
X33142914Y-17066666D01*
X33142914Y-17066666D02*
X33190533Y-17161904D01*
X33904819Y-15638095D02*
X33904819Y-16209523D01*
X33904819Y-15923809D02*
X32904819Y-15923809D01*
X32904819Y-15923809D02*
X33047676Y-16019047D01*
X33047676Y-16019047D02*
X33142914Y-16114285D01*
X33142914Y-16114285D02*
X33190533Y-16209523D01*
X46436833Y-9354819D02*
X46103500Y-8878628D01*
X45865405Y-9354819D02*
X45865405Y-8354819D01*
X45865405Y-8354819D02*
X46246357Y-8354819D01*
X46246357Y-8354819D02*
X46341595Y-8402438D01*
X46341595Y-8402438D02*
X46389214Y-8450057D01*
X46389214Y-8450057D02*
X46436833Y-8545295D01*
X46436833Y-8545295D02*
X46436833Y-8688152D01*
X46436833Y-8688152D02*
X46389214Y-8783390D01*
X46389214Y-8783390D02*
X46341595Y-8831009D01*
X46341595Y-8831009D02*
X46246357Y-8878628D01*
X46246357Y-8878628D02*
X45865405Y-8878628D01*
X46770167Y-8354819D02*
X47389214Y-8354819D01*
X47389214Y-8354819D02*
X47055881Y-8735771D01*
X47055881Y-8735771D02*
X47198738Y-8735771D01*
X47198738Y-8735771D02*
X47293976Y-8783390D01*
X47293976Y-8783390D02*
X47341595Y-8831009D01*
X47341595Y-8831009D02*
X47389214Y-8926247D01*
X47389214Y-8926247D02*
X47389214Y-9164342D01*
X47389214Y-9164342D02*
X47341595Y-9259580D01*
X47341595Y-9259580D02*
X47293976Y-9307200D01*
X47293976Y-9307200D02*
X47198738Y-9354819D01*
X47198738Y-9354819D02*
X46913024Y-9354819D01*
X46913024Y-9354819D02*
X46817786Y-9307200D01*
X46817786Y-9307200D02*
X46770167Y-9259580D01*
X26407142Y-19454819D02*
X26073809Y-18978628D01*
X25835714Y-19454819D02*
X25835714Y-18454819D01*
X25835714Y-18454819D02*
X26216666Y-18454819D01*
X26216666Y-18454819D02*
X26311904Y-18502438D01*
X26311904Y-18502438D02*
X26359523Y-18550057D01*
X26359523Y-18550057D02*
X26407142Y-18645295D01*
X26407142Y-18645295D02*
X26407142Y-18788152D01*
X26407142Y-18788152D02*
X26359523Y-18883390D01*
X26359523Y-18883390D02*
X26311904Y-18931009D01*
X26311904Y-18931009D02*
X26216666Y-18978628D01*
X26216666Y-18978628D02*
X25835714Y-18978628D01*
X27359523Y-19454819D02*
X26788095Y-19454819D01*
X27073809Y-19454819D02*
X27073809Y-18454819D01*
X27073809Y-18454819D02*
X26978571Y-18597676D01*
X26978571Y-18597676D02*
X26883333Y-18692914D01*
X26883333Y-18692914D02*
X26788095Y-18740533D01*
X27740476Y-18550057D02*
X27788095Y-18502438D01*
X27788095Y-18502438D02*
X27883333Y-18454819D01*
X27883333Y-18454819D02*
X28121428Y-18454819D01*
X28121428Y-18454819D02*
X28216666Y-18502438D01*
X28216666Y-18502438D02*
X28264285Y-18550057D01*
X28264285Y-18550057D02*
X28311904Y-18645295D01*
X28311904Y-18645295D02*
X28311904Y-18740533D01*
X28311904Y-18740533D02*
X28264285Y-18883390D01*
X28264285Y-18883390D02*
X27692857Y-19454819D01*
X27692857Y-19454819D02*
X28311904Y-19454819D01*
X33854819Y-28066666D02*
X33378628Y-28399999D01*
X33854819Y-28638094D02*
X32854819Y-28638094D01*
X32854819Y-28638094D02*
X32854819Y-28257142D01*
X32854819Y-28257142D02*
X32902438Y-28161904D01*
X32902438Y-28161904D02*
X32950057Y-28114285D01*
X32950057Y-28114285D02*
X33045295Y-28066666D01*
X33045295Y-28066666D02*
X33188152Y-28066666D01*
X33188152Y-28066666D02*
X33283390Y-28114285D01*
X33283390Y-28114285D02*
X33331009Y-28161904D01*
X33331009Y-28161904D02*
X33378628Y-28257142D01*
X33378628Y-28257142D02*
X33378628Y-28638094D01*
X32854819Y-27733332D02*
X32854819Y-27066666D01*
X32854819Y-27066666D02*
X33854819Y-27495237D01*
X33854819Y-24716666D02*
X33378628Y-25049999D01*
X33854819Y-25288094D02*
X32854819Y-25288094D01*
X32854819Y-25288094D02*
X32854819Y-24907142D01*
X32854819Y-24907142D02*
X32902438Y-24811904D01*
X32902438Y-24811904D02*
X32950057Y-24764285D01*
X32950057Y-24764285D02*
X33045295Y-24716666D01*
X33045295Y-24716666D02*
X33188152Y-24716666D01*
X33188152Y-24716666D02*
X33283390Y-24764285D01*
X33283390Y-24764285D02*
X33331009Y-24811904D01*
X33331009Y-24811904D02*
X33378628Y-24907142D01*
X33378628Y-24907142D02*
X33378628Y-25288094D01*
X33854819Y-24240475D02*
X33854819Y-24049999D01*
X33854819Y-24049999D02*
X33807200Y-23954761D01*
X33807200Y-23954761D02*
X33759580Y-23907142D01*
X33759580Y-23907142D02*
X33616723Y-23811904D01*
X33616723Y-23811904D02*
X33426247Y-23764285D01*
X33426247Y-23764285D02*
X33045295Y-23764285D01*
X33045295Y-23764285D02*
X32950057Y-23811904D01*
X32950057Y-23811904D02*
X32902438Y-23859523D01*
X32902438Y-23859523D02*
X32854819Y-23954761D01*
X32854819Y-23954761D02*
X32854819Y-24145237D01*
X32854819Y-24145237D02*
X32902438Y-24240475D01*
X32902438Y-24240475D02*
X32950057Y-24288094D01*
X32950057Y-24288094D02*
X33045295Y-24335713D01*
X33045295Y-24335713D02*
X33283390Y-24335713D01*
X33283390Y-24335713D02*
X33378628Y-24288094D01*
X33378628Y-24288094D02*
X33426247Y-24240475D01*
X33426247Y-24240475D02*
X33473866Y-24145237D01*
X33473866Y-24145237D02*
X33473866Y-23954761D01*
X33473866Y-23954761D02*
X33426247Y-23859523D01*
X33426247Y-23859523D02*
X33378628Y-23811904D01*
X33378628Y-23811904D02*
X33283390Y-23764285D01*
X50136833Y-9304819D02*
X49803500Y-8828628D01*
X49565405Y-9304819D02*
X49565405Y-8304819D01*
X49565405Y-8304819D02*
X49946357Y-8304819D01*
X49946357Y-8304819D02*
X50041595Y-8352438D01*
X50041595Y-8352438D02*
X50089214Y-8400057D01*
X50089214Y-8400057D02*
X50136833Y-8495295D01*
X50136833Y-8495295D02*
X50136833Y-8638152D01*
X50136833Y-8638152D02*
X50089214Y-8733390D01*
X50089214Y-8733390D02*
X50041595Y-8781009D01*
X50041595Y-8781009D02*
X49946357Y-8828628D01*
X49946357Y-8828628D02*
X49565405Y-8828628D01*
X51089214Y-9304819D02*
X50517786Y-9304819D01*
X50803500Y-9304819D02*
X50803500Y-8304819D01*
X50803500Y-8304819D02*
X50708262Y-8447676D01*
X50708262Y-8447676D02*
X50613024Y-8542914D01*
X50613024Y-8542914D02*
X50517786Y-8590533D01*
X25559580Y-8916666D02*
X25607200Y-8964285D01*
X25607200Y-8964285D02*
X25654819Y-9107142D01*
X25654819Y-9107142D02*
X25654819Y-9202380D01*
X25654819Y-9202380D02*
X25607200Y-9345237D01*
X25607200Y-9345237D02*
X25511961Y-9440475D01*
X25511961Y-9440475D02*
X25416723Y-9488094D01*
X25416723Y-9488094D02*
X25226247Y-9535713D01*
X25226247Y-9535713D02*
X25083390Y-9535713D01*
X25083390Y-9535713D02*
X24892914Y-9488094D01*
X24892914Y-9488094D02*
X24797676Y-9440475D01*
X24797676Y-9440475D02*
X24702438Y-9345237D01*
X24702438Y-9345237D02*
X24654819Y-9202380D01*
X24654819Y-9202380D02*
X24654819Y-9107142D01*
X24654819Y-9107142D02*
X24702438Y-8964285D01*
X24702438Y-8964285D02*
X24750057Y-8916666D01*
X24750057Y-8535713D02*
X24702438Y-8488094D01*
X24702438Y-8488094D02*
X24654819Y-8392856D01*
X24654819Y-8392856D02*
X24654819Y-8154761D01*
X24654819Y-8154761D02*
X24702438Y-8059523D01*
X24702438Y-8059523D02*
X24750057Y-8011904D01*
X24750057Y-8011904D02*
X24845295Y-7964285D01*
X24845295Y-7964285D02*
X24940533Y-7964285D01*
X24940533Y-7964285D02*
X25083390Y-8011904D01*
X25083390Y-8011904D02*
X25654819Y-8583332D01*
X25654819Y-8583332D02*
X25654819Y-7964285D01*
X33854819Y-14442857D02*
X33378628Y-14776190D01*
X33854819Y-15014285D02*
X32854819Y-15014285D01*
X32854819Y-15014285D02*
X32854819Y-14633333D01*
X32854819Y-14633333D02*
X32902438Y-14538095D01*
X32902438Y-14538095D02*
X32950057Y-14490476D01*
X32950057Y-14490476D02*
X33045295Y-14442857D01*
X33045295Y-14442857D02*
X33188152Y-14442857D01*
X33188152Y-14442857D02*
X33283390Y-14490476D01*
X33283390Y-14490476D02*
X33331009Y-14538095D01*
X33331009Y-14538095D02*
X33378628Y-14633333D01*
X33378628Y-14633333D02*
X33378628Y-15014285D01*
X33854819Y-13490476D02*
X33854819Y-14061904D01*
X33854819Y-13776190D02*
X32854819Y-13776190D01*
X32854819Y-13776190D02*
X32997676Y-13871428D01*
X32997676Y-13871428D02*
X33092914Y-13966666D01*
X33092914Y-13966666D02*
X33140533Y-14061904D01*
X32854819Y-13157142D02*
X32854819Y-12538095D01*
X32854819Y-12538095D02*
X33235771Y-12871428D01*
X33235771Y-12871428D02*
X33235771Y-12728571D01*
X33235771Y-12728571D02*
X33283390Y-12633333D01*
X33283390Y-12633333D02*
X33331009Y-12585714D01*
X33331009Y-12585714D02*
X33426247Y-12538095D01*
X33426247Y-12538095D02*
X33664342Y-12538095D01*
X33664342Y-12538095D02*
X33759580Y-12585714D01*
X33759580Y-12585714D02*
X33807200Y-12633333D01*
X33807200Y-12633333D02*
X33854819Y-12728571D01*
X33854819Y-12728571D02*
X33854819Y-13014285D01*
X33854819Y-13014285D02*
X33807200Y-13109523D01*
X33807200Y-13109523D02*
X33759580Y-13157142D01*
X43033333Y-5359580D02*
X42985714Y-5407200D01*
X42985714Y-5407200D02*
X42842857Y-5454819D01*
X42842857Y-5454819D02*
X42747619Y-5454819D01*
X42747619Y-5454819D02*
X42604762Y-5407200D01*
X42604762Y-5407200D02*
X42509524Y-5311961D01*
X42509524Y-5311961D02*
X42461905Y-5216723D01*
X42461905Y-5216723D02*
X42414286Y-5026247D01*
X42414286Y-5026247D02*
X42414286Y-4883390D01*
X42414286Y-4883390D02*
X42461905Y-4692914D01*
X42461905Y-4692914D02*
X42509524Y-4597676D01*
X42509524Y-4597676D02*
X42604762Y-4502438D01*
X42604762Y-4502438D02*
X42747619Y-4454819D01*
X42747619Y-4454819D02*
X42842857Y-4454819D01*
X42842857Y-4454819D02*
X42985714Y-4502438D01*
X42985714Y-4502438D02*
X43033333Y-4550057D01*
X43985714Y-5454819D02*
X43414286Y-5454819D01*
X43700000Y-5454819D02*
X43700000Y-4454819D01*
X43700000Y-4454819D02*
X43604762Y-4597676D01*
X43604762Y-4597676D02*
X43509524Y-4692914D01*
X43509524Y-4692914D02*
X43414286Y-4740533D01*
X26407142Y-17404819D02*
X26073809Y-16928628D01*
X25835714Y-17404819D02*
X25835714Y-16404819D01*
X25835714Y-16404819D02*
X26216666Y-16404819D01*
X26216666Y-16404819D02*
X26311904Y-16452438D01*
X26311904Y-16452438D02*
X26359523Y-16500057D01*
X26359523Y-16500057D02*
X26407142Y-16595295D01*
X26407142Y-16595295D02*
X26407142Y-16738152D01*
X26407142Y-16738152D02*
X26359523Y-16833390D01*
X26359523Y-16833390D02*
X26311904Y-16881009D01*
X26311904Y-16881009D02*
X26216666Y-16928628D01*
X26216666Y-16928628D02*
X25835714Y-16928628D01*
X27359523Y-17404819D02*
X26788095Y-17404819D01*
X27073809Y-17404819D02*
X27073809Y-16404819D01*
X27073809Y-16404819D02*
X26978571Y-16547676D01*
X26978571Y-16547676D02*
X26883333Y-16642914D01*
X26883333Y-16642914D02*
X26788095Y-16690533D01*
X28216666Y-16738152D02*
X28216666Y-17404819D01*
X27978571Y-16357200D02*
X27740476Y-17071485D01*
X27740476Y-17071485D02*
X28359523Y-17071485D01*
D10*
X33314286Y-6362645D02*
X33314286Y-7010264D01*
X33314286Y-7010264D02*
X33352381Y-7086454D01*
X33352381Y-7086454D02*
X33390476Y-7124550D01*
X33390476Y-7124550D02*
X33466667Y-7162645D01*
X33466667Y-7162645D02*
X33619048Y-7162645D01*
X33619048Y-7162645D02*
X33695238Y-7124550D01*
X33695238Y-7124550D02*
X33733333Y-7086454D01*
X33733333Y-7086454D02*
X33771429Y-7010264D01*
X33771429Y-7010264D02*
X33771429Y-6362645D01*
X34114285Y-7124550D02*
X34228571Y-7162645D01*
X34228571Y-7162645D02*
X34419047Y-7162645D01*
X34419047Y-7162645D02*
X34495238Y-7124550D01*
X34495238Y-7124550D02*
X34533333Y-7086454D01*
X34533333Y-7086454D02*
X34571428Y-7010264D01*
X34571428Y-7010264D02*
X34571428Y-6934073D01*
X34571428Y-6934073D02*
X34533333Y-6857883D01*
X34533333Y-6857883D02*
X34495238Y-6819788D01*
X34495238Y-6819788D02*
X34419047Y-6781692D01*
X34419047Y-6781692D02*
X34266666Y-6743597D01*
X34266666Y-6743597D02*
X34190476Y-6705502D01*
X34190476Y-6705502D02*
X34152381Y-6667407D01*
X34152381Y-6667407D02*
X34114285Y-6591216D01*
X34114285Y-6591216D02*
X34114285Y-6515026D01*
X34114285Y-6515026D02*
X34152381Y-6438835D01*
X34152381Y-6438835D02*
X34190476Y-6400740D01*
X34190476Y-6400740D02*
X34266666Y-6362645D01*
X34266666Y-6362645D02*
X34457143Y-6362645D01*
X34457143Y-6362645D02*
X34571428Y-6400740D01*
X35180952Y-6743597D02*
X35295238Y-6781692D01*
X35295238Y-6781692D02*
X35333333Y-6819788D01*
X35333333Y-6819788D02*
X35371429Y-6895978D01*
X35371429Y-6895978D02*
X35371429Y-7010264D01*
X35371429Y-7010264D02*
X35333333Y-7086454D01*
X35333333Y-7086454D02*
X35295238Y-7124550D01*
X35295238Y-7124550D02*
X35219048Y-7162645D01*
X35219048Y-7162645D02*
X34914286Y-7162645D01*
X34914286Y-7162645D02*
X34914286Y-6362645D01*
X34914286Y-6362645D02*
X35180952Y-6362645D01*
X35180952Y-6362645D02*
X35257143Y-6400740D01*
X35257143Y-6400740D02*
X35295238Y-6438835D01*
X35295238Y-6438835D02*
X35333333Y-6515026D01*
X35333333Y-6515026D02*
X35333333Y-6591216D01*
X35333333Y-6591216D02*
X35295238Y-6667407D01*
X35295238Y-6667407D02*
X35257143Y-6705502D01*
X35257143Y-6705502D02*
X35180952Y-6743597D01*
X35180952Y-6743597D02*
X34914286Y-6743597D01*
X35714286Y-6857883D02*
X36323810Y-6857883D01*
X37123809Y-7162645D02*
X36666666Y-7162645D01*
X36895238Y-7162645D02*
X36895238Y-6362645D01*
X36895238Y-6362645D02*
X36819047Y-6476930D01*
X36819047Y-6476930D02*
X36742857Y-6553121D01*
X36742857Y-6553121D02*
X36666666Y-6591216D01*
D15*
X26883333Y-25704819D02*
X26550000Y-25228628D01*
X26311905Y-25704819D02*
X26311905Y-24704819D01*
X26311905Y-24704819D02*
X26692857Y-24704819D01*
X26692857Y-24704819D02*
X26788095Y-24752438D01*
X26788095Y-24752438D02*
X26835714Y-24800057D01*
X26835714Y-24800057D02*
X26883333Y-24895295D01*
X26883333Y-24895295D02*
X26883333Y-25038152D01*
X26883333Y-25038152D02*
X26835714Y-25133390D01*
X26835714Y-25133390D02*
X26788095Y-25181009D01*
X26788095Y-25181009D02*
X26692857Y-25228628D01*
X26692857Y-25228628D02*
X26311905Y-25228628D01*
X27740476Y-24704819D02*
X27550000Y-24704819D01*
X27550000Y-24704819D02*
X27454762Y-24752438D01*
X27454762Y-24752438D02*
X27407143Y-24800057D01*
X27407143Y-24800057D02*
X27311905Y-24942914D01*
X27311905Y-24942914D02*
X27264286Y-25133390D01*
X27264286Y-25133390D02*
X27264286Y-25514342D01*
X27264286Y-25514342D02*
X27311905Y-25609580D01*
X27311905Y-25609580D02*
X27359524Y-25657200D01*
X27359524Y-25657200D02*
X27454762Y-25704819D01*
X27454762Y-25704819D02*
X27645238Y-25704819D01*
X27645238Y-25704819D02*
X27740476Y-25657200D01*
X27740476Y-25657200D02*
X27788095Y-25609580D01*
X27788095Y-25609580D02*
X27835714Y-25514342D01*
X27835714Y-25514342D02*
X27835714Y-25276247D01*
X27835714Y-25276247D02*
X27788095Y-25181009D01*
X27788095Y-25181009D02*
X27740476Y-25133390D01*
X27740476Y-25133390D02*
X27645238Y-25085771D01*
X27645238Y-25085771D02*
X27454762Y-25085771D01*
X27454762Y-25085771D02*
X27359524Y-25133390D01*
X27359524Y-25133390D02*
X27311905Y-25181009D01*
X27311905Y-25181009D02*
X27264286Y-25276247D01*
X41457142Y-6254819D02*
X41123809Y-5778628D01*
X40885714Y-6254819D02*
X40885714Y-5254819D01*
X40885714Y-5254819D02*
X41266666Y-5254819D01*
X41266666Y-5254819D02*
X41361904Y-5302438D01*
X41361904Y-5302438D02*
X41409523Y-5350057D01*
X41409523Y-5350057D02*
X41457142Y-5445295D01*
X41457142Y-5445295D02*
X41457142Y-5588152D01*
X41457142Y-5588152D02*
X41409523Y-5683390D01*
X41409523Y-5683390D02*
X41361904Y-5731009D01*
X41361904Y-5731009D02*
X41266666Y-5778628D01*
X41266666Y-5778628D02*
X40885714Y-5778628D01*
X42409523Y-6254819D02*
X41838095Y-6254819D01*
X42123809Y-6254819D02*
X42123809Y-5254819D01*
X42123809Y-5254819D02*
X42028571Y-5397676D01*
X42028571Y-5397676D02*
X41933333Y-5492914D01*
X41933333Y-5492914D02*
X41838095Y-5540533D01*
X43314285Y-5254819D02*
X42838095Y-5254819D01*
X42838095Y-5254819D02*
X42790476Y-5731009D01*
X42790476Y-5731009D02*
X42838095Y-5683390D01*
X42838095Y-5683390D02*
X42933333Y-5635771D01*
X42933333Y-5635771D02*
X43171428Y-5635771D01*
X43171428Y-5635771D02*
X43266666Y-5683390D01*
X43266666Y-5683390D02*
X43314285Y-5731009D01*
X43314285Y-5731009D02*
X43361904Y-5826247D01*
X43361904Y-5826247D02*
X43361904Y-6064342D01*
X43361904Y-6064342D02*
X43314285Y-6159580D01*
X43314285Y-6159580D02*
X43266666Y-6207200D01*
X43266666Y-6207200D02*
X43171428Y-6254819D01*
X43171428Y-6254819D02*
X42933333Y-6254819D01*
X42933333Y-6254819D02*
X42838095Y-6207200D01*
X42838095Y-6207200D02*
X42790476Y-6159580D01*
X26410642Y-21554819D02*
X26077309Y-21078628D01*
X25839214Y-21554819D02*
X25839214Y-20554819D01*
X25839214Y-20554819D02*
X26220166Y-20554819D01*
X26220166Y-20554819D02*
X26315404Y-20602438D01*
X26315404Y-20602438D02*
X26363023Y-20650057D01*
X26363023Y-20650057D02*
X26410642Y-20745295D01*
X26410642Y-20745295D02*
X26410642Y-20888152D01*
X26410642Y-20888152D02*
X26363023Y-20983390D01*
X26363023Y-20983390D02*
X26315404Y-21031009D01*
X26315404Y-21031009D02*
X26220166Y-21078628D01*
X26220166Y-21078628D02*
X25839214Y-21078628D01*
X27363023Y-21554819D02*
X26791595Y-21554819D01*
X27077309Y-21554819D02*
X27077309Y-20554819D01*
X27077309Y-20554819D02*
X26982071Y-20697676D01*
X26982071Y-20697676D02*
X26886833Y-20792914D01*
X26886833Y-20792914D02*
X26791595Y-20840533D01*
X27982071Y-20554819D02*
X28077309Y-20554819D01*
X28077309Y-20554819D02*
X28172547Y-20602438D01*
X28172547Y-20602438D02*
X28220166Y-20650057D01*
X28220166Y-20650057D02*
X28267785Y-20745295D01*
X28267785Y-20745295D02*
X28315404Y-20935771D01*
X28315404Y-20935771D02*
X28315404Y-21173866D01*
X28315404Y-21173866D02*
X28267785Y-21364342D01*
X28267785Y-21364342D02*
X28220166Y-21459580D01*
X28220166Y-21459580D02*
X28172547Y-21507200D01*
X28172547Y-21507200D02*
X28077309Y-21554819D01*
X28077309Y-21554819D02*
X27982071Y-21554819D01*
X27982071Y-21554819D02*
X27886833Y-21507200D01*
X27886833Y-21507200D02*
X27839214Y-21459580D01*
X27839214Y-21459580D02*
X27791595Y-21364342D01*
X27791595Y-21364342D02*
X27743976Y-21173866D01*
X27743976Y-21173866D02*
X27743976Y-20935771D01*
X27743976Y-20935771D02*
X27791595Y-20745295D01*
X27791595Y-20745295D02*
X27839214Y-20650057D01*
X27839214Y-20650057D02*
X27886833Y-20602438D01*
X27886833Y-20602438D02*
X27982071Y-20554819D01*
X41457142Y-7804819D02*
X41123809Y-7328628D01*
X40885714Y-7804819D02*
X40885714Y-6804819D01*
X40885714Y-6804819D02*
X41266666Y-6804819D01*
X41266666Y-6804819D02*
X41361904Y-6852438D01*
X41361904Y-6852438D02*
X41409523Y-6900057D01*
X41409523Y-6900057D02*
X41457142Y-6995295D01*
X41457142Y-6995295D02*
X41457142Y-7138152D01*
X41457142Y-7138152D02*
X41409523Y-7233390D01*
X41409523Y-7233390D02*
X41361904Y-7281009D01*
X41361904Y-7281009D02*
X41266666Y-7328628D01*
X41266666Y-7328628D02*
X40885714Y-7328628D01*
X42409523Y-7804819D02*
X41838095Y-7804819D01*
X42123809Y-7804819D02*
X42123809Y-6804819D01*
X42123809Y-6804819D02*
X42028571Y-6947676D01*
X42028571Y-6947676D02*
X41933333Y-7042914D01*
X41933333Y-7042914D02*
X41838095Y-7090533D01*
X43266666Y-6804819D02*
X43076190Y-6804819D01*
X43076190Y-6804819D02*
X42980952Y-6852438D01*
X42980952Y-6852438D02*
X42933333Y-6900057D01*
X42933333Y-6900057D02*
X42838095Y-7042914D01*
X42838095Y-7042914D02*
X42790476Y-7233390D01*
X42790476Y-7233390D02*
X42790476Y-7614342D01*
X42790476Y-7614342D02*
X42838095Y-7709580D01*
X42838095Y-7709580D02*
X42885714Y-7757200D01*
X42885714Y-7757200D02*
X42980952Y-7804819D01*
X42980952Y-7804819D02*
X43171428Y-7804819D01*
X43171428Y-7804819D02*
X43266666Y-7757200D01*
X43266666Y-7757200D02*
X43314285Y-7709580D01*
X43314285Y-7709580D02*
X43361904Y-7614342D01*
X43361904Y-7614342D02*
X43361904Y-7376247D01*
X43361904Y-7376247D02*
X43314285Y-7281009D01*
X43314285Y-7281009D02*
X43266666Y-7233390D01*
X43266666Y-7233390D02*
X43171428Y-7185771D01*
X43171428Y-7185771D02*
X42980952Y-7185771D01*
X42980952Y-7185771D02*
X42885714Y-7233390D01*
X42885714Y-7233390D02*
X42838095Y-7281009D01*
X42838095Y-7281009D02*
X42790476Y-7376247D01*
X33854819Y-31616666D02*
X33378628Y-31949999D01*
X33854819Y-32188094D02*
X32854819Y-32188094D01*
X32854819Y-32188094D02*
X32854819Y-31807142D01*
X32854819Y-31807142D02*
X32902438Y-31711904D01*
X32902438Y-31711904D02*
X32950057Y-31664285D01*
X32950057Y-31664285D02*
X33045295Y-31616666D01*
X33045295Y-31616666D02*
X33188152Y-31616666D01*
X33188152Y-31616666D02*
X33283390Y-31664285D01*
X33283390Y-31664285D02*
X33331009Y-31711904D01*
X33331009Y-31711904D02*
X33378628Y-31807142D01*
X33378628Y-31807142D02*
X33378628Y-32188094D01*
X32854819Y-30711904D02*
X32854819Y-31188094D01*
X32854819Y-31188094D02*
X33331009Y-31235713D01*
X33331009Y-31235713D02*
X33283390Y-31188094D01*
X33283390Y-31188094D02*
X33235771Y-31092856D01*
X33235771Y-31092856D02*
X33235771Y-30854761D01*
X33235771Y-30854761D02*
X33283390Y-30759523D01*
X33283390Y-30759523D02*
X33331009Y-30711904D01*
X33331009Y-30711904D02*
X33426247Y-30664285D01*
X33426247Y-30664285D02*
X33664342Y-30664285D01*
X33664342Y-30664285D02*
X33759580Y-30711904D01*
X33759580Y-30711904D02*
X33807200Y-30759523D01*
X33807200Y-30759523D02*
X33854819Y-30854761D01*
X33854819Y-30854761D02*
X33854819Y-31092856D01*
X33854819Y-31092856D02*
X33807200Y-31188094D01*
X33807200Y-31188094D02*
X33759580Y-31235713D01*
D16*
%TO.C,Q3*%
X29874000Y-29874000D02*
X29874000Y-30905500D01*
X29874000Y-32926000D02*
X29874000Y-31894500D01*
X31326000Y-29874000D02*
X29874000Y-29874000D01*
X31326000Y-30944500D02*
X31326000Y-31855500D01*
X31326000Y-32926000D02*
X29874000Y-32926000D01*
%TO.C,R8*%
X25665000Y-22539500D02*
X26624000Y-22539500D01*
X25665000Y-23860500D02*
X25665000Y-22539500D01*
X26624000Y-23860500D02*
X25665000Y-23860500D01*
X27476000Y-23860500D02*
X28435000Y-23860500D01*
X28435000Y-22539500D02*
X27476000Y-22539500D01*
X28435000Y-23860500D02*
X28435000Y-22539500D01*
%TO.C,R2*%
X25665000Y-14189500D02*
X26624000Y-14189500D01*
X25665000Y-15510500D02*
X25665000Y-14189500D01*
X26624000Y-15510500D02*
X25665000Y-15510500D01*
X27476000Y-15510500D02*
X28435000Y-15510500D01*
X28435000Y-14189500D02*
X27476000Y-14189500D01*
X28435000Y-15510500D02*
X28435000Y-14189500D01*
%TO.C,Q4*%
X29874000Y-26274000D02*
X29874000Y-27305500D01*
X29874000Y-29326000D02*
X29874000Y-28294500D01*
X31326000Y-26274000D02*
X29874000Y-26274000D01*
X31326000Y-27344500D02*
X31326000Y-28255500D01*
X31326000Y-29326000D02*
X29874000Y-29326000D01*
%TO.C,R4*%
X25665000Y-12239500D02*
X25665000Y-13560500D01*
X25665000Y-13560500D02*
X26624000Y-13560500D01*
X26624000Y-12239500D02*
X25665000Y-12239500D01*
X27476000Y-12239500D02*
X28435000Y-12239500D01*
X28435000Y-12239500D02*
X28435000Y-13560500D01*
X28435000Y-13560500D02*
X27476000Y-13560500D01*
%TO.C,Q1*%
X48777500Y-5474000D02*
X49809000Y-5474000D01*
X48777500Y-6926000D02*
X48777500Y-5474000D01*
X50759000Y-6926000D02*
X49848000Y-6926000D01*
X51829500Y-5474000D02*
X50798000Y-5474000D01*
X51829500Y-6926000D02*
X51829500Y-5474000D01*
%TO.C,R11*%
X32789500Y-15515000D02*
X34110500Y-15515000D01*
X32789500Y-16474000D02*
X32789500Y-15515000D01*
X32789500Y-17326000D02*
X32789500Y-18285000D01*
X32789500Y-18285000D02*
X34110500Y-18285000D01*
X34110500Y-15515000D02*
X34110500Y-16474000D01*
X34110500Y-18285000D02*
X34110500Y-17326000D01*
%TO.C,R3*%
X45218500Y-8239500D02*
X46177500Y-8239500D01*
X45218500Y-9560500D02*
X45218500Y-8239500D01*
X46177500Y-9560500D02*
X45218500Y-9560500D01*
X47029500Y-9560500D02*
X47988500Y-9560500D01*
X47988500Y-8239500D02*
X47029500Y-8239500D01*
X47988500Y-9560500D02*
X47988500Y-8239500D01*
%TO.C,R12*%
X25665000Y-18339500D02*
X26624000Y-18339500D01*
X25665000Y-19660500D02*
X25665000Y-18339500D01*
X26624000Y-19660500D02*
X25665000Y-19660500D01*
X27476000Y-19660500D02*
X28435000Y-19660500D01*
X28435000Y-18339500D02*
X27476000Y-18339500D01*
X28435000Y-19660500D02*
X28435000Y-18339500D01*
%TO.C,Q2*%
X45077500Y-5524000D02*
X46109000Y-5524000D01*
X45077500Y-6976000D02*
X45077500Y-5524000D01*
X47059000Y-6976000D02*
X46148000Y-6976000D01*
X48129500Y-5524000D02*
X47098000Y-5524000D01*
X48129500Y-6976000D02*
X48129500Y-5524000D01*
D17*
%TO.C,U3*%
X38584000Y-13733000D02*
X39338000Y-13733000D01*
X38584000Y-16822000D02*
X38584000Y-13733000D01*
X38584000Y-19362000D02*
X38584000Y-18484000D01*
X38584000Y-21902000D02*
X38584000Y-21024000D01*
X38584000Y-24441500D02*
X38584000Y-23564000D01*
X38584000Y-26981500D02*
X38584000Y-26104000D01*
X38584000Y-31733000D02*
X38584000Y-28644000D01*
X39338000Y-31733000D02*
X38584000Y-31733000D01*
X41000000Y-13733000D02*
X41878000Y-13733000D01*
X41878000Y-31733000D02*
X41000000Y-31733000D01*
X43540000Y-13733000D02*
X44418000Y-13733000D01*
X44418000Y-31733000D02*
X43540000Y-31733000D01*
X46080000Y-13733000D02*
X46958000Y-13733000D01*
X46958000Y-31733000D02*
X46080000Y-31733000D01*
X48620000Y-13733000D02*
X49498000Y-13733000D01*
X49498000Y-31733000D02*
X48620000Y-31733000D01*
X51160000Y-13733000D02*
X52038000Y-13733000D01*
X52038000Y-31733000D02*
X51160000Y-31733000D01*
X53700000Y-13733000D02*
X54578000Y-13733000D01*
X54578000Y-31733000D02*
X53700000Y-31733000D01*
X56240000Y-13733000D02*
X57118000Y-13733000D01*
X57118000Y-31733000D02*
X56240000Y-31733000D01*
X58780000Y-13733000D02*
X59658000Y-13733000D01*
X59658000Y-31733000D02*
X58780000Y-31733000D01*
X61320000Y-13733000D02*
X62084000Y-13733000D01*
X62084000Y-13733000D02*
X62084000Y-31733000D01*
X62084000Y-18253500D02*
X63584000Y-18253500D01*
X62084000Y-27214500D02*
X63584000Y-27214500D01*
X62084000Y-31733000D02*
X61320000Y-31733000D01*
X63584000Y-27214500D02*
X63584000Y-18253500D01*
D16*
%TO.C,R7*%
X32739500Y-26515000D02*
X34060500Y-26515000D01*
X32739500Y-27474000D02*
X32739500Y-26515000D01*
X32739500Y-28326000D02*
X32739500Y-29285000D01*
X32739500Y-29285000D02*
X34060500Y-29285000D01*
X34060500Y-26515000D02*
X34060500Y-27474000D01*
X34060500Y-29285000D02*
X34060500Y-28326000D01*
%TO.C,R9*%
X32739500Y-23165000D02*
X34060500Y-23165000D01*
X32739500Y-24124000D02*
X32739500Y-23165000D01*
X32739500Y-24976000D02*
X32739500Y-25935000D01*
X32739500Y-25935000D02*
X34060500Y-25935000D01*
X34060500Y-23165000D02*
X34060500Y-24124000D01*
X34060500Y-25935000D02*
X34060500Y-24976000D01*
%TO.C,R1*%
X48918500Y-8189500D02*
X48918500Y-9510500D01*
X48918500Y-9510500D02*
X49877500Y-9510500D01*
X49877500Y-8189500D02*
X48918500Y-8189500D01*
X50729500Y-8189500D02*
X51688500Y-8189500D01*
X51688500Y-8189500D02*
X51688500Y-9510500D01*
X51688500Y-9510500D02*
X50729500Y-9510500D01*
D18*
%TO.C,C2*%
X26140000Y-9911252D02*
X26140000Y-8488748D01*
X27960000Y-9911252D02*
X27960000Y-8488748D01*
D16*
%TO.C,R13*%
X32739500Y-12415000D02*
X34060500Y-12415000D01*
X32739500Y-13374000D02*
X32739500Y-12415000D01*
X32739500Y-14226000D02*
X32739500Y-15185000D01*
X32739500Y-15185000D02*
X34060500Y-15185000D01*
X34060500Y-12415000D02*
X34060500Y-13374000D01*
X34060500Y-15185000D02*
X34060500Y-14226000D01*
D18*
%TO.C,C1*%
X43911252Y-2240000D02*
X42488748Y-2240000D01*
X43911252Y-4060000D02*
X42488748Y-4060000D01*
D16*
%TO.C,R14*%
X25665000Y-16289500D02*
X26624000Y-16289500D01*
X25665000Y-17610500D02*
X25665000Y-16289500D01*
X26624000Y-17610500D02*
X25665000Y-17610500D01*
X27476000Y-17610500D02*
X28435000Y-17610500D01*
X28435000Y-16289500D02*
X27476000Y-16289500D01*
X28435000Y-17610500D02*
X28435000Y-16289500D01*
%TO.C,Q5*%
X29874000Y-22724000D02*
X29874000Y-23755500D01*
X29874000Y-25776000D02*
X29874000Y-24744500D01*
X31326000Y-22724000D02*
X29874000Y-22724000D01*
X31326000Y-23794500D02*
X31326000Y-24705500D01*
X31326000Y-25776000D02*
X29874000Y-25776000D01*
%TO.C,Q6*%
X29974000Y-15824000D02*
X29974000Y-16855500D01*
X29974000Y-18876000D02*
X29974000Y-17844500D01*
X31426000Y-15824000D02*
X29974000Y-15824000D01*
X31426000Y-16894500D02*
X31426000Y-17805500D01*
X31426000Y-18876000D02*
X29974000Y-18876000D01*
D17*
%TO.C,USB-1*%
X30729000Y-1703750D02*
X30729000Y-3185250D01*
X30729000Y-1703750D02*
X39669000Y-1703750D01*
X30729000Y-5421750D02*
X30729000Y-7285250D01*
X39669000Y-1703750D02*
X39669000Y-3184750D01*
X39669000Y-5422250D02*
X39669000Y-7284750D01*
D16*
%TO.C,Q7*%
X29974000Y-12224000D02*
X29974000Y-13255500D01*
X29974000Y-15276000D02*
X29974000Y-14244500D01*
X31426000Y-12224000D02*
X29974000Y-12224000D01*
X31426000Y-13294500D02*
X31426000Y-14205500D01*
X31426000Y-15276000D02*
X29974000Y-15276000D01*
%TO.C,R6*%
X25665000Y-24589500D02*
X26624000Y-24589500D01*
X25665000Y-25910500D02*
X25665000Y-24589500D01*
X26624000Y-25910500D02*
X25665000Y-25910500D01*
X27476000Y-25910500D02*
X28435000Y-25910500D01*
X28435000Y-24589500D02*
X27476000Y-24589500D01*
X28435000Y-25910500D02*
X28435000Y-24589500D01*
%TO.C,R15*%
X40715000Y-5139500D02*
X40715000Y-6460500D01*
X40715000Y-6460500D02*
X41674000Y-6460500D01*
X41674000Y-5139500D02*
X40715000Y-5139500D01*
X42526000Y-5139500D02*
X43485000Y-5139500D01*
X43485000Y-5139500D02*
X43485000Y-6460500D01*
X43485000Y-6460500D02*
X42526000Y-6460500D01*
%TO.C,R10*%
X25668500Y-20439500D02*
X26627500Y-20439500D01*
X25668500Y-21760500D02*
X25668500Y-20439500D01*
X26627500Y-21760500D02*
X25668500Y-21760500D01*
X27479500Y-21760500D02*
X28438500Y-21760500D01*
X28438500Y-20439500D02*
X27479500Y-20439500D01*
X28438500Y-21760500D02*
X28438500Y-20439500D01*
%TO.C,R16*%
X40715000Y-6689500D02*
X40715000Y-8010500D01*
X40715000Y-8010500D02*
X41674000Y-8010500D01*
X41674000Y-6689500D02*
X40715000Y-6689500D01*
X42526000Y-6689500D02*
X43485000Y-6689500D01*
X43485000Y-6689500D02*
X43485000Y-8010500D01*
X43485000Y-8010500D02*
X42526000Y-8010500D01*
D17*
%TO.C,SW1*%
X53625000Y-5628000D02*
X53625000Y-5581000D01*
X54105000Y-4300000D02*
X54105000Y-3362500D01*
X55219000Y-5628000D02*
X53625000Y-5628000D01*
X56550000Y-1700000D02*
X58300000Y-1700000D01*
X56550000Y-2350000D02*
X54781000Y-2350000D01*
X56550000Y-2350000D02*
X56550000Y-1700000D01*
X56550000Y-2350000D02*
X58438000Y-2350000D01*
X58300000Y-1700000D02*
X58300000Y-2300000D01*
X58382500Y-5627000D02*
X59975000Y-5627000D01*
X58438000Y-2350000D02*
X58819000Y-2350000D01*
X59523500Y-4309500D02*
X59523500Y-3372000D01*
X59975000Y-5627000D02*
X59975000Y-5581500D01*
D16*
%TO.C,R5*%
X32739500Y-30065000D02*
X34060500Y-30065000D01*
X32739500Y-31024000D02*
X32739500Y-30065000D01*
X32739500Y-31876000D02*
X32739500Y-32835000D01*
X32739500Y-32835000D02*
X34060500Y-32835000D01*
X34060500Y-30065000D02*
X34060500Y-31024000D01*
X34060500Y-32835000D02*
X34060500Y-31876000D01*
%TD*%
%LPC*%
D19*
%TO.C,Q3*%
X31600000Y-32350000D03*
X31600000Y-30450000D03*
X29600000Y-31400000D03*
%TD*%
D20*
%TO.C,R8*%
X26296500Y-23200000D03*
X27803500Y-23200000D03*
%TD*%
%TO.C,R2*%
X26296500Y-14850000D03*
X27803500Y-14850000D03*
%TD*%
D19*
%TO.C,Q4*%
X31600000Y-28750000D03*
X31600000Y-26850000D03*
X29600000Y-27800000D03*
%TD*%
D21*
%TO.C,U2*%
X24003000Y-10798000D03*
X24003000Y-12861000D03*
X24003000Y-14924000D03*
X24003000Y-16987000D03*
X24003000Y-19050000D03*
X24003000Y-21113000D03*
X24003000Y-23176000D03*
X24003000Y-25239000D03*
X24003000Y-27302000D03*
%TD*%
D20*
%TO.C,R4*%
X27803500Y-12900000D03*
X26296500Y-12900000D03*
%TD*%
D22*
%TO.C,Q1*%
X49353500Y-7200000D03*
X51253500Y-7200000D03*
X50303500Y-5200000D03*
%TD*%
D23*
%TO.C,R11*%
X33450000Y-16146500D03*
X33450000Y-17653500D03*
%TD*%
D20*
%TO.C,R3*%
X45850000Y-8900000D03*
X47357000Y-8900000D03*
%TD*%
%TO.C,R12*%
X26296500Y-19000000D03*
X27803500Y-19000000D03*
%TD*%
D22*
%TO.C,Q2*%
X45653500Y-7250000D03*
X47553500Y-7250000D03*
X46603500Y-5250000D03*
%TD*%
D24*
%TO.C,U3*%
X60489000Y-31233000D03*
X57949000Y-31233000D03*
X55409000Y-31233000D03*
X52869000Y-31233000D03*
X50329000Y-31233000D03*
X47789000Y-31233000D03*
X45249000Y-31233000D03*
X42709000Y-31233000D03*
X40169000Y-31233000D03*
D25*
X39079000Y-27813000D03*
X39079000Y-25273000D03*
X39079000Y-22733000D03*
X39079000Y-20193000D03*
X39079000Y-17653000D03*
D24*
X40169000Y-14233000D03*
X42709000Y-14233000D03*
X45249000Y-14233000D03*
X47789000Y-14233000D03*
X50329000Y-14233000D03*
X52869000Y-14233000D03*
X55409000Y-14233000D03*
X57949000Y-14233000D03*
X60489000Y-14233000D03*
%TD*%
D26*
%TO.C,REF\u002A\u002A*%
X35200000Y-20700000D03*
%TD*%
D23*
%TO.C,R7*%
X33400000Y-27146500D03*
X33400000Y-28653500D03*
%TD*%
%TO.C,R9*%
X33400000Y-23796500D03*
X33400000Y-25303500D03*
%TD*%
D20*
%TO.C,R1*%
X51057000Y-8850000D03*
X49550000Y-8850000D03*
%TD*%
D27*
%TO.C,C2*%
X27050000Y-10762500D03*
X27050000Y-7637500D03*
%TD*%
D23*
%TO.C,R13*%
X33400000Y-13046500D03*
X33400000Y-14553500D03*
%TD*%
D28*
%TO.C,C1*%
X44762500Y-3150000D03*
X41637500Y-3150000D03*
%TD*%
D29*
%TO.C,CN1*%
X18184000Y-11986000D03*
X18184000Y-14756000D03*
X18184000Y-17526000D03*
X18184000Y-20296000D03*
X18184000Y-23066000D03*
X15344000Y-13371000D03*
X15344000Y-16141000D03*
X15344000Y-18911000D03*
X15344000Y-21681000D03*
D30*
X16764000Y-30026000D03*
X16764000Y-5026000D03*
%TD*%
D20*
%TO.C,R14*%
X26296500Y-16950000D03*
X27803500Y-16950000D03*
%TD*%
D19*
%TO.C,Q5*%
X31600000Y-25200000D03*
X31600000Y-23300000D03*
X29600000Y-24250000D03*
%TD*%
%TO.C,Q6*%
X31700000Y-18300000D03*
X31700000Y-16400000D03*
X29700000Y-17350000D03*
%TD*%
D31*
%TO.C,USB-1*%
X30875000Y-8503250D03*
D32*
X30875000Y-4323750D03*
X39525000Y-4323750D03*
D31*
X39525000Y-8503250D03*
D33*
X38400000Y-9271750D03*
X37600000Y-9271750D03*
D34*
X36450000Y-9271750D03*
X35450000Y-9271750D03*
X34950000Y-9271750D03*
X33950500Y-9271750D03*
D33*
X32000000Y-9271750D03*
D35*
X32799500Y-9271750D03*
D34*
X33450000Y-9271750D03*
X34450000Y-9271750D03*
X35950000Y-9271750D03*
X36950000Y-9271750D03*
%TD*%
D19*
%TO.C,Q7*%
X31700000Y-14700000D03*
X31700000Y-12800000D03*
X29700000Y-13750000D03*
%TD*%
D20*
%TO.C,R6*%
X26296500Y-25250000D03*
X27803500Y-25250000D03*
%TD*%
%TO.C,R15*%
X42853500Y-5800000D03*
X41346500Y-5800000D03*
%TD*%
%TO.C,R10*%
X26300000Y-21100000D03*
X27807000Y-21100000D03*
%TD*%
%TO.C,R16*%
X42853500Y-7350000D03*
X41346500Y-7350000D03*
%TD*%
D36*
%TO.C,SW1*%
X57800000Y-5650000D03*
X56800000Y-5650000D03*
X55800000Y-5650000D03*
D37*
X59550000Y-4950000D03*
X59550000Y-2750000D03*
X54050000Y-4950000D03*
X54050000Y-2750000D03*
%TD*%
D23*
%TO.C,R5*%
X33400000Y-30696500D03*
X33400000Y-32203500D03*
%TD*%
%LPD*%
M02*
