%TF.GenerationSoftware,KiCad,Pcbnew,9.0.6*%
%TF.CreationDate,2025-12-28T15:40:13+00:00*%
%TF.ProjectId,ProPrj_SaturnAdapter_2025-11-23,50726f50-726a-45f5-9361-7475726e4164,rev?*%
%TF.SameCoordinates,Original*%
%TF.FileFunction,Legend,Top*%
%TF.FilePolarity,Positive*%
%FSLAX46Y46*%
G04 Gerber Fmt 4.6, Leading zero omitted, Abs format (unit mm)*
G04 Created by KiCad (PCBNEW 9.0.6) date 2025-12-28 15:40:13*
%MOMM*%
%LPD*%
G01*
G04 APERTURE LIST*
G04 Aperture macros list*
%AMFreePoly0*
4,1,5,0.300000,-0.650000,-0.300000,-0.650000,-0.300000,0.650000,0.300000,0.650000,0.300000,-0.650000,0.300000,-0.650000,$1*%
%AMFreePoly1*
4,1,5,0.299500,-0.650000,-0.300500,-0.650000,-0.300500,0.650000,0.299500,0.650000,0.299500,-0.650000,0.299500,-0.650000,$1*%
G04 Aperture macros list end*
%ADD10C,0.100000*%
%ADD11C,0.203000*%
%ADD12C,0.152375*%
%ADD13C,0.101500*%
%ADD14C,0.085000*%
%ADD15C,0.152500*%
%ADD16C,0.254000*%
%ADD17C,0.000000*%
%ADD18R,1.250000X0.700000*%
%ADD19R,0.864000X0.806500*%
%ADD20R,0.806500X0.864000*%
%ADD21R,1.200000X1.400000*%
%ADD22O,2.500000X1.800000*%
%ADD23R,0.700000X1.250000*%
%ADD24R,1.200000X2.000000*%
%ADD25R,2.000000X1.200000*%
%ADD26C,2.200000*%
%ADD27C,1.600000*%
%ADD28C,4.200000*%
%ADD29O,1.200000X2.000000*%
%ADD30O,1.200000X1.800000*%
%ADD31FreePoly0,180.000000*%
%ADD32R,0.300000X1.300000*%
%ADD33FreePoly1,180.000000*%
%ADD34R,0.700000X1.500000*%
%ADD35R,1.000000X0.800000*%
G04 APERTURE END LIST*
D10*
X51313408Y-33096895D02*
X51046741Y-32715942D01*
X50856265Y-33096895D02*
X50856265Y-32296895D01*
X50856265Y-32296895D02*
X51161027Y-32296895D01*
X51161027Y-32296895D02*
X51237217Y-32334990D01*
X51237217Y-32334990D02*
X51275312Y-32373085D01*
X51275312Y-32373085D02*
X51313408Y-32449276D01*
X51313408Y-32449276D02*
X51313408Y-32563561D01*
X51313408Y-32563561D02*
X51275312Y-32639752D01*
X51275312Y-32639752D02*
X51237217Y-32677847D01*
X51237217Y-32677847D02*
X51161027Y-32715942D01*
X51161027Y-32715942D02*
X50856265Y-32715942D01*
X51656265Y-33096895D02*
X51656265Y-32296895D01*
X51656265Y-32296895D02*
X51961027Y-32296895D01*
X51961027Y-32296895D02*
X52037217Y-32334990D01*
X52037217Y-32334990D02*
X52075312Y-32373085D01*
X52075312Y-32373085D02*
X52113408Y-32449276D01*
X52113408Y-32449276D02*
X52113408Y-32563561D01*
X52113408Y-32563561D02*
X52075312Y-32639752D01*
X52075312Y-32639752D02*
X52037217Y-32677847D01*
X52037217Y-32677847D02*
X51961027Y-32715942D01*
X51961027Y-32715942D02*
X51656265Y-32715942D01*
X52418169Y-32373085D02*
X52456265Y-32334990D01*
X52456265Y-32334990D02*
X52532455Y-32296895D01*
X52532455Y-32296895D02*
X52722931Y-32296895D01*
X52722931Y-32296895D02*
X52799122Y-32334990D01*
X52799122Y-32334990D02*
X52837217Y-32373085D01*
X52837217Y-32373085D02*
X52875312Y-32449276D01*
X52875312Y-32449276D02*
X52875312Y-32525466D01*
X52875312Y-32525466D02*
X52837217Y-32639752D01*
X52837217Y-32639752D02*
X52380074Y-33096895D01*
X52380074Y-33096895D02*
X52875312Y-33096895D01*
X53370551Y-32296895D02*
X53446741Y-32296895D01*
X53446741Y-32296895D02*
X53522932Y-32334990D01*
X53522932Y-32334990D02*
X53561027Y-32373085D01*
X53561027Y-32373085D02*
X53599122Y-32449276D01*
X53599122Y-32449276D02*
X53637217Y-32601657D01*
X53637217Y-32601657D02*
X53637217Y-32792133D01*
X53637217Y-32792133D02*
X53599122Y-32944514D01*
X53599122Y-32944514D02*
X53561027Y-33020704D01*
X53561027Y-33020704D02*
X53522932Y-33058800D01*
X53522932Y-33058800D02*
X53446741Y-33096895D01*
X53446741Y-33096895D02*
X53370551Y-33096895D01*
X53370551Y-33096895D02*
X53294360Y-33058800D01*
X53294360Y-33058800D02*
X53256265Y-33020704D01*
X53256265Y-33020704D02*
X53218170Y-32944514D01*
X53218170Y-32944514D02*
X53180074Y-32792133D01*
X53180074Y-32792133D02*
X53180074Y-32601657D01*
X53180074Y-32601657D02*
X53218170Y-32449276D01*
X53218170Y-32449276D02*
X53256265Y-32373085D01*
X53256265Y-32373085D02*
X53294360Y-32334990D01*
X53294360Y-32334990D02*
X53370551Y-32296895D01*
X54322932Y-32563561D02*
X54322932Y-33096895D01*
X54132456Y-32258800D02*
X53941979Y-32830228D01*
X53941979Y-32830228D02*
X54437218Y-32830228D01*
X54894361Y-32296895D02*
X54970551Y-32296895D01*
X54970551Y-32296895D02*
X55046742Y-32334990D01*
X55046742Y-32334990D02*
X55084837Y-32373085D01*
X55084837Y-32373085D02*
X55122932Y-32449276D01*
X55122932Y-32449276D02*
X55161027Y-32601657D01*
X55161027Y-32601657D02*
X55161027Y-32792133D01*
X55161027Y-32792133D02*
X55122932Y-32944514D01*
X55122932Y-32944514D02*
X55084837Y-33020704D01*
X55084837Y-33020704D02*
X55046742Y-33058800D01*
X55046742Y-33058800D02*
X54970551Y-33096895D01*
X54970551Y-33096895D02*
X54894361Y-33096895D01*
X54894361Y-33096895D02*
X54818170Y-33058800D01*
X54818170Y-33058800D02*
X54780075Y-33020704D01*
X54780075Y-33020704D02*
X54741980Y-32944514D01*
X54741980Y-32944514D02*
X54703884Y-32792133D01*
X54703884Y-32792133D02*
X54703884Y-32601657D01*
X54703884Y-32601657D02*
X54741980Y-32449276D01*
X54741980Y-32449276D02*
X54780075Y-32373085D01*
X54780075Y-32373085D02*
X54818170Y-32334990D01*
X54818170Y-32334990D02*
X54894361Y-32296895D01*
X55503885Y-32792133D02*
X56113409Y-32792133D01*
X56418170Y-32563561D02*
X56837218Y-32563561D01*
X56837218Y-32563561D02*
X56418170Y-33096895D01*
X56418170Y-33096895D02*
X56837218Y-33096895D01*
X57446742Y-33058800D02*
X57370551Y-33096895D01*
X57370551Y-33096895D02*
X57218170Y-33096895D01*
X57218170Y-33096895D02*
X57141980Y-33058800D01*
X57141980Y-33058800D02*
X57103884Y-32982609D01*
X57103884Y-32982609D02*
X57103884Y-32677847D01*
X57103884Y-32677847D02*
X57141980Y-32601657D01*
X57141980Y-32601657D02*
X57218170Y-32563561D01*
X57218170Y-32563561D02*
X57370551Y-32563561D01*
X57370551Y-32563561D02*
X57446742Y-32601657D01*
X57446742Y-32601657D02*
X57484837Y-32677847D01*
X57484837Y-32677847D02*
X57484837Y-32754038D01*
X57484837Y-32754038D02*
X57103884Y-32830228D01*
X57827694Y-33096895D02*
X57827694Y-32563561D01*
X57827694Y-32715942D02*
X57865789Y-32639752D01*
X57865789Y-32639752D02*
X57903884Y-32601657D01*
X57903884Y-32601657D02*
X57980075Y-32563561D01*
X57980075Y-32563561D02*
X58056265Y-32563561D01*
X58437217Y-33096895D02*
X58361027Y-33058800D01*
X58361027Y-33058800D02*
X58322932Y-33020704D01*
X58322932Y-33020704D02*
X58284836Y-32944514D01*
X58284836Y-32944514D02*
X58284836Y-32715942D01*
X58284836Y-32715942D02*
X58322932Y-32639752D01*
X58322932Y-32639752D02*
X58361027Y-32601657D01*
X58361027Y-32601657D02*
X58437217Y-32563561D01*
X58437217Y-32563561D02*
X58551503Y-32563561D01*
X58551503Y-32563561D02*
X58627694Y-32601657D01*
X58627694Y-32601657D02*
X58665789Y-32639752D01*
X58665789Y-32639752D02*
X58703884Y-32715942D01*
X58703884Y-32715942D02*
X58703884Y-32944514D01*
X58703884Y-32944514D02*
X58665789Y-33020704D01*
X58665789Y-33020704D02*
X58627694Y-33058800D01*
X58627694Y-33058800D02*
X58551503Y-33096895D01*
X58551503Y-33096895D02*
X58437217Y-33096895D01*
X17656265Y-19296895D02*
X17656265Y-18496895D01*
X17656265Y-18496895D02*
X17846741Y-18496895D01*
X17846741Y-18496895D02*
X17961027Y-18534990D01*
X17961027Y-18534990D02*
X18037217Y-18611180D01*
X18037217Y-18611180D02*
X18075312Y-18687371D01*
X18075312Y-18687371D02*
X18113408Y-18839752D01*
X18113408Y-18839752D02*
X18113408Y-18954038D01*
X18113408Y-18954038D02*
X18075312Y-19106419D01*
X18075312Y-19106419D02*
X18037217Y-19182609D01*
X18037217Y-19182609D02*
X17961027Y-19258800D01*
X17961027Y-19258800D02*
X17846741Y-19296895D01*
X17846741Y-19296895D02*
X17656265Y-19296895D01*
X18418169Y-18573085D02*
X18456265Y-18534990D01*
X18456265Y-18534990D02*
X18532455Y-18496895D01*
X18532455Y-18496895D02*
X18722931Y-18496895D01*
X18722931Y-18496895D02*
X18799122Y-18534990D01*
X18799122Y-18534990D02*
X18837217Y-18573085D01*
X18837217Y-18573085D02*
X18875312Y-18649276D01*
X18875312Y-18649276D02*
X18875312Y-18725466D01*
X18875312Y-18725466D02*
X18837217Y-18839752D01*
X18837217Y-18839752D02*
X18380074Y-19296895D01*
X18380074Y-19296895D02*
X18875312Y-19296895D01*
X21556265Y-24796895D02*
X21556265Y-23996895D01*
X21556265Y-23996895D02*
X21746741Y-23996895D01*
X21746741Y-23996895D02*
X21861027Y-24034990D01*
X21861027Y-24034990D02*
X21937217Y-24111180D01*
X21937217Y-24111180D02*
X21975312Y-24187371D01*
X21975312Y-24187371D02*
X22013408Y-24339752D01*
X22013408Y-24339752D02*
X22013408Y-24454038D01*
X22013408Y-24454038D02*
X21975312Y-24606419D01*
X21975312Y-24606419D02*
X21937217Y-24682609D01*
X21937217Y-24682609D02*
X21861027Y-24758800D01*
X21861027Y-24758800D02*
X21746741Y-24796895D01*
X21746741Y-24796895D02*
X21556265Y-24796895D01*
X22318169Y-24073085D02*
X22356265Y-24034990D01*
X22356265Y-24034990D02*
X22432455Y-23996895D01*
X22432455Y-23996895D02*
X22622931Y-23996895D01*
X22622931Y-23996895D02*
X22699122Y-24034990D01*
X22699122Y-24034990D02*
X22737217Y-24073085D01*
X22737217Y-24073085D02*
X22775312Y-24149276D01*
X22775312Y-24149276D02*
X22775312Y-24225466D01*
X22775312Y-24225466D02*
X22737217Y-24339752D01*
X22737217Y-24339752D02*
X22280074Y-24796895D01*
X22280074Y-24796895D02*
X22775312Y-24796895D01*
X17656265Y-22096895D02*
X17656265Y-21296895D01*
X17656265Y-21296895D02*
X17846741Y-21296895D01*
X17846741Y-21296895D02*
X17961027Y-21334990D01*
X17961027Y-21334990D02*
X18037217Y-21411180D01*
X18037217Y-21411180D02*
X18075312Y-21487371D01*
X18075312Y-21487371D02*
X18113408Y-21639752D01*
X18113408Y-21639752D02*
X18113408Y-21754038D01*
X18113408Y-21754038D02*
X18075312Y-21906419D01*
X18075312Y-21906419D02*
X18037217Y-21982609D01*
X18037217Y-21982609D02*
X17961027Y-22058800D01*
X17961027Y-22058800D02*
X17846741Y-22096895D01*
X17846741Y-22096895D02*
X17656265Y-22096895D01*
X18380074Y-21296895D02*
X18875312Y-21296895D01*
X18875312Y-21296895D02*
X18608646Y-21601657D01*
X18608646Y-21601657D02*
X18722931Y-21601657D01*
X18722931Y-21601657D02*
X18799122Y-21639752D01*
X18799122Y-21639752D02*
X18837217Y-21677847D01*
X18837217Y-21677847D02*
X18875312Y-21754038D01*
X18875312Y-21754038D02*
X18875312Y-21944514D01*
X18875312Y-21944514D02*
X18837217Y-22020704D01*
X18837217Y-22020704D02*
X18799122Y-22058800D01*
X18799122Y-22058800D02*
X18722931Y-22096895D01*
X18722931Y-22096895D02*
X18494360Y-22096895D01*
X18494360Y-22096895D02*
X18418169Y-22058800D01*
X18418169Y-22058800D02*
X18380074Y-22020704D01*
D11*
X37228344Y-30230971D02*
X35094844Y-30230971D01*
X35094844Y-30230971D02*
X36618772Y-29621305D01*
X36618772Y-29621305D02*
X35094844Y-29011638D01*
X35094844Y-29011638D02*
X37228344Y-29011638D01*
X37126749Y-27443923D02*
X37228344Y-27618114D01*
X37228344Y-27618114D02*
X37228344Y-27966495D01*
X37228344Y-27966495D02*
X37126749Y-28140685D01*
X37126749Y-28140685D02*
X36923558Y-28227781D01*
X36923558Y-28227781D02*
X36110796Y-28227781D01*
X36110796Y-28227781D02*
X35907606Y-28140685D01*
X35907606Y-28140685D02*
X35806010Y-27966495D01*
X35806010Y-27966495D02*
X35806010Y-27618114D01*
X35806010Y-27618114D02*
X35907606Y-27443923D01*
X35907606Y-27443923D02*
X36110796Y-27356828D01*
X36110796Y-27356828D02*
X36313987Y-27356828D01*
X36313987Y-27356828D02*
X36517177Y-28227781D01*
X35806010Y-25789114D02*
X37533129Y-25789114D01*
X37533129Y-25789114D02*
X37736320Y-25876209D01*
X37736320Y-25876209D02*
X37837915Y-25963305D01*
X37837915Y-25963305D02*
X37939510Y-26137495D01*
X37939510Y-26137495D02*
X37939510Y-26398781D01*
X37939510Y-26398781D02*
X37837915Y-26572971D01*
X37126749Y-25789114D02*
X37228344Y-25963305D01*
X37228344Y-25963305D02*
X37228344Y-26311686D01*
X37228344Y-26311686D02*
X37126749Y-26485876D01*
X37126749Y-26485876D02*
X37025153Y-26572971D01*
X37025153Y-26572971D02*
X36821963Y-26660067D01*
X36821963Y-26660067D02*
X36212391Y-26660067D01*
X36212391Y-26660067D02*
X36009201Y-26572971D01*
X36009201Y-26572971D02*
X35907606Y-26485876D01*
X35907606Y-26485876D02*
X35806010Y-26311686D01*
X35806010Y-26311686D02*
X35806010Y-25963305D01*
X35806010Y-25963305D02*
X35907606Y-25789114D01*
X37228344Y-24134304D02*
X36110796Y-24134304D01*
X36110796Y-24134304D02*
X35907606Y-24221399D01*
X35907606Y-24221399D02*
X35806010Y-24395590D01*
X35806010Y-24395590D02*
X35806010Y-24743971D01*
X35806010Y-24743971D02*
X35907606Y-24918161D01*
X37126749Y-24134304D02*
X37228344Y-24308495D01*
X37228344Y-24308495D02*
X37228344Y-24743971D01*
X37228344Y-24743971D02*
X37126749Y-24918161D01*
X37126749Y-24918161D02*
X36923558Y-25005257D01*
X36923558Y-25005257D02*
X36720368Y-25005257D01*
X36720368Y-25005257D02*
X36517177Y-24918161D01*
X36517177Y-24918161D02*
X36415582Y-24743971D01*
X36415582Y-24743971D02*
X36415582Y-24308495D01*
X36415582Y-24308495D02*
X36313987Y-24134304D01*
D12*
X38990484Y-10995489D02*
X38990484Y-12147036D01*
X38990484Y-12147036D02*
X39048531Y-12282512D01*
X39048531Y-12282512D02*
X39106579Y-12350251D01*
X39106579Y-12350251D02*
X39222674Y-12417989D01*
X39222674Y-12417989D02*
X39454865Y-12417989D01*
X39454865Y-12417989D02*
X39570960Y-12350251D01*
X39570960Y-12350251D02*
X39629007Y-12282512D01*
X39629007Y-12282512D02*
X39687055Y-12147036D01*
X39687055Y-12147036D02*
X39687055Y-10995489D01*
X40209484Y-12350251D02*
X40383627Y-12417989D01*
X40383627Y-12417989D02*
X40673865Y-12417989D01*
X40673865Y-12417989D02*
X40789960Y-12350251D01*
X40789960Y-12350251D02*
X40848008Y-12282512D01*
X40848008Y-12282512D02*
X40906055Y-12147036D01*
X40906055Y-12147036D02*
X40906055Y-12011560D01*
X40906055Y-12011560D02*
X40848008Y-11876084D01*
X40848008Y-11876084D02*
X40789960Y-11808346D01*
X40789960Y-11808346D02*
X40673865Y-11740608D01*
X40673865Y-11740608D02*
X40441674Y-11672870D01*
X40441674Y-11672870D02*
X40325579Y-11605131D01*
X40325579Y-11605131D02*
X40267532Y-11537393D01*
X40267532Y-11537393D02*
X40209484Y-11401917D01*
X40209484Y-11401917D02*
X40209484Y-11266441D01*
X40209484Y-11266441D02*
X40267532Y-11130965D01*
X40267532Y-11130965D02*
X40325579Y-11063227D01*
X40325579Y-11063227D02*
X40441674Y-10995489D01*
X40441674Y-10995489D02*
X40731913Y-10995489D01*
X40731913Y-10995489D02*
X40906055Y-11063227D01*
X41834817Y-11672870D02*
X42008960Y-11740608D01*
X42008960Y-11740608D02*
X42067007Y-11808346D01*
X42067007Y-11808346D02*
X42125055Y-11943822D01*
X42125055Y-11943822D02*
X42125055Y-12147036D01*
X42125055Y-12147036D02*
X42067007Y-12282512D01*
X42067007Y-12282512D02*
X42008960Y-12350251D01*
X42008960Y-12350251D02*
X41892865Y-12417989D01*
X41892865Y-12417989D02*
X41428484Y-12417989D01*
X41428484Y-12417989D02*
X41428484Y-10995489D01*
X41428484Y-10995489D02*
X41834817Y-10995489D01*
X41834817Y-10995489D02*
X41950912Y-11063227D01*
X41950912Y-11063227D02*
X42008960Y-11130965D01*
X42008960Y-11130965D02*
X42067007Y-11266441D01*
X42067007Y-11266441D02*
X42067007Y-11401917D01*
X42067007Y-11401917D02*
X42008960Y-11537393D01*
X42008960Y-11537393D02*
X41950912Y-11605131D01*
X41950912Y-11605131D02*
X41834817Y-11672870D01*
X41834817Y-11672870D02*
X41428484Y-11672870D01*
X43402103Y-10995489D02*
X44098674Y-10995489D01*
X43750388Y-12417989D02*
X43750388Y-10995489D01*
X44679150Y-12417989D02*
X44563055Y-12350251D01*
X44563055Y-12350251D02*
X44505008Y-12282512D01*
X44505008Y-12282512D02*
X44446960Y-12147036D01*
X44446960Y-12147036D02*
X44446960Y-11740608D01*
X44446960Y-11740608D02*
X44505008Y-11605131D01*
X44505008Y-11605131D02*
X44563055Y-11537393D01*
X44563055Y-11537393D02*
X44679150Y-11469655D01*
X44679150Y-11469655D02*
X44853293Y-11469655D01*
X44853293Y-11469655D02*
X44969389Y-11537393D01*
X44969389Y-11537393D02*
X45027436Y-11605131D01*
X45027436Y-11605131D02*
X45085484Y-11740608D01*
X45085484Y-11740608D02*
X45085484Y-12147036D01*
X45085484Y-12147036D02*
X45027436Y-12282512D01*
X45027436Y-12282512D02*
X44969389Y-12350251D01*
X44969389Y-12350251D02*
X44853293Y-12417989D01*
X44853293Y-12417989D02*
X44679150Y-12417989D01*
X46478627Y-12350251D02*
X46652770Y-12417989D01*
X46652770Y-12417989D02*
X46943008Y-12417989D01*
X46943008Y-12417989D02*
X47059103Y-12350251D01*
X47059103Y-12350251D02*
X47117151Y-12282512D01*
X47117151Y-12282512D02*
X47175198Y-12147036D01*
X47175198Y-12147036D02*
X47175198Y-12011560D01*
X47175198Y-12011560D02*
X47117151Y-11876084D01*
X47117151Y-11876084D02*
X47059103Y-11808346D01*
X47059103Y-11808346D02*
X46943008Y-11740608D01*
X46943008Y-11740608D02*
X46710817Y-11672870D01*
X46710817Y-11672870D02*
X46594722Y-11605131D01*
X46594722Y-11605131D02*
X46536675Y-11537393D01*
X46536675Y-11537393D02*
X46478627Y-11401917D01*
X46478627Y-11401917D02*
X46478627Y-11266441D01*
X46478627Y-11266441D02*
X46536675Y-11130965D01*
X46536675Y-11130965D02*
X46594722Y-11063227D01*
X46594722Y-11063227D02*
X46710817Y-10995489D01*
X46710817Y-10995489D02*
X47001056Y-10995489D01*
X47001056Y-10995489D02*
X47175198Y-11063227D01*
X48162008Y-12350251D02*
X48045912Y-12417989D01*
X48045912Y-12417989D02*
X47813722Y-12417989D01*
X47813722Y-12417989D02*
X47697627Y-12350251D01*
X47697627Y-12350251D02*
X47639579Y-12214774D01*
X47639579Y-12214774D02*
X47639579Y-11672870D01*
X47639579Y-11672870D02*
X47697627Y-11537393D01*
X47697627Y-11537393D02*
X47813722Y-11469655D01*
X47813722Y-11469655D02*
X48045912Y-11469655D01*
X48045912Y-11469655D02*
X48162008Y-11537393D01*
X48162008Y-11537393D02*
X48220055Y-11672870D01*
X48220055Y-11672870D02*
X48220055Y-11808346D01*
X48220055Y-11808346D02*
X47639579Y-11943822D01*
X49264912Y-11469655D02*
X49264912Y-12621203D01*
X49264912Y-12621203D02*
X49206865Y-12756679D01*
X49206865Y-12756679D02*
X49148817Y-12824417D01*
X49148817Y-12824417D02*
X49032722Y-12892155D01*
X49032722Y-12892155D02*
X48858579Y-12892155D01*
X48858579Y-12892155D02*
X48742484Y-12824417D01*
X49264912Y-12350251D02*
X49148817Y-12417989D01*
X49148817Y-12417989D02*
X48916626Y-12417989D01*
X48916626Y-12417989D02*
X48800531Y-12350251D01*
X48800531Y-12350251D02*
X48742484Y-12282512D01*
X48742484Y-12282512D02*
X48684436Y-12147036D01*
X48684436Y-12147036D02*
X48684436Y-11740608D01*
X48684436Y-11740608D02*
X48742484Y-11605131D01*
X48742484Y-11605131D02*
X48800531Y-11537393D01*
X48800531Y-11537393D02*
X48916626Y-11469655D01*
X48916626Y-11469655D02*
X49148817Y-11469655D01*
X49148817Y-11469655D02*
X49264912Y-11537393D01*
X50367817Y-12417989D02*
X50367817Y-11672870D01*
X50367817Y-11672870D02*
X50309770Y-11537393D01*
X50309770Y-11537393D02*
X50193674Y-11469655D01*
X50193674Y-11469655D02*
X49961484Y-11469655D01*
X49961484Y-11469655D02*
X49845389Y-11537393D01*
X50367817Y-12350251D02*
X50251722Y-12417989D01*
X50251722Y-12417989D02*
X49961484Y-12417989D01*
X49961484Y-12417989D02*
X49845389Y-12350251D01*
X49845389Y-12350251D02*
X49787341Y-12214774D01*
X49787341Y-12214774D02*
X49787341Y-12079298D01*
X49787341Y-12079298D02*
X49845389Y-11943822D01*
X49845389Y-11943822D02*
X49961484Y-11876084D01*
X49961484Y-11876084D02*
X50251722Y-11876084D01*
X50251722Y-11876084D02*
X50367817Y-11808346D01*
X51877056Y-12417989D02*
X51877056Y-10995489D01*
X51877056Y-10995489D02*
X52283389Y-12011560D01*
X52283389Y-12011560D02*
X52689722Y-10995489D01*
X52689722Y-10995489D02*
X52689722Y-12417989D01*
X53270199Y-12417989D02*
X53270199Y-11469655D01*
X53270199Y-10995489D02*
X53212151Y-11063227D01*
X53212151Y-11063227D02*
X53270199Y-11130965D01*
X53270199Y-11130965D02*
X53328246Y-11063227D01*
X53328246Y-11063227D02*
X53270199Y-10995489D01*
X53270199Y-10995489D02*
X53270199Y-11130965D01*
X53850675Y-11469655D02*
X53850675Y-12417989D01*
X53850675Y-11605131D02*
X53908722Y-11537393D01*
X53908722Y-11537393D02*
X54024817Y-11469655D01*
X54024817Y-11469655D02*
X54198960Y-11469655D01*
X54198960Y-11469655D02*
X54315056Y-11537393D01*
X54315056Y-11537393D02*
X54373103Y-11672870D01*
X54373103Y-11672870D02*
X54373103Y-12417989D01*
X54953580Y-12417989D02*
X54953580Y-11469655D01*
X54953580Y-10995489D02*
X54895532Y-11063227D01*
X54895532Y-11063227D02*
X54953580Y-11130965D01*
X54953580Y-11130965D02*
X55011627Y-11063227D01*
X55011627Y-11063227D02*
X54953580Y-10995489D01*
X54953580Y-10995489D02*
X54953580Y-11130965D01*
D13*
X17757252Y-16496817D02*
X17757252Y-15696817D01*
X17757252Y-15696817D02*
X17947728Y-15696817D01*
X17947728Y-15696817D02*
X18062014Y-15734912D01*
X18062014Y-15734912D02*
X18138204Y-15811102D01*
X18138204Y-15811102D02*
X18176299Y-15887293D01*
X18176299Y-15887293D02*
X18214395Y-16039674D01*
X18214395Y-16039674D02*
X18214395Y-16153960D01*
X18214395Y-16153960D02*
X18176299Y-16306341D01*
X18176299Y-16306341D02*
X18138204Y-16382531D01*
X18138204Y-16382531D02*
X18062014Y-16458722D01*
X18062014Y-16458722D02*
X17947728Y-16496817D01*
X17947728Y-16496817D02*
X17757252Y-16496817D01*
X18976299Y-16496817D02*
X18519156Y-16496817D01*
X18747728Y-16496817D02*
X18747728Y-15696817D01*
X18747728Y-15696817D02*
X18671537Y-15811102D01*
X18671537Y-15811102D02*
X18595347Y-15887293D01*
X18595347Y-15887293D02*
X18519156Y-15925388D01*
D10*
X17756265Y-13696895D02*
X17756265Y-12896895D01*
X17756265Y-12896895D02*
X17946741Y-12896895D01*
X17946741Y-12896895D02*
X18061027Y-12934990D01*
X18061027Y-12934990D02*
X18137217Y-13011180D01*
X18137217Y-13011180D02*
X18175312Y-13087371D01*
X18175312Y-13087371D02*
X18213408Y-13239752D01*
X18213408Y-13239752D02*
X18213408Y-13354038D01*
X18213408Y-13354038D02*
X18175312Y-13506419D01*
X18175312Y-13506419D02*
X18137217Y-13582609D01*
X18137217Y-13582609D02*
X18061027Y-13658800D01*
X18061027Y-13658800D02*
X17946741Y-13696895D01*
X17946741Y-13696895D02*
X17756265Y-13696895D01*
X18708646Y-12896895D02*
X18784836Y-12896895D01*
X18784836Y-12896895D02*
X18861027Y-12934990D01*
X18861027Y-12934990D02*
X18899122Y-12973085D01*
X18899122Y-12973085D02*
X18937217Y-13049276D01*
X18937217Y-13049276D02*
X18975312Y-13201657D01*
X18975312Y-13201657D02*
X18975312Y-13392133D01*
X18975312Y-13392133D02*
X18937217Y-13544514D01*
X18937217Y-13544514D02*
X18899122Y-13620704D01*
X18899122Y-13620704D02*
X18861027Y-13658800D01*
X18861027Y-13658800D02*
X18784836Y-13696895D01*
X18784836Y-13696895D02*
X18708646Y-13696895D01*
X18708646Y-13696895D02*
X18632455Y-13658800D01*
X18632455Y-13658800D02*
X18594360Y-13620704D01*
X18594360Y-13620704D02*
X18556265Y-13544514D01*
X18556265Y-13544514D02*
X18518169Y-13392133D01*
X18518169Y-13392133D02*
X18518169Y-13201657D01*
X18518169Y-13201657D02*
X18556265Y-13049276D01*
X18556265Y-13049276D02*
X18594360Y-12973085D01*
X18594360Y-12973085D02*
X18632455Y-12934990D01*
X18632455Y-12934990D02*
X18708646Y-12896895D01*
X21556265Y-22696895D02*
X21556265Y-21896895D01*
X21556265Y-21896895D02*
X21746741Y-21896895D01*
X21746741Y-21896895D02*
X21861027Y-21934990D01*
X21861027Y-21934990D02*
X21937217Y-22011180D01*
X21937217Y-22011180D02*
X21975312Y-22087371D01*
X21975312Y-22087371D02*
X22013408Y-22239752D01*
X22013408Y-22239752D02*
X22013408Y-22354038D01*
X22013408Y-22354038D02*
X21975312Y-22506419D01*
X21975312Y-22506419D02*
X21937217Y-22582609D01*
X21937217Y-22582609D02*
X21861027Y-22658800D01*
X21861027Y-22658800D02*
X21746741Y-22696895D01*
X21746741Y-22696895D02*
X21556265Y-22696895D01*
X22280074Y-21896895D02*
X22775312Y-21896895D01*
X22775312Y-21896895D02*
X22508646Y-22201657D01*
X22508646Y-22201657D02*
X22622931Y-22201657D01*
X22622931Y-22201657D02*
X22699122Y-22239752D01*
X22699122Y-22239752D02*
X22737217Y-22277847D01*
X22737217Y-22277847D02*
X22775312Y-22354038D01*
X22775312Y-22354038D02*
X22775312Y-22544514D01*
X22775312Y-22544514D02*
X22737217Y-22620704D01*
X22737217Y-22620704D02*
X22699122Y-22658800D01*
X22699122Y-22658800D02*
X22622931Y-22696895D01*
X22622931Y-22696895D02*
X22394360Y-22696895D01*
X22394360Y-22696895D02*
X22318169Y-22658800D01*
X22318169Y-22658800D02*
X22280074Y-22620704D01*
X20957217Y-10272895D02*
X20576265Y-10272895D01*
X20576265Y-10272895D02*
X20538169Y-10653847D01*
X20538169Y-10653847D02*
X20576265Y-10615752D01*
X20576265Y-10615752D02*
X20652455Y-10577657D01*
X20652455Y-10577657D02*
X20842931Y-10577657D01*
X20842931Y-10577657D02*
X20919122Y-10615752D01*
X20919122Y-10615752D02*
X20957217Y-10653847D01*
X20957217Y-10653847D02*
X20995312Y-10730038D01*
X20995312Y-10730038D02*
X20995312Y-10920514D01*
X20995312Y-10920514D02*
X20957217Y-10996704D01*
X20957217Y-10996704D02*
X20919122Y-11034800D01*
X20919122Y-11034800D02*
X20842931Y-11072895D01*
X20842931Y-11072895D02*
X20652455Y-11072895D01*
X20652455Y-11072895D02*
X20576265Y-11034800D01*
X20576265Y-11034800D02*
X20538169Y-10996704D01*
X21223884Y-10272895D02*
X21490551Y-11072895D01*
X21490551Y-11072895D02*
X21757217Y-10272895D01*
X21256265Y-12596895D02*
X21256265Y-11796895D01*
X21256265Y-11796895D02*
X21446741Y-11796895D01*
X21446741Y-11796895D02*
X21561027Y-11834990D01*
X21561027Y-11834990D02*
X21637217Y-11911180D01*
X21637217Y-11911180D02*
X21675312Y-11987371D01*
X21675312Y-11987371D02*
X21713408Y-12139752D01*
X21713408Y-12139752D02*
X21713408Y-12254038D01*
X21713408Y-12254038D02*
X21675312Y-12406419D01*
X21675312Y-12406419D02*
X21637217Y-12482609D01*
X21637217Y-12482609D02*
X21561027Y-12558800D01*
X21561027Y-12558800D02*
X21446741Y-12596895D01*
X21446741Y-12596895D02*
X21256265Y-12596895D01*
X22475312Y-12596895D02*
X22018169Y-12596895D01*
X22246741Y-12596895D02*
X22246741Y-11796895D01*
X22246741Y-11796895D02*
X22170550Y-11911180D01*
X22170550Y-11911180D02*
X22094360Y-11987371D01*
X22094360Y-11987371D02*
X22018169Y-12025466D01*
X14741979Y-22596895D02*
X15199122Y-22596895D01*
X14970550Y-23396895D02*
X14970550Y-22596895D01*
X15922932Y-23396895D02*
X15656265Y-23015942D01*
X15465789Y-23396895D02*
X15465789Y-22596895D01*
X15465789Y-22596895D02*
X15770551Y-22596895D01*
X15770551Y-22596895D02*
X15846741Y-22634990D01*
X15846741Y-22634990D02*
X15884836Y-22673085D01*
X15884836Y-22673085D02*
X15922932Y-22749276D01*
X15922932Y-22749276D02*
X15922932Y-22863561D01*
X15922932Y-22863561D02*
X15884836Y-22939752D01*
X15884836Y-22939752D02*
X15846741Y-22977847D01*
X15846741Y-22977847D02*
X15770551Y-23015942D01*
X15770551Y-23015942D02*
X15465789Y-23015942D01*
X52813408Y-7320704D02*
X52775312Y-7358800D01*
X52775312Y-7358800D02*
X52661027Y-7396895D01*
X52661027Y-7396895D02*
X52584836Y-7396895D01*
X52584836Y-7396895D02*
X52470550Y-7358800D01*
X52470550Y-7358800D02*
X52394360Y-7282609D01*
X52394360Y-7282609D02*
X52356265Y-7206419D01*
X52356265Y-7206419D02*
X52318169Y-7054038D01*
X52318169Y-7054038D02*
X52318169Y-6939752D01*
X52318169Y-6939752D02*
X52356265Y-6787371D01*
X52356265Y-6787371D02*
X52394360Y-6711180D01*
X52394360Y-6711180D02*
X52470550Y-6634990D01*
X52470550Y-6634990D02*
X52584836Y-6596895D01*
X52584836Y-6596895D02*
X52661027Y-6596895D01*
X52661027Y-6596895D02*
X52775312Y-6634990D01*
X52775312Y-6634990D02*
X52813408Y-6673085D01*
X53156265Y-7092133D02*
X53765789Y-7092133D01*
X53461027Y-7396895D02*
X53461027Y-6787371D01*
X54527693Y-6596895D02*
X54146741Y-6596895D01*
X54146741Y-6596895D02*
X54108645Y-6977847D01*
X54108645Y-6977847D02*
X54146741Y-6939752D01*
X54146741Y-6939752D02*
X54222931Y-6901657D01*
X54222931Y-6901657D02*
X54413407Y-6901657D01*
X54413407Y-6901657D02*
X54489598Y-6939752D01*
X54489598Y-6939752D02*
X54527693Y-6977847D01*
X54527693Y-6977847D02*
X54565788Y-7054038D01*
X54565788Y-7054038D02*
X54565788Y-7244514D01*
X54565788Y-7244514D02*
X54527693Y-7320704D01*
X54527693Y-7320704D02*
X54489598Y-7358800D01*
X54489598Y-7358800D02*
X54413407Y-7396895D01*
X54413407Y-7396895D02*
X54222931Y-7396895D01*
X54222931Y-7396895D02*
X54146741Y-7358800D01*
X54146741Y-7358800D02*
X54108645Y-7320704D01*
X54794360Y-6596895D02*
X55061027Y-7396895D01*
X55061027Y-7396895D02*
X55327693Y-6596895D01*
X56203884Y-6863561D02*
X55594360Y-7092133D01*
X55594360Y-7092133D02*
X56203884Y-7320704D01*
X57194360Y-6863561D02*
X57803884Y-7092133D01*
X57803884Y-7092133D02*
X57194360Y-7320704D01*
X58184836Y-6977847D02*
X58451502Y-6977847D01*
X58565788Y-7396895D02*
X58184836Y-7396895D01*
X58184836Y-7396895D02*
X58184836Y-6596895D01*
X58184836Y-6596895D02*
X58565788Y-6596895D01*
X58832455Y-6596895D02*
X59365789Y-7396895D01*
X59365789Y-6596895D02*
X58832455Y-7396895D01*
X59556265Y-6596895D02*
X60013408Y-6596895D01*
X59784836Y-7396895D02*
X59784836Y-6596895D01*
X60661027Y-6596895D02*
X60280075Y-6596895D01*
X60280075Y-6596895D02*
X60241979Y-6977847D01*
X60241979Y-6977847D02*
X60280075Y-6939752D01*
X60280075Y-6939752D02*
X60356265Y-6901657D01*
X60356265Y-6901657D02*
X60546741Y-6901657D01*
X60546741Y-6901657D02*
X60622932Y-6939752D01*
X60622932Y-6939752D02*
X60661027Y-6977847D01*
X60661027Y-6977847D02*
X60699122Y-7054038D01*
X60699122Y-7054038D02*
X60699122Y-7244514D01*
X60699122Y-7244514D02*
X60661027Y-7320704D01*
X60661027Y-7320704D02*
X60622932Y-7358800D01*
X60622932Y-7358800D02*
X60546741Y-7396895D01*
X60546741Y-7396895D02*
X60356265Y-7396895D01*
X60356265Y-7396895D02*
X60280075Y-7358800D01*
X60280075Y-7358800D02*
X60241979Y-7320704D01*
X60927694Y-6596895D02*
X61194361Y-7396895D01*
X61194361Y-7396895D02*
X61461027Y-6596895D01*
X21256265Y-14396895D02*
X21256265Y-13596895D01*
X21256265Y-13596895D02*
X21446741Y-13596895D01*
X21446741Y-13596895D02*
X21561027Y-13634990D01*
X21561027Y-13634990D02*
X21637217Y-13711180D01*
X21637217Y-13711180D02*
X21675312Y-13787371D01*
X21675312Y-13787371D02*
X21713408Y-13939752D01*
X21713408Y-13939752D02*
X21713408Y-14054038D01*
X21713408Y-14054038D02*
X21675312Y-14206419D01*
X21675312Y-14206419D02*
X21637217Y-14282609D01*
X21637217Y-14282609D02*
X21561027Y-14358800D01*
X21561027Y-14358800D02*
X21446741Y-14396895D01*
X21446741Y-14396895D02*
X21256265Y-14396895D01*
X22208646Y-13596895D02*
X22284836Y-13596895D01*
X22284836Y-13596895D02*
X22361027Y-13634990D01*
X22361027Y-13634990D02*
X22399122Y-13673085D01*
X22399122Y-13673085D02*
X22437217Y-13749276D01*
X22437217Y-13749276D02*
X22475312Y-13901657D01*
X22475312Y-13901657D02*
X22475312Y-14092133D01*
X22475312Y-14092133D02*
X22437217Y-14244514D01*
X22437217Y-14244514D02*
X22399122Y-14320704D01*
X22399122Y-14320704D02*
X22361027Y-14358800D01*
X22361027Y-14358800D02*
X22284836Y-14396895D01*
X22284836Y-14396895D02*
X22208646Y-14396895D01*
X22208646Y-14396895D02*
X22132455Y-14358800D01*
X22132455Y-14358800D02*
X22094360Y-14320704D01*
X22094360Y-14320704D02*
X22056265Y-14244514D01*
X22056265Y-14244514D02*
X22018169Y-14092133D01*
X22018169Y-14092133D02*
X22018169Y-13901657D01*
X22018169Y-13901657D02*
X22056265Y-13749276D01*
X22056265Y-13749276D02*
X22094360Y-13673085D01*
X22094360Y-13673085D02*
X22132455Y-13634990D01*
X22132455Y-13634990D02*
X22208646Y-13596895D01*
X14741979Y-17096895D02*
X15199122Y-17096895D01*
X14970550Y-17896895D02*
X14970550Y-17096895D01*
X15465789Y-17896895D02*
X15465789Y-17096895D01*
X15465789Y-17477847D02*
X15922932Y-17477847D01*
X15922932Y-17896895D02*
X15922932Y-17096895D01*
D13*
X21442966Y-17896817D02*
X21900109Y-17896817D01*
X21671537Y-18696817D02*
X21671537Y-17896817D01*
X22623919Y-18696817D02*
X22357252Y-18315864D01*
X22166776Y-18696817D02*
X22166776Y-17896817D01*
X22166776Y-17896817D02*
X22471538Y-17896817D01*
X22471538Y-17896817D02*
X22547728Y-17934912D01*
X22547728Y-17934912D02*
X22585823Y-17973007D01*
X22585823Y-17973007D02*
X22623919Y-18049198D01*
X22623919Y-18049198D02*
X22623919Y-18163483D01*
X22623919Y-18163483D02*
X22585823Y-18239674D01*
X22585823Y-18239674D02*
X22547728Y-18277769D01*
X22547728Y-18277769D02*
X22471538Y-18315864D01*
X22471538Y-18315864D02*
X22166776Y-18315864D01*
D10*
X18037217Y-24096895D02*
X17656265Y-24096895D01*
X17656265Y-24096895D02*
X17618169Y-24477847D01*
X17618169Y-24477847D02*
X17656265Y-24439752D01*
X17656265Y-24439752D02*
X17732455Y-24401657D01*
X17732455Y-24401657D02*
X17922931Y-24401657D01*
X17922931Y-24401657D02*
X17999122Y-24439752D01*
X17999122Y-24439752D02*
X18037217Y-24477847D01*
X18037217Y-24477847D02*
X18075312Y-24554038D01*
X18075312Y-24554038D02*
X18075312Y-24744514D01*
X18075312Y-24744514D02*
X18037217Y-24820704D01*
X18037217Y-24820704D02*
X17999122Y-24858800D01*
X17999122Y-24858800D02*
X17922931Y-24896895D01*
X17922931Y-24896895D02*
X17732455Y-24896895D01*
X17732455Y-24896895D02*
X17656265Y-24858800D01*
X17656265Y-24858800D02*
X17618169Y-24820704D01*
X18303884Y-24096895D02*
X18570551Y-24896895D01*
X18570551Y-24896895D02*
X18837217Y-24096895D01*
X21441979Y-19896895D02*
X21899122Y-19896895D01*
X21670550Y-20696895D02*
X21670550Y-19896895D01*
X22546741Y-20696895D02*
X22165789Y-20696895D01*
X22165789Y-20696895D02*
X22165789Y-19896895D01*
D11*
X21343075Y-30142586D02*
X21009742Y-29571158D01*
X20771647Y-30142586D02*
X20771647Y-28942586D01*
X20771647Y-28942586D02*
X21152599Y-28942586D01*
X21152599Y-28942586D02*
X21247837Y-28999729D01*
X21247837Y-28999729D02*
X21295456Y-29056872D01*
X21295456Y-29056872D02*
X21343075Y-29171158D01*
X21343075Y-29171158D02*
X21343075Y-29342586D01*
X21343075Y-29342586D02*
X21295456Y-29456872D01*
X21295456Y-29456872D02*
X21247837Y-29514015D01*
X21247837Y-29514015D02*
X21152599Y-29571158D01*
X21152599Y-29571158D02*
X20771647Y-29571158D01*
X21771647Y-29514015D02*
X22104980Y-29514015D01*
X22247837Y-30142586D02*
X21771647Y-30142586D01*
X21771647Y-30142586D02*
X21771647Y-28942586D01*
X21771647Y-28942586D02*
X22247837Y-28942586D01*
X22533552Y-28942586D02*
X22866885Y-30142586D01*
X22866885Y-30142586D02*
X23200218Y-28942586D01*
X24485933Y-28942586D02*
X24581171Y-28942586D01*
X24581171Y-28942586D02*
X24676409Y-28999729D01*
X24676409Y-28999729D02*
X24724028Y-29056872D01*
X24724028Y-29056872D02*
X24771647Y-29171158D01*
X24771647Y-29171158D02*
X24819266Y-29399729D01*
X24819266Y-29399729D02*
X24819266Y-29685444D01*
X24819266Y-29685444D02*
X24771647Y-29914015D01*
X24771647Y-29914015D02*
X24724028Y-30028301D01*
X24724028Y-30028301D02*
X24676409Y-30085444D01*
X24676409Y-30085444D02*
X24581171Y-30142586D01*
X24581171Y-30142586D02*
X24485933Y-30142586D01*
X24485933Y-30142586D02*
X24390695Y-30085444D01*
X24390695Y-30085444D02*
X24343076Y-30028301D01*
X24343076Y-30028301D02*
X24295457Y-29914015D01*
X24295457Y-29914015D02*
X24247838Y-29685444D01*
X24247838Y-29685444D02*
X24247838Y-29399729D01*
X24247838Y-29399729D02*
X24295457Y-29171158D01*
X24295457Y-29171158D02*
X24343076Y-29056872D01*
X24343076Y-29056872D02*
X24390695Y-28999729D01*
X24390695Y-28999729D02*
X24485933Y-28942586D01*
X25247838Y-30028301D02*
X25295457Y-30085444D01*
X25295457Y-30085444D02*
X25247838Y-30142586D01*
X25247838Y-30142586D02*
X25200219Y-30085444D01*
X25200219Y-30085444D02*
X25247838Y-30028301D01*
X25247838Y-30028301D02*
X25247838Y-30142586D01*
X26200218Y-28942586D02*
X25724028Y-28942586D01*
X25724028Y-28942586D02*
X25676409Y-29514015D01*
X25676409Y-29514015D02*
X25724028Y-29456872D01*
X25724028Y-29456872D02*
X25819266Y-29399729D01*
X25819266Y-29399729D02*
X26057361Y-29399729D01*
X26057361Y-29399729D02*
X26152599Y-29456872D01*
X26152599Y-29456872D02*
X26200218Y-29514015D01*
X26200218Y-29514015D02*
X26247837Y-29628301D01*
X26247837Y-29628301D02*
X26247837Y-29914015D01*
X26247837Y-29914015D02*
X26200218Y-30028301D01*
X26200218Y-30028301D02*
X26152599Y-30085444D01*
X26152599Y-30085444D02*
X26057361Y-30142586D01*
X26057361Y-30142586D02*
X25819266Y-30142586D01*
X25819266Y-30142586D02*
X25724028Y-30085444D01*
X25724028Y-30085444D02*
X25676409Y-30028301D01*
D10*
X14841979Y-14296895D02*
X15299122Y-14296895D01*
X15070550Y-15096895D02*
X15070550Y-14296895D01*
X15946741Y-15096895D02*
X15565789Y-15096895D01*
X15565789Y-15096895D02*
X15565789Y-14296895D01*
D14*
X14765444Y-19935770D02*
X14689254Y-19897675D01*
X14689254Y-19897675D02*
X14574968Y-19897675D01*
X14574968Y-19897675D02*
X14460682Y-19935770D01*
X14460682Y-19935770D02*
X14384492Y-20011960D01*
X14384492Y-20011960D02*
X14346397Y-20088151D01*
X14346397Y-20088151D02*
X14308301Y-20240532D01*
X14308301Y-20240532D02*
X14308301Y-20354818D01*
X14308301Y-20354818D02*
X14346397Y-20507199D01*
X14346397Y-20507199D02*
X14384492Y-20583389D01*
X14384492Y-20583389D02*
X14460682Y-20659580D01*
X14460682Y-20659580D02*
X14574968Y-20697675D01*
X14574968Y-20697675D02*
X14651159Y-20697675D01*
X14651159Y-20697675D02*
X14765444Y-20659580D01*
X14765444Y-20659580D02*
X14803540Y-20621484D01*
X14803540Y-20621484D02*
X14803540Y-20354818D01*
X14803540Y-20354818D02*
X14651159Y-20354818D01*
X15146397Y-20697675D02*
X15146397Y-19897675D01*
X15146397Y-19897675D02*
X15603540Y-20697675D01*
X15603540Y-20697675D02*
X15603540Y-19897675D01*
X15984492Y-20697675D02*
X15984492Y-19897675D01*
X15984492Y-19897675D02*
X16174968Y-19897675D01*
X16174968Y-19897675D02*
X16289254Y-19935770D01*
X16289254Y-19935770D02*
X16365444Y-20011960D01*
X16365444Y-20011960D02*
X16403539Y-20088151D01*
X16403539Y-20088151D02*
X16441635Y-20240532D01*
X16441635Y-20240532D02*
X16441635Y-20354818D01*
X16441635Y-20354818D02*
X16403539Y-20507199D01*
X16403539Y-20507199D02*
X16365444Y-20583389D01*
X16365444Y-20583389D02*
X16289254Y-20659580D01*
X16289254Y-20659580D02*
X16174968Y-20697675D01*
X16174968Y-20697675D02*
X15984492Y-20697675D01*
D10*
X21441979Y-15996895D02*
X21899122Y-15996895D01*
X21670550Y-16796895D02*
X21670550Y-15996895D01*
X22165789Y-16796895D02*
X22165789Y-15996895D01*
X22165789Y-16377847D02*
X22622932Y-16377847D01*
X22622932Y-16796895D02*
X22622932Y-15996895D01*
D13*
X27564141Y-7615485D02*
X26497141Y-7615485D01*
X26497141Y-7615485D02*
X26497141Y-7267104D01*
X26497141Y-7267104D02*
X26547951Y-7180009D01*
X26547951Y-7180009D02*
X26598760Y-7136462D01*
X26598760Y-7136462D02*
X26700379Y-7092914D01*
X26700379Y-7092914D02*
X26852808Y-7092914D01*
X26852808Y-7092914D02*
X26954427Y-7136462D01*
X26954427Y-7136462D02*
X27005236Y-7180009D01*
X27005236Y-7180009D02*
X27056046Y-7267104D01*
X27056046Y-7267104D02*
X27056046Y-7615485D01*
X27564141Y-6570343D02*
X27513332Y-6657438D01*
X27513332Y-6657438D02*
X27462522Y-6700985D01*
X27462522Y-6700985D02*
X27360903Y-6744533D01*
X27360903Y-6744533D02*
X27056046Y-6744533D01*
X27056046Y-6744533D02*
X26954427Y-6700985D01*
X26954427Y-6700985D02*
X26903617Y-6657438D01*
X26903617Y-6657438D02*
X26852808Y-6570343D01*
X26852808Y-6570343D02*
X26852808Y-6439700D01*
X26852808Y-6439700D02*
X26903617Y-6352604D01*
X26903617Y-6352604D02*
X26954427Y-6309057D01*
X26954427Y-6309057D02*
X27056046Y-6265509D01*
X27056046Y-6265509D02*
X27360903Y-6265509D01*
X27360903Y-6265509D02*
X27462522Y-6309057D01*
X27462522Y-6309057D02*
X27513332Y-6352604D01*
X27513332Y-6352604D02*
X27564141Y-6439700D01*
X27564141Y-6439700D02*
X27564141Y-6570343D01*
X26852808Y-5960676D02*
X27564141Y-5786485D01*
X27564141Y-5786485D02*
X27056046Y-5612295D01*
X27056046Y-5612295D02*
X27564141Y-5438104D01*
X27564141Y-5438104D02*
X26852808Y-5263914D01*
X27513332Y-4567151D02*
X27564141Y-4654247D01*
X27564141Y-4654247D02*
X27564141Y-4828437D01*
X27564141Y-4828437D02*
X27513332Y-4915532D01*
X27513332Y-4915532D02*
X27411712Y-4959080D01*
X27411712Y-4959080D02*
X27005236Y-4959080D01*
X27005236Y-4959080D02*
X26903617Y-4915532D01*
X26903617Y-4915532D02*
X26852808Y-4828437D01*
X26852808Y-4828437D02*
X26852808Y-4654247D01*
X26852808Y-4654247D02*
X26903617Y-4567151D01*
X26903617Y-4567151D02*
X27005236Y-4523604D01*
X27005236Y-4523604D02*
X27106855Y-4523604D01*
X27106855Y-4523604D02*
X27208474Y-4959080D01*
X27564141Y-4131675D02*
X26852808Y-4131675D01*
X27056046Y-4131675D02*
X26954427Y-4088128D01*
X26954427Y-4088128D02*
X26903617Y-4044580D01*
X26903617Y-4044580D02*
X26852808Y-3957485D01*
X26852808Y-3957485D02*
X26852808Y-3870390D01*
X27564141Y-2868794D02*
X26497141Y-2868794D01*
X26852808Y-2433318D02*
X27564141Y-2433318D01*
X26954427Y-2433318D02*
X26903617Y-2389771D01*
X26903617Y-2389771D02*
X26852808Y-2302676D01*
X26852808Y-2302676D02*
X26852808Y-2172033D01*
X26852808Y-2172033D02*
X26903617Y-2084937D01*
X26903617Y-2084937D02*
X27005236Y-2041390D01*
X27005236Y-2041390D02*
X27564141Y-2041390D01*
D10*
X21175312Y-26134990D02*
X21099122Y-26096895D01*
X21099122Y-26096895D02*
X20984836Y-26096895D01*
X20984836Y-26096895D02*
X20870550Y-26134990D01*
X20870550Y-26134990D02*
X20794360Y-26211180D01*
X20794360Y-26211180D02*
X20756265Y-26287371D01*
X20756265Y-26287371D02*
X20718169Y-26439752D01*
X20718169Y-26439752D02*
X20718169Y-26554038D01*
X20718169Y-26554038D02*
X20756265Y-26706419D01*
X20756265Y-26706419D02*
X20794360Y-26782609D01*
X20794360Y-26782609D02*
X20870550Y-26858800D01*
X20870550Y-26858800D02*
X20984836Y-26896895D01*
X20984836Y-26896895D02*
X21061027Y-26896895D01*
X21061027Y-26896895D02*
X21175312Y-26858800D01*
X21175312Y-26858800D02*
X21213408Y-26820704D01*
X21213408Y-26820704D02*
X21213408Y-26554038D01*
X21213408Y-26554038D02*
X21061027Y-26554038D01*
X21556265Y-26896895D02*
X21556265Y-26096895D01*
X21556265Y-26096895D02*
X22013408Y-26896895D01*
X22013408Y-26896895D02*
X22013408Y-26096895D01*
X22394360Y-26896895D02*
X22394360Y-26096895D01*
X22394360Y-26096895D02*
X22584836Y-26096895D01*
X22584836Y-26096895D02*
X22699122Y-26134990D01*
X22699122Y-26134990D02*
X22775312Y-26211180D01*
X22775312Y-26211180D02*
X22813407Y-26287371D01*
X22813407Y-26287371D02*
X22851503Y-26439752D01*
X22851503Y-26439752D02*
X22851503Y-26554038D01*
X22851503Y-26554038D02*
X22813407Y-26706419D01*
X22813407Y-26706419D02*
X22775312Y-26782609D01*
X22775312Y-26782609D02*
X22699122Y-26858800D01*
X22699122Y-26858800D02*
X22584836Y-26896895D01*
X22584836Y-26896895D02*
X22394360Y-26896895D01*
X41933333Y-3457419D02*
X41457143Y-3457419D01*
X41457143Y-3457419D02*
X41457143Y-2457419D01*
X42838095Y-3362180D02*
X42790476Y-3409800D01*
X42790476Y-3409800D02*
X42647619Y-3457419D01*
X42647619Y-3457419D02*
X42552381Y-3457419D01*
X42552381Y-3457419D02*
X42409524Y-3409800D01*
X42409524Y-3409800D02*
X42314286Y-3314561D01*
X42314286Y-3314561D02*
X42266667Y-3219323D01*
X42266667Y-3219323D02*
X42219048Y-3028847D01*
X42219048Y-3028847D02*
X42219048Y-2885990D01*
X42219048Y-2885990D02*
X42266667Y-2695514D01*
X42266667Y-2695514D02*
X42314286Y-2600276D01*
X42314286Y-2600276D02*
X42409524Y-2505038D01*
X42409524Y-2505038D02*
X42552381Y-2457419D01*
X42552381Y-2457419D02*
X42647619Y-2457419D01*
X42647619Y-2457419D02*
X42790476Y-2505038D01*
X42790476Y-2505038D02*
X42838095Y-2552657D01*
X43219048Y-3409800D02*
X43361905Y-3457419D01*
X43361905Y-3457419D02*
X43600000Y-3457419D01*
X43600000Y-3457419D02*
X43695238Y-3409800D01*
X43695238Y-3409800D02*
X43742857Y-3362180D01*
X43742857Y-3362180D02*
X43790476Y-3266942D01*
X43790476Y-3266942D02*
X43790476Y-3171704D01*
X43790476Y-3171704D02*
X43742857Y-3076466D01*
X43742857Y-3076466D02*
X43695238Y-3028847D01*
X43695238Y-3028847D02*
X43600000Y-2981228D01*
X43600000Y-2981228D02*
X43409524Y-2933609D01*
X43409524Y-2933609D02*
X43314286Y-2885990D01*
X43314286Y-2885990D02*
X43266667Y-2838371D01*
X43266667Y-2838371D02*
X43219048Y-2743133D01*
X43219048Y-2743133D02*
X43219048Y-2647895D01*
X43219048Y-2647895D02*
X43266667Y-2552657D01*
X43266667Y-2552657D02*
X43314286Y-2505038D01*
X43314286Y-2505038D02*
X43409524Y-2457419D01*
X43409524Y-2457419D02*
X43647619Y-2457419D01*
X43647619Y-2457419D02*
X43790476Y-2505038D01*
X44790476Y-3362180D02*
X44742857Y-3409800D01*
X44742857Y-3409800D02*
X44600000Y-3457419D01*
X44600000Y-3457419D02*
X44504762Y-3457419D01*
X44504762Y-3457419D02*
X44361905Y-3409800D01*
X44361905Y-3409800D02*
X44266667Y-3314561D01*
X44266667Y-3314561D02*
X44219048Y-3219323D01*
X44219048Y-3219323D02*
X44171429Y-3028847D01*
X44171429Y-3028847D02*
X44171429Y-2885990D01*
X44171429Y-2885990D02*
X44219048Y-2695514D01*
X44219048Y-2695514D02*
X44266667Y-2600276D01*
X44266667Y-2600276D02*
X44361905Y-2505038D01*
X44361905Y-2505038D02*
X44504762Y-2457419D01*
X44504762Y-2457419D02*
X44600000Y-2457419D01*
X44600000Y-2457419D02*
X44742857Y-2505038D01*
X44742857Y-2505038D02*
X44790476Y-2552657D01*
X26533333Y-11257419D02*
X26057143Y-11257419D01*
X26057143Y-11257419D02*
X26057143Y-10257419D01*
X27438095Y-11162180D02*
X27390476Y-11209800D01*
X27390476Y-11209800D02*
X27247619Y-11257419D01*
X27247619Y-11257419D02*
X27152381Y-11257419D01*
X27152381Y-11257419D02*
X27009524Y-11209800D01*
X27009524Y-11209800D02*
X26914286Y-11114561D01*
X26914286Y-11114561D02*
X26866667Y-11019323D01*
X26866667Y-11019323D02*
X26819048Y-10828847D01*
X26819048Y-10828847D02*
X26819048Y-10685990D01*
X26819048Y-10685990D02*
X26866667Y-10495514D01*
X26866667Y-10495514D02*
X26914286Y-10400276D01*
X26914286Y-10400276D02*
X27009524Y-10305038D01*
X27009524Y-10305038D02*
X27152381Y-10257419D01*
X27152381Y-10257419D02*
X27247619Y-10257419D01*
X27247619Y-10257419D02*
X27390476Y-10305038D01*
X27390476Y-10305038D02*
X27438095Y-10352657D01*
X27819048Y-11209800D02*
X27961905Y-11257419D01*
X27961905Y-11257419D02*
X28200000Y-11257419D01*
X28200000Y-11257419D02*
X28295238Y-11209800D01*
X28295238Y-11209800D02*
X28342857Y-11162180D01*
X28342857Y-11162180D02*
X28390476Y-11066942D01*
X28390476Y-11066942D02*
X28390476Y-10971704D01*
X28390476Y-10971704D02*
X28342857Y-10876466D01*
X28342857Y-10876466D02*
X28295238Y-10828847D01*
X28295238Y-10828847D02*
X28200000Y-10781228D01*
X28200000Y-10781228D02*
X28009524Y-10733609D01*
X28009524Y-10733609D02*
X27914286Y-10685990D01*
X27914286Y-10685990D02*
X27866667Y-10638371D01*
X27866667Y-10638371D02*
X27819048Y-10543133D01*
X27819048Y-10543133D02*
X27819048Y-10447895D01*
X27819048Y-10447895D02*
X27866667Y-10352657D01*
X27866667Y-10352657D02*
X27914286Y-10305038D01*
X27914286Y-10305038D02*
X28009524Y-10257419D01*
X28009524Y-10257419D02*
X28247619Y-10257419D01*
X28247619Y-10257419D02*
X28390476Y-10305038D01*
X29390476Y-11162180D02*
X29342857Y-11209800D01*
X29342857Y-11209800D02*
X29200000Y-11257419D01*
X29200000Y-11257419D02*
X29104762Y-11257419D01*
X29104762Y-11257419D02*
X28961905Y-11209800D01*
X28961905Y-11209800D02*
X28866667Y-11114561D01*
X28866667Y-11114561D02*
X28819048Y-11019323D01*
X28819048Y-11019323D02*
X28771429Y-10828847D01*
X28771429Y-10828847D02*
X28771429Y-10685990D01*
X28771429Y-10685990D02*
X28819048Y-10495514D01*
X28819048Y-10495514D02*
X28866667Y-10400276D01*
X28866667Y-10400276D02*
X28961905Y-10305038D01*
X28961905Y-10305038D02*
X29104762Y-10257419D01*
X29104762Y-10257419D02*
X29200000Y-10257419D01*
X29200000Y-10257419D02*
X29342857Y-10305038D01*
X29342857Y-10305038D02*
X29390476Y-10352657D01*
X33314286Y-6362645D02*
X33314286Y-7010264D01*
X33314286Y-7010264D02*
X33352381Y-7086454D01*
X33352381Y-7086454D02*
X33390476Y-7124550D01*
X33390476Y-7124550D02*
X33466667Y-7162645D01*
X33466667Y-7162645D02*
X33619048Y-7162645D01*
X33619048Y-7162645D02*
X33695238Y-7124550D01*
X33695238Y-7124550D02*
X33733333Y-7086454D01*
X33733333Y-7086454D02*
X33771429Y-7010264D01*
X33771429Y-7010264D02*
X33771429Y-6362645D01*
X34114285Y-7124550D02*
X34228571Y-7162645D01*
X34228571Y-7162645D02*
X34419047Y-7162645D01*
X34419047Y-7162645D02*
X34495238Y-7124550D01*
X34495238Y-7124550D02*
X34533333Y-7086454D01*
X34533333Y-7086454D02*
X34571428Y-7010264D01*
X34571428Y-7010264D02*
X34571428Y-6934073D01*
X34571428Y-6934073D02*
X34533333Y-6857883D01*
X34533333Y-6857883D02*
X34495238Y-6819788D01*
X34495238Y-6819788D02*
X34419047Y-6781692D01*
X34419047Y-6781692D02*
X34266666Y-6743597D01*
X34266666Y-6743597D02*
X34190476Y-6705502D01*
X34190476Y-6705502D02*
X34152381Y-6667407D01*
X34152381Y-6667407D02*
X34114285Y-6591216D01*
X34114285Y-6591216D02*
X34114285Y-6515026D01*
X34114285Y-6515026D02*
X34152381Y-6438835D01*
X34152381Y-6438835D02*
X34190476Y-6400740D01*
X34190476Y-6400740D02*
X34266666Y-6362645D01*
X34266666Y-6362645D02*
X34457143Y-6362645D01*
X34457143Y-6362645D02*
X34571428Y-6400740D01*
X35180952Y-6743597D02*
X35295238Y-6781692D01*
X35295238Y-6781692D02*
X35333333Y-6819788D01*
X35333333Y-6819788D02*
X35371429Y-6895978D01*
X35371429Y-6895978D02*
X35371429Y-7010264D01*
X35371429Y-7010264D02*
X35333333Y-7086454D01*
X35333333Y-7086454D02*
X35295238Y-7124550D01*
X35295238Y-7124550D02*
X35219048Y-7162645D01*
X35219048Y-7162645D02*
X34914286Y-7162645D01*
X34914286Y-7162645D02*
X34914286Y-6362645D01*
X34914286Y-6362645D02*
X35180952Y-6362645D01*
X35180952Y-6362645D02*
X35257143Y-6400740D01*
X35257143Y-6400740D02*
X35295238Y-6438835D01*
X35295238Y-6438835D02*
X35333333Y-6515026D01*
X35333333Y-6515026D02*
X35333333Y-6591216D01*
X35333333Y-6591216D02*
X35295238Y-6667407D01*
X35295238Y-6667407D02*
X35257143Y-6705502D01*
X35257143Y-6705502D02*
X35180952Y-6743597D01*
X35180952Y-6743597D02*
X34914286Y-6743597D01*
X35714286Y-6857883D02*
X36323810Y-6857883D01*
X37123809Y-7162645D02*
X36666666Y-7162645D01*
X36895238Y-7162645D02*
X36895238Y-6362645D01*
X36895238Y-6362645D02*
X36819047Y-6476930D01*
X36819047Y-6476930D02*
X36742857Y-6553121D01*
X36742857Y-6553121D02*
X36666666Y-6591216D01*
X32652380Y-7159930D02*
X32604761Y-7207550D01*
X32604761Y-7207550D02*
X32461904Y-7255169D01*
X32461904Y-7255169D02*
X32366666Y-7255169D01*
X32366666Y-7255169D02*
X32223809Y-7207550D01*
X32223809Y-7207550D02*
X32128571Y-7112311D01*
X32128571Y-7112311D02*
X32080952Y-7017073D01*
X32080952Y-7017073D02*
X32033333Y-6826597D01*
X32033333Y-6826597D02*
X32033333Y-6683740D01*
X32033333Y-6683740D02*
X32080952Y-6493264D01*
X32080952Y-6493264D02*
X32128571Y-6398026D01*
X32128571Y-6398026D02*
X32223809Y-6302788D01*
X32223809Y-6302788D02*
X32366666Y-6255169D01*
X32366666Y-6255169D02*
X32461904Y-6255169D01*
X32461904Y-6255169D02*
X32604761Y-6302788D01*
X32604761Y-6302788D02*
X32652380Y-6350407D01*
X33604761Y-7255169D02*
X33033333Y-7255169D01*
X33319047Y-7255169D02*
X33319047Y-6255169D01*
X33319047Y-6255169D02*
X33223809Y-6398026D01*
X33223809Y-6398026D02*
X33128571Y-6493264D01*
X33128571Y-6493264D02*
X33033333Y-6540883D01*
X34461904Y-6255169D02*
X34271428Y-6255169D01*
X34271428Y-6255169D02*
X34176190Y-6302788D01*
X34176190Y-6302788D02*
X34128571Y-6350407D01*
X34128571Y-6350407D02*
X34033333Y-6493264D01*
X34033333Y-6493264D02*
X33985714Y-6683740D01*
X33985714Y-6683740D02*
X33985714Y-7064692D01*
X33985714Y-7064692D02*
X34033333Y-7159930D01*
X34033333Y-7159930D02*
X34080952Y-7207550D01*
X34080952Y-7207550D02*
X34176190Y-7255169D01*
X34176190Y-7255169D02*
X34366666Y-7255169D01*
X34366666Y-7255169D02*
X34461904Y-7207550D01*
X34461904Y-7207550D02*
X34509523Y-7159930D01*
X34509523Y-7159930D02*
X34557142Y-7064692D01*
X34557142Y-7064692D02*
X34557142Y-6826597D01*
X34557142Y-6826597D02*
X34509523Y-6731359D01*
X34509523Y-6731359D02*
X34461904Y-6683740D01*
X34461904Y-6683740D02*
X34366666Y-6636121D01*
X34366666Y-6636121D02*
X34176190Y-6636121D01*
X34176190Y-6636121D02*
X34080952Y-6683740D01*
X34080952Y-6683740D02*
X34033333Y-6731359D01*
X34033333Y-6731359D02*
X33985714Y-6826597D01*
X35461904Y-6255169D02*
X34985714Y-6255169D01*
X34985714Y-6255169D02*
X34938095Y-6731359D01*
X34938095Y-6731359D02*
X34985714Y-6683740D01*
X34985714Y-6683740D02*
X35080952Y-6636121D01*
X35080952Y-6636121D02*
X35319047Y-6636121D01*
X35319047Y-6636121D02*
X35414285Y-6683740D01*
X35414285Y-6683740D02*
X35461904Y-6731359D01*
X35461904Y-6731359D02*
X35509523Y-6826597D01*
X35509523Y-6826597D02*
X35509523Y-7064692D01*
X35509523Y-7064692D02*
X35461904Y-7159930D01*
X35461904Y-7159930D02*
X35414285Y-7207550D01*
X35414285Y-7207550D02*
X35319047Y-7255169D01*
X35319047Y-7255169D02*
X35080952Y-7255169D01*
X35080952Y-7255169D02*
X34985714Y-7207550D01*
X34985714Y-7207550D02*
X34938095Y-7159930D01*
X35985714Y-7255169D02*
X36176190Y-7255169D01*
X36176190Y-7255169D02*
X36271428Y-7207550D01*
X36271428Y-7207550D02*
X36319047Y-7159930D01*
X36319047Y-7159930D02*
X36414285Y-7017073D01*
X36414285Y-7017073D02*
X36461904Y-6826597D01*
X36461904Y-6826597D02*
X36461904Y-6445645D01*
X36461904Y-6445645D02*
X36414285Y-6350407D01*
X36414285Y-6350407D02*
X36366666Y-6302788D01*
X36366666Y-6302788D02*
X36271428Y-6255169D01*
X36271428Y-6255169D02*
X36080952Y-6255169D01*
X36080952Y-6255169D02*
X35985714Y-6302788D01*
X35985714Y-6302788D02*
X35938095Y-6350407D01*
X35938095Y-6350407D02*
X35890476Y-6445645D01*
X35890476Y-6445645D02*
X35890476Y-6683740D01*
X35890476Y-6683740D02*
X35938095Y-6778978D01*
X35938095Y-6778978D02*
X35985714Y-6826597D01*
X35985714Y-6826597D02*
X36080952Y-6874216D01*
X36080952Y-6874216D02*
X36271428Y-6874216D01*
X36271428Y-6874216D02*
X36366666Y-6826597D01*
X36366666Y-6826597D02*
X36414285Y-6778978D01*
X36414285Y-6778978D02*
X36461904Y-6683740D01*
X37319047Y-6588502D02*
X37319047Y-7255169D01*
X37080952Y-6207550D02*
X36842857Y-6921835D01*
X36842857Y-6921835D02*
X37461904Y-6921835D01*
X37985714Y-6683740D02*
X37890476Y-6636121D01*
X37890476Y-6636121D02*
X37842857Y-6588502D01*
X37842857Y-6588502D02*
X37795238Y-6493264D01*
X37795238Y-6493264D02*
X37795238Y-6445645D01*
X37795238Y-6445645D02*
X37842857Y-6350407D01*
X37842857Y-6350407D02*
X37890476Y-6302788D01*
X37890476Y-6302788D02*
X37985714Y-6255169D01*
X37985714Y-6255169D02*
X38176190Y-6255169D01*
X38176190Y-6255169D02*
X38271428Y-6302788D01*
X38271428Y-6302788D02*
X38319047Y-6350407D01*
X38319047Y-6350407D02*
X38366666Y-6445645D01*
X38366666Y-6445645D02*
X38366666Y-6493264D01*
X38366666Y-6493264D02*
X38319047Y-6588502D01*
X38319047Y-6588502D02*
X38271428Y-6636121D01*
X38271428Y-6636121D02*
X38176190Y-6683740D01*
X38176190Y-6683740D02*
X37985714Y-6683740D01*
X37985714Y-6683740D02*
X37890476Y-6731359D01*
X37890476Y-6731359D02*
X37842857Y-6778978D01*
X37842857Y-6778978D02*
X37795238Y-6874216D01*
X37795238Y-6874216D02*
X37795238Y-7064692D01*
X37795238Y-7064692D02*
X37842857Y-7159930D01*
X37842857Y-7159930D02*
X37890476Y-7207550D01*
X37890476Y-7207550D02*
X37985714Y-7255169D01*
X37985714Y-7255169D02*
X38176190Y-7255169D01*
X38176190Y-7255169D02*
X38271428Y-7207550D01*
X38271428Y-7207550D02*
X38319047Y-7159930D01*
X38319047Y-7159930D02*
X38366666Y-7064692D01*
X38366666Y-7064692D02*
X38366666Y-6874216D01*
X38366666Y-6874216D02*
X38319047Y-6778978D01*
X38319047Y-6778978D02*
X38271428Y-6731359D01*
X38271428Y-6731359D02*
X38176190Y-6683740D01*
X34033333Y-7255169D02*
X33557143Y-7255169D01*
X33557143Y-7255169D02*
X33557143Y-6255169D01*
X34938095Y-7159930D02*
X34890476Y-7207550D01*
X34890476Y-7207550D02*
X34747619Y-7255169D01*
X34747619Y-7255169D02*
X34652381Y-7255169D01*
X34652381Y-7255169D02*
X34509524Y-7207550D01*
X34509524Y-7207550D02*
X34414286Y-7112311D01*
X34414286Y-7112311D02*
X34366667Y-7017073D01*
X34366667Y-7017073D02*
X34319048Y-6826597D01*
X34319048Y-6826597D02*
X34319048Y-6683740D01*
X34319048Y-6683740D02*
X34366667Y-6493264D01*
X34366667Y-6493264D02*
X34414286Y-6398026D01*
X34414286Y-6398026D02*
X34509524Y-6302788D01*
X34509524Y-6302788D02*
X34652381Y-6255169D01*
X34652381Y-6255169D02*
X34747619Y-6255169D01*
X34747619Y-6255169D02*
X34890476Y-6302788D01*
X34890476Y-6302788D02*
X34938095Y-6350407D01*
X35319048Y-7207550D02*
X35461905Y-7255169D01*
X35461905Y-7255169D02*
X35700000Y-7255169D01*
X35700000Y-7255169D02*
X35795238Y-7207550D01*
X35795238Y-7207550D02*
X35842857Y-7159930D01*
X35842857Y-7159930D02*
X35890476Y-7064692D01*
X35890476Y-7064692D02*
X35890476Y-6969454D01*
X35890476Y-6969454D02*
X35842857Y-6874216D01*
X35842857Y-6874216D02*
X35795238Y-6826597D01*
X35795238Y-6826597D02*
X35700000Y-6778978D01*
X35700000Y-6778978D02*
X35509524Y-6731359D01*
X35509524Y-6731359D02*
X35414286Y-6683740D01*
X35414286Y-6683740D02*
X35366667Y-6636121D01*
X35366667Y-6636121D02*
X35319048Y-6540883D01*
X35319048Y-6540883D02*
X35319048Y-6445645D01*
X35319048Y-6445645D02*
X35366667Y-6350407D01*
X35366667Y-6350407D02*
X35414286Y-6302788D01*
X35414286Y-6302788D02*
X35509524Y-6255169D01*
X35509524Y-6255169D02*
X35747619Y-6255169D01*
X35747619Y-6255169D02*
X35890476Y-6302788D01*
X36890476Y-7159930D02*
X36842857Y-7207550D01*
X36842857Y-7207550D02*
X36700000Y-7255169D01*
X36700000Y-7255169D02*
X36604762Y-7255169D01*
X36604762Y-7255169D02*
X36461905Y-7207550D01*
X36461905Y-7207550D02*
X36366667Y-7112311D01*
X36366667Y-7112311D02*
X36319048Y-7017073D01*
X36319048Y-7017073D02*
X36271429Y-6826597D01*
X36271429Y-6826597D02*
X36271429Y-6683740D01*
X36271429Y-6683740D02*
X36319048Y-6493264D01*
X36319048Y-6493264D02*
X36366667Y-6398026D01*
X36366667Y-6398026D02*
X36461905Y-6302788D01*
X36461905Y-6302788D02*
X36604762Y-6255169D01*
X36604762Y-6255169D02*
X36700000Y-6255169D01*
X36700000Y-6255169D02*
X36842857Y-6302788D01*
X36842857Y-6302788D02*
X36890476Y-6350407D01*
X55633333Y-4657419D02*
X55157143Y-4657419D01*
X55157143Y-4657419D02*
X55157143Y-3657419D01*
X56538095Y-4562180D02*
X56490476Y-4609800D01*
X56490476Y-4609800D02*
X56347619Y-4657419D01*
X56347619Y-4657419D02*
X56252381Y-4657419D01*
X56252381Y-4657419D02*
X56109524Y-4609800D01*
X56109524Y-4609800D02*
X56014286Y-4514561D01*
X56014286Y-4514561D02*
X55966667Y-4419323D01*
X55966667Y-4419323D02*
X55919048Y-4228847D01*
X55919048Y-4228847D02*
X55919048Y-4085990D01*
X55919048Y-4085990D02*
X55966667Y-3895514D01*
X55966667Y-3895514D02*
X56014286Y-3800276D01*
X56014286Y-3800276D02*
X56109524Y-3705038D01*
X56109524Y-3705038D02*
X56252381Y-3657419D01*
X56252381Y-3657419D02*
X56347619Y-3657419D01*
X56347619Y-3657419D02*
X56490476Y-3705038D01*
X56490476Y-3705038D02*
X56538095Y-3752657D01*
X56919048Y-4609800D02*
X57061905Y-4657419D01*
X57061905Y-4657419D02*
X57300000Y-4657419D01*
X57300000Y-4657419D02*
X57395238Y-4609800D01*
X57395238Y-4609800D02*
X57442857Y-4562180D01*
X57442857Y-4562180D02*
X57490476Y-4466942D01*
X57490476Y-4466942D02*
X57490476Y-4371704D01*
X57490476Y-4371704D02*
X57442857Y-4276466D01*
X57442857Y-4276466D02*
X57395238Y-4228847D01*
X57395238Y-4228847D02*
X57300000Y-4181228D01*
X57300000Y-4181228D02*
X57109524Y-4133609D01*
X57109524Y-4133609D02*
X57014286Y-4085990D01*
X57014286Y-4085990D02*
X56966667Y-4038371D01*
X56966667Y-4038371D02*
X56919048Y-3943133D01*
X56919048Y-3943133D02*
X56919048Y-3847895D01*
X56919048Y-3847895D02*
X56966667Y-3752657D01*
X56966667Y-3752657D02*
X57014286Y-3705038D01*
X57014286Y-3705038D02*
X57109524Y-3657419D01*
X57109524Y-3657419D02*
X57347619Y-3657419D01*
X57347619Y-3657419D02*
X57490476Y-3705038D01*
X58490476Y-4562180D02*
X58442857Y-4609800D01*
X58442857Y-4609800D02*
X58300000Y-4657419D01*
X58300000Y-4657419D02*
X58204762Y-4657419D01*
X58204762Y-4657419D02*
X58061905Y-4609800D01*
X58061905Y-4609800D02*
X57966667Y-4514561D01*
X57966667Y-4514561D02*
X57919048Y-4419323D01*
X57919048Y-4419323D02*
X57871429Y-4228847D01*
X57871429Y-4228847D02*
X57871429Y-4085990D01*
X57871429Y-4085990D02*
X57919048Y-3895514D01*
X57919048Y-3895514D02*
X57966667Y-3800276D01*
X57966667Y-3800276D02*
X58061905Y-3705038D01*
X58061905Y-3705038D02*
X58204762Y-3657419D01*
X58204762Y-3657419D02*
X58300000Y-3657419D01*
X58300000Y-3657419D02*
X58442857Y-3705038D01*
X58442857Y-3705038D02*
X58490476Y-3752657D01*
X53776190Y-4562180D02*
X53728571Y-4609800D01*
X53728571Y-4609800D02*
X53585714Y-4657419D01*
X53585714Y-4657419D02*
X53490476Y-4657419D01*
X53490476Y-4657419D02*
X53347619Y-4609800D01*
X53347619Y-4609800D02*
X53252381Y-4514561D01*
X53252381Y-4514561D02*
X53204762Y-4419323D01*
X53204762Y-4419323D02*
X53157143Y-4228847D01*
X53157143Y-4228847D02*
X53157143Y-4085990D01*
X53157143Y-4085990D02*
X53204762Y-3895514D01*
X53204762Y-3895514D02*
X53252381Y-3800276D01*
X53252381Y-3800276D02*
X53347619Y-3705038D01*
X53347619Y-3705038D02*
X53490476Y-3657419D01*
X53490476Y-3657419D02*
X53585714Y-3657419D01*
X53585714Y-3657419D02*
X53728571Y-3705038D01*
X53728571Y-3705038D02*
X53776190Y-3752657D01*
X54157143Y-3752657D02*
X54204762Y-3705038D01*
X54204762Y-3705038D02*
X54300000Y-3657419D01*
X54300000Y-3657419D02*
X54538095Y-3657419D01*
X54538095Y-3657419D02*
X54633333Y-3705038D01*
X54633333Y-3705038D02*
X54680952Y-3752657D01*
X54680952Y-3752657D02*
X54728571Y-3847895D01*
X54728571Y-3847895D02*
X54728571Y-3943133D01*
X54728571Y-3943133D02*
X54680952Y-4085990D01*
X54680952Y-4085990D02*
X54109524Y-4657419D01*
X54109524Y-4657419D02*
X54728571Y-4657419D01*
X55585714Y-3657419D02*
X55395238Y-3657419D01*
X55395238Y-3657419D02*
X55300000Y-3705038D01*
X55300000Y-3705038D02*
X55252381Y-3752657D01*
X55252381Y-3752657D02*
X55157143Y-3895514D01*
X55157143Y-3895514D02*
X55109524Y-4085990D01*
X55109524Y-4085990D02*
X55109524Y-4466942D01*
X55109524Y-4466942D02*
X55157143Y-4562180D01*
X55157143Y-4562180D02*
X55204762Y-4609800D01*
X55204762Y-4609800D02*
X55300000Y-4657419D01*
X55300000Y-4657419D02*
X55490476Y-4657419D01*
X55490476Y-4657419D02*
X55585714Y-4609800D01*
X55585714Y-4609800D02*
X55633333Y-4562180D01*
X55633333Y-4562180D02*
X55680952Y-4466942D01*
X55680952Y-4466942D02*
X55680952Y-4228847D01*
X55680952Y-4228847D02*
X55633333Y-4133609D01*
X55633333Y-4133609D02*
X55585714Y-4085990D01*
X55585714Y-4085990D02*
X55490476Y-4038371D01*
X55490476Y-4038371D02*
X55300000Y-4038371D01*
X55300000Y-4038371D02*
X55204762Y-4085990D01*
X55204762Y-4085990D02*
X55157143Y-4133609D01*
X55157143Y-4133609D02*
X55109524Y-4228847D01*
X56252381Y-4085990D02*
X56157143Y-4038371D01*
X56157143Y-4038371D02*
X56109524Y-3990752D01*
X56109524Y-3990752D02*
X56061905Y-3895514D01*
X56061905Y-3895514D02*
X56061905Y-3847895D01*
X56061905Y-3847895D02*
X56109524Y-3752657D01*
X56109524Y-3752657D02*
X56157143Y-3705038D01*
X56157143Y-3705038D02*
X56252381Y-3657419D01*
X56252381Y-3657419D02*
X56442857Y-3657419D01*
X56442857Y-3657419D02*
X56538095Y-3705038D01*
X56538095Y-3705038D02*
X56585714Y-3752657D01*
X56585714Y-3752657D02*
X56633333Y-3847895D01*
X56633333Y-3847895D02*
X56633333Y-3895514D01*
X56633333Y-3895514D02*
X56585714Y-3990752D01*
X56585714Y-3990752D02*
X56538095Y-4038371D01*
X56538095Y-4038371D02*
X56442857Y-4085990D01*
X56442857Y-4085990D02*
X56252381Y-4085990D01*
X56252381Y-4085990D02*
X56157143Y-4133609D01*
X56157143Y-4133609D02*
X56109524Y-4181228D01*
X56109524Y-4181228D02*
X56061905Y-4276466D01*
X56061905Y-4276466D02*
X56061905Y-4466942D01*
X56061905Y-4466942D02*
X56109524Y-4562180D01*
X56109524Y-4562180D02*
X56157143Y-4609800D01*
X56157143Y-4609800D02*
X56252381Y-4657419D01*
X56252381Y-4657419D02*
X56442857Y-4657419D01*
X56442857Y-4657419D02*
X56538095Y-4609800D01*
X56538095Y-4609800D02*
X56585714Y-4562180D01*
X56585714Y-4562180D02*
X56633333Y-4466942D01*
X56633333Y-4466942D02*
X56633333Y-4276466D01*
X56633333Y-4276466D02*
X56585714Y-4181228D01*
X56585714Y-4181228D02*
X56538095Y-4133609D01*
X56538095Y-4133609D02*
X56442857Y-4085990D01*
X57585714Y-4657419D02*
X57014286Y-4657419D01*
X57300000Y-4657419D02*
X57300000Y-3657419D01*
X57300000Y-3657419D02*
X57204762Y-3800276D01*
X57204762Y-3800276D02*
X57109524Y-3895514D01*
X57109524Y-3895514D02*
X57014286Y-3943133D01*
X58490476Y-3657419D02*
X58014286Y-3657419D01*
X58014286Y-3657419D02*
X57966667Y-4133609D01*
X57966667Y-4133609D02*
X58014286Y-4085990D01*
X58014286Y-4085990D02*
X58109524Y-4038371D01*
X58109524Y-4038371D02*
X58347619Y-4038371D01*
X58347619Y-4038371D02*
X58442857Y-4085990D01*
X58442857Y-4085990D02*
X58490476Y-4133609D01*
X58490476Y-4133609D02*
X58538095Y-4228847D01*
X58538095Y-4228847D02*
X58538095Y-4466942D01*
X58538095Y-4466942D02*
X58490476Y-4562180D01*
X58490476Y-4562180D02*
X58442857Y-4609800D01*
X58442857Y-4609800D02*
X58347619Y-4657419D01*
X58347619Y-4657419D02*
X58109524Y-4657419D01*
X58109524Y-4657419D02*
X58014286Y-4609800D01*
X58014286Y-4609800D02*
X57966667Y-4562180D01*
X58871429Y-3657419D02*
X59538095Y-3657419D01*
X59538095Y-3657419D02*
X59109524Y-4657419D01*
X60109524Y-3657419D02*
X60204762Y-3657419D01*
X60204762Y-3657419D02*
X60300000Y-3705038D01*
X60300000Y-3705038D02*
X60347619Y-3752657D01*
X60347619Y-3752657D02*
X60395238Y-3847895D01*
X60395238Y-3847895D02*
X60442857Y-4038371D01*
X60442857Y-4038371D02*
X60442857Y-4276466D01*
X60442857Y-4276466D02*
X60395238Y-4466942D01*
X60395238Y-4466942D02*
X60347619Y-4562180D01*
X60347619Y-4562180D02*
X60300000Y-4609800D01*
X60300000Y-4609800D02*
X60204762Y-4657419D01*
X60204762Y-4657419D02*
X60109524Y-4657419D01*
X60109524Y-4657419D02*
X60014286Y-4609800D01*
X60014286Y-4609800D02*
X59966667Y-4562180D01*
X59966667Y-4562180D02*
X59919048Y-4466942D01*
X59919048Y-4466942D02*
X59871429Y-4276466D01*
X59871429Y-4276466D02*
X59871429Y-4038371D01*
X59871429Y-4038371D02*
X59919048Y-3847895D01*
X59919048Y-3847895D02*
X59966667Y-3752657D01*
X59966667Y-3752657D02*
X60014286Y-3705038D01*
X60014286Y-3705038D02*
X60109524Y-3657419D01*
D15*
%TO.C,Q3*%
X29974000Y-12275500D02*
X29974000Y-13307000D01*
X29974000Y-15327500D02*
X29974000Y-14296000D01*
X31426000Y-12275500D02*
X29974000Y-12275500D01*
X31426000Y-13346000D02*
X31426000Y-14257000D01*
X31426000Y-15327500D02*
X29974000Y-15327500D01*
%TO.C,R7*%
X32839500Y-18185000D02*
X32839500Y-17226000D01*
X34160500Y-18185000D02*
X32839500Y-18185000D01*
X34160500Y-17226000D02*
X34160500Y-18185000D01*
X34160500Y-16374000D02*
X34160500Y-15415000D01*
X32839500Y-15415000D02*
X32839500Y-16374000D01*
X34160500Y-15415000D02*
X32839500Y-15415000D01*
%TO.C,R8*%
X28485000Y-19760500D02*
X27526000Y-19760500D01*
X28485000Y-18439500D02*
X28485000Y-19760500D01*
X27526000Y-18439500D02*
X28485000Y-18439500D01*
X26674000Y-18439500D02*
X25715000Y-18439500D01*
X25715000Y-19760500D02*
X26674000Y-19760500D01*
X25715000Y-18439500D02*
X25715000Y-19760500D01*
D16*
%TO.C,C2*%
X44700000Y-4143000D02*
X44700000Y-3931000D01*
X44700000Y-4143000D02*
X41500000Y-4143000D01*
X44700000Y-2069000D02*
X44700000Y-1857000D01*
X44700000Y-1857000D02*
X43228000Y-1857000D01*
X43228000Y-1857000D02*
X41500000Y-1857000D01*
X41500000Y-4143000D02*
X41500000Y-3931000D01*
X41500000Y-2069000D02*
X41500000Y-1857000D01*
D17*
G36*
X43735000Y-4143000D02*
G01*
X43481000Y-4143000D01*
X43481000Y-1857000D01*
X43608000Y-1857000D01*
X43735000Y-1857000D01*
X43735000Y-4143000D01*
G37*
D15*
%TO.C,R14*%
X32739500Y-26085000D02*
X32739500Y-25126000D01*
X34060500Y-26085000D02*
X32739500Y-26085000D01*
X34060500Y-25126000D02*
X34060500Y-26085000D01*
X34060500Y-24274000D02*
X34060500Y-23315000D01*
X32739500Y-23315000D02*
X32739500Y-24274000D01*
X34060500Y-23315000D02*
X32739500Y-23315000D01*
%TO.C,Q4*%
X29974000Y-15824000D02*
X29974000Y-16855500D01*
X29974000Y-18876000D02*
X29974000Y-17844500D01*
X31426000Y-15824000D02*
X29974000Y-15824000D01*
X31426000Y-16894500D02*
X31426000Y-17805500D01*
X31426000Y-18876000D02*
X29974000Y-18876000D01*
%TO.C,R13*%
X28485000Y-21760500D02*
X27526000Y-21760500D01*
X28485000Y-20439500D02*
X28485000Y-21760500D01*
X27526000Y-20439500D02*
X28485000Y-20439500D01*
X26674000Y-20439500D02*
X25715000Y-20439500D01*
X25715000Y-21760500D02*
X26674000Y-21760500D01*
X25715000Y-20439500D02*
X25715000Y-21760500D01*
%TO.C,Q1*%
X48126000Y-5274000D02*
X47094500Y-5274000D01*
X45074000Y-5274000D02*
X46105500Y-5274000D01*
X48126000Y-6726000D02*
X48126000Y-5274000D01*
X47055500Y-6726000D02*
X46144500Y-6726000D01*
X45074000Y-6726000D02*
X45074000Y-5274000D01*
%TO.C,R12*%
X32739500Y-29231500D02*
X32739500Y-28272500D01*
X34060500Y-29231500D02*
X32739500Y-29231500D01*
X34060500Y-28272500D02*
X34060500Y-29231500D01*
X34060500Y-27420500D02*
X34060500Y-26461500D01*
X32739500Y-26461500D02*
X32739500Y-27420500D01*
X34060500Y-26461500D02*
X32739500Y-26461500D01*
%TO.C,Q2*%
X51826000Y-5274000D02*
X50794500Y-5274000D01*
X48774000Y-5274000D02*
X49805500Y-5274000D01*
X51826000Y-6726000D02*
X51826000Y-5274000D01*
X50755500Y-6726000D02*
X49844500Y-6726000D01*
X48774000Y-6726000D02*
X48774000Y-5274000D01*
%TO.C,R16*%
X43785000Y-8060500D02*
X42826000Y-8060500D01*
X43785000Y-6739500D02*
X43785000Y-8060500D01*
X42826000Y-6739500D02*
X43785000Y-6739500D01*
X41974000Y-6739500D02*
X41015000Y-6739500D01*
X41015000Y-8060500D02*
X41974000Y-8060500D01*
X41015000Y-6739500D02*
X41015000Y-8060500D01*
%TO.C,R2*%
X28385000Y-13560500D02*
X27426000Y-13560500D01*
X28385000Y-12239500D02*
X28385000Y-13560500D01*
X27426000Y-12239500D02*
X28385000Y-12239500D01*
X26574000Y-12239500D02*
X25615000Y-12239500D01*
X25615000Y-13560500D02*
X26574000Y-13560500D01*
X25615000Y-12239500D02*
X25615000Y-13560500D01*
D16*
%TO.C,U3*%
X62084000Y-13733000D02*
X62084000Y-31733000D01*
X61320000Y-13733000D02*
X62084000Y-13733000D01*
X58780000Y-13733000D02*
X59658000Y-13733000D01*
X56240000Y-13733000D02*
X57118000Y-13733000D01*
X53700000Y-13733000D02*
X54578000Y-13733000D01*
X51160000Y-13733000D02*
X52038000Y-13733000D01*
X48620000Y-13733000D02*
X49498000Y-13733000D01*
X46080000Y-13733000D02*
X46958000Y-13733000D01*
X43540000Y-13733000D02*
X44418000Y-13733000D01*
X41000000Y-13733000D02*
X41878000Y-13733000D01*
X38584000Y-13733000D02*
X39338000Y-13733000D01*
X38584000Y-16822000D02*
X38584000Y-13733000D01*
X62084000Y-18253500D02*
X63584000Y-18253500D01*
X38584000Y-19362000D02*
X38584000Y-18484000D01*
X38584000Y-21902000D02*
X38584000Y-21024000D01*
X38584000Y-24441500D02*
X38584000Y-23564000D01*
X38584000Y-26981500D02*
X38584000Y-26104000D01*
X63584000Y-27214500D02*
X63584000Y-18253500D01*
X62084000Y-27214500D02*
X63584000Y-27214500D01*
X62084000Y-31733000D02*
X61320000Y-31733000D01*
X59658000Y-31733000D02*
X58780000Y-31733000D01*
X57118000Y-31733000D02*
X56240000Y-31733000D01*
X54578000Y-31733000D02*
X53700000Y-31733000D01*
X52038000Y-31733000D02*
X51160000Y-31733000D01*
X49498000Y-31733000D02*
X48620000Y-31733000D01*
X46958000Y-31733000D02*
X46080000Y-31733000D01*
X44418000Y-31733000D02*
X43540000Y-31733000D01*
X41878000Y-31733000D02*
X41000000Y-31733000D01*
X39338000Y-31733000D02*
X38584000Y-31733000D01*
X38584000Y-31733000D02*
X38584000Y-28644000D01*
D15*
%TO.C,R11*%
X28385000Y-23860500D02*
X27426000Y-23860500D01*
X28385000Y-22539500D02*
X28385000Y-23860500D01*
X27426000Y-22539500D02*
X28385000Y-22539500D01*
X26574000Y-22539500D02*
X25615000Y-22539500D01*
X25615000Y-23860500D02*
X26574000Y-23860500D01*
X25615000Y-22539500D02*
X25615000Y-23860500D01*
%TO.C,R3*%
X49910500Y-8415000D02*
X49910500Y-9374000D01*
X48589500Y-8415000D02*
X49910500Y-8415000D01*
X48589500Y-9374000D02*
X48589500Y-8415000D01*
X48589500Y-10226000D02*
X48589500Y-11185000D01*
X49910500Y-11185000D02*
X49910500Y-10226000D01*
X48589500Y-11185000D02*
X49910500Y-11185000D01*
D16*
%TO.C,C1*%
X29300000Y-11943000D02*
X29300000Y-11731000D01*
X29300000Y-11943000D02*
X26100000Y-11943000D01*
X29300000Y-9869000D02*
X29300000Y-9657000D01*
X29300000Y-9657000D02*
X27828000Y-9657000D01*
X27828000Y-9657000D02*
X26100000Y-9657000D01*
X26100000Y-11943000D02*
X26100000Y-11731000D01*
X26100000Y-9869000D02*
X26100000Y-9657000D01*
D17*
G36*
X28335000Y-11943000D02*
G01*
X28081000Y-11943000D01*
X28081000Y-9657000D01*
X28208000Y-9657000D01*
X28335000Y-9657000D01*
X28335000Y-11943000D01*
G37*
D15*
%TO.C,Q5*%
X29874000Y-29852000D02*
X29874000Y-30883500D01*
X29874000Y-32904000D02*
X29874000Y-31872500D01*
X31326000Y-29852000D02*
X29874000Y-29852000D01*
X31326000Y-30922500D02*
X31326000Y-31833500D01*
X31326000Y-32904000D02*
X29874000Y-32904000D01*
%TO.C,R15*%
X43785000Y-6560500D02*
X42826000Y-6560500D01*
X43785000Y-5239500D02*
X43785000Y-6560500D01*
X42826000Y-5239500D02*
X43785000Y-5239500D01*
X41974000Y-5239500D02*
X41015000Y-5239500D01*
X41015000Y-6560500D02*
X41974000Y-6560500D01*
X41015000Y-5239500D02*
X41015000Y-6560500D01*
%TO.C,Q6*%
X29874000Y-26296000D02*
X29874000Y-27327500D01*
X29874000Y-29348000D02*
X29874000Y-28316500D01*
X31326000Y-26296000D02*
X29874000Y-26296000D01*
X31326000Y-27366500D02*
X31326000Y-28277500D01*
X31326000Y-29348000D02*
X29874000Y-29348000D01*
%TO.C,R6*%
X28485000Y-17660500D02*
X27526000Y-17660500D01*
X28485000Y-16339500D02*
X28485000Y-17660500D01*
X27526000Y-16339500D02*
X28485000Y-16339500D01*
X26674000Y-16339500D02*
X25715000Y-16339500D01*
X25715000Y-17660500D02*
X26674000Y-17660500D01*
X25715000Y-16339500D02*
X25715000Y-17660500D01*
D16*
%TO.C,USB-1*%
X39669000Y-5422250D02*
X39669000Y-7284750D01*
X39669000Y-1703750D02*
X39669000Y-3184750D01*
X30729000Y-5421750D02*
X30729000Y-7285250D01*
X30729000Y-1703750D02*
X39669000Y-1703750D01*
X30729000Y-1703750D02*
X30729000Y-3185250D01*
D15*
%TO.C,R5*%
X32839500Y-15185000D02*
X32839500Y-14226000D01*
X34160500Y-15185000D02*
X32839500Y-15185000D01*
X34160500Y-14226000D02*
X34160500Y-15185000D01*
X34160500Y-13374000D02*
X34160500Y-12415000D01*
X32839500Y-12415000D02*
X32839500Y-13374000D01*
X34160500Y-12415000D02*
X32839500Y-12415000D01*
%TO.C,R9*%
X28485000Y-25960500D02*
X27526000Y-25960500D01*
X28485000Y-24639500D02*
X28485000Y-25960500D01*
X27526000Y-24639500D02*
X28485000Y-24639500D01*
X26674000Y-24639500D02*
X25715000Y-24639500D01*
X25715000Y-25960500D02*
X26674000Y-25960500D01*
X25715000Y-24639500D02*
X25715000Y-25960500D01*
%TO.C,Q7*%
X29874000Y-22740000D02*
X29874000Y-23771500D01*
X29874000Y-25792000D02*
X29874000Y-24760500D01*
X31326000Y-22740000D02*
X29874000Y-22740000D01*
X31326000Y-23810500D02*
X31326000Y-24721500D01*
X31326000Y-25792000D02*
X29874000Y-25792000D01*
D16*
%TO.C,SW1*%
X59975000Y-5627000D02*
X59975000Y-5581500D01*
X59523500Y-4309500D02*
X59523500Y-3372000D01*
X58438000Y-2350000D02*
X58819000Y-2350000D01*
X58382500Y-5627000D02*
X59975000Y-5627000D01*
X58300000Y-1700000D02*
X58300000Y-2300000D01*
X56550000Y-2350000D02*
X58438000Y-2350000D01*
X56550000Y-2350000D02*
X56550000Y-1700000D01*
X56550000Y-2350000D02*
X54781000Y-2350000D01*
X56550000Y-1700000D02*
X58300000Y-1700000D01*
X55219000Y-5628000D02*
X53625000Y-5628000D01*
X54105000Y-4300000D02*
X54105000Y-3362500D01*
X53625000Y-5628000D02*
X53625000Y-5581000D01*
D15*
%TO.C,R10*%
X32739500Y-32831500D02*
X32739500Y-31872500D01*
X34060500Y-32831500D02*
X32739500Y-32831500D01*
X34060500Y-31872500D02*
X34060500Y-32831500D01*
X34060500Y-31020500D02*
X34060500Y-30061500D01*
X32739500Y-30061500D02*
X32739500Y-31020500D01*
X34060500Y-30061500D02*
X32739500Y-30061500D01*
%TO.C,R4*%
X28385000Y-15560500D02*
X27426000Y-15560500D01*
X28385000Y-14239500D02*
X28385000Y-15560500D01*
X27426000Y-14239500D02*
X28385000Y-14239500D01*
X26574000Y-14239500D02*
X25615000Y-14239500D01*
X25615000Y-15560500D02*
X26574000Y-15560500D01*
X25615000Y-14239500D02*
X25615000Y-15560500D01*
%TO.C,R1*%
X46210500Y-8415000D02*
X46210500Y-9374000D01*
X44889500Y-8415000D02*
X46210500Y-8415000D01*
X44889500Y-9374000D02*
X44889500Y-8415000D01*
X44889500Y-10226000D02*
X44889500Y-11185000D01*
X46210500Y-11185000D02*
X46210500Y-10226000D01*
X44889500Y-11185000D02*
X46210500Y-11185000D01*
%TD*%
%LPC*%
D18*
%TO.C,Q3*%
X31700000Y-14751500D03*
X31700000Y-12851500D03*
X29700000Y-13801500D03*
%TD*%
D19*
%TO.C,R7*%
X33500000Y-17553500D03*
X33500000Y-16046500D03*
%TD*%
D20*
%TO.C,R8*%
X27853500Y-19100000D03*
X26346500Y-19100000D03*
%TD*%
D21*
%TO.C,C2*%
X44450000Y-3000000D03*
X41750000Y-3000000D03*
%TD*%
D19*
%TO.C,R14*%
X33400000Y-25453500D03*
X33400000Y-23946500D03*
%TD*%
D18*
%TO.C,Q4*%
X31700000Y-18300000D03*
X31700000Y-16400000D03*
X29700000Y-17350000D03*
%TD*%
D22*
%TO.C,U2*%
X24003000Y-10798000D03*
X24003000Y-12861000D03*
X24003000Y-14924000D03*
X24003000Y-16987000D03*
X24003000Y-19050000D03*
X24003000Y-21113000D03*
X24003000Y-23176000D03*
X24003000Y-25239000D03*
X24003000Y-27302000D03*
%TD*%
D20*
%TO.C,R13*%
X27853500Y-21100000D03*
X26346500Y-21100000D03*
%TD*%
D23*
%TO.C,Q1*%
X45650000Y-7000000D03*
X47550000Y-7000000D03*
X46600000Y-5000000D03*
%TD*%
D19*
%TO.C,R12*%
X33400000Y-28600000D03*
X33400000Y-27093000D03*
%TD*%
D23*
%TO.C,Q2*%
X49350000Y-7000000D03*
X51250000Y-7000000D03*
X50300000Y-5000000D03*
%TD*%
D20*
%TO.C,R16*%
X43153500Y-7400000D03*
X41646500Y-7400000D03*
%TD*%
%TO.C,R2*%
X27753500Y-12900000D03*
X26246500Y-12900000D03*
%TD*%
D24*
%TO.C,U3*%
X60489000Y-31233000D03*
X57949000Y-31233000D03*
X55409000Y-31233000D03*
X52869000Y-31233000D03*
X50329000Y-31233000D03*
X47789000Y-31233000D03*
X45249000Y-31233000D03*
X42709000Y-31233000D03*
X40169000Y-31233000D03*
D25*
X39079000Y-27813000D03*
X39079000Y-25273000D03*
X39079000Y-22733000D03*
X39079000Y-20193000D03*
X39079000Y-17653000D03*
D24*
X40169000Y-14233000D03*
X42709000Y-14233000D03*
X45249000Y-14233000D03*
X47789000Y-14233000D03*
X50329000Y-14233000D03*
X52869000Y-14233000D03*
X55409000Y-14233000D03*
X57949000Y-14233000D03*
X60489000Y-14233000D03*
%TD*%
D26*
%TO.C,REF\u002A\u002A*%
X35200000Y-20700000D03*
%TD*%
D20*
%TO.C,R11*%
X27753500Y-23200000D03*
X26246500Y-23200000D03*
%TD*%
D27*
%TO.C,CN1*%
X18184000Y-11986000D03*
X18184000Y-14756000D03*
X18184000Y-17526000D03*
X18184000Y-20296000D03*
X18184000Y-23066000D03*
X15344000Y-13371000D03*
X15344000Y-16141000D03*
X15344000Y-18911000D03*
X15344000Y-21681000D03*
D28*
X16764000Y-30026000D03*
X16764000Y-5026000D03*
%TD*%
D19*
%TO.C,R3*%
X49250000Y-9046500D03*
X49250000Y-10553500D03*
%TD*%
D21*
%TO.C,C1*%
X29050000Y-10800000D03*
X26350000Y-10800000D03*
%TD*%
D18*
%TO.C,Q5*%
X31600000Y-32328000D03*
X31600000Y-30428000D03*
X29600000Y-31378000D03*
%TD*%
D20*
%TO.C,R15*%
X43153500Y-5900000D03*
X41646500Y-5900000D03*
%TD*%
D18*
%TO.C,Q6*%
X31600000Y-28772000D03*
X31600000Y-26872000D03*
X29600000Y-27822000D03*
%TD*%
D20*
%TO.C,R6*%
X27853500Y-17000000D03*
X26346500Y-17000000D03*
%TD*%
D29*
%TO.C,USB-1*%
X30875000Y-8503250D03*
D30*
X30875000Y-4323750D03*
X39525000Y-4323750D03*
D29*
X39525000Y-8503250D03*
D31*
X38400000Y-9271750D03*
X37600000Y-9271750D03*
D32*
X36450000Y-9271750D03*
X35450000Y-9271750D03*
X34950000Y-9271750D03*
X33950500Y-9271750D03*
D31*
X32000000Y-9271750D03*
D33*
X32799500Y-9271750D03*
D32*
X33450000Y-9271750D03*
X34450000Y-9271750D03*
X35950000Y-9271750D03*
X36950000Y-9271750D03*
%TD*%
D19*
%TO.C,R5*%
X33500000Y-14553500D03*
X33500000Y-13046500D03*
%TD*%
D20*
%TO.C,R9*%
X27853500Y-25300000D03*
X26346500Y-25300000D03*
%TD*%
D18*
%TO.C,Q7*%
X31600000Y-25216000D03*
X31600000Y-23316000D03*
X29600000Y-24266000D03*
%TD*%
D34*
%TO.C,SW1*%
X57800000Y-5650000D03*
X56800000Y-5650000D03*
X55800000Y-5650000D03*
D35*
X59550000Y-4950000D03*
X59550000Y-2750000D03*
X54050000Y-4950000D03*
X54050000Y-2750000D03*
%TD*%
D19*
%TO.C,R10*%
X33400000Y-32200000D03*
X33400000Y-30693000D03*
%TD*%
D20*
%TO.C,R4*%
X27753500Y-14900000D03*
X26246500Y-14900000D03*
%TD*%
D19*
%TO.C,R1*%
X45550000Y-9046500D03*
X45550000Y-10553500D03*
%TD*%
%LPD*%
M02*
