%TF.GenerationSoftware,KiCad,Pcbnew,9.0.6*%
%TF.CreationDate,2025-12-28T15:40:13+00:00*%
%TF.ProjectId,ProPrj_SaturnAdapter_2025-11-23,50726f50-726a-45f5-9361-7475726e4164,rev?*%
%TF.SameCoordinates,Original*%
%TF.FileFunction,Copper,L1,Top*%
%TF.FilePolarity,Positive*%
%FSLAX46Y46*%
G04 Gerber Fmt 4.6, Leading zero omitted, Abs format (unit mm)*
G04 Created by KiCad (PCBNEW 9.0.6) date 2025-12-28 15:40:13*
%MOMM*%
%LPD*%
G01*
G04 APERTURE LIST*
G04 Aperture macros list*
%AMFreePoly0*
4,1,5,0.300000,-0.650000,-0.300000,-0.650000,-0.300000,0.650000,0.300000,0.650000,0.300000,-0.650000,0.300000,-0.650000,$1*%
%AMFreePoly1*
4,1,5,0.299500,-0.650000,-0.300500,-0.650000,-0.300500,0.650000,0.299500,0.650000,0.299500,-0.650000,0.299500,-0.650000,$1*%
G04 Aperture macros list end*
%TA.AperFunction,SMDPad,CuDef*%
%ADD10R,1.250000X0.700000*%
%TD*%
%TA.AperFunction,SMDPad,CuDef*%
%ADD11R,0.864000X0.806500*%
%TD*%
%TA.AperFunction,SMDPad,CuDef*%
%ADD12R,0.806500X0.864000*%
%TD*%
%TA.AperFunction,SMDPad,CuDef*%
%ADD13R,1.200000X1.400000*%
%TD*%
%TA.AperFunction,ComponentPad*%
%ADD14O,2.500000X1.800000*%
%TD*%
%TA.AperFunction,SMDPad,CuDef*%
%ADD15R,0.700000X1.250000*%
%TD*%
%TA.AperFunction,SMDPad,CuDef*%
%ADD16R,1.200000X2.000000*%
%TD*%
%TA.AperFunction,SMDPad,CuDef*%
%ADD17R,2.000000X1.200000*%
%TD*%
%TA.AperFunction,ComponentPad*%
%ADD18C,1.600000*%
%TD*%
%TA.AperFunction,ComponentPad*%
%ADD19C,4.200000*%
%TD*%
%TA.AperFunction,ComponentPad*%
%ADD20O,1.200000X2.000000*%
%TD*%
%TA.AperFunction,ComponentPad*%
%ADD21O,1.200000X1.800000*%
%TD*%
%TA.AperFunction,SMDPad,CuDef*%
%ADD22FreePoly0,180.000000*%
%TD*%
%TA.AperFunction,SMDPad,CuDef*%
%ADD23R,0.300000X1.300000*%
%TD*%
%TA.AperFunction,SMDPad,CuDef*%
%ADD24FreePoly1,180.000000*%
%TD*%
%TA.AperFunction,SMDPad,CuDef*%
%ADD25R,0.700000X1.500000*%
%TD*%
%TA.AperFunction,SMDPad,CuDef*%
%ADD26R,1.000000X0.800000*%
%TD*%
%TA.AperFunction,ViaPad*%
%ADD27C,0.600000*%
%TD*%
%TA.AperFunction,ViaPad*%
%ADD28C,0.610000*%
%TD*%
%TA.AperFunction,Conductor*%
%ADD29C,0.200000*%
%TD*%
%TA.AperFunction,Conductor*%
%ADD30C,0.254000*%
%TD*%
G04 APERTURE END LIST*
D10*
%TO.P,Q3,1*%
%TO.N,VCC*%
X31700000Y-14751500D03*
%TO.P,Q3,2*%
%TO.N,LO_TH*%
X31700000Y-12851500D03*
%TO.P,Q3,3*%
%TO.N,TH*%
X29700000Y-13801500D03*
%TD*%
D11*
%TO.P,R7,1*%
%TO.N,VCC*%
X33500000Y-17553500D03*
%TO.P,R7,2*%
%TO.N,LO_TR*%
X33500000Y-16046500D03*
%TD*%
D12*
%TO.P,R8,1*%
%TO.N,C+5V*%
X27853500Y-19100000D03*
%TO.P,R8,2*%
%TO.N,TR*%
X26346500Y-19100000D03*
%TD*%
D13*
%TO.P,C2,1*%
%TO.N,EXT5V*%
X44450000Y-3000000D03*
%TO.P,C2,2*%
%TO.N,GND*%
X41750000Y-3000000D03*
%TD*%
D11*
%TO.P,R14,1*%
%TO.N,VCC*%
X33400000Y-25453500D03*
%TO.P,R14,2*%
%TO.N,LO_TL*%
X33400000Y-23946500D03*
%TD*%
D10*
%TO.P,Q4,1*%
%TO.N,VCC*%
X31700000Y-18300000D03*
%TO.P,Q4,2*%
%TO.N,LO_TR*%
X31700000Y-16400000D03*
%TO.P,Q4,3*%
%TO.N,TR*%
X29700000Y-17350000D03*
%TD*%
D14*
%TO.P,U2,1*%
%TO.N,C+5V*%
X24003000Y-10798000D03*
%TO.P,U2,2*%
%TO.N,D1*%
X24003000Y-12861000D03*
%TO.P,U2,3*%
%TO.N,D0*%
X24003000Y-14924000D03*
%TO.P,U2,4*%
%TO.N,TH*%
X24003000Y-16987000D03*
%TO.P,U2,5*%
%TO.N,TR*%
X24003000Y-19050000D03*
%TO.P,U2,6*%
%TO.N,TL*%
X24003000Y-21113000D03*
%TO.P,U2,7*%
%TO.N,D3*%
X24003000Y-23176000D03*
%TO.P,U2,8*%
%TO.N,D2*%
X24003000Y-25239000D03*
%TO.P,U2,9*%
%TO.N,GND*%
X24003000Y-27302000D03*
%TD*%
D12*
%TO.P,R13,1*%
%TO.N,C+5V*%
X27853500Y-21100000D03*
%TO.P,R13,2*%
%TO.N,TL*%
X26346500Y-21100000D03*
%TD*%
D15*
%TO.P,Q1,1*%
%TO.N,VCC*%
X45650000Y-7000000D03*
%TO.P,Q1,2*%
%TO.N,LO_D1*%
X47550000Y-7000000D03*
%TO.P,Q1,3*%
%TO.N,D1*%
X46600000Y-5000000D03*
%TD*%
D11*
%TO.P,R12,1*%
%TO.N,VCC*%
X33400000Y-28600000D03*
%TO.P,R12,2*%
%TO.N,LO_D3*%
X33400000Y-27093000D03*
%TD*%
D15*
%TO.P,Q2,1*%
%TO.N,VCC*%
X49350000Y-7000000D03*
%TO.P,Q2,2*%
%TO.N,LO_D0*%
X51250000Y-7000000D03*
%TO.P,Q2,3*%
%TO.N,D0*%
X50300000Y-5000000D03*
%TD*%
D12*
%TO.P,R16,1*%
%TO.N,GND*%
X43153500Y-7400000D03*
%TO.P,R16,2*%
%TO.N,CC1*%
X41646500Y-7400000D03*
%TD*%
%TO.P,R2,1*%
%TO.N,C+5V*%
X27753500Y-12900000D03*
%TO.P,R2,2*%
%TO.N,D1*%
X26246500Y-12900000D03*
%TD*%
D16*
%TO.P,U3,1*%
%TO.N,N/C*%
X60489000Y-31233000D03*
%TO.P,U3,2*%
X57949000Y-31233000D03*
%TO.P,U3,3*%
X55409000Y-31233000D03*
%TO.P,U3,4*%
X52869000Y-31233000D03*
%TO.P,U3,5*%
X50329000Y-31233000D03*
%TO.P,U3,6*%
X47789000Y-31233000D03*
%TO.P,U3,7*%
X45249000Y-31233000D03*
%TO.P,U3,8*%
X42709000Y-31233000D03*
%TO.P,U3,9*%
X40169000Y-31233000D03*
D17*
%TO.P,U3,10*%
X39079000Y-27813000D03*
%TO.P,U3,11*%
X39079000Y-25273000D03*
%TO.P,U3,12*%
X39079000Y-22733000D03*
%TO.P,U3,13*%
X39079000Y-20193000D03*
%TO.P,U3,14*%
%TO.N,LO_TH*%
X39079000Y-17653000D03*
D16*
%TO.P,U3,15*%
%TO.N,LO_TR*%
X40169000Y-14233000D03*
%TO.P,U3,16*%
%TO.N,LO_TL*%
X42709000Y-14233000D03*
%TO.P,U3,17*%
%TO.N,LO_D3*%
X45249000Y-14233000D03*
%TO.P,U3,18*%
%TO.N,LO_D2*%
X47789000Y-14233000D03*
%TO.P,U3,19*%
%TO.N,LO_D1*%
X50329000Y-14233000D03*
%TO.P,U3,20*%
%TO.N,LO_D0*%
X52869000Y-14233000D03*
%TO.P,U3,21*%
%TO.N,VCC*%
X55409000Y-14233000D03*
%TO.P,U3,22*%
%TO.N,GND*%
X57949000Y-14233000D03*
%TO.P,U3,23*%
%TO.N,PICO+5V*%
X60489000Y-14233000D03*
%TD*%
D12*
%TO.P,R11,1*%
%TO.N,C+5V*%
X27753500Y-23200000D03*
%TO.P,R11,2*%
%TO.N,D3*%
X26246500Y-23200000D03*
%TD*%
D18*
%TO.P,CN1,1*%
%TO.N,D0*%
X18184000Y-11986000D03*
%TO.P,CN1,2*%
%TO.N,D1*%
X18184000Y-14756000D03*
%TO.P,CN1,3*%
%TO.N,D2*%
X18184000Y-17526000D03*
%TO.P,CN1,4*%
%TO.N,D3*%
X18184000Y-20296000D03*
%TO.P,CN1,5*%
%TO.N,C+5V*%
X18184000Y-23066000D03*
%TO.P,CN1,6*%
%TO.N,TL*%
X15344000Y-13371000D03*
%TO.P,CN1,7*%
%TO.N,TH*%
X15344000Y-16141000D03*
%TO.P,CN1,8*%
%TO.N,GND*%
X15344000Y-18911000D03*
%TO.P,CN1,9*%
%TO.N,TR*%
X15344000Y-21681000D03*
D19*
%TO.P,CN1,10*%
%TO.N,GND*%
X16764000Y-30026000D03*
%TO.P,CN1,11*%
X16764000Y-5026000D03*
%TD*%
D11*
%TO.P,R3,1*%
%TO.N,VCC*%
X49250000Y-9046500D03*
%TO.P,R3,2*%
%TO.N,LO_D0*%
X49250000Y-10553500D03*
%TD*%
D13*
%TO.P,C1,1*%
%TO.N,C+5V*%
X29050000Y-10800000D03*
%TO.P,C1,2*%
%TO.N,GND*%
X26350000Y-10800000D03*
%TD*%
D10*
%TO.P,Q5,1*%
%TO.N,VCC*%
X31600000Y-32328000D03*
%TO.P,Q5,2*%
%TO.N,LO_D2*%
X31600000Y-30428000D03*
%TO.P,Q5,3*%
%TO.N,D2*%
X29600000Y-31378000D03*
%TD*%
D12*
%TO.P,R15,1*%
%TO.N,GND*%
X43153500Y-5900000D03*
%TO.P,R15,2*%
%TO.N,CC2*%
X41646500Y-5900000D03*
%TD*%
D10*
%TO.P,Q6,1*%
%TO.N,VCC*%
X31600000Y-28772000D03*
%TO.P,Q6,2*%
%TO.N,LO_D3*%
X31600000Y-26872000D03*
%TO.P,Q6,3*%
%TO.N,D3*%
X29600000Y-27822000D03*
%TD*%
D12*
%TO.P,R6,1*%
%TO.N,C+5V*%
X27853500Y-17000000D03*
%TO.P,R6,2*%
%TO.N,TH*%
X26346500Y-17000000D03*
%TD*%
D20*
%TO.P,USB-1,1*%
%TO.N,GND*%
X30875000Y-8503250D03*
D21*
%TO.P,USB-1,2*%
X30875000Y-4323750D03*
%TO.P,USB-1,3*%
X39525000Y-4323750D03*
D20*
%TO.P,USB-1,4*%
X39525000Y-8503250D03*
D22*
%TO.P,USB-1,A1B12*%
X38400000Y-9271750D03*
%TO.P,USB-1,A4B9*%
%TO.N,EXT5V*%
X37600000Y-9271750D03*
D23*
%TO.P,USB-1,A5*%
%TO.N,CC1*%
X36450000Y-9271750D03*
%TO.P,USB-1,A6*%
%TO.N,N/C*%
X35450000Y-9271750D03*
%TO.P,USB-1,A7*%
X34950000Y-9271750D03*
%TO.P,USB-1,A8*%
X33950500Y-9271750D03*
D22*
%TO.P,USB-1,B1A12*%
%TO.N,GND*%
X32000000Y-9271750D03*
D24*
%TO.P,USB-1,B4A9*%
%TO.N,EXT5V*%
X32799500Y-9271750D03*
D23*
%TO.P,USB-1,B5*%
%TO.N,CC2*%
X33450000Y-9271750D03*
%TO.P,USB-1,B6*%
%TO.N,N/C*%
X34450000Y-9271750D03*
%TO.P,USB-1,B7*%
X35950000Y-9271750D03*
%TO.P,USB-1,B8*%
X36950000Y-9271750D03*
%TD*%
D11*
%TO.P,R5,1*%
%TO.N,VCC*%
X33500000Y-14553500D03*
%TO.P,R5,2*%
%TO.N,LO_TH*%
X33500000Y-13046500D03*
%TD*%
D12*
%TO.P,R9,1*%
%TO.N,C+5V*%
X27853500Y-25300000D03*
%TO.P,R9,2*%
%TO.N,D2*%
X26346500Y-25300000D03*
%TD*%
D10*
%TO.P,Q7,1*%
%TO.N,VCC*%
X31600000Y-25216000D03*
%TO.P,Q7,2*%
%TO.N,LO_TL*%
X31600000Y-23316000D03*
%TO.P,Q7,3*%
%TO.N,TL*%
X29600000Y-24266000D03*
%TD*%
D25*
%TO.P,SW1,1*%
%TO.N,EXT5V*%
X57800000Y-5650000D03*
%TO.P,SW1,2*%
%TO.N,PICO+5V*%
X56800000Y-5650000D03*
%TO.P,SW1,3*%
%TO.N,C+5V*%
X55800000Y-5650000D03*
D26*
%TO.P,SW1,4*%
%TO.N,GND*%
X59550000Y-4950000D03*
X59550000Y-2750000D03*
%TO.P,SW1,5*%
X54050000Y-4950000D03*
X54050000Y-2750000D03*
%TD*%
D11*
%TO.P,R10,1*%
%TO.N,VCC*%
X33400000Y-32200000D03*
%TO.P,R10,2*%
%TO.N,LO_D2*%
X33400000Y-30693000D03*
%TD*%
D12*
%TO.P,R4,1*%
%TO.N,C+5V*%
X27753500Y-14900000D03*
%TO.P,R4,2*%
%TO.N,D0*%
X26246500Y-14900000D03*
%TD*%
D11*
%TO.P,R1,1*%
%TO.N,VCC*%
X45550000Y-9046500D03*
%TO.P,R1,2*%
%TO.N,LO_D1*%
X45550000Y-10553500D03*
%TD*%
D27*
%TO.N,LO_D0*%
X51250000Y-7000000D03*
X51218671Y-10080721D03*
%TO.N,D0*%
X50300000Y-5000000D03*
X26246500Y-14900000D03*
%TO.N,LO_D1*%
X47550000Y-9700000D03*
X47550000Y-7000000D03*
%TO.N,D1*%
X26246500Y-12900000D03*
X46600000Y-5000000D03*
%TO.N,LO_D2*%
X47800000Y-14400000D03*
X37200000Y-30600000D03*
D28*
%TO.N,D2*%
X29600000Y-31378000D03*
D27*
X26346500Y-25300000D03*
X21200000Y-19000000D03*
X21200000Y-20900000D03*
%TO.N,LO_D3*%
X37300000Y-27100000D03*
X45200000Y-14400000D03*
%TO.N,D3*%
X29600000Y-27822000D03*
X26246500Y-23200000D03*
%TO.N,LO_TL*%
X42700000Y-14300000D03*
X37400000Y-23500000D03*
%TO.N,TL*%
X21900000Y-17200000D03*
D28*
X29600000Y-24266000D03*
D27*
X26346500Y-21100000D03*
%TO.N,LO_TR*%
X40100000Y-14300000D03*
X33500000Y-16046500D03*
%TO.N,TR*%
X26346500Y-19100000D03*
X29000000Y-19100000D03*
%TO.N,TH*%
X29000000Y-15600000D03*
X26346500Y-17000000D03*
D28*
%TO.N,VCC*%
X31600000Y-32328000D03*
D27*
X31700000Y-14751500D03*
X31700000Y-18300000D03*
D28*
X31600000Y-25216000D03*
X31600000Y-28772000D03*
D27*
X35200000Y-12800000D03*
%TO.N,GND*%
X31800000Y-11600000D03*
X48450000Y-5000000D03*
X19400000Y-19000000D03*
X29200000Y-26052000D03*
X51900000Y-10500000D03*
X21100000Y-16200000D03*
X47500000Y-10600000D03*
X28658000Y-29652000D03*
X30089250Y-15900000D03*
X28658000Y-22452000D03*
X35225000Y-7923750D03*
X21200000Y-14700000D03*
X30400000Y-18800000D03*
X36200000Y-25600000D03*
%TO.N,C+5V*%
X29050000Y-10800000D03*
X36000000Y-12100000D03*
X20100000Y-12700000D03*
X20100000Y-14400000D03*
X20100000Y-22000000D03*
X55800000Y-9800000D03*
X20100000Y-16200000D03*
%TO.N,EXT5V*%
X32799500Y-9271750D03*
X52650000Y-4950000D03*
X44450000Y-3000000D03*
X57800000Y-5650000D03*
X37600000Y-9271750D03*
%TD*%
D29*
%TO.N,LO_D0*%
X51218671Y-10081329D02*
X50746500Y-10553500D01*
X50746500Y-10553500D02*
X49250000Y-10553500D01*
X51218671Y-10080721D02*
X51218671Y-10081329D01*
X50100000Y-12100000D02*
X51400000Y-12100000D01*
X52869000Y-13569000D02*
X52869000Y-14233000D01*
X49250000Y-11250000D02*
X50100000Y-12100000D01*
X51400000Y-12100000D02*
X52869000Y-13569000D01*
X49250000Y-10553500D02*
X49250000Y-11250000D01*
D30*
%TO.N,D0*%
X18184000Y-11986000D02*
X19686000Y-11986000D01*
X21100000Y-12000000D02*
X22000000Y-12900000D01*
X26222500Y-14924000D02*
X26246500Y-14900000D01*
X19686000Y-11986000D02*
X19700000Y-12000000D01*
X22000000Y-14500000D02*
X22424000Y-14924000D01*
X19700000Y-12000000D02*
X21100000Y-12000000D01*
X24003000Y-14924000D02*
X26222500Y-14924000D01*
X22424000Y-14924000D02*
X24003000Y-14924000D01*
X22000000Y-12900000D02*
X22000000Y-14500000D01*
X23835500Y-14756500D02*
G75*
G02*
X24003000Y-14924000I0J-167500D01*
G01*
D29*
%TO.N,LO_D1*%
X47500000Y-9700000D02*
X46646500Y-10553500D01*
X45550000Y-10553500D02*
X45550000Y-11250000D01*
X46400000Y-12100000D02*
X48900000Y-12100000D01*
X45550000Y-11250000D02*
X46400000Y-12100000D01*
X47550000Y-9700000D02*
X47500000Y-9700000D01*
X46646500Y-10553500D02*
X45550000Y-10553500D01*
X50329000Y-13529000D02*
X50329000Y-14233000D01*
X48900000Y-12100000D02*
X50329000Y-13529000D01*
%TO.N,D1*%
X24003000Y-12861000D02*
X26207500Y-12861000D01*
X26207500Y-12861000D02*
X26246500Y-12900000D01*
%TO.N,LO_D2*%
X37107000Y-30693000D02*
X37200000Y-30600000D01*
X33135000Y-30428000D02*
X33400000Y-30693000D01*
X31600000Y-30428000D02*
X33135000Y-30428000D01*
X33400000Y-30693000D02*
X37107000Y-30693000D01*
X37170000Y-30570000D02*
X37200000Y-30600000D01*
D30*
X33740000Y-30570500D02*
G75*
G03*
X33597500Y-30428000I-142500J0D01*
G01*
D29*
%TO.N,D2*%
X26285500Y-25239000D02*
X26346500Y-25300000D01*
X24003000Y-25239000D02*
X26285500Y-25239000D01*
X21200000Y-20900000D02*
X21200000Y-19000000D01*
D30*
X24003000Y-25239000D02*
X23089500Y-25239000D01*
D29*
%TO.N,LO_D3*%
X31600000Y-26872000D02*
X33179000Y-26872000D01*
X37293000Y-27093000D02*
X37300000Y-27100000D01*
X33400000Y-27093000D02*
X37293000Y-27093000D01*
X33179000Y-26872000D02*
X33400000Y-27093000D01*
X37295500Y-27104500D02*
X37300000Y-27100000D01*
D30*
%TO.N,D3*%
X24003000Y-23176000D02*
X26222500Y-23176000D01*
X26222500Y-23176000D02*
X26246500Y-23200000D01*
X20376000Y-23176000D02*
X24003000Y-23176000D01*
X18184000Y-20984000D02*
X20376000Y-23176000D01*
X18184000Y-20296000D02*
X18184000Y-20984000D01*
D29*
%TO.N,LO_TL*%
X32230500Y-23946500D02*
X31600000Y-23316000D01*
X33400000Y-23946500D02*
X32230500Y-23946500D01*
X33400000Y-23946500D02*
X36953500Y-23946500D01*
X36953500Y-23946500D02*
X37400000Y-23500000D01*
D30*
%TO.N,TL*%
X24003000Y-21113000D02*
X26333500Y-21113000D01*
X26333500Y-21113000D02*
X26346500Y-21100000D01*
X24003000Y-21113000D02*
X22113000Y-21113000D01*
X21900000Y-20900000D02*
X21900000Y-17200000D01*
X22113000Y-21113000D02*
X21900000Y-20900000D01*
X23996500Y-21106500D02*
G75*
G02*
X24003000Y-21113000I0J-6500D01*
G01*
D29*
%TO.N,LO_TR*%
X31700000Y-16400000D02*
X33146500Y-16400000D01*
X33146500Y-16400000D02*
X33500000Y-16046500D01*
D30*
%TO.N,TR*%
X29700000Y-18400000D02*
X29700000Y-17350000D01*
X29000000Y-19100000D02*
X29700000Y-18400000D01*
X24003000Y-19050000D02*
X26296500Y-19050000D01*
X26296500Y-19050000D02*
X26346500Y-19100000D01*
X23978500Y-19074500D02*
G75*
G03*
X24003000Y-19050000I0J24500D01*
G01*
D29*
%TO.N,LO_TH*%
X33500000Y-13046500D02*
X34253500Y-13800000D01*
X35700000Y-13800000D02*
X39079000Y-17179000D01*
X39079000Y-17179000D02*
X39079000Y-17653000D01*
X31700000Y-12851500D02*
X33305000Y-12851500D01*
X34253500Y-13800000D02*
X35700000Y-13800000D01*
D30*
%TO.N,TH*%
X26333500Y-16987000D02*
X26346500Y-17000000D01*
X19135233Y-15400000D02*
X18651233Y-15884000D01*
X23168000Y-16152000D02*
X23144346Y-16152000D01*
X23144346Y-16152000D02*
X22425000Y-15432654D01*
X18651233Y-15884000D02*
X17716767Y-15884000D01*
X29800000Y-13812250D02*
X29789250Y-13801500D01*
D29*
X29700000Y-13801500D02*
X29700000Y-14900000D01*
D30*
X24003000Y-16987000D02*
X26333500Y-16987000D01*
X22425000Y-15432654D02*
X22425000Y-15409000D01*
X17716767Y-15884000D02*
X17232767Y-15400000D01*
X22416000Y-15400000D02*
X19135233Y-15400000D01*
X22425000Y-15409000D02*
X22416000Y-15400000D01*
X16085000Y-15400000D02*
X15344000Y-16141000D01*
X24003000Y-16987000D02*
X23168000Y-16152000D01*
X17232767Y-15400000D02*
X16085000Y-15400000D01*
D29*
X29700000Y-14900000D02*
X29000000Y-15600000D01*
D30*
X23947500Y-17042500D02*
G75*
G03*
X24003000Y-16987000I0J55500D01*
G01*
D29*
%TO.N,VCC*%
X55409000Y-14233000D02*
X55409000Y-12409000D01*
X35200000Y-12800000D02*
X38000000Y-12800000D01*
X46953500Y-8900000D02*
X45650000Y-7596500D01*
X31600000Y-25216000D02*
X33162500Y-25216000D01*
X46900000Y-8900000D02*
X50700000Y-8900000D01*
X31700000Y-18300000D02*
X32000000Y-18300000D01*
X55409000Y-12409000D02*
X52300000Y-9300000D01*
X49350000Y-7550000D02*
X50700000Y-8900000D01*
X49350000Y-7000000D02*
X49350000Y-7550000D01*
X32000000Y-18300000D02*
X32746500Y-17553500D01*
X51900000Y-8900000D02*
X52300000Y-9300000D01*
X46900000Y-8900000D02*
X46953500Y-8900000D01*
D30*
X31600000Y-28772000D02*
X33228000Y-28772000D01*
D29*
X33162500Y-25216000D02*
X33400000Y-25453500D01*
X50700000Y-8900000D02*
X51900000Y-8900000D01*
X45650000Y-7596500D02*
X45650000Y-7000000D01*
D30*
X31600000Y-32328000D02*
X33272000Y-32328000D01*
D29*
X49250000Y-7100000D02*
X49350000Y-7000000D01*
D30*
X31700000Y-14751500D02*
X33302000Y-14751500D01*
X33272000Y-32328000D02*
X33400000Y-32200000D01*
X33302000Y-14751500D02*
X33500000Y-14553500D01*
X33203000Y-25216000D02*
X33400000Y-25019000D01*
D29*
X41900000Y-8900000D02*
X46900000Y-8900000D01*
X32746500Y-17553500D02*
X33500000Y-17553500D01*
X38000000Y-12800000D02*
X41900000Y-8900000D01*
D30*
X33228000Y-28772000D02*
X33400000Y-28600000D01*
X33489000Y-32328000D02*
G75*
G03*
X33740000Y-32077000I0J251000D01*
G01*
X33579500Y-28772000D02*
G75*
G03*
X33740000Y-28611500I0J160500D01*
G01*
D29*
%TO.N,GND*%
X26748000Y-10798000D02*
X26750000Y-10800000D01*
X38400000Y-9271750D02*
X38756500Y-9271750D01*
X32000000Y-9271750D02*
X31643500Y-9271750D01*
X38756500Y-9271750D02*
X39525000Y-8503250D01*
X30875000Y-8503250D02*
X31231500Y-8503250D01*
X31643500Y-9271750D02*
X30875000Y-8503250D01*
%TO.N,C+5V*%
X27753500Y-25200000D02*
X27853500Y-25300000D01*
X27753500Y-12900000D02*
X27753500Y-25200000D01*
X27753500Y-12496500D02*
X27753500Y-12900000D01*
X36000000Y-12100000D02*
X34700000Y-10800000D01*
X29450000Y-10800000D02*
X27753500Y-12496500D01*
X34700000Y-10800000D02*
X29450000Y-10800000D01*
X55800000Y-5150000D02*
X55800000Y-9800000D01*
X20100000Y-12700000D02*
X20100000Y-14400000D01*
X20100000Y-16200000D02*
X20100000Y-22000000D01*
D30*
X23897500Y-10692500D02*
G75*
G02*
X24003000Y-10798000I0J-105500D01*
G01*
D29*
%TO.N,PICO+5V*%
X56800000Y-5150000D02*
X56800000Y-7300000D01*
X56800000Y-7300000D02*
X60489000Y-10989000D01*
X60489000Y-10989000D02*
X60489000Y-14233000D01*
%TO.N,CC1*%
X36450000Y-9271750D02*
X36450000Y-7998750D01*
X37625000Y-6823750D02*
X40423750Y-6823750D01*
X40423750Y-6823750D02*
X41000000Y-7400000D01*
X36450000Y-7998750D02*
X37625000Y-6823750D01*
X41000000Y-7400000D02*
X41646500Y-7400000D01*
%TO.N,CC2*%
X33450000Y-9271750D02*
X33450000Y-7098750D01*
X33450000Y-7098750D02*
X34126000Y-6422750D01*
X34126000Y-6422750D02*
X40377250Y-6422750D01*
X40377250Y-6422750D02*
X40900000Y-5900000D01*
X40900000Y-5900000D02*
X41646500Y-5900000D01*
%TO.N,EXT5V*%
X52650000Y-4950000D02*
X51650000Y-3950000D01*
X46100000Y-3000000D02*
X44450000Y-3000000D01*
X47050000Y-3950000D02*
X46100000Y-3000000D01*
X51650000Y-3950000D02*
X47050000Y-3950000D01*
%TD*%
%TA.AperFunction,Conductor*%
%TO.N,GND*%
G36*
X40926160Y-1638185D02*
G01*
X40971915Y-1690989D01*
X40981859Y-1760147D01*
X40952834Y-1823703D01*
X40914544Y-1850286D01*
X40915696Y-1852396D01*
X40907906Y-1856649D01*
X40792812Y-1942809D01*
X40792809Y-1942812D01*
X40706649Y-2057906D01*
X40706645Y-2057913D01*
X40656403Y-2192620D01*
X40656401Y-2192627D01*
X40650000Y-2252155D01*
X40650000Y-2750000D01*
X42850000Y-2750000D01*
X42850000Y-2252172D01*
X42849999Y-2252155D01*
X42843598Y-2192627D01*
X42843596Y-2192620D01*
X42793354Y-2057913D01*
X42793350Y-2057906D01*
X42707190Y-1942812D01*
X42707187Y-1942809D01*
X42592093Y-1856649D01*
X42584304Y-1852396D01*
X42585710Y-1849820D01*
X42541614Y-1816814D01*
X42517195Y-1751350D01*
X42532045Y-1683077D01*
X42581448Y-1633670D01*
X42640879Y-1618500D01*
X43557691Y-1618500D01*
X43624730Y-1638185D01*
X43670485Y-1690989D01*
X43680429Y-1760147D01*
X43651404Y-1823703D01*
X43614151Y-1849567D01*
X43615454Y-1851953D01*
X43607664Y-1856206D01*
X43492455Y-1942452D01*
X43492452Y-1942455D01*
X43406206Y-2057664D01*
X43406202Y-2057671D01*
X43355908Y-2192517D01*
X43350522Y-2242620D01*
X43349501Y-2252123D01*
X43349500Y-2252135D01*
X43349500Y-3747870D01*
X43349501Y-3747876D01*
X43355908Y-3807483D01*
X43406202Y-3942328D01*
X43406206Y-3942335D01*
X43492452Y-4057544D01*
X43492455Y-4057547D01*
X43607664Y-4143793D01*
X43607671Y-4143797D01*
X43742517Y-4194091D01*
X43742516Y-4194091D01*
X43749444Y-4194835D01*
X43802127Y-4200500D01*
X45097872Y-4200499D01*
X45157483Y-4194091D01*
X45292331Y-4143796D01*
X45407546Y-4057546D01*
X45493796Y-3942331D01*
X45544091Y-3807483D01*
X45550500Y-3747873D01*
X45550500Y-3724500D01*
X45553050Y-3715814D01*
X45551762Y-3706853D01*
X45562740Y-3682812D01*
X45570185Y-3657461D01*
X45577025Y-3651533D01*
X45580787Y-3643297D01*
X45603021Y-3629007D01*
X45622989Y-3611706D01*
X45633503Y-3609418D01*
X45639565Y-3605523D01*
X45674500Y-3600500D01*
X45799903Y-3600500D01*
X45866942Y-3620185D01*
X45887584Y-3636819D01*
X46006159Y-3755394D01*
X46039644Y-3816717D01*
X46034660Y-3886409D01*
X45992790Y-3942341D01*
X45892452Y-4017455D01*
X45806206Y-4132664D01*
X45806202Y-4132671D01*
X45755908Y-4267517D01*
X45749501Y-4327116D01*
X45749500Y-4327135D01*
X45749500Y-5672870D01*
X45749501Y-5672876D01*
X45756421Y-5737247D01*
X45744014Y-5806006D01*
X45696403Y-5857143D01*
X45633131Y-5874500D01*
X45252130Y-5874500D01*
X45252123Y-5874501D01*
X45192516Y-5880908D01*
X45057671Y-5931202D01*
X45057664Y-5931206D01*
X44942455Y-6017452D01*
X44942452Y-6017455D01*
X44856206Y-6132664D01*
X44856202Y-6132671D01*
X44805908Y-6267517D01*
X44799501Y-6327116D01*
X44799501Y-6327123D01*
X44799500Y-6327135D01*
X44799500Y-7672870D01*
X44799501Y-7672876D01*
X44805908Y-7732483D01*
X44856202Y-7867328D01*
X44856206Y-7867335D01*
X44942452Y-7982544D01*
X44945859Y-7985951D01*
X44979344Y-8047274D01*
X44974360Y-8116966D01*
X44932488Y-8172899D01*
X44925544Y-8177737D01*
X44914180Y-8185090D01*
X44875669Y-8199454D01*
X44771668Y-8277308D01*
X44768120Y-8279605D01*
X44738524Y-8288395D01*
X44709601Y-8299184D01*
X44701191Y-8299484D01*
X44701142Y-8299499D01*
X44701102Y-8299487D01*
X44700754Y-8299500D01*
X44079083Y-8299500D01*
X44012044Y-8279815D01*
X43966289Y-8227011D01*
X43956345Y-8157853D01*
X43979816Y-8101189D01*
X44000102Y-8074089D01*
X44000104Y-8074086D01*
X44050346Y-7939379D01*
X44050348Y-7939372D01*
X44056749Y-7879844D01*
X44056750Y-7879827D01*
X44056750Y-7650000D01*
X43277500Y-7650000D01*
X43210461Y-7630315D01*
X43164706Y-7577511D01*
X43153500Y-7526000D01*
X43153500Y-7400000D01*
X43027500Y-7400000D01*
X42960461Y-7380315D01*
X42914706Y-7327511D01*
X42903500Y-7276000D01*
X42903500Y-7150000D01*
X43403500Y-7150000D01*
X44056750Y-7150000D01*
X44056750Y-6920172D01*
X44056749Y-6920155D01*
X44050348Y-6860627D01*
X44050347Y-6860623D01*
X44000102Y-6725912D01*
X43998909Y-6724318D01*
X43998210Y-6722444D01*
X43995851Y-6718124D01*
X43996471Y-6717784D01*
X43974488Y-6658855D01*
X43989334Y-6590581D01*
X43998909Y-6575682D01*
X44000102Y-6574087D01*
X44050347Y-6439376D01*
X44050348Y-6439372D01*
X44056749Y-6379844D01*
X44056750Y-6379827D01*
X44056750Y-6150000D01*
X43403500Y-6150000D01*
X43403500Y-7150000D01*
X42903500Y-7150000D01*
X42903500Y-5650000D01*
X43403500Y-5650000D01*
X44056750Y-5650000D01*
X44056750Y-5420172D01*
X44056749Y-5420155D01*
X44050348Y-5360627D01*
X44050346Y-5360620D01*
X44000104Y-5225913D01*
X44000100Y-5225906D01*
X43913940Y-5110812D01*
X43913937Y-5110809D01*
X43798843Y-5024649D01*
X43798836Y-5024645D01*
X43664129Y-4974403D01*
X43664122Y-4974401D01*
X43604594Y-4968000D01*
X43403500Y-4968000D01*
X43403500Y-5650000D01*
X42903500Y-5650000D01*
X42903500Y-4968000D01*
X42702405Y-4968000D01*
X42642877Y-4974401D01*
X42642870Y-4974403D01*
X42508163Y-5024645D01*
X42508161Y-5024646D01*
X42474726Y-5049676D01*
X42409261Y-5074092D01*
X42340988Y-5059240D01*
X42326104Y-5049674D01*
X42321212Y-5046012D01*
X42292081Y-5024204D01*
X42292078Y-5024202D01*
X42157232Y-4973908D01*
X42157233Y-4973908D01*
X42097633Y-4967501D01*
X42097631Y-4967500D01*
X42097623Y-4967500D01*
X42097614Y-4967500D01*
X41195379Y-4967500D01*
X41195373Y-4967501D01*
X41135766Y-4973908D01*
X41000921Y-5024202D01*
X41000914Y-5024206D01*
X40885705Y-5110452D01*
X40885702Y-5110455D01*
X40799456Y-5225664D01*
X40788812Y-5254201D01*
X40768746Y-5281003D01*
X40749356Y-5308277D01*
X40747711Y-5309100D01*
X40746939Y-5310133D01*
X40718804Y-5325947D01*
X40711897Y-5328717D01*
X40668215Y-5340423D01*
X40635168Y-5359502D01*
X40626978Y-5362789D01*
X40600630Y-5365324D01*
X40574904Y-5371566D01*
X40566393Y-5368620D01*
X40557430Y-5369483D01*
X40533892Y-5357371D01*
X40508877Y-5348713D01*
X40503310Y-5341634D01*
X40495303Y-5337514D01*
X40482049Y-5314597D01*
X40465687Y-5293791D01*
X40464831Y-5284827D01*
X40460322Y-5277031D01*
X40461561Y-5250586D01*
X40459046Y-5224238D01*
X40463389Y-5211590D01*
X40463594Y-5207238D01*
X40466091Y-5203725D01*
X40470321Y-5191411D01*
X40544406Y-5046012D01*
X40597914Y-4881334D01*
X40625000Y-4710321D01*
X40625000Y-4573750D01*
X39925000Y-4573750D01*
X39925000Y-4073750D01*
X40624999Y-4073750D01*
X40630335Y-4068414D01*
X40691657Y-4034928D01*
X40761349Y-4039912D01*
X40792328Y-4056828D01*
X40907906Y-4143350D01*
X40907913Y-4143354D01*
X41042620Y-4193596D01*
X41042627Y-4193598D01*
X41102155Y-4199999D01*
X41102172Y-4200000D01*
X41500000Y-4200000D01*
X42000000Y-4200000D01*
X42397828Y-4200000D01*
X42397844Y-4199999D01*
X42457372Y-4193598D01*
X42457379Y-4193596D01*
X42592086Y-4143354D01*
X42592093Y-4143350D01*
X42707187Y-4057190D01*
X42707190Y-4057187D01*
X42793350Y-3942093D01*
X42793354Y-3942086D01*
X42843596Y-3807379D01*
X42843598Y-3807372D01*
X42849999Y-3747844D01*
X42850000Y-3747827D01*
X42850000Y-3250000D01*
X42000000Y-3250000D01*
X42000000Y-4200000D01*
X41500000Y-4200000D01*
X41500000Y-3250000D01*
X40650000Y-3250000D01*
X40650000Y-3319115D01*
X40630315Y-3386154D01*
X40577511Y-3431909D01*
X40508353Y-3441853D01*
X40444797Y-3412828D01*
X40425682Y-3392000D01*
X40364038Y-3307153D01*
X40241602Y-3184717D01*
X40101524Y-3082945D01*
X39947257Y-3004341D01*
X39782589Y-2950837D01*
X39782581Y-2950835D01*
X39775000Y-2949634D01*
X39775000Y-3708064D01*
X39770606Y-3703670D01*
X39679394Y-3651009D01*
X39577661Y-3623750D01*
X39472339Y-3623750D01*
X39370606Y-3651009D01*
X39279394Y-3703670D01*
X39275000Y-3708064D01*
X39275000Y-2949634D01*
X39274999Y-2949634D01*
X39267418Y-2950835D01*
X39267410Y-2950837D01*
X39102742Y-3004341D01*
X38948475Y-3082945D01*
X38808397Y-3184717D01*
X38685967Y-3307147D01*
X38584195Y-3447225D01*
X38505591Y-3601492D01*
X38452085Y-3766165D01*
X38425000Y-3937178D01*
X38425000Y-4073750D01*
X39125000Y-4073750D01*
X39125000Y-4573750D01*
X38425000Y-4573750D01*
X38425000Y-4710321D01*
X38452085Y-4881334D01*
X38505591Y-5046007D01*
X38584195Y-5200274D01*
X38685967Y-5340352D01*
X38808397Y-5462782D01*
X38948475Y-5564554D01*
X38994029Y-5587765D01*
X39044825Y-5635740D01*
X39061620Y-5703561D01*
X39039082Y-5769696D01*
X38984367Y-5813147D01*
X38937734Y-5822250D01*
X34046940Y-5822250D01*
X34006019Y-5833214D01*
X34006019Y-5833215D01*
X33968751Y-5843201D01*
X33894214Y-5863173D01*
X33894209Y-5863176D01*
X33757290Y-5942225D01*
X33757282Y-5942231D01*
X32969479Y-6730034D01*
X32954680Y-6755667D01*
X32948425Y-6766503D01*
X32928807Y-6800482D01*
X32894085Y-6860623D01*
X32890423Y-6866965D01*
X32849499Y-7019693D01*
X32849499Y-7019695D01*
X32849499Y-7187796D01*
X32849500Y-7187809D01*
X32849500Y-7443960D01*
X32829815Y-7510999D01*
X32777011Y-7556754D01*
X32707853Y-7566698D01*
X32650014Y-7542336D01*
X32631038Y-7527775D01*
X32631032Y-7527771D01*
X32546253Y-7478825D01*
X32546243Y-7478820D01*
X32496708Y-7458302D01*
X32496696Y-7458298D01*
X32496693Y-7458297D01*
X32402134Y-7432960D01*
X32402128Y-7432959D01*
X32402123Y-7432958D01*
X32348948Y-7425958D01*
X32348947Y-7425958D01*
X32251053Y-7425958D01*
X32251052Y-7425958D01*
X32197876Y-7432958D01*
X32197869Y-7432959D01*
X32197866Y-7432960D01*
X32103307Y-7458297D01*
X32103291Y-7458302D01*
X32053756Y-7478820D01*
X32053746Y-7478825D01*
X31968967Y-7527771D01*
X31965594Y-7530026D01*
X31964535Y-7528442D01*
X31906285Y-7550612D01*
X31837914Y-7536216D01*
X31796296Y-7499875D01*
X31714032Y-7386647D01*
X31591602Y-7264217D01*
X31451524Y-7162445D01*
X31297257Y-7083841D01*
X31132589Y-7030337D01*
X31132581Y-7030335D01*
X31125000Y-7029134D01*
X31125000Y-7787564D01*
X31120606Y-7783170D01*
X31029394Y-7730509D01*
X30927661Y-7703250D01*
X30822339Y-7703250D01*
X30720606Y-7730509D01*
X30629394Y-7783170D01*
X30625000Y-7787564D01*
X30625000Y-7029134D01*
X30624999Y-7029134D01*
X30617418Y-7030335D01*
X30617410Y-7030337D01*
X30452742Y-7083841D01*
X30298475Y-7162445D01*
X30158397Y-7264217D01*
X30035967Y-7386647D01*
X29934195Y-7526725D01*
X29855591Y-7680992D01*
X29802085Y-7845665D01*
X29775000Y-8016678D01*
X29775000Y-8253250D01*
X30475000Y-8253250D01*
X30475000Y-8753250D01*
X29775000Y-8753250D01*
X29775000Y-8989821D01*
X29802085Y-9160834D01*
X29855591Y-9325507D01*
X29910414Y-9433101D01*
X29923310Y-9501770D01*
X29897034Y-9566511D01*
X29839927Y-9606768D01*
X29770122Y-9609760D01*
X29758253Y-9606090D01*
X29757483Y-9605908D01*
X29697883Y-9599501D01*
X29697881Y-9599500D01*
X29697873Y-9599500D01*
X29697864Y-9599500D01*
X28402129Y-9599500D01*
X28402123Y-9599501D01*
X28342516Y-9605908D01*
X28207671Y-9656202D01*
X28207664Y-9656206D01*
X28092455Y-9742452D01*
X28092452Y-9742455D01*
X28006206Y-9857664D01*
X28006202Y-9857671D01*
X27955908Y-9992517D01*
X27950788Y-10040147D01*
X27949501Y-10052123D01*
X27949500Y-10052135D01*
X27949500Y-11399902D01*
X27929815Y-11466941D01*
X27913181Y-11487583D01*
X27638590Y-11762173D01*
X27577267Y-11795658D01*
X27507575Y-11790674D01*
X27451642Y-11748802D01*
X27427225Y-11683338D01*
X27434728Y-11631157D01*
X27443596Y-11607380D01*
X27443598Y-11607372D01*
X27449999Y-11547844D01*
X27450000Y-11547827D01*
X27450000Y-11050000D01*
X26474000Y-11050000D01*
X26406961Y-11030315D01*
X26361206Y-10977511D01*
X26350000Y-10926000D01*
X26350000Y-10800000D01*
X26224000Y-10800000D01*
X26156961Y-10780315D01*
X26111206Y-10727511D01*
X26100000Y-10676000D01*
X26100000Y-10550000D01*
X26600000Y-10550000D01*
X27450000Y-10550000D01*
X27450000Y-10052172D01*
X27449999Y-10052155D01*
X27443598Y-9992627D01*
X27443596Y-9992620D01*
X27393354Y-9857913D01*
X27393350Y-9857906D01*
X27307190Y-9742812D01*
X27307187Y-9742809D01*
X27192093Y-9656649D01*
X27192086Y-9656645D01*
X27057379Y-9606403D01*
X27057372Y-9606401D01*
X26997844Y-9600000D01*
X26600000Y-9600000D01*
X26600000Y-10550000D01*
X26100000Y-10550000D01*
X26100000Y-9600000D01*
X25702155Y-9600000D01*
X25642627Y-9606401D01*
X25642620Y-9606403D01*
X25507913Y-9656645D01*
X25507911Y-9656647D01*
X25412100Y-9728371D01*
X25346636Y-9752788D01*
X25278363Y-9737936D01*
X25264904Y-9729422D01*
X25087025Y-9600187D01*
X25087024Y-9600186D01*
X25087022Y-9600185D01*
X25002725Y-9557233D01*
X24890606Y-9500104D01*
X24890603Y-9500103D01*
X24680952Y-9431985D01*
X24572086Y-9414742D01*
X24463222Y-9397500D01*
X23542778Y-9397500D01*
X23470201Y-9408995D01*
X23325047Y-9431985D01*
X23115396Y-9500103D01*
X23115393Y-9500104D01*
X22918974Y-9600187D01*
X22740641Y-9729752D01*
X22740636Y-9729756D01*
X22584756Y-9885636D01*
X22584752Y-9885641D01*
X22455187Y-10063974D01*
X22355104Y-10260393D01*
X22355103Y-10260396D01*
X22286985Y-10470047D01*
X22263928Y-10615625D01*
X22252500Y-10687778D01*
X22252500Y-10908222D01*
X22255316Y-10926000D01*
X22286985Y-11125952D01*
X22355103Y-11335603D01*
X22355104Y-11335606D01*
X22406676Y-11436819D01*
X22451352Y-11524500D01*
X22455187Y-11532025D01*
X22584752Y-11710358D01*
X22584756Y-11710363D01*
X22616212Y-11741819D01*
X22649697Y-11803142D01*
X22644713Y-11872834D01*
X22616212Y-11917181D01*
X22584756Y-11948636D01*
X22584752Y-11948641D01*
X22455185Y-12126976D01*
X22417637Y-12200668D01*
X22369663Y-12251463D01*
X22301842Y-12268258D01*
X22235707Y-12245720D01*
X22219472Y-12232053D01*
X21500013Y-11512593D01*
X21500007Y-11512588D01*
X21480416Y-11499498D01*
X21397239Y-11443920D01*
X21397226Y-11443913D01*
X21343812Y-11421789D01*
X21343811Y-11421788D01*
X21343811Y-11421789D01*
X21283035Y-11396614D01*
X21283032Y-11396613D01*
X21283028Y-11396612D01*
X21161807Y-11372500D01*
X21161803Y-11372500D01*
X19830398Y-11372500D01*
X19806207Y-11370117D01*
X19783464Y-11365593D01*
X19747804Y-11358500D01*
X19747803Y-11358500D01*
X19398781Y-11358500D01*
X19331742Y-11338815D01*
X19298462Y-11307385D01*
X19296289Y-11304394D01*
X19296287Y-11304390D01*
X19175966Y-11138781D01*
X19031219Y-10994034D01*
X19031213Y-10994028D01*
X18865613Y-10873715D01*
X18865612Y-10873714D01*
X18865610Y-10873713D01*
X18808653Y-10844691D01*
X18683223Y-10780781D01*
X18488534Y-10717522D01*
X18300734Y-10687778D01*
X18286352Y-10685500D01*
X18081648Y-10685500D01*
X18067266Y-10687778D01*
X17879465Y-10717522D01*
X17684776Y-10780781D01*
X17502386Y-10873715D01*
X17336786Y-10994028D01*
X17192028Y-11138786D01*
X17071715Y-11304386D01*
X16978781Y-11486776D01*
X16915522Y-11681465D01*
X16886214Y-11866510D01*
X16883500Y-11883648D01*
X16883500Y-12088352D01*
X16885265Y-12099498D01*
X16915522Y-12290534D01*
X16978781Y-12485223D01*
X17012480Y-12551359D01*
X17066681Y-12657735D01*
X17071715Y-12667613D01*
X17192028Y-12833213D01*
X17336786Y-12977971D01*
X17476080Y-13079172D01*
X17502390Y-13098287D01*
X17604697Y-13150415D01*
X17684776Y-13191218D01*
X17684778Y-13191218D01*
X17684781Y-13191220D01*
X17750970Y-13212726D01*
X17875131Y-13253069D01*
X17932806Y-13292507D01*
X17960004Y-13356866D01*
X17948089Y-13425712D01*
X17900845Y-13477188D01*
X17875131Y-13488931D01*
X17684776Y-13550781D01*
X17502386Y-13643715D01*
X17336786Y-13764028D01*
X17192028Y-13908786D01*
X17071715Y-14074386D01*
X16978781Y-14256776D01*
X16915522Y-14451465D01*
X16883501Y-14653638D01*
X16883140Y-14658232D01*
X16858254Y-14723520D01*
X16802022Y-14764989D01*
X16759522Y-14772500D01*
X16023196Y-14772500D01*
X15975317Y-14782023D01*
X15905726Y-14775794D01*
X15850549Y-14732930D01*
X15827306Y-14667040D01*
X15843375Y-14599043D01*
X15893655Y-14550529D01*
X15894719Y-14549979D01*
X16025610Y-14483287D01*
X16124134Y-14411706D01*
X16191213Y-14362971D01*
X16191215Y-14362968D01*
X16191219Y-14362966D01*
X16335966Y-14218219D01*
X16335968Y-14218215D01*
X16335971Y-14218213D01*
X16414261Y-14110454D01*
X16456287Y-14052610D01*
X16549220Y-13870219D01*
X16612477Y-13675534D01*
X16644500Y-13473352D01*
X16644500Y-13268648D01*
X16642631Y-13256850D01*
X16612477Y-13066465D01*
X16565178Y-12920894D01*
X16549220Y-12871781D01*
X16549218Y-12871778D01*
X16549218Y-12871776D01*
X16515503Y-12805607D01*
X16456287Y-12689390D01*
X16440463Y-12667610D01*
X16335971Y-12523786D01*
X16191213Y-12379028D01*
X16025613Y-12258715D01*
X16025612Y-12258714D01*
X16025610Y-12258713D01*
X15968653Y-12229691D01*
X15843223Y-12165781D01*
X15648534Y-12102522D01*
X15473995Y-12074878D01*
X15446352Y-12070500D01*
X15241648Y-12070500D01*
X15217329Y-12074351D01*
X15039465Y-12102522D01*
X14844776Y-12165781D01*
X14662386Y-12258715D01*
X14496786Y-12379028D01*
X14352028Y-12523786D01*
X14231715Y-12689386D01*
X14138781Y-12871776D01*
X14075522Y-13066465D01*
X14043500Y-13268648D01*
X14043500Y-13473351D01*
X14075522Y-13675534D01*
X14138781Y-13870223D01*
X14191613Y-13973909D01*
X14217239Y-14024204D01*
X14231715Y-14052613D01*
X14352028Y-14218213D01*
X14496786Y-14362971D01*
X14626843Y-14457461D01*
X14662390Y-14483287D01*
X14778607Y-14542503D01*
X14844776Y-14576218D01*
X14844778Y-14576218D01*
X14844781Y-14576220D01*
X14886973Y-14589929D01*
X15035131Y-14638069D01*
X15092806Y-14677507D01*
X15120004Y-14741866D01*
X15108089Y-14810712D01*
X15060845Y-14862188D01*
X15035131Y-14873931D01*
X14844776Y-14935781D01*
X14662386Y-15028715D01*
X14496786Y-15149028D01*
X14352028Y-15293786D01*
X14231715Y-15459386D01*
X14138781Y-15641776D01*
X14075522Y-15836465D01*
X14043500Y-16038648D01*
X14043500Y-16243351D01*
X14075522Y-16445534D01*
X14138781Y-16640223D01*
X14191576Y-16743837D01*
X14230801Y-16820821D01*
X14231715Y-16822613D01*
X14352028Y-16988213D01*
X14496786Y-17132971D01*
X14649733Y-17244091D01*
X14662390Y-17253287D01*
X14844781Y-17346220D01*
X14990807Y-17393666D01*
X15035938Y-17408331D01*
X15093614Y-17447769D01*
X15120812Y-17512127D01*
X15108897Y-17580974D01*
X15061653Y-17632449D01*
X15035939Y-17644193D01*
X14844968Y-17706244D01*
X14662650Y-17799140D01*
X14497105Y-17919417D01*
X14497104Y-17919417D01*
X14352417Y-18064104D01*
X14352417Y-18064105D01*
X14232140Y-18229650D01*
X14139244Y-18411970D01*
X14076009Y-18606586D01*
X14067391Y-18661000D01*
X14859026Y-18661000D01*
X14836141Y-18700638D01*
X14799000Y-18839249D01*
X14799000Y-18982751D01*
X14836141Y-19121362D01*
X14859026Y-19161000D01*
X14067391Y-19161000D01*
X14076009Y-19215413D01*
X14139244Y-19410029D01*
X14232140Y-19592349D01*
X14352417Y-19757894D01*
X14352417Y-19757895D01*
X14497104Y-19902582D01*
X14662650Y-20022859D01*
X14844968Y-20115755D01*
X15035939Y-20177806D01*
X15093614Y-20217244D01*
X15120812Y-20281603D01*
X15108897Y-20350449D01*
X15061653Y-20401925D01*
X15035939Y-20413668D01*
X14844776Y-20475781D01*
X14662386Y-20568715D01*
X14496786Y-20689028D01*
X14352028Y-20833786D01*
X14231715Y-20999386D01*
X14138781Y-21181776D01*
X14075522Y-21376465D01*
X14043500Y-21578648D01*
X14043500Y-21783351D01*
X14075522Y-21985534D01*
X14138781Y-22180223D01*
X14197917Y-22296281D01*
X14220118Y-22339854D01*
X14231715Y-22362613D01*
X14352028Y-22528213D01*
X14496786Y-22672971D01*
X14651749Y-22785556D01*
X14662390Y-22793287D01*
X14778607Y-22852503D01*
X14844776Y-22886218D01*
X14844778Y-22886218D01*
X14844781Y-22886220D01*
X14942947Y-22918116D01*
X15039465Y-22949477D01*
X15128937Y-22963648D01*
X15241648Y-22981500D01*
X15241649Y-22981500D01*
X15446351Y-22981500D01*
X15446352Y-22981500D01*
X15648534Y-22949477D01*
X15843219Y-22886220D01*
X16025610Y-22793287D01*
X16126306Y-22720128D01*
X16191213Y-22672971D01*
X16191215Y-22672968D01*
X16191219Y-22672966D01*
X16335966Y-22528219D01*
X16335968Y-22528215D01*
X16335971Y-22528213D01*
X16398627Y-22441973D01*
X16456287Y-22362610D01*
X16549220Y-22180219D01*
X16612477Y-21985534D01*
X16644500Y-21783352D01*
X16644500Y-21578648D01*
X16612477Y-21376466D01*
X16549220Y-21181781D01*
X16549218Y-21181778D01*
X16549218Y-21181776D01*
X16513437Y-21111553D01*
X16456287Y-20999390D01*
X16440463Y-20977610D01*
X16335971Y-20833786D01*
X16191213Y-20689028D01*
X16025613Y-20568715D01*
X16025612Y-20568714D01*
X16025610Y-20568713D01*
X15968653Y-20539691D01*
X15843223Y-20475781D01*
X15652060Y-20413668D01*
X15594385Y-20374230D01*
X15567187Y-20309871D01*
X15579102Y-20241025D01*
X15626346Y-20189549D01*
X15652061Y-20177806D01*
X15843029Y-20115755D01*
X16025349Y-20022859D01*
X16190894Y-19902582D01*
X16190895Y-19902582D01*
X16335582Y-19757895D01*
X16335582Y-19757894D01*
X16455859Y-19592349D01*
X16548755Y-19410029D01*
X16611990Y-19215413D01*
X16620609Y-19161000D01*
X15828974Y-19161000D01*
X15851859Y-19121362D01*
X15889000Y-18982751D01*
X15889000Y-18839249D01*
X15851859Y-18700638D01*
X15828974Y-18661000D01*
X16620609Y-18661000D01*
X16611990Y-18606586D01*
X16548755Y-18411970D01*
X16455859Y-18229650D01*
X16335582Y-18064105D01*
X16335582Y-18064104D01*
X16190895Y-17919417D01*
X16025349Y-17799140D01*
X15843031Y-17706244D01*
X15652060Y-17644193D01*
X15594385Y-17604755D01*
X15567187Y-17540396D01*
X15579102Y-17471550D01*
X15626347Y-17420074D01*
X15652061Y-17408331D01*
X15843219Y-17346220D01*
X16025610Y-17253287D01*
X16118590Y-17185732D01*
X16191213Y-17132971D01*
X16191215Y-17132968D01*
X16191219Y-17132966D01*
X16335966Y-16988219D01*
X16335968Y-16988215D01*
X16335971Y-16988213D01*
X16418723Y-16874313D01*
X16456287Y-16822610D01*
X16549220Y-16640219D01*
X16612477Y-16445534D01*
X16644500Y-16243352D01*
X16644500Y-16151500D01*
X16647050Y-16142814D01*
X16645762Y-16133853D01*
X16656740Y-16109812D01*
X16664185Y-16084461D01*
X16671025Y-16078533D01*
X16674787Y-16070297D01*
X16697021Y-16056007D01*
X16716989Y-16038706D01*
X16727503Y-16036418D01*
X16733565Y-16032523D01*
X16768500Y-16027500D01*
X16921486Y-16027500D01*
X16988525Y-16047185D01*
X17009167Y-16063819D01*
X17320400Y-16375052D01*
X17353885Y-16436375D01*
X17348901Y-16506067D01*
X17320401Y-16550414D01*
X17192027Y-16678788D01*
X17071715Y-16844386D01*
X16978781Y-17026776D01*
X16915522Y-17221465D01*
X16883500Y-17423648D01*
X16883500Y-17628351D01*
X16915522Y-17830534D01*
X16978781Y-18025223D01*
X17014932Y-18096172D01*
X17067369Y-18199085D01*
X17071715Y-18207613D01*
X17192028Y-18373213D01*
X17336786Y-18517971D01*
X17464207Y-18610546D01*
X17502390Y-18638287D01*
X17617214Y-18696793D01*
X17684776Y-18731218D01*
X17684778Y-18731218D01*
X17684781Y-18731220D01*
X17733627Y-18747091D01*
X17875131Y-18793069D01*
X17932806Y-18832507D01*
X17960004Y-18896866D01*
X17948089Y-18965712D01*
X17900845Y-19017188D01*
X17875131Y-19028931D01*
X17684776Y-19090781D01*
X17502386Y-19183715D01*
X17336786Y-19304028D01*
X17192028Y-19448786D01*
X17071715Y-19614386D01*
X16978781Y-19796776D01*
X16915522Y-19991465D01*
X16883500Y-20193648D01*
X16883500Y-20398351D01*
X16915522Y-20600534D01*
X16978781Y-20795223D01*
X17071715Y-20977613D01*
X17192028Y-21143213D01*
X17336786Y-21287971D01*
X17491749Y-21400556D01*
X17502390Y-21408287D01*
X17684781Y-21501220D01*
X17847587Y-21554119D01*
X17858988Y-21561105D01*
X17868695Y-21563217D01*
X17896949Y-21584368D01*
X17910460Y-21597879D01*
X17943945Y-21659202D01*
X17938961Y-21728894D01*
X17897089Y-21784827D01*
X17861098Y-21803491D01*
X17684776Y-21860781D01*
X17502386Y-21953715D01*
X17336786Y-22074028D01*
X17192028Y-22218786D01*
X17071715Y-22384386D01*
X16978781Y-22566776D01*
X16915522Y-22761465D01*
X16883500Y-22963648D01*
X16883500Y-23168351D01*
X16915522Y-23370534D01*
X16978781Y-23565223D01*
X17071715Y-23747613D01*
X17192028Y-23913213D01*
X17336786Y-24057971D01*
X17477162Y-24159958D01*
X17502390Y-24178287D01*
X17602316Y-24229202D01*
X17684776Y-24271218D01*
X17684778Y-24271218D01*
X17684781Y-24271220D01*
X17774896Y-24300500D01*
X17879465Y-24334477D01*
X17899663Y-24337676D01*
X18081648Y-24366500D01*
X18081649Y-24366500D01*
X18286351Y-24366500D01*
X18286352Y-24366500D01*
X18488534Y-24334477D01*
X18683219Y-24271220D01*
X18865610Y-24178287D01*
X18973349Y-24100011D01*
X19031213Y-24057971D01*
X19031215Y-24057968D01*
X19031219Y-24057966D01*
X19175966Y-23913219D01*
X19175968Y-23913215D01*
X19175971Y-23913213D01*
X19255681Y-23803500D01*
X19296287Y-23747610D01*
X19389220Y-23565219D01*
X19446509Y-23388902D01*
X19485947Y-23331227D01*
X19550306Y-23304029D01*
X19619152Y-23315944D01*
X19652121Y-23339540D01*
X19888589Y-23576008D01*
X19975992Y-23663411D01*
X19975994Y-23663413D01*
X19975996Y-23663414D01*
X20078756Y-23732076D01*
X20078760Y-23732078D01*
X20078767Y-23732083D01*
X20186714Y-23776795D01*
X20186720Y-23776800D01*
X20186720Y-23776798D01*
X20192965Y-23779385D01*
X20192967Y-23779385D01*
X20192968Y-23779386D01*
X20314194Y-23803500D01*
X20314197Y-23803500D01*
X20437803Y-23803500D01*
X22324922Y-23803500D01*
X22391961Y-23823185D01*
X22435406Y-23871204D01*
X22453338Y-23906397D01*
X22455187Y-23910026D01*
X22584752Y-24088358D01*
X22584756Y-24088363D01*
X22616212Y-24119819D01*
X22649697Y-24181142D01*
X22644713Y-24250834D01*
X22616212Y-24295181D01*
X22584756Y-24326636D01*
X22584752Y-24326641D01*
X22455187Y-24504974D01*
X22355104Y-24701393D01*
X22355103Y-24701396D01*
X22286985Y-24911047D01*
X22252500Y-25128778D01*
X22252500Y-25349221D01*
X22286985Y-25566952D01*
X22355103Y-25776603D01*
X22355104Y-25776606D01*
X22387144Y-25839486D01*
X22450706Y-25964232D01*
X22455187Y-25973025D01*
X22584752Y-26151358D01*
X22584756Y-26151363D01*
X22616566Y-26183173D01*
X22650051Y-26244496D01*
X22645067Y-26314188D01*
X22616566Y-26358535D01*
X22585142Y-26389958D01*
X22455613Y-26568239D01*
X22355567Y-26764589D01*
X22287473Y-26974161D01*
X22287473Y-26974164D01*
X22275145Y-27052000D01*
X23294759Y-27052000D01*
X23281822Y-27083233D01*
X23253000Y-27228131D01*
X23253000Y-27375869D01*
X23281822Y-27520767D01*
X23294759Y-27552000D01*
X22275145Y-27552000D01*
X22287473Y-27629835D01*
X22287473Y-27629838D01*
X22355567Y-27839410D01*
X22455613Y-28035760D01*
X22585142Y-28214041D01*
X22740958Y-28369857D01*
X22919239Y-28499386D01*
X23115589Y-28599432D01*
X23325164Y-28667526D01*
X23542819Y-28702000D01*
X23753000Y-28702000D01*
X23753000Y-28010240D01*
X23784233Y-28023178D01*
X23929131Y-28052000D01*
X24076869Y-28052000D01*
X24221767Y-28023178D01*
X24253000Y-28010240D01*
X24253000Y-28702000D01*
X24463181Y-28702000D01*
X24680835Y-28667526D01*
X24890410Y-28599432D01*
X25086760Y-28499386D01*
X25265041Y-28369857D01*
X25420857Y-28214041D01*
X25550386Y-28035760D01*
X25650432Y-27839410D01*
X25718526Y-27629838D01*
X25718526Y-27629835D01*
X25730855Y-27552000D01*
X24711241Y-27552000D01*
X24724178Y-27520767D01*
X24753000Y-27375869D01*
X24753000Y-27228131D01*
X24724178Y-27083233D01*
X24711241Y-27052000D01*
X25730855Y-27052000D01*
X25718526Y-26974164D01*
X25718526Y-26974161D01*
X25650432Y-26764589D01*
X25550386Y-26568239D01*
X25420857Y-26389958D01*
X25389434Y-26358535D01*
X25386837Y-26353779D01*
X25382319Y-26350789D01*
X25370271Y-26323441D01*
X25355949Y-26297212D01*
X25356335Y-26291807D01*
X25354151Y-26286849D01*
X25358801Y-26257327D01*
X25360933Y-26227520D01*
X25364404Y-26221757D01*
X25365023Y-26217831D01*
X25377103Y-26200679D01*
X25384502Y-26188399D01*
X25386888Y-26185718D01*
X25421242Y-26151365D01*
X25437953Y-26128362D01*
X25442042Y-26123771D01*
X25466675Y-26108404D01*
X25489665Y-26090676D01*
X25495960Y-26090135D01*
X25501323Y-26086790D01*
X25530352Y-26087180D01*
X25559278Y-26084695D01*
X25565890Y-26087657D01*
X25571186Y-26087729D01*
X25581954Y-26094856D01*
X25608964Y-26106958D01*
X25700915Y-26175793D01*
X25700918Y-26175795D01*
X25700921Y-26175797D01*
X25835767Y-26226091D01*
X25835766Y-26226091D01*
X25842694Y-26226835D01*
X25895377Y-26232500D01*
X26797622Y-26232499D01*
X26857233Y-26226091D01*
X26992081Y-26175796D01*
X27025693Y-26150633D01*
X27091151Y-26126218D01*
X27159425Y-26141069D01*
X27174291Y-26150622D01*
X27207919Y-26175796D01*
X27207923Y-26175797D01*
X27207924Y-26175798D01*
X27342767Y-26226091D01*
X27342766Y-26226091D01*
X27349694Y-26226835D01*
X27402377Y-26232500D01*
X28304622Y-26232499D01*
X28364233Y-26226091D01*
X28499081Y-26175796D01*
X28614296Y-26089546D01*
X28700546Y-25974331D01*
X28750841Y-25839483D01*
X28757250Y-25779873D01*
X28757249Y-25236280D01*
X28776933Y-25169242D01*
X28829737Y-25123487D01*
X28894503Y-25112992D01*
X28927127Y-25116500D01*
X30272872Y-25116499D01*
X30332483Y-25110091D01*
X30332487Y-25110089D01*
X30337245Y-25109578D01*
X30406004Y-25121984D01*
X30457142Y-25169594D01*
X30474500Y-25232868D01*
X30474500Y-25613869D01*
X30474501Y-25613876D01*
X30480908Y-25673483D01*
X30531202Y-25808328D01*
X30531206Y-25808335D01*
X30617452Y-25923544D01*
X30617453Y-25923544D01*
X30617454Y-25923546D01*
X30633914Y-25935868D01*
X30645757Y-25944734D01*
X30687628Y-26000669D01*
X30692611Y-26070361D01*
X30659124Y-26131683D01*
X30645757Y-26143266D01*
X30617452Y-26164455D01*
X30531206Y-26279664D01*
X30531202Y-26279671D01*
X30480908Y-26414517D01*
X30474501Y-26474116D01*
X30474500Y-26474135D01*
X30474500Y-26855131D01*
X30454815Y-26922170D01*
X30402011Y-26967925D01*
X30337246Y-26978421D01*
X30330756Y-26977723D01*
X30272873Y-26971500D01*
X30272865Y-26971500D01*
X28927129Y-26971500D01*
X28927123Y-26971501D01*
X28867516Y-26977908D01*
X28732671Y-27028202D01*
X28732664Y-27028206D01*
X28617455Y-27114452D01*
X28617452Y-27114455D01*
X28531206Y-27229664D01*
X28531202Y-27229671D01*
X28480908Y-27364517D01*
X28474501Y-27424116D01*
X28474500Y-27424135D01*
X28474500Y-28219870D01*
X28474501Y-28219876D01*
X28480908Y-28279483D01*
X28531202Y-28414328D01*
X28531206Y-28414335D01*
X28617452Y-28529544D01*
X28617455Y-28529547D01*
X28732664Y-28615793D01*
X28732671Y-28615797D01*
X28867517Y-28666091D01*
X28867516Y-28666091D01*
X28874444Y-28666835D01*
X28927127Y-28672500D01*
X30272872Y-28672499D01*
X30332483Y-28666091D01*
X30332487Y-28666089D01*
X30337245Y-28665578D01*
X30406004Y-28677984D01*
X30457142Y-28725594D01*
X30474500Y-28788868D01*
X30474500Y-29169869D01*
X30474501Y-29169876D01*
X30480908Y-29229483D01*
X30531202Y-29364328D01*
X30531206Y-29364335D01*
X30617452Y-29479544D01*
X30617453Y-29479544D01*
X30617454Y-29479546D01*
X30633914Y-29491868D01*
X30645757Y-29500734D01*
X30687628Y-29556669D01*
X30692611Y-29626361D01*
X30659124Y-29687683D01*
X30645757Y-29699266D01*
X30617452Y-29720455D01*
X30531206Y-29835664D01*
X30531202Y-29835671D01*
X30480908Y-29970517D01*
X30474501Y-30030116D01*
X30474500Y-30030135D01*
X30474500Y-30411131D01*
X30454815Y-30478170D01*
X30402011Y-30523925D01*
X30337246Y-30534421D01*
X30330756Y-30533723D01*
X30272873Y-30527500D01*
X30272865Y-30527500D01*
X28927129Y-30527500D01*
X28927123Y-30527501D01*
X28867516Y-30533908D01*
X28732671Y-30584202D01*
X28732664Y-30584206D01*
X28617455Y-30670452D01*
X28617452Y-30670455D01*
X28531206Y-30785664D01*
X28531202Y-30785671D01*
X28480908Y-30920517D01*
X28474501Y-30980116D01*
X28474500Y-30980135D01*
X28474500Y-31775870D01*
X28474501Y-31775876D01*
X28480908Y-31835483D01*
X28531202Y-31970328D01*
X28531206Y-31970335D01*
X28617452Y-32085544D01*
X28617455Y-32085547D01*
X28732664Y-32171793D01*
X28732671Y-32171797D01*
X28867517Y-32222091D01*
X28867516Y-32222091D01*
X28874444Y-32222835D01*
X28927127Y-32228500D01*
X30272872Y-32228499D01*
X30332483Y-32222091D01*
X30332487Y-32222089D01*
X30337245Y-32221578D01*
X30406004Y-32233984D01*
X30457142Y-32281594D01*
X30474500Y-32344868D01*
X30474500Y-32725869D01*
X30474501Y-32725876D01*
X30480908Y-32785483D01*
X30534303Y-32928641D01*
X30531967Y-32929512D01*
X30544002Y-32984855D01*
X30519581Y-33050317D01*
X30463645Y-33092185D01*
X30420319Y-33100000D01*
X13224000Y-33100000D01*
X13156961Y-33080315D01*
X13111206Y-33027511D01*
X13100000Y-32976000D01*
X13100000Y-29776000D01*
X14175716Y-29776000D01*
X15133029Y-29776000D01*
X15114000Y-29896142D01*
X15114000Y-30155858D01*
X15133029Y-30276000D01*
X14175716Y-30276000D01*
X14196694Y-30462189D01*
X14196696Y-30462201D01*
X14261678Y-30746910D01*
X14261681Y-30746918D01*
X14358129Y-31022548D01*
X14484831Y-31285648D01*
X14640199Y-31532914D01*
X14822274Y-31761230D01*
X15028769Y-31967725D01*
X15257085Y-32149800D01*
X15504351Y-32305168D01*
X15767451Y-32431870D01*
X16043081Y-32528318D01*
X16043089Y-32528321D01*
X16327805Y-32593305D01*
X16327802Y-32593305D01*
X16513999Y-32614283D01*
X16514000Y-32614283D01*
X16514000Y-31656971D01*
X16634142Y-31676000D01*
X16893858Y-31676000D01*
X17014000Y-31656971D01*
X17014000Y-32614283D01*
X17200195Y-32593305D01*
X17484910Y-32528321D01*
X17484918Y-32528318D01*
X17760548Y-32431870D01*
X18023648Y-32305168D01*
X18270914Y-32149800D01*
X18499230Y-31967725D01*
X18705725Y-31761230D01*
X18887800Y-31532914D01*
X19043168Y-31285648D01*
X19169870Y-31022548D01*
X19266318Y-30746918D01*
X19266321Y-30746910D01*
X19331303Y-30462201D01*
X19331305Y-30462189D01*
X19352284Y-30276000D01*
X18394971Y-30276000D01*
X18414000Y-30155858D01*
X18414000Y-29896142D01*
X18394971Y-29776000D01*
X19352284Y-29776000D01*
X19331305Y-29589810D01*
X19331303Y-29589798D01*
X19266321Y-29305089D01*
X19266318Y-29305081D01*
X19169870Y-29029451D01*
X19043168Y-28766351D01*
X18887800Y-28519085D01*
X18705725Y-28290769D01*
X18499230Y-28084274D01*
X18270914Y-27902199D01*
X18023645Y-27746829D01*
X17774104Y-27626657D01*
X17774103Y-27626657D01*
X17760548Y-27620129D01*
X17484918Y-27523681D01*
X17484910Y-27523678D01*
X17200201Y-27458696D01*
X17200189Y-27458694D01*
X17014000Y-27437715D01*
X17014000Y-28395028D01*
X16893858Y-28376000D01*
X16634142Y-28376000D01*
X16514000Y-28395028D01*
X16514000Y-27437715D01*
X16327810Y-27458694D01*
X16327798Y-27458696D01*
X16043089Y-27523678D01*
X16043081Y-27523681D01*
X15767451Y-27620129D01*
X15504351Y-27746831D01*
X15257085Y-27902199D01*
X15028769Y-28084274D01*
X14822274Y-28290769D01*
X14640199Y-28519085D01*
X14484831Y-28766351D01*
X14358129Y-29029451D01*
X14261681Y-29305081D01*
X14261678Y-29305089D01*
X14196696Y-29589798D01*
X14196694Y-29589810D01*
X14175716Y-29776000D01*
X13100000Y-29776000D01*
X13100000Y-4776000D01*
X14175716Y-4776000D01*
X15133029Y-4776000D01*
X15114000Y-4896142D01*
X15114000Y-5155858D01*
X15133029Y-5276000D01*
X14175716Y-5276000D01*
X14196694Y-5462189D01*
X14196696Y-5462201D01*
X14261678Y-5746910D01*
X14261681Y-5746918D01*
X14358129Y-6022548D01*
X14484831Y-6285648D01*
X14640199Y-6532914D01*
X14822274Y-6761230D01*
X15028769Y-6967725D01*
X15257085Y-7149800D01*
X15504351Y-7305168D01*
X15767451Y-7431870D01*
X16043081Y-7528318D01*
X16043089Y-7528321D01*
X16327805Y-7593305D01*
X16327802Y-7593305D01*
X16513999Y-7614283D01*
X16514000Y-7614283D01*
X16514000Y-6656971D01*
X16634142Y-6676000D01*
X16893858Y-6676000D01*
X17014000Y-6656971D01*
X17014000Y-7614283D01*
X17200195Y-7593305D01*
X17484910Y-7528321D01*
X17484918Y-7528318D01*
X17760548Y-7431870D01*
X18023648Y-7305168D01*
X18270914Y-7149800D01*
X18499230Y-6967725D01*
X18705725Y-6761230D01*
X18887800Y-6532914D01*
X19043168Y-6285648D01*
X19169870Y-6022548D01*
X19266318Y-5746918D01*
X19266321Y-5746910D01*
X19331303Y-5462201D01*
X19331305Y-5462189D01*
X19352284Y-5276000D01*
X18394971Y-5276000D01*
X18414000Y-5155858D01*
X18414000Y-4896142D01*
X18394971Y-4776000D01*
X19352284Y-4776000D01*
X19331305Y-4589810D01*
X19331303Y-4589794D01*
X19322216Y-4549980D01*
X19266321Y-4305089D01*
X19266318Y-4305081D01*
X19169870Y-4029451D01*
X19148997Y-3986108D01*
X19148996Y-3986106D01*
X19125434Y-3937178D01*
X29775000Y-3937178D01*
X29775000Y-4073750D01*
X30475000Y-4073750D01*
X30475000Y-4573750D01*
X29775000Y-4573750D01*
X29775000Y-4710321D01*
X29802085Y-4881334D01*
X29855591Y-5046007D01*
X29934195Y-5200274D01*
X30035967Y-5340352D01*
X30158397Y-5462782D01*
X30298475Y-5564554D01*
X30452744Y-5643158D01*
X30617415Y-5696664D01*
X30617414Y-5696664D01*
X30624999Y-5697865D01*
X30625000Y-5697864D01*
X30625000Y-4939436D01*
X30629394Y-4943830D01*
X30720606Y-4996491D01*
X30822339Y-5023750D01*
X30927661Y-5023750D01*
X31029394Y-4996491D01*
X31120606Y-4943830D01*
X31125000Y-4939436D01*
X31125000Y-5697865D01*
X31132584Y-5696664D01*
X31297255Y-5643158D01*
X31451524Y-5564554D01*
X31591602Y-5462782D01*
X31714032Y-5340352D01*
X31815804Y-5200274D01*
X31894408Y-5046007D01*
X31947914Y-4881334D01*
X31975000Y-4710321D01*
X31975000Y-4573750D01*
X31275000Y-4573750D01*
X31275000Y-4073750D01*
X31975000Y-4073750D01*
X31975000Y-3937178D01*
X31947914Y-3766165D01*
X31894408Y-3601492D01*
X31815804Y-3447225D01*
X31714032Y-3307147D01*
X31591602Y-3184717D01*
X31451524Y-3082945D01*
X31297257Y-3004341D01*
X31132589Y-2950837D01*
X31132581Y-2950835D01*
X31125000Y-2949634D01*
X31125000Y-3708064D01*
X31120606Y-3703670D01*
X31029394Y-3651009D01*
X30927661Y-3623750D01*
X30822339Y-3623750D01*
X30720606Y-3651009D01*
X30629394Y-3703670D01*
X30625000Y-3708064D01*
X30625000Y-2949634D01*
X30624999Y-2949634D01*
X30617418Y-2950835D01*
X30617410Y-2950837D01*
X30452742Y-3004341D01*
X30298475Y-3082945D01*
X30158397Y-3184717D01*
X30035967Y-3307147D01*
X29934195Y-3447225D01*
X29855591Y-3601492D01*
X29802085Y-3766165D01*
X29775000Y-3937178D01*
X19125434Y-3937178D01*
X19043170Y-3766354D01*
X18887800Y-3519085D01*
X18705725Y-3290769D01*
X18499230Y-3084274D01*
X18270914Y-2902199D01*
X18023648Y-2746831D01*
X17760548Y-2620129D01*
X17484918Y-2523681D01*
X17484910Y-2523678D01*
X17200201Y-2458696D01*
X17200189Y-2458694D01*
X17014000Y-2437715D01*
X17014000Y-3395028D01*
X16893858Y-3376000D01*
X16634142Y-3376000D01*
X16514000Y-3395028D01*
X16514000Y-2437715D01*
X16327810Y-2458694D01*
X16327798Y-2458696D01*
X16043089Y-2523678D01*
X16043081Y-2523681D01*
X15767451Y-2620129D01*
X15504351Y-2746831D01*
X15257085Y-2902199D01*
X15028769Y-3084274D01*
X14822274Y-3290769D01*
X14640199Y-3519085D01*
X14484831Y-3766351D01*
X14358129Y-4029451D01*
X14261681Y-4305081D01*
X14261678Y-4305089D01*
X14196696Y-4589798D01*
X14196694Y-4589810D01*
X14175716Y-4776000D01*
X13100000Y-4776000D01*
X13100000Y-1742500D01*
X13119685Y-1675461D01*
X13172489Y-1629706D01*
X13224000Y-1618500D01*
X40859121Y-1618500D01*
X40926160Y-1638185D01*
G37*
%TD.AperFunction*%
%TA.AperFunction,Conductor*%
G36*
X53406100Y-1622294D02*
G01*
X53419535Y-1621334D01*
X53438970Y-1631946D01*
X53460216Y-1638185D01*
X53469035Y-1648363D01*
X53480858Y-1654819D01*
X53491470Y-1674255D01*
X53505971Y-1690989D01*
X53507887Y-1704320D01*
X53514343Y-1716142D01*
X53512763Y-1738228D01*
X53515915Y-1760147D01*
X53510319Y-1772398D01*
X53509359Y-1785834D01*
X53496088Y-1803560D01*
X53486890Y-1823703D01*
X53474645Y-1832204D01*
X53467487Y-1841767D01*
X53436510Y-1858682D01*
X53307913Y-1906645D01*
X53307906Y-1906649D01*
X53192812Y-1992809D01*
X53192809Y-1992812D01*
X53106649Y-2107906D01*
X53106645Y-2107913D01*
X53056403Y-2242620D01*
X53056401Y-2242627D01*
X53050000Y-2302155D01*
X53050000Y-2500000D01*
X55050000Y-2500000D01*
X55050000Y-2302172D01*
X55049999Y-2302155D01*
X55043598Y-2242627D01*
X55043596Y-2242620D01*
X54993354Y-2107913D01*
X54993350Y-2107906D01*
X54907190Y-1992812D01*
X54907187Y-1992809D01*
X54792093Y-1906649D01*
X54792086Y-1906645D01*
X54663490Y-1858682D01*
X54607556Y-1816811D01*
X54583139Y-1751346D01*
X54597991Y-1683073D01*
X54647396Y-1633668D01*
X54706823Y-1618500D01*
X58893177Y-1618500D01*
X58960216Y-1638185D01*
X59005971Y-1690989D01*
X59015915Y-1760147D01*
X58986890Y-1823703D01*
X58936510Y-1858682D01*
X58807913Y-1906645D01*
X58807906Y-1906649D01*
X58692812Y-1992809D01*
X58692809Y-1992812D01*
X58606649Y-2107906D01*
X58606645Y-2107913D01*
X58556403Y-2242620D01*
X58556401Y-2242627D01*
X58550000Y-2302155D01*
X58550000Y-2500000D01*
X60550000Y-2500000D01*
X60550000Y-2302172D01*
X60549999Y-2302155D01*
X60543598Y-2242627D01*
X60543596Y-2242620D01*
X60493354Y-2107913D01*
X60493350Y-2107906D01*
X60407190Y-1992812D01*
X60407187Y-1992809D01*
X60292093Y-1906649D01*
X60292086Y-1906645D01*
X60163490Y-1858682D01*
X60107556Y-1816811D01*
X60083139Y-1751346D01*
X60097991Y-1683073D01*
X60147396Y-1633668D01*
X60206823Y-1618500D01*
X62876000Y-1618500D01*
X62943039Y-1638185D01*
X62988794Y-1690989D01*
X63000000Y-1742500D01*
X63000000Y-32976000D01*
X62980315Y-33043039D01*
X62927511Y-33088794D01*
X62876000Y-33100000D01*
X34333060Y-33100000D01*
X34266021Y-33080315D01*
X34220266Y-33027511D01*
X34210322Y-32958353D01*
X34233794Y-32901688D01*
X34275796Y-32845581D01*
X34326091Y-32710733D01*
X34332500Y-32651123D01*
X34332499Y-32351701D01*
X34334882Y-32327511D01*
X34359676Y-32202858D01*
X34367500Y-32163525D01*
X34367500Y-32077000D01*
X34367500Y-32000808D01*
X34336101Y-31873420D01*
X34332499Y-31843746D01*
X34332499Y-31748879D01*
X34332498Y-31748873D01*
X34326091Y-31689266D01*
X34275798Y-31554424D01*
X34275797Y-31554423D01*
X34275796Y-31554419D01*
X34250633Y-31520806D01*
X34241399Y-31496050D01*
X34228735Y-31472856D01*
X34229380Y-31463828D01*
X34226218Y-31455349D01*
X34231834Y-31429526D01*
X34233721Y-31403164D01*
X34240117Y-31391450D01*
X34241069Y-31387075D01*
X34250626Y-31372202D01*
X34272348Y-31343186D01*
X34328281Y-31301317D01*
X34371612Y-31293500D01*
X36760024Y-31293500D01*
X36815096Y-31307293D01*
X36815192Y-31307063D01*
X36816749Y-31307707D01*
X36818474Y-31308140D01*
X36820822Y-31309395D01*
X36966498Y-31369735D01*
X36966503Y-31369737D01*
X37075661Y-31391450D01*
X37121153Y-31400499D01*
X37121156Y-31400500D01*
X37121158Y-31400500D01*
X37278844Y-31400500D01*
X37278845Y-31400499D01*
X37433497Y-31369737D01*
X37579179Y-31309394D01*
X37710289Y-31221789D01*
X37821789Y-31110289D01*
X37909394Y-30979179D01*
X37969737Y-30833497D01*
X38000500Y-30678842D01*
X38000500Y-30521158D01*
X38000500Y-30521155D01*
X38000499Y-30521153D01*
X37991949Y-30478170D01*
X37969737Y-30366503D01*
X37909394Y-30220821D01*
X37909392Y-30220818D01*
X37909390Y-30220814D01*
X37885550Y-30185135D01*
X39068500Y-30185135D01*
X39068500Y-32280870D01*
X39068501Y-32280876D01*
X39074908Y-32340483D01*
X39125202Y-32475328D01*
X39125206Y-32475335D01*
X39211452Y-32590544D01*
X39211455Y-32590547D01*
X39326664Y-32676793D01*
X39326671Y-32676797D01*
X39461517Y-32727091D01*
X39461516Y-32727091D01*
X39468444Y-32727835D01*
X39521127Y-32733500D01*
X40816872Y-32733499D01*
X40876483Y-32727091D01*
X41011331Y-32676796D01*
X41126546Y-32590546D01*
X41212796Y-32475331D01*
X41263091Y-32340483D01*
X41269500Y-32280873D01*
X41269499Y-30185135D01*
X41608500Y-30185135D01*
X41608500Y-32280870D01*
X41608501Y-32280876D01*
X41614908Y-32340483D01*
X41665202Y-32475328D01*
X41665206Y-32475335D01*
X41751452Y-32590544D01*
X41751455Y-32590547D01*
X41866664Y-32676793D01*
X41866671Y-32676797D01*
X42001517Y-32727091D01*
X42001516Y-32727091D01*
X42008444Y-32727835D01*
X42061127Y-32733500D01*
X43356872Y-32733499D01*
X43416483Y-32727091D01*
X43551331Y-32676796D01*
X43666546Y-32590546D01*
X43752796Y-32475331D01*
X43803091Y-32340483D01*
X43809500Y-32280873D01*
X43809499Y-30185135D01*
X44148500Y-30185135D01*
X44148500Y-32280870D01*
X44148501Y-32280876D01*
X44154908Y-32340483D01*
X44205202Y-32475328D01*
X44205206Y-32475335D01*
X44291452Y-32590544D01*
X44291455Y-32590547D01*
X44406664Y-32676793D01*
X44406671Y-32676797D01*
X44541517Y-32727091D01*
X44541516Y-32727091D01*
X44548444Y-32727835D01*
X44601127Y-32733500D01*
X45896872Y-32733499D01*
X45956483Y-32727091D01*
X46091331Y-32676796D01*
X46206546Y-32590546D01*
X46292796Y-32475331D01*
X46343091Y-32340483D01*
X46349500Y-32280873D01*
X46349499Y-30185135D01*
X46688500Y-30185135D01*
X46688500Y-32280870D01*
X46688501Y-32280876D01*
X46694908Y-32340483D01*
X46745202Y-32475328D01*
X46745206Y-32475335D01*
X46831452Y-32590544D01*
X46831455Y-32590547D01*
X46946664Y-32676793D01*
X46946671Y-32676797D01*
X47081517Y-32727091D01*
X47081516Y-32727091D01*
X47088444Y-32727835D01*
X47141127Y-32733500D01*
X48436872Y-32733499D01*
X48496483Y-32727091D01*
X48631331Y-32676796D01*
X48746546Y-32590546D01*
X48832796Y-32475331D01*
X48883091Y-32340483D01*
X48889500Y-32280873D01*
X48889499Y-30185135D01*
X49228500Y-30185135D01*
X49228500Y-32280870D01*
X49228501Y-32280876D01*
X49234908Y-32340483D01*
X49285202Y-32475328D01*
X49285206Y-32475335D01*
X49371452Y-32590544D01*
X49371455Y-32590547D01*
X49486664Y-32676793D01*
X49486671Y-32676797D01*
X49621517Y-32727091D01*
X49621516Y-32727091D01*
X49628444Y-32727835D01*
X49681127Y-32733500D01*
X50976872Y-32733499D01*
X51036483Y-32727091D01*
X51171331Y-32676796D01*
X51286546Y-32590546D01*
X51372796Y-32475331D01*
X51423091Y-32340483D01*
X51429500Y-32280873D01*
X51429499Y-30185135D01*
X51768500Y-30185135D01*
X51768500Y-32280870D01*
X51768501Y-32280876D01*
X51774908Y-32340483D01*
X51825202Y-32475328D01*
X51825206Y-32475335D01*
X51911452Y-32590544D01*
X51911455Y-32590547D01*
X52026664Y-32676793D01*
X52026671Y-32676797D01*
X52161517Y-32727091D01*
X52161516Y-32727091D01*
X52168444Y-32727835D01*
X52221127Y-32733500D01*
X53516872Y-32733499D01*
X53576483Y-32727091D01*
X53711331Y-32676796D01*
X53826546Y-32590546D01*
X53912796Y-32475331D01*
X53963091Y-32340483D01*
X53969500Y-32280873D01*
X53969499Y-30185135D01*
X54308500Y-30185135D01*
X54308500Y-32280870D01*
X54308501Y-32280876D01*
X54314908Y-32340483D01*
X54365202Y-32475328D01*
X54365206Y-32475335D01*
X54451452Y-32590544D01*
X54451455Y-32590547D01*
X54566664Y-32676793D01*
X54566671Y-32676797D01*
X54701517Y-32727091D01*
X54701516Y-32727091D01*
X54708444Y-32727835D01*
X54761127Y-32733500D01*
X56056872Y-32733499D01*
X56116483Y-32727091D01*
X56251331Y-32676796D01*
X56366546Y-32590546D01*
X56452796Y-32475331D01*
X56503091Y-32340483D01*
X56509500Y-32280873D01*
X56509499Y-30185135D01*
X56848500Y-30185135D01*
X56848500Y-32280870D01*
X56848501Y-32280876D01*
X56854908Y-32340483D01*
X56905202Y-32475328D01*
X56905206Y-32475335D01*
X56991452Y-32590544D01*
X56991455Y-32590547D01*
X57106664Y-32676793D01*
X57106671Y-32676797D01*
X57241517Y-32727091D01*
X57241516Y-32727091D01*
X57248444Y-32727835D01*
X57301127Y-32733500D01*
X58596872Y-32733499D01*
X58656483Y-32727091D01*
X58791331Y-32676796D01*
X58906546Y-32590546D01*
X58992796Y-32475331D01*
X59043091Y-32340483D01*
X59049500Y-32280873D01*
X59049499Y-30185135D01*
X59388500Y-30185135D01*
X59388500Y-32280870D01*
X59388501Y-32280876D01*
X59394908Y-32340483D01*
X59445202Y-32475328D01*
X59445206Y-32475335D01*
X59531452Y-32590544D01*
X59531455Y-32590547D01*
X59646664Y-32676793D01*
X59646671Y-32676797D01*
X59781517Y-32727091D01*
X59781516Y-32727091D01*
X59788444Y-32727835D01*
X59841127Y-32733500D01*
X61136872Y-32733499D01*
X61196483Y-32727091D01*
X61331331Y-32676796D01*
X61446546Y-32590546D01*
X61532796Y-32475331D01*
X61583091Y-32340483D01*
X61589500Y-32280873D01*
X61589499Y-30185128D01*
X61583091Y-30125517D01*
X61570776Y-30092500D01*
X61532797Y-29990671D01*
X61532793Y-29990664D01*
X61446547Y-29875455D01*
X61446544Y-29875452D01*
X61331335Y-29789206D01*
X61331328Y-29789202D01*
X61196482Y-29738908D01*
X61196483Y-29738908D01*
X61136883Y-29732501D01*
X61136881Y-29732500D01*
X61136873Y-29732500D01*
X61136864Y-29732500D01*
X59841129Y-29732500D01*
X59841123Y-29732501D01*
X59781516Y-29738908D01*
X59646671Y-29789202D01*
X59646664Y-29789206D01*
X59531455Y-29875452D01*
X59531452Y-29875455D01*
X59445206Y-29990664D01*
X59445202Y-29990671D01*
X59394908Y-30125517D01*
X59388501Y-30185116D01*
X59388501Y-30185123D01*
X59388500Y-30185135D01*
X59049499Y-30185135D01*
X59049499Y-30185128D01*
X59043091Y-30125517D01*
X59030776Y-30092500D01*
X58992797Y-29990671D01*
X58992793Y-29990664D01*
X58906547Y-29875455D01*
X58906544Y-29875452D01*
X58791335Y-29789206D01*
X58791328Y-29789202D01*
X58656482Y-29738908D01*
X58656483Y-29738908D01*
X58596883Y-29732501D01*
X58596881Y-29732500D01*
X58596873Y-29732500D01*
X58596864Y-29732500D01*
X57301129Y-29732500D01*
X57301123Y-29732501D01*
X57241516Y-29738908D01*
X57106671Y-29789202D01*
X57106664Y-29789206D01*
X56991455Y-29875452D01*
X56991452Y-29875455D01*
X56905206Y-29990664D01*
X56905202Y-29990671D01*
X56854908Y-30125517D01*
X56848501Y-30185116D01*
X56848501Y-30185123D01*
X56848500Y-30185135D01*
X56509499Y-30185135D01*
X56509499Y-30185128D01*
X56503091Y-30125517D01*
X56490776Y-30092500D01*
X56452797Y-29990671D01*
X56452793Y-29990664D01*
X56366547Y-29875455D01*
X56366544Y-29875452D01*
X56251335Y-29789206D01*
X56251328Y-29789202D01*
X56116482Y-29738908D01*
X56116483Y-29738908D01*
X56056883Y-29732501D01*
X56056881Y-29732500D01*
X56056873Y-29732500D01*
X56056864Y-29732500D01*
X54761129Y-29732500D01*
X54761123Y-29732501D01*
X54701516Y-29738908D01*
X54566671Y-29789202D01*
X54566664Y-29789206D01*
X54451455Y-29875452D01*
X54451452Y-29875455D01*
X54365206Y-29990664D01*
X54365202Y-29990671D01*
X54314908Y-30125517D01*
X54308501Y-30185116D01*
X54308501Y-30185123D01*
X54308500Y-30185135D01*
X53969499Y-30185135D01*
X53969499Y-30185128D01*
X53963091Y-30125517D01*
X53950776Y-30092500D01*
X53912797Y-29990671D01*
X53912793Y-29990664D01*
X53826547Y-29875455D01*
X53826544Y-29875452D01*
X53711335Y-29789206D01*
X53711328Y-29789202D01*
X53576482Y-29738908D01*
X53576483Y-29738908D01*
X53516883Y-29732501D01*
X53516881Y-29732500D01*
X53516873Y-29732500D01*
X53516864Y-29732500D01*
X52221129Y-29732500D01*
X52221123Y-29732501D01*
X52161516Y-29738908D01*
X52026671Y-29789202D01*
X52026664Y-29789206D01*
X51911455Y-29875452D01*
X51911452Y-29875455D01*
X51825206Y-29990664D01*
X51825202Y-29990671D01*
X51774908Y-30125517D01*
X51768501Y-30185116D01*
X51768501Y-30185123D01*
X51768500Y-30185135D01*
X51429499Y-30185135D01*
X51429499Y-30185128D01*
X51423091Y-30125517D01*
X51410776Y-30092500D01*
X51372797Y-29990671D01*
X51372793Y-29990664D01*
X51286547Y-29875455D01*
X51286544Y-29875452D01*
X51171335Y-29789206D01*
X51171328Y-29789202D01*
X51036482Y-29738908D01*
X51036483Y-29738908D01*
X50976883Y-29732501D01*
X50976881Y-29732500D01*
X50976873Y-29732500D01*
X50976864Y-29732500D01*
X49681129Y-29732500D01*
X49681123Y-29732501D01*
X49621516Y-29738908D01*
X49486671Y-29789202D01*
X49486664Y-29789206D01*
X49371455Y-29875452D01*
X49371452Y-29875455D01*
X49285206Y-29990664D01*
X49285202Y-29990671D01*
X49234908Y-30125517D01*
X49228501Y-30185116D01*
X49228501Y-30185123D01*
X49228500Y-30185135D01*
X48889499Y-30185135D01*
X48889499Y-30185128D01*
X48883091Y-30125517D01*
X48870776Y-30092500D01*
X48832797Y-29990671D01*
X48832793Y-29990664D01*
X48746547Y-29875455D01*
X48746544Y-29875452D01*
X48631335Y-29789206D01*
X48631328Y-29789202D01*
X48496482Y-29738908D01*
X48496483Y-29738908D01*
X48436883Y-29732501D01*
X48436881Y-29732500D01*
X48436873Y-29732500D01*
X48436864Y-29732500D01*
X47141129Y-29732500D01*
X47141123Y-29732501D01*
X47081516Y-29738908D01*
X46946671Y-29789202D01*
X46946664Y-29789206D01*
X46831455Y-29875452D01*
X46831452Y-29875455D01*
X46745206Y-29990664D01*
X46745202Y-29990671D01*
X46694908Y-30125517D01*
X46688501Y-30185116D01*
X46688501Y-30185123D01*
X46688500Y-30185135D01*
X46349499Y-30185135D01*
X46349499Y-30185128D01*
X46343091Y-30125517D01*
X46330776Y-30092500D01*
X46292797Y-29990671D01*
X46292793Y-29990664D01*
X46206547Y-29875455D01*
X46206544Y-29875452D01*
X46091335Y-29789206D01*
X46091328Y-29789202D01*
X45956482Y-29738908D01*
X45956483Y-29738908D01*
X45896883Y-29732501D01*
X45896881Y-29732500D01*
X45896873Y-29732500D01*
X45896864Y-29732500D01*
X44601129Y-29732500D01*
X44601123Y-29732501D01*
X44541516Y-29738908D01*
X44406671Y-29789202D01*
X44406664Y-29789206D01*
X44291455Y-29875452D01*
X44291452Y-29875455D01*
X44205206Y-29990664D01*
X44205202Y-29990671D01*
X44154908Y-30125517D01*
X44148501Y-30185116D01*
X44148501Y-30185123D01*
X44148500Y-30185135D01*
X43809499Y-30185135D01*
X43809499Y-30185128D01*
X43803091Y-30125517D01*
X43790776Y-30092500D01*
X43752797Y-29990671D01*
X43752793Y-29990664D01*
X43666547Y-29875455D01*
X43666544Y-29875452D01*
X43551335Y-29789206D01*
X43551328Y-29789202D01*
X43416482Y-29738908D01*
X43416483Y-29738908D01*
X43356883Y-29732501D01*
X43356881Y-29732500D01*
X43356873Y-29732500D01*
X43356864Y-29732500D01*
X42061129Y-29732500D01*
X42061123Y-29732501D01*
X42001516Y-29738908D01*
X41866671Y-29789202D01*
X41866664Y-29789206D01*
X41751455Y-29875452D01*
X41751452Y-29875455D01*
X41665206Y-29990664D01*
X41665202Y-29990671D01*
X41614908Y-30125517D01*
X41608501Y-30185116D01*
X41608501Y-30185123D01*
X41608500Y-30185135D01*
X41269499Y-30185135D01*
X41269499Y-30185128D01*
X41263091Y-30125517D01*
X41250776Y-30092500D01*
X41212797Y-29990671D01*
X41212793Y-29990664D01*
X41126547Y-29875455D01*
X41126544Y-29875452D01*
X41011335Y-29789206D01*
X41011328Y-29789202D01*
X40876482Y-29738908D01*
X40876483Y-29738908D01*
X40816883Y-29732501D01*
X40816881Y-29732500D01*
X40816873Y-29732500D01*
X40816864Y-29732500D01*
X39521129Y-29732500D01*
X39521123Y-29732501D01*
X39461516Y-29738908D01*
X39326671Y-29789202D01*
X39326664Y-29789206D01*
X39211455Y-29875452D01*
X39211452Y-29875455D01*
X39125206Y-29990664D01*
X39125202Y-29990671D01*
X39074908Y-30125517D01*
X39068501Y-30185116D01*
X39068501Y-30185123D01*
X39068500Y-30185135D01*
X37885550Y-30185135D01*
X37821789Y-30089711D01*
X37821786Y-30089707D01*
X37710292Y-29978213D01*
X37710288Y-29978210D01*
X37579185Y-29890609D01*
X37579172Y-29890602D01*
X37433501Y-29830264D01*
X37433489Y-29830261D01*
X37278845Y-29799500D01*
X37278842Y-29799500D01*
X37121158Y-29799500D01*
X37121155Y-29799500D01*
X36966510Y-29830261D01*
X36966498Y-29830264D01*
X36820827Y-29890602D01*
X36820814Y-29890609D01*
X36689712Y-29978209D01*
X36650727Y-30017195D01*
X36611739Y-30056182D01*
X36550419Y-30089666D01*
X36524060Y-30092500D01*
X34371613Y-30092500D01*
X34304574Y-30072815D01*
X34272346Y-30042811D01*
X34262851Y-30030127D01*
X34189546Y-29932204D01*
X34166709Y-29915108D01*
X34074335Y-29845956D01*
X34074328Y-29845952D01*
X33939482Y-29795658D01*
X33939483Y-29795658D01*
X33879883Y-29789251D01*
X33879881Y-29789250D01*
X33879873Y-29789250D01*
X33879864Y-29789250D01*
X32920129Y-29789250D01*
X32920123Y-29789251D01*
X32860516Y-29795658D01*
X32796108Y-29819682D01*
X32790478Y-29820697D01*
X32787710Y-29822477D01*
X32752775Y-29827500D01*
X32724751Y-29827500D01*
X32657712Y-29807815D01*
X32625485Y-29777812D01*
X32582548Y-29720457D01*
X32582546Y-29720454D01*
X32554241Y-29699265D01*
X32539867Y-29680063D01*
X32522229Y-29663805D01*
X32519309Y-29652600D01*
X32512372Y-29643333D01*
X32510661Y-29619408D01*
X32504612Y-29596193D01*
X32508213Y-29585188D01*
X32507388Y-29573641D01*
X32518883Y-29552587D01*
X32526346Y-29529789D01*
X32537909Y-29517744D01*
X32540873Y-29512318D01*
X32550267Y-29503838D01*
X32552219Y-29502248D01*
X32582546Y-29479546D01*
X32586354Y-29474458D01*
X32598141Y-29464863D01*
X32624741Y-29453688D01*
X32650060Y-29439861D01*
X32656554Y-29440324D01*
X32662558Y-29437803D01*
X32690979Y-29442784D01*
X32719752Y-29444840D01*
X32719761Y-29444843D01*
X32860517Y-29497341D01*
X32860516Y-29497341D01*
X32867444Y-29498085D01*
X32920127Y-29503750D01*
X33879872Y-29503749D01*
X33939483Y-29497341D01*
X34074331Y-29447046D01*
X34189546Y-29360796D01*
X34275796Y-29245581D01*
X34326091Y-29110733D01*
X34332500Y-29051123D01*
X34332499Y-28875300D01*
X34336630Y-28847447D01*
X34336029Y-28847328D01*
X34347657Y-28788868D01*
X34367500Y-28689111D01*
X34367500Y-28611500D01*
X34367500Y-28535308D01*
X34336101Y-28407920D01*
X34332499Y-28378246D01*
X34332499Y-28148879D01*
X34332498Y-28148873D01*
X34326091Y-28089266D01*
X34275798Y-27954424D01*
X34275797Y-27954423D01*
X34275796Y-27954419D01*
X34250633Y-27920806D01*
X34241399Y-27896050D01*
X34228735Y-27872856D01*
X34229380Y-27863828D01*
X34226218Y-27855349D01*
X34231834Y-27829526D01*
X34233721Y-27803164D01*
X34240117Y-27791450D01*
X34241069Y-27787075D01*
X34250626Y-27772202D01*
X34272348Y-27743186D01*
X34328281Y-27701317D01*
X34371612Y-27693500D01*
X36710872Y-27693500D01*
X36777911Y-27713185D01*
X36789532Y-27721643D01*
X36789707Y-27721786D01*
X36789710Y-27721788D01*
X36789711Y-27721789D01*
X36814842Y-27738581D01*
X36920814Y-27809390D01*
X36920827Y-27809397D01*
X37010403Y-27846500D01*
X37066503Y-27869737D01*
X37200999Y-27896490D01*
X37221153Y-27900499D01*
X37221156Y-27900500D01*
X37221158Y-27900500D01*
X37378844Y-27900500D01*
X37430308Y-27890263D01*
X37499900Y-27896490D01*
X37555077Y-27939353D01*
X37578322Y-28005242D01*
X37578500Y-28011880D01*
X37578500Y-28460870D01*
X37578501Y-28460876D01*
X37584908Y-28520483D01*
X37635202Y-28655328D01*
X37635206Y-28655335D01*
X37721452Y-28770544D01*
X37721455Y-28770547D01*
X37836664Y-28856793D01*
X37836671Y-28856797D01*
X37971517Y-28907091D01*
X37971516Y-28907091D01*
X37978444Y-28907835D01*
X38031127Y-28913500D01*
X40126872Y-28913499D01*
X40186483Y-28907091D01*
X40321331Y-28856796D01*
X40436546Y-28770546D01*
X40522796Y-28655331D01*
X40573091Y-28520483D01*
X40579500Y-28460873D01*
X40579499Y-27165128D01*
X40574052Y-27114454D01*
X40573091Y-27105516D01*
X40522797Y-26970671D01*
X40522793Y-26970664D01*
X40436547Y-26855455D01*
X40436544Y-26855452D01*
X40321335Y-26769206D01*
X40321328Y-26769202D01*
X40186482Y-26718908D01*
X40186483Y-26718908D01*
X40126883Y-26712501D01*
X40126881Y-26712500D01*
X40126873Y-26712500D01*
X40126865Y-26712500D01*
X38070113Y-26712500D01*
X38064737Y-26710921D01*
X38059242Y-26712023D01*
X38031574Y-26701183D01*
X38003074Y-26692815D01*
X37998031Y-26688042D01*
X37994186Y-26686536D01*
X37977266Y-26668390D01*
X37969642Y-26661174D01*
X37968288Y-26659302D01*
X37921789Y-26589711D01*
X37907913Y-26575835D01*
X37902115Y-26567819D01*
X37893614Y-26543835D01*
X37881420Y-26521503D01*
X37882138Y-26511456D01*
X37878774Y-26501964D01*
X37884588Y-26477194D01*
X37886404Y-26451811D01*
X37892440Y-26443747D01*
X37894742Y-26433943D01*
X37913027Y-26416247D01*
X37928276Y-26395878D01*
X37937712Y-26392358D01*
X37944950Y-26385354D01*
X37969900Y-26380352D01*
X37993740Y-26371461D01*
X38012580Y-26371797D01*
X38013457Y-26371622D01*
X38013968Y-26371822D01*
X38015834Y-26371855D01*
X38031127Y-26373500D01*
X40126872Y-26373499D01*
X40186483Y-26367091D01*
X40321331Y-26316796D01*
X40436546Y-26230546D01*
X40522796Y-26115331D01*
X40573091Y-25980483D01*
X40579500Y-25920873D01*
X40579499Y-24625128D01*
X40573091Y-24565517D01*
X40569100Y-24554817D01*
X40522797Y-24430671D01*
X40522793Y-24430664D01*
X40436547Y-24315455D01*
X40436544Y-24315452D01*
X40321335Y-24229206D01*
X40321328Y-24229202D01*
X40186482Y-24178908D01*
X40186483Y-24178908D01*
X40126883Y-24172501D01*
X40126881Y-24172500D01*
X40126873Y-24172500D01*
X40126865Y-24172500D01*
X38145390Y-24172500D01*
X38135638Y-24169636D01*
X38125554Y-24170903D01*
X38102678Y-24159958D01*
X38078351Y-24152815D01*
X38071696Y-24145134D01*
X38062527Y-24140748D01*
X38049199Y-24119171D01*
X38032596Y-24100011D01*
X38031149Y-24089952D01*
X38025808Y-24081305D01*
X38026260Y-24055952D01*
X38022652Y-24030853D01*
X38026907Y-24019746D01*
X38027056Y-24011446D01*
X38042284Y-23979615D01*
X38103094Y-23888606D01*
X38156707Y-23843803D01*
X38206196Y-23833499D01*
X40126871Y-23833499D01*
X40126872Y-23833499D01*
X40186483Y-23827091D01*
X40321331Y-23776796D01*
X40436546Y-23690546D01*
X40522796Y-23575331D01*
X40573091Y-23440483D01*
X40579500Y-23380873D01*
X40579499Y-22085128D01*
X40573091Y-22025517D01*
X40573034Y-22025365D01*
X40522797Y-21890671D01*
X40522793Y-21890664D01*
X40436547Y-21775455D01*
X40436544Y-21775452D01*
X40321335Y-21689206D01*
X40321328Y-21689202D01*
X40186482Y-21638908D01*
X40186483Y-21638908D01*
X40126883Y-21632501D01*
X40126881Y-21632500D01*
X40126873Y-21632500D01*
X40126864Y-21632500D01*
X38031129Y-21632500D01*
X38031123Y-21632501D01*
X37971516Y-21638908D01*
X37836671Y-21689202D01*
X37836664Y-21689206D01*
X37721455Y-21775452D01*
X37721452Y-21775455D01*
X37635206Y-21890664D01*
X37635202Y-21890671D01*
X37584908Y-22025517D01*
X37579175Y-22078846D01*
X37578501Y-22085123D01*
X37578500Y-22085135D01*
X37578500Y-22575500D01*
X37558815Y-22642539D01*
X37506011Y-22688294D01*
X37454500Y-22699500D01*
X37321155Y-22699500D01*
X37166510Y-22730261D01*
X37166498Y-22730264D01*
X37020827Y-22790602D01*
X37020814Y-22790609D01*
X36889711Y-22878210D01*
X36889707Y-22878213D01*
X36778213Y-22989707D01*
X36778210Y-22989711D01*
X36690609Y-23120814D01*
X36690602Y-23120827D01*
X36629041Y-23269452D01*
X36585200Y-23323856D01*
X36518906Y-23345921D01*
X36514480Y-23346000D01*
X34371613Y-23346000D01*
X34304574Y-23326315D01*
X34272346Y-23296311D01*
X34189546Y-23185704D01*
X34166365Y-23168351D01*
X34074335Y-23099456D01*
X34074328Y-23099452D01*
X33939482Y-23049158D01*
X33939483Y-23049158D01*
X33879883Y-23042751D01*
X33879881Y-23042750D01*
X33879873Y-23042750D01*
X33879864Y-23042750D01*
X32920129Y-23042750D01*
X32920120Y-23042751D01*
X32862751Y-23048918D01*
X32793992Y-23036511D01*
X32742856Y-22988899D01*
X32725499Y-22925628D01*
X32725499Y-22918129D01*
X32725498Y-22918123D01*
X32725497Y-22918116D01*
X32719091Y-22858517D01*
X32693760Y-22790602D01*
X32668797Y-22723671D01*
X32668793Y-22723664D01*
X32582547Y-22608455D01*
X32582544Y-22608452D01*
X32467335Y-22522206D01*
X32467328Y-22522202D01*
X32332482Y-22471908D01*
X32332483Y-22471908D01*
X32272883Y-22465501D01*
X32272881Y-22465500D01*
X32272873Y-22465500D01*
X32272864Y-22465500D01*
X30927129Y-22465500D01*
X30927123Y-22465501D01*
X30867516Y-22471908D01*
X30732671Y-22522202D01*
X30732664Y-22522206D01*
X30617455Y-22608452D01*
X30617452Y-22608455D01*
X30531206Y-22723664D01*
X30531202Y-22723671D01*
X30480908Y-22858517D01*
X30477930Y-22886220D01*
X30474501Y-22918123D01*
X30474500Y-22918135D01*
X30474500Y-23299131D01*
X30454815Y-23366170D01*
X30402011Y-23411925D01*
X30337246Y-23422421D01*
X30330756Y-23421723D01*
X30272873Y-23415500D01*
X30272865Y-23415500D01*
X28927129Y-23415500D01*
X28927123Y-23415501D01*
X28867515Y-23421909D01*
X28824581Y-23437922D01*
X28754889Y-23442906D01*
X28693567Y-23409420D01*
X28660082Y-23348097D01*
X28657249Y-23321740D01*
X28657249Y-22720129D01*
X28657248Y-22720123D01*
X28655031Y-22699500D01*
X28650841Y-22660517D01*
X28609061Y-22548500D01*
X28600547Y-22525671D01*
X28600543Y-22525664D01*
X28514297Y-22410455D01*
X28509485Y-22406853D01*
X28472518Y-22379179D01*
X28403688Y-22327652D01*
X28400951Y-22323996D01*
X28396797Y-22322099D01*
X28380205Y-22296281D01*
X28361818Y-22271718D01*
X28360802Y-22266090D01*
X28359023Y-22263321D01*
X28354000Y-22228386D01*
X28354000Y-22116003D01*
X28373685Y-22048964D01*
X28426489Y-22003209D01*
X28434667Y-21999821D01*
X28472972Y-21985534D01*
X28499081Y-21975796D01*
X28614296Y-21889546D01*
X28700546Y-21774331D01*
X28750841Y-21639483D01*
X28757250Y-21579873D01*
X28757249Y-20620128D01*
X28757248Y-20620126D01*
X28757248Y-20620113D01*
X28756157Y-20609968D01*
X28756157Y-20609965D01*
X28755255Y-20601577D01*
X33949500Y-20601577D01*
X33949500Y-20798422D01*
X33980290Y-20992826D01*
X34041117Y-21180029D01*
X34098934Y-21293500D01*
X34130476Y-21355405D01*
X34246172Y-21514646D01*
X34385354Y-21653828D01*
X34544595Y-21769524D01*
X34620511Y-21808205D01*
X34719970Y-21858882D01*
X34719972Y-21858882D01*
X34719975Y-21858884D01*
X34817783Y-21890664D01*
X34907173Y-21919709D01*
X35101578Y-21950500D01*
X35101583Y-21950500D01*
X35298422Y-21950500D01*
X35492826Y-21919709D01*
X35505666Y-21915537D01*
X35680025Y-21858884D01*
X35855405Y-21769524D01*
X36014646Y-21653828D01*
X36153828Y-21514646D01*
X36269524Y-21355405D01*
X36358884Y-21180025D01*
X36419709Y-20992826D01*
X36450500Y-20798422D01*
X36450500Y-20601577D01*
X36419709Y-20407173D01*
X36373616Y-20265316D01*
X36358884Y-20219975D01*
X36358882Y-20219972D01*
X36358882Y-20219970D01*
X36269523Y-20044594D01*
X36260736Y-20032500D01*
X36153828Y-19885354D01*
X36014646Y-19746172D01*
X35855405Y-19630476D01*
X35845146Y-19625249D01*
X35687915Y-19545135D01*
X37578500Y-19545135D01*
X37578500Y-20840870D01*
X37578501Y-20840876D01*
X37584908Y-20900483D01*
X37635202Y-21035328D01*
X37635206Y-21035335D01*
X37721452Y-21150544D01*
X37721455Y-21150547D01*
X37836664Y-21236793D01*
X37836671Y-21236797D01*
X37971517Y-21287091D01*
X37971516Y-21287091D01*
X37978444Y-21287835D01*
X38031127Y-21293500D01*
X40126872Y-21293499D01*
X40186483Y-21287091D01*
X40321331Y-21236796D01*
X40436546Y-21150546D01*
X40522796Y-21035331D01*
X40573091Y-20900483D01*
X40579500Y-20840873D01*
X40579499Y-19545128D01*
X40573091Y-19485517D01*
X40571141Y-19480290D01*
X40522797Y-19350671D01*
X40522793Y-19350664D01*
X40436547Y-19235455D01*
X40436544Y-19235452D01*
X40321335Y-19149206D01*
X40321328Y-19149202D01*
X40186482Y-19098908D01*
X40186483Y-19098908D01*
X40126883Y-19092501D01*
X40126881Y-19092500D01*
X40126873Y-19092500D01*
X40126864Y-19092500D01*
X38031129Y-19092500D01*
X38031123Y-19092501D01*
X37971516Y-19098908D01*
X37836671Y-19149202D01*
X37836664Y-19149206D01*
X37721455Y-19235452D01*
X37721452Y-19235455D01*
X37635206Y-19350664D01*
X37635202Y-19350671D01*
X37584908Y-19485517D01*
X37578931Y-19541116D01*
X37578501Y-19545123D01*
X37578500Y-19545135D01*
X35687915Y-19545135D01*
X35680029Y-19541117D01*
X35492826Y-19480290D01*
X35298422Y-19449500D01*
X35298417Y-19449500D01*
X35101583Y-19449500D01*
X35101578Y-19449500D01*
X34907173Y-19480290D01*
X34719970Y-19541117D01*
X34544594Y-19630476D01*
X34453741Y-19696485D01*
X34385354Y-19746172D01*
X34385352Y-19746174D01*
X34385351Y-19746174D01*
X34246174Y-19885351D01*
X34246174Y-19885352D01*
X34246172Y-19885354D01*
X34235168Y-19900500D01*
X34130476Y-20044594D01*
X34041117Y-20219970D01*
X33980290Y-20407173D01*
X33949500Y-20601577D01*
X28755255Y-20601577D01*
X28750841Y-20560516D01*
X28700547Y-20425671D01*
X28700543Y-20425664D01*
X28614297Y-20310455D01*
X28614294Y-20310452D01*
X28499085Y-20224206D01*
X28499075Y-20224201D01*
X28477571Y-20216180D01*
X28421638Y-20174308D01*
X28397222Y-20108843D01*
X28412075Y-20040571D01*
X28451318Y-19997366D01*
X28463628Y-19989018D01*
X28499081Y-19975796D01*
X28614296Y-19889546D01*
X28618377Y-19884094D01*
X28632390Y-19874593D01*
X28654881Y-19867382D01*
X28675610Y-19856062D01*
X28687537Y-19856914D01*
X28698924Y-19853264D01*
X28721743Y-19859357D01*
X28745302Y-19861041D01*
X28749432Y-19862666D01*
X28766497Y-19869735D01*
X28766499Y-19869735D01*
X28766503Y-19869737D01*
X28893543Y-19895007D01*
X28921153Y-19900499D01*
X28921156Y-19900500D01*
X28921158Y-19900500D01*
X29078844Y-19900500D01*
X29078845Y-19900499D01*
X29233497Y-19869737D01*
X29379179Y-19809394D01*
X29510289Y-19721789D01*
X29621789Y-19610289D01*
X29709394Y-19479179D01*
X29769737Y-19333497D01*
X29791156Y-19225812D01*
X29823539Y-19163906D01*
X29824980Y-19162437D01*
X30187410Y-18800009D01*
X30191107Y-18794477D01*
X30256083Y-18697233D01*
X30303385Y-18583035D01*
X30304613Y-18576860D01*
X30327500Y-18461804D01*
X30327500Y-18460857D01*
X30328845Y-18454041D01*
X30342321Y-18428180D01*
X30353230Y-18401138D01*
X30358277Y-18397563D01*
X30361135Y-18392080D01*
X30386449Y-18377613D01*
X30410250Y-18360758D01*
X30416428Y-18360479D01*
X30421797Y-18357412D01*
X30450912Y-18358927D01*
X30480049Y-18357616D01*
X30485397Y-18360722D01*
X30491572Y-18361044D01*
X30515247Y-18378060D01*
X30540467Y-18392709D01*
X30543286Y-18398213D01*
X30548307Y-18401822D01*
X30559023Y-18428937D01*
X30572320Y-18454895D01*
X30573269Y-18464981D01*
X30573989Y-18466801D01*
X30573794Y-18470547D01*
X30574500Y-18478043D01*
X30574500Y-18697869D01*
X30574501Y-18697876D01*
X30580908Y-18757483D01*
X30631202Y-18892328D01*
X30631206Y-18892335D01*
X30717452Y-19007544D01*
X30717455Y-19007547D01*
X30832664Y-19093793D01*
X30832671Y-19093797D01*
X30967517Y-19144091D01*
X30967516Y-19144091D01*
X30974444Y-19144835D01*
X31027127Y-19150500D01*
X32372872Y-19150499D01*
X32432483Y-19144091D01*
X32567331Y-19093796D01*
X32682546Y-19007546D01*
X32768796Y-18892331D01*
X32819091Y-18757483D01*
X32825500Y-18697873D01*
X32825499Y-18574369D01*
X32845183Y-18507331D01*
X32897987Y-18461576D01*
X32962753Y-18451081D01*
X33020127Y-18457250D01*
X33979872Y-18457249D01*
X34039483Y-18450841D01*
X34174331Y-18400546D01*
X34289546Y-18314296D01*
X34375796Y-18199081D01*
X34426091Y-18064233D01*
X34432500Y-18004623D01*
X34432499Y-17102378D01*
X34426091Y-17042767D01*
X34412052Y-17005127D01*
X34375798Y-16907924D01*
X34375797Y-16907923D01*
X34375796Y-16907919D01*
X34350633Y-16874306D01*
X34326218Y-16808849D01*
X34341069Y-16740575D01*
X34350622Y-16725708D01*
X34375796Y-16692081D01*
X34426091Y-16557233D01*
X34432500Y-16497623D01*
X34432499Y-15595378D01*
X34426091Y-15535767D01*
X34403980Y-15476484D01*
X34375797Y-15400920D01*
X34375796Y-15400919D01*
X34368164Y-15390724D01*
X34355877Y-15374311D01*
X34331459Y-15308849D01*
X34346309Y-15240576D01*
X34355878Y-15225687D01*
X34368383Y-15208983D01*
X34375796Y-15199081D01*
X34426091Y-15064233D01*
X34432500Y-15004623D01*
X34432499Y-14524499D01*
X34452183Y-14457461D01*
X34504987Y-14411706D01*
X34556499Y-14400500D01*
X35399903Y-14400500D01*
X35466942Y-14420185D01*
X35487584Y-14436819D01*
X37656079Y-16605315D01*
X37689564Y-16666638D01*
X37684580Y-16736330D01*
X37667665Y-16767307D01*
X37635203Y-16810669D01*
X37635202Y-16810671D01*
X37584908Y-16945517D01*
X37578501Y-17005116D01*
X37578501Y-17005123D01*
X37578500Y-17005135D01*
X37578500Y-18300870D01*
X37578501Y-18300876D01*
X37584908Y-18360483D01*
X37635202Y-18495328D01*
X37635206Y-18495335D01*
X37721452Y-18610544D01*
X37721455Y-18610547D01*
X37836664Y-18696793D01*
X37836671Y-18696797D01*
X37971517Y-18747091D01*
X37971516Y-18747091D01*
X37978444Y-18747835D01*
X38031127Y-18753500D01*
X40126872Y-18753499D01*
X40186483Y-18747091D01*
X40321331Y-18696796D01*
X40436546Y-18610546D01*
X40522796Y-18495331D01*
X40573091Y-18360483D01*
X40579500Y-18300873D01*
X40579499Y-17005128D01*
X40573091Y-16945517D01*
X40531123Y-16832995D01*
X41031000Y-16832995D01*
X41031000Y-29233004D01*
X41036151Y-29278728D01*
X41075833Y-29361126D01*
X41075834Y-29361127D01*
X41147337Y-29418149D01*
X41213928Y-29433348D01*
X41236495Y-29438499D01*
X41236500Y-29438500D01*
X61436503Y-29438500D01*
X61436503Y-29438499D01*
X61482228Y-29433348D01*
X61564627Y-29393666D01*
X61621649Y-29322163D01*
X61642000Y-29233000D01*
X61642000Y-16833000D01*
X61636848Y-16787272D01*
X61627233Y-16767307D01*
X61597166Y-16704873D01*
X61525663Y-16647851D01*
X61436504Y-16627500D01*
X61436500Y-16627500D01*
X41236500Y-16627500D01*
X41236495Y-16627500D01*
X41190771Y-16632651D01*
X41108373Y-16672333D01*
X41051351Y-16743836D01*
X41031000Y-16832995D01*
X40531123Y-16832995D01*
X40526582Y-16820821D01*
X40522797Y-16810671D01*
X40522793Y-16810664D01*
X40436547Y-16695455D01*
X40436544Y-16695452D01*
X40321335Y-16609206D01*
X40321328Y-16609202D01*
X40186482Y-16558908D01*
X40186483Y-16558908D01*
X40126883Y-16552501D01*
X40126881Y-16552500D01*
X40126873Y-16552500D01*
X40126865Y-16552500D01*
X39353098Y-16552500D01*
X39286059Y-16532815D01*
X39265417Y-16516181D01*
X37813469Y-15064233D01*
X36361415Y-13612180D01*
X36327931Y-13550858D01*
X36332915Y-13481166D01*
X36374787Y-13425233D01*
X36440251Y-13400816D01*
X36449097Y-13400500D01*
X37913331Y-13400500D01*
X37913347Y-13400501D01*
X37920943Y-13400501D01*
X38079054Y-13400501D01*
X38079057Y-13400501D01*
X38231785Y-13359577D01*
X38297235Y-13321789D01*
X38368716Y-13280520D01*
X38464101Y-13185135D01*
X39068500Y-13185135D01*
X39068500Y-15280870D01*
X39068501Y-15280876D01*
X39074908Y-15340483D01*
X39125202Y-15475328D01*
X39125206Y-15475335D01*
X39211452Y-15590544D01*
X39211455Y-15590547D01*
X39326664Y-15676793D01*
X39326671Y-15676797D01*
X39461517Y-15727091D01*
X39461516Y-15727091D01*
X39468444Y-15727835D01*
X39521127Y-15733500D01*
X40816872Y-15733499D01*
X40876483Y-15727091D01*
X41011331Y-15676796D01*
X41126546Y-15590546D01*
X41212796Y-15475331D01*
X41263091Y-15340483D01*
X41269500Y-15280873D01*
X41269499Y-13185135D01*
X41608500Y-13185135D01*
X41608500Y-15280870D01*
X41608501Y-15280876D01*
X41614908Y-15340483D01*
X41665202Y-15475328D01*
X41665206Y-15475335D01*
X41751452Y-15590544D01*
X41751455Y-15590547D01*
X41866664Y-15676793D01*
X41866671Y-15676797D01*
X42001517Y-15727091D01*
X42001516Y-15727091D01*
X42008444Y-15727835D01*
X42061127Y-15733500D01*
X43356872Y-15733499D01*
X43416483Y-15727091D01*
X43551331Y-15676796D01*
X43666546Y-15590546D01*
X43752796Y-15475331D01*
X43803091Y-15340483D01*
X43809500Y-15280873D01*
X43809499Y-13185128D01*
X43803091Y-13125517D01*
X43801835Y-13122150D01*
X43752797Y-12990671D01*
X43752793Y-12990664D01*
X43666547Y-12875455D01*
X43666544Y-12875452D01*
X43551335Y-12789206D01*
X43551328Y-12789202D01*
X43416482Y-12738908D01*
X43416483Y-12738908D01*
X43356883Y-12732501D01*
X43356881Y-12732500D01*
X43356873Y-12732500D01*
X43356864Y-12732500D01*
X42061129Y-12732500D01*
X42061123Y-12732501D01*
X42001516Y-12738908D01*
X41866671Y-12789202D01*
X41866664Y-12789206D01*
X41751455Y-12875452D01*
X41751452Y-12875455D01*
X41665206Y-12990664D01*
X41665202Y-12990671D01*
X41614908Y-13125517D01*
X41608580Y-13184383D01*
X41608501Y-13185123D01*
X41608500Y-13185135D01*
X41269499Y-13185135D01*
X41269499Y-13185128D01*
X41263091Y-13125517D01*
X41261835Y-13122150D01*
X41212797Y-12990671D01*
X41212793Y-12990664D01*
X41126547Y-12875455D01*
X41126544Y-12875452D01*
X41011335Y-12789206D01*
X41011328Y-12789202D01*
X40876482Y-12738908D01*
X40876483Y-12738908D01*
X40816883Y-12732501D01*
X40816881Y-12732500D01*
X40816873Y-12732500D01*
X40816864Y-12732500D01*
X39521129Y-12732500D01*
X39521123Y-12732501D01*
X39461516Y-12738908D01*
X39326671Y-12789202D01*
X39326664Y-12789206D01*
X39211455Y-12875452D01*
X39211452Y-12875455D01*
X39125206Y-12990664D01*
X39125202Y-12990671D01*
X39074908Y-13125517D01*
X39068580Y-13184383D01*
X39068501Y-13185123D01*
X39068500Y-13185135D01*
X38464101Y-13185135D01*
X38480520Y-13168716D01*
X38480520Y-13168714D01*
X38490723Y-13158512D01*
X38490727Y-13158506D01*
X42112416Y-9536819D01*
X42173739Y-9503334D01*
X42200097Y-9500500D01*
X44516654Y-9500500D01*
X44532861Y-9505259D01*
X44549751Y-9504999D01*
X44565690Y-9514898D01*
X44583693Y-9520185D01*
X44595135Y-9533186D01*
X44609104Y-9541862D01*
X44622941Y-9564779D01*
X44628641Y-9571256D01*
X44630952Y-9576118D01*
X44674204Y-9692081D01*
X44706770Y-9735584D01*
X44712082Y-9746756D01*
X44715716Y-9769538D01*
X44723779Y-9791155D01*
X44721117Y-9803389D01*
X44723090Y-9815753D01*
X44713831Y-9836881D01*
X44708927Y-9859428D01*
X44699363Y-9874309D01*
X44674205Y-9907915D01*
X44674202Y-9907921D01*
X44623908Y-10042767D01*
X44617501Y-10102366D01*
X44617500Y-10102385D01*
X44617500Y-11004620D01*
X44617501Y-11004626D01*
X44623908Y-11064233D01*
X44674202Y-11199078D01*
X44674206Y-11199085D01*
X44760452Y-11314294D01*
X44760455Y-11314297D01*
X44875664Y-11400543D01*
X44875669Y-11400546D01*
X44921018Y-11417460D01*
X44941691Y-11432935D01*
X44964479Y-11445082D01*
X44971191Y-11455018D01*
X44976952Y-11459330D01*
X44985914Y-11473122D01*
X44990114Y-11480633D01*
X44990423Y-11481785D01*
X45000651Y-11499500D01*
X45019429Y-11532025D01*
X45069477Y-11618712D01*
X45069481Y-11618717D01*
X45188349Y-11737585D01*
X45188355Y-11737590D01*
X45971583Y-12520819D01*
X46005068Y-12582142D01*
X46000084Y-12651834D01*
X45958212Y-12707767D01*
X45892748Y-12732184D01*
X45883902Y-12732500D01*
X44601129Y-12732500D01*
X44601123Y-12732501D01*
X44541516Y-12738908D01*
X44406671Y-12789202D01*
X44406664Y-12789206D01*
X44291455Y-12875452D01*
X44291452Y-12875455D01*
X44205206Y-12990664D01*
X44205202Y-12990671D01*
X44154908Y-13125517D01*
X44148580Y-13184383D01*
X44148501Y-13185123D01*
X44148500Y-13185135D01*
X44148500Y-15280870D01*
X44148501Y-15280876D01*
X44154908Y-15340483D01*
X44205202Y-15475328D01*
X44205206Y-15475335D01*
X44291452Y-15590544D01*
X44291455Y-15590547D01*
X44406664Y-15676793D01*
X44406671Y-15676797D01*
X44541517Y-15727091D01*
X44541516Y-15727091D01*
X44548444Y-15727835D01*
X44601127Y-15733500D01*
X45896872Y-15733499D01*
X45956483Y-15727091D01*
X46091331Y-15676796D01*
X46206546Y-15590546D01*
X46292796Y-15475331D01*
X46343091Y-15340483D01*
X46349500Y-15280873D01*
X46349499Y-13185128D01*
X46343091Y-13125517D01*
X46341835Y-13122150D01*
X46292797Y-12990671D01*
X46292795Y-12990668D01*
X46283290Y-12977971D01*
X46224031Y-12898811D01*
X46219324Y-12886192D01*
X46210504Y-12876013D01*
X46207352Y-12854094D01*
X46199614Y-12833348D01*
X46202476Y-12820186D01*
X46200560Y-12806855D01*
X46209757Y-12786714D01*
X46214465Y-12765075D01*
X46223990Y-12755549D01*
X46229585Y-12743299D01*
X46248210Y-12731328D01*
X46263870Y-12715669D01*
X46278312Y-12711982D01*
X46288362Y-12705524D01*
X46323295Y-12700501D01*
X46323297Y-12700501D01*
X46479058Y-12700501D01*
X46479061Y-12700500D01*
X46486669Y-12700500D01*
X46714702Y-12700500D01*
X46781741Y-12720185D01*
X46827496Y-12772989D01*
X46837440Y-12842147D01*
X46813969Y-12898810D01*
X46770102Y-12957409D01*
X46745204Y-12990669D01*
X46745202Y-12990671D01*
X46694908Y-13125517D01*
X46688580Y-13184383D01*
X46688501Y-13185123D01*
X46688500Y-13185135D01*
X46688500Y-15280870D01*
X46688501Y-15280876D01*
X46694908Y-15340483D01*
X46745202Y-15475328D01*
X46745206Y-15475335D01*
X46831452Y-15590544D01*
X46831455Y-15590547D01*
X46946664Y-15676793D01*
X46946671Y-15676797D01*
X47081517Y-15727091D01*
X47081516Y-15727091D01*
X47088444Y-15727835D01*
X47141127Y-15733500D01*
X48436872Y-15733499D01*
X48496483Y-15727091D01*
X48631331Y-15676796D01*
X48746546Y-15590546D01*
X48832796Y-15475331D01*
X48883091Y-15340483D01*
X48889500Y-15280873D01*
X48889499Y-13238095D01*
X48895737Y-13216850D01*
X48897317Y-13194762D01*
X48905389Y-13183978D01*
X48909184Y-13171057D01*
X48925917Y-13156556D01*
X48939189Y-13138829D01*
X48951808Y-13134122D01*
X48961987Y-13125302D01*
X48983905Y-13122150D01*
X49004653Y-13114412D01*
X49017813Y-13117274D01*
X49031146Y-13115358D01*
X49051289Y-13124557D01*
X49072926Y-13129264D01*
X49090651Y-13142532D01*
X49094702Y-13144383D01*
X49101180Y-13150415D01*
X49192181Y-13241416D01*
X49225666Y-13302739D01*
X49228500Y-13329097D01*
X49228500Y-15280870D01*
X49228501Y-15280876D01*
X49234908Y-15340483D01*
X49285202Y-15475328D01*
X49285206Y-15475335D01*
X49371452Y-15590544D01*
X49371455Y-15590547D01*
X49486664Y-15676793D01*
X49486671Y-15676797D01*
X49621517Y-15727091D01*
X49621516Y-15727091D01*
X49628444Y-15727835D01*
X49681127Y-15733500D01*
X50976872Y-15733499D01*
X51036483Y-15727091D01*
X51171331Y-15676796D01*
X51286546Y-15590546D01*
X51372796Y-15475331D01*
X51423091Y-15340483D01*
X51429500Y-15280873D01*
X51429499Y-13278095D01*
X51435737Y-13256850D01*
X51437317Y-13234762D01*
X51445389Y-13223978D01*
X51449184Y-13211057D01*
X51465917Y-13196556D01*
X51479189Y-13178829D01*
X51491808Y-13174122D01*
X51501987Y-13165302D01*
X51523905Y-13162150D01*
X51544653Y-13154412D01*
X51557813Y-13157274D01*
X51571146Y-13155358D01*
X51591289Y-13164557D01*
X51612926Y-13169264D01*
X51630651Y-13182532D01*
X51634702Y-13184383D01*
X51641180Y-13190415D01*
X51732181Y-13281416D01*
X51765666Y-13342739D01*
X51768500Y-13369097D01*
X51768500Y-15280870D01*
X51768501Y-15280876D01*
X51774908Y-15340483D01*
X51825202Y-15475328D01*
X51825206Y-15475335D01*
X51911452Y-15590544D01*
X51911455Y-15590547D01*
X52026664Y-15676793D01*
X52026671Y-15676797D01*
X52161517Y-15727091D01*
X52161516Y-15727091D01*
X52168444Y-15727835D01*
X52221127Y-15733500D01*
X53516872Y-15733499D01*
X53576483Y-15727091D01*
X53711331Y-15676796D01*
X53826546Y-15590546D01*
X53912796Y-15475331D01*
X53963091Y-15340483D01*
X53969500Y-15280873D01*
X53969499Y-13185128D01*
X53963091Y-13125517D01*
X53961835Y-13122150D01*
X53912797Y-12990671D01*
X53912793Y-12990664D01*
X53826547Y-12875455D01*
X53826544Y-12875452D01*
X53711335Y-12789206D01*
X53711328Y-12789202D01*
X53576482Y-12738908D01*
X53576483Y-12738908D01*
X53516883Y-12732501D01*
X53516881Y-12732500D01*
X53516873Y-12732500D01*
X53516865Y-12732500D01*
X52933098Y-12732500D01*
X52866059Y-12712815D01*
X52845417Y-12696181D01*
X51887590Y-11738355D01*
X51887588Y-11738352D01*
X51768717Y-11619481D01*
X51768709Y-11619475D01*
X51671072Y-11563105D01*
X51671070Y-11563104D01*
X51631790Y-11540425D01*
X51631789Y-11540424D01*
X51619263Y-11537067D01*
X51479057Y-11499499D01*
X51320943Y-11499499D01*
X51313347Y-11499499D01*
X51313331Y-11499500D01*
X50400098Y-11499500D01*
X50370654Y-11490854D01*
X50340672Y-11484332D01*
X50335656Y-11480577D01*
X50333059Y-11479815D01*
X50312421Y-11463185D01*
X50214914Y-11365678D01*
X50181431Y-11304359D01*
X50186415Y-11234667D01*
X50228286Y-11178733D01*
X50293750Y-11154316D01*
X50302597Y-11154000D01*
X50659831Y-11154000D01*
X50659847Y-11154001D01*
X50667443Y-11154001D01*
X50825554Y-11154001D01*
X50825557Y-11154001D01*
X50978285Y-11113077D01*
X51028404Y-11084139D01*
X51115216Y-11034020D01*
X51227020Y-10922216D01*
X51227021Y-10922214D01*
X51234087Y-10915148D01*
X51237583Y-10918644D01*
X51258449Y-10896212D01*
X51297580Y-10881208D01*
X51352647Y-10870253D01*
X51452168Y-10850458D01*
X51597850Y-10790115D01*
X51728960Y-10702510D01*
X51840460Y-10591010D01*
X51928065Y-10459900D01*
X51988408Y-10314218D01*
X52019171Y-10159563D01*
X52019171Y-10159552D01*
X52019577Y-10155434D01*
X52045733Y-10090644D01*
X52102764Y-10050281D01*
X52172564Y-10047159D01*
X52230662Y-10079897D01*
X54702124Y-12551359D01*
X54735609Y-12612682D01*
X54730625Y-12682374D01*
X54688753Y-12738307D01*
X54657777Y-12755222D01*
X54566670Y-12789203D01*
X54566664Y-12789206D01*
X54451455Y-12875452D01*
X54451452Y-12875455D01*
X54365206Y-12990664D01*
X54365202Y-12990671D01*
X54314908Y-13125517D01*
X54308580Y-13184383D01*
X54308501Y-13185123D01*
X54308500Y-13185135D01*
X54308500Y-15280870D01*
X54308501Y-15280876D01*
X54314908Y-15340483D01*
X54365202Y-15475328D01*
X54365206Y-15475335D01*
X54451452Y-15590544D01*
X54451455Y-15590547D01*
X54566664Y-15676793D01*
X54566671Y-15676797D01*
X54701517Y-15727091D01*
X54701516Y-15727091D01*
X54708444Y-15727835D01*
X54761127Y-15733500D01*
X56056872Y-15733499D01*
X56116483Y-15727091D01*
X56251331Y-15676796D01*
X56366546Y-15590546D01*
X56452796Y-15475331D01*
X56503091Y-15340483D01*
X56509500Y-15280873D01*
X56509500Y-15280844D01*
X56849000Y-15280844D01*
X56855401Y-15340372D01*
X56855403Y-15340379D01*
X56905645Y-15475086D01*
X56905649Y-15475093D01*
X56991809Y-15590187D01*
X56991812Y-15590190D01*
X57106906Y-15676350D01*
X57106913Y-15676354D01*
X57241620Y-15726596D01*
X57241627Y-15726598D01*
X57301155Y-15732999D01*
X57301172Y-15733000D01*
X57699000Y-15733000D01*
X58199000Y-15733000D01*
X58596828Y-15733000D01*
X58596844Y-15732999D01*
X58656372Y-15726598D01*
X58656379Y-15726596D01*
X58791086Y-15676354D01*
X58791093Y-15676350D01*
X58906187Y-15590190D01*
X58906190Y-15590187D01*
X58992350Y-15475093D01*
X58992354Y-15475086D01*
X59042596Y-15340379D01*
X59042598Y-15340372D01*
X59048999Y-15280844D01*
X59049000Y-15280827D01*
X59049000Y-14483000D01*
X58199000Y-14483000D01*
X58199000Y-15733000D01*
X57699000Y-15733000D01*
X57699000Y-14483000D01*
X56849000Y-14483000D01*
X56849000Y-15280844D01*
X56509500Y-15280844D01*
X56509499Y-14218219D01*
X56509499Y-13185155D01*
X56849000Y-13185155D01*
X56849000Y-13983000D01*
X57699000Y-13983000D01*
X58199000Y-13983000D01*
X59049000Y-13983000D01*
X59049000Y-13185172D01*
X59048999Y-13185155D01*
X59042598Y-13125627D01*
X59042596Y-13125620D01*
X58992354Y-12990913D01*
X58992350Y-12990906D01*
X58906190Y-12875812D01*
X58906187Y-12875809D01*
X58791093Y-12789649D01*
X58791086Y-12789645D01*
X58656379Y-12739403D01*
X58656372Y-12739401D01*
X58596844Y-12733000D01*
X58199000Y-12733000D01*
X58199000Y-13983000D01*
X57699000Y-13983000D01*
X57699000Y-12733000D01*
X57301155Y-12733000D01*
X57241627Y-12739401D01*
X57241620Y-12739403D01*
X57106913Y-12789645D01*
X57106906Y-12789649D01*
X56991812Y-12875809D01*
X56991809Y-12875812D01*
X56905649Y-12990906D01*
X56905645Y-12990913D01*
X56855403Y-13125620D01*
X56855401Y-13125627D01*
X56849000Y-13185155D01*
X56509499Y-13185155D01*
X56509499Y-13185129D01*
X56509498Y-13185123D01*
X56509497Y-13185116D01*
X56503091Y-13125517D01*
X56501835Y-13122150D01*
X56452797Y-12990671D01*
X56452793Y-12990664D01*
X56366547Y-12875455D01*
X56366544Y-12875452D01*
X56251335Y-12789206D01*
X56251328Y-12789202D01*
X56116482Y-12738908D01*
X56115858Y-12738761D01*
X56115853Y-12738762D01*
X56115843Y-12738757D01*
X56108938Y-12737126D01*
X56109262Y-12735752D01*
X56086003Y-12725130D01*
X56055688Y-12712571D01*
X56054381Y-12710688D01*
X56052297Y-12709737D01*
X56034560Y-12682138D01*
X56015843Y-12655177D01*
X56015374Y-12652283D01*
X56014523Y-12650959D01*
X56009500Y-12616024D01*
X56009500Y-12498059D01*
X56009501Y-12498046D01*
X56009501Y-12329945D01*
X56009501Y-12329943D01*
X55968577Y-12177215D01*
X55923708Y-12099500D01*
X55889520Y-12040284D01*
X55777716Y-11928480D01*
X55777715Y-11928479D01*
X55773385Y-11924149D01*
X55773374Y-11924139D01*
X52387590Y-8538355D01*
X52387588Y-8538352D01*
X52268717Y-8419481D01*
X52268709Y-8419475D01*
X52145699Y-8348456D01*
X52145696Y-8348455D01*
X52131785Y-8340423D01*
X52102216Y-8332500D01*
X51979057Y-8299499D01*
X51905658Y-8299499D01*
X51838619Y-8279814D01*
X51792864Y-8227010D01*
X51782920Y-8157852D01*
X51811945Y-8094296D01*
X51835893Y-8074996D01*
X51835231Y-8074112D01*
X51932093Y-8001600D01*
X51957546Y-7982546D01*
X52043796Y-7867331D01*
X52094091Y-7732483D01*
X52100500Y-7672873D01*
X52100499Y-6327128D01*
X52094091Y-6267517D01*
X52065966Y-6192111D01*
X52043797Y-6132671D01*
X52043793Y-6132664D01*
X51957547Y-6017455D01*
X51957544Y-6017452D01*
X51842335Y-5931206D01*
X51842328Y-5931202D01*
X51707482Y-5880908D01*
X51707483Y-5880908D01*
X51647883Y-5874501D01*
X51647881Y-5874500D01*
X51647873Y-5874500D01*
X51647865Y-5874500D01*
X51266868Y-5874500D01*
X51199829Y-5854815D01*
X51154074Y-5802011D01*
X51143579Y-5737244D01*
X51145461Y-5719737D01*
X51150500Y-5672873D01*
X51150499Y-4674499D01*
X51153049Y-4665813D01*
X51151761Y-4656853D01*
X51162738Y-4632816D01*
X51170183Y-4607461D01*
X51177025Y-4601532D01*
X51180786Y-4593297D01*
X51203017Y-4579010D01*
X51222987Y-4561706D01*
X51233502Y-4559418D01*
X51239564Y-4555523D01*
X51274499Y-4550500D01*
X51349903Y-4550500D01*
X51416942Y-4570185D01*
X51437584Y-4586819D01*
X51815425Y-4964660D01*
X51848910Y-5025983D01*
X51849361Y-5028149D01*
X51880261Y-5183491D01*
X51880264Y-5183501D01*
X51940602Y-5329172D01*
X51940609Y-5329185D01*
X52028210Y-5460288D01*
X52028213Y-5460292D01*
X52139707Y-5571786D01*
X52139711Y-5571789D01*
X52270814Y-5659390D01*
X52270827Y-5659397D01*
X52386214Y-5707191D01*
X52416503Y-5719737D01*
X52553110Y-5746910D01*
X52571153Y-5750499D01*
X52571156Y-5750500D01*
X52571158Y-5750500D01*
X52728844Y-5750500D01*
X52728845Y-5750499D01*
X52883497Y-5719737D01*
X52941224Y-5695826D01*
X53034808Y-5657063D01*
X53035575Y-5658915D01*
X53094949Y-5646535D01*
X53160200Y-5671514D01*
X53184304Y-5695826D01*
X53192807Y-5707185D01*
X53192814Y-5707191D01*
X53307906Y-5793350D01*
X53307913Y-5793354D01*
X53442620Y-5843596D01*
X53442627Y-5843598D01*
X53502155Y-5849999D01*
X53502172Y-5850000D01*
X53800000Y-5850000D01*
X53800000Y-4050000D01*
X53502155Y-4050000D01*
X53442627Y-4056401D01*
X53442620Y-4056403D01*
X53307913Y-4106645D01*
X53307906Y-4106649D01*
X53192814Y-4192808D01*
X53192807Y-4192814D01*
X53184302Y-4204176D01*
X53128366Y-4246045D01*
X53058675Y-4251026D01*
X53035057Y-4242335D01*
X53034808Y-4242937D01*
X52883501Y-4180264D01*
X52883491Y-4180261D01*
X52728151Y-4149362D01*
X52666241Y-4116977D01*
X52664662Y-4115426D01*
X52137590Y-3588355D01*
X52137588Y-3588352D01*
X52018717Y-3469481D01*
X52018709Y-3469475D01*
X51923781Y-3414669D01*
X51923779Y-3414668D01*
X51881790Y-3390425D01*
X51881789Y-3390424D01*
X51827958Y-3376000D01*
X51729057Y-3349499D01*
X51570943Y-3349499D01*
X51563347Y-3349499D01*
X51563331Y-3349500D01*
X47350097Y-3349500D01*
X47283058Y-3329815D01*
X47262416Y-3313181D01*
X47147079Y-3197844D01*
X53050000Y-3197844D01*
X53056401Y-3257372D01*
X53056403Y-3257379D01*
X53106645Y-3392086D01*
X53106649Y-3392093D01*
X53192809Y-3507187D01*
X53192812Y-3507190D01*
X53307906Y-3593350D01*
X53307913Y-3593354D01*
X53442620Y-3643596D01*
X53442627Y-3643598D01*
X53502155Y-3649999D01*
X53502172Y-3650000D01*
X53800000Y-3650000D01*
X54300000Y-3650000D01*
X54525553Y-3650000D01*
X54534238Y-3652550D01*
X54543200Y-3651262D01*
X54567240Y-3662240D01*
X54592592Y-3669685D01*
X54598519Y-3676525D01*
X54606756Y-3680287D01*
X54621045Y-3702521D01*
X54638347Y-3722489D01*
X54640634Y-3733003D01*
X54644530Y-3739065D01*
X54645956Y-3757465D01*
X54649553Y-3774000D01*
X54649553Y-3782125D01*
X54648350Y-3791263D01*
X54648350Y-3908737D01*
X54649553Y-3917874D01*
X54649553Y-3926000D01*
X54641908Y-3952033D01*
X54637728Y-3978846D01*
X54632209Y-3985063D01*
X54629868Y-3993039D01*
X54609365Y-4010804D01*
X54591350Y-4031104D01*
X54583256Y-4033428D01*
X54577064Y-4038794D01*
X54552048Y-4042390D01*
X54525553Y-4050000D01*
X54300000Y-4050000D01*
X54300000Y-5850000D01*
X54597828Y-5850000D01*
X54597844Y-5849999D01*
X54657372Y-5843598D01*
X54657376Y-5843597D01*
X54782166Y-5797053D01*
X54851858Y-5792069D01*
X54913181Y-5825553D01*
X54946666Y-5886876D01*
X54949500Y-5913235D01*
X54949500Y-6447870D01*
X54949501Y-6447876D01*
X54955908Y-6507483D01*
X55006202Y-6642328D01*
X55006203Y-6642329D01*
X55006204Y-6642331D01*
X55062943Y-6718124D01*
X55092452Y-6757543D01*
X55092455Y-6757547D01*
X55149810Y-6800482D01*
X55191682Y-6856415D01*
X55199500Y-6899749D01*
X55199500Y-9220234D01*
X55179815Y-9287273D01*
X55178602Y-9289125D01*
X55090609Y-9420814D01*
X55090602Y-9420827D01*
X55030264Y-9566498D01*
X55030261Y-9566510D01*
X54999500Y-9721153D01*
X54999500Y-9878846D01*
X55030261Y-10033489D01*
X55030264Y-10033501D01*
X55090602Y-10179172D01*
X55090609Y-10179185D01*
X55178210Y-10310288D01*
X55178213Y-10310292D01*
X55289707Y-10421786D01*
X55289711Y-10421789D01*
X55420814Y-10509390D01*
X55420827Y-10509397D01*
X55487031Y-10536819D01*
X55566503Y-10569737D01*
X55719424Y-10600155D01*
X55721153Y-10600499D01*
X55721156Y-10600500D01*
X55721158Y-10600500D01*
X55878844Y-10600500D01*
X55878845Y-10600499D01*
X56033497Y-10569737D01*
X56179179Y-10509394D01*
X56310289Y-10421789D01*
X56421789Y-10310289D01*
X56509394Y-10179179D01*
X56569737Y-10033497D01*
X56600500Y-9878842D01*
X56600500Y-9721158D01*
X56600500Y-9721155D01*
X56600499Y-9721153D01*
X56577746Y-9606768D01*
X56569737Y-9566503D01*
X56565897Y-9557233D01*
X56509397Y-9420827D01*
X56509390Y-9420814D01*
X56421398Y-9289125D01*
X56400520Y-9222447D01*
X56400500Y-9220234D01*
X56400500Y-8049097D01*
X56420185Y-7982058D01*
X56472989Y-7936303D01*
X56542147Y-7926359D01*
X56605703Y-7955384D01*
X56612181Y-7961416D01*
X59852181Y-11201416D01*
X59885666Y-11262739D01*
X59888500Y-11289097D01*
X59888500Y-12616023D01*
X59868815Y-12683062D01*
X59816011Y-12728817D01*
X59788865Y-12736266D01*
X59789068Y-12737124D01*
X59781520Y-12738907D01*
X59646671Y-12789202D01*
X59646664Y-12789206D01*
X59531455Y-12875452D01*
X59531452Y-12875455D01*
X59445206Y-12990664D01*
X59445202Y-12990671D01*
X59394908Y-13125517D01*
X59388580Y-13184383D01*
X59388501Y-13185123D01*
X59388500Y-13185135D01*
X59388500Y-15280870D01*
X59388501Y-15280876D01*
X59394908Y-15340483D01*
X59445202Y-15475328D01*
X59445206Y-15475335D01*
X59531452Y-15590544D01*
X59531455Y-15590547D01*
X59646664Y-15676793D01*
X59646671Y-15676797D01*
X59781517Y-15727091D01*
X59781516Y-15727091D01*
X59788444Y-15727835D01*
X59841127Y-15733500D01*
X61136872Y-15733499D01*
X61196483Y-15727091D01*
X61331331Y-15676796D01*
X61446546Y-15590546D01*
X61532796Y-15475331D01*
X61583091Y-15340483D01*
X61589500Y-15280873D01*
X61589499Y-13185128D01*
X61583091Y-13125517D01*
X61581835Y-13122150D01*
X61532797Y-12990671D01*
X61532793Y-12990664D01*
X61446547Y-12875455D01*
X61446544Y-12875452D01*
X61331335Y-12789206D01*
X61331328Y-12789202D01*
X61196482Y-12738908D01*
X61188938Y-12737126D01*
X61189474Y-12734853D01*
X61135688Y-12712571D01*
X61095843Y-12655177D01*
X61089500Y-12616024D01*
X61089500Y-11078059D01*
X61089501Y-11078046D01*
X61089501Y-10909945D01*
X61089501Y-10909943D01*
X61048577Y-10757215D01*
X61015303Y-10699583D01*
X60969520Y-10620284D01*
X60857716Y-10508480D01*
X60857715Y-10508479D01*
X60853385Y-10504149D01*
X60853374Y-10504139D01*
X57461415Y-7112180D01*
X57427930Y-7050857D01*
X57432914Y-6981165D01*
X57474786Y-6925232D01*
X57540250Y-6900815D01*
X57549073Y-6900499D01*
X58197872Y-6900499D01*
X58257483Y-6894091D01*
X58392331Y-6843796D01*
X58507546Y-6757546D01*
X58593796Y-6642331D01*
X58644091Y-6507483D01*
X58650500Y-6447873D01*
X58650499Y-5913232D01*
X58670183Y-5846196D01*
X58722987Y-5800441D01*
X58792146Y-5790497D01*
X58817833Y-5797053D01*
X58942623Y-5843597D01*
X58942627Y-5843598D01*
X59002155Y-5849999D01*
X59002172Y-5850000D01*
X59300000Y-5850000D01*
X59800000Y-5850000D01*
X60097828Y-5850000D01*
X60097844Y-5849999D01*
X60157372Y-5843598D01*
X60157379Y-5843596D01*
X60292086Y-5793354D01*
X60292093Y-5793350D01*
X60407187Y-5707190D01*
X60407190Y-5707187D01*
X60493350Y-5592093D01*
X60493354Y-5592086D01*
X60543596Y-5457379D01*
X60543598Y-5457372D01*
X60549999Y-5397844D01*
X60550000Y-5397827D01*
X60550000Y-5200000D01*
X59800000Y-5200000D01*
X59800000Y-5850000D01*
X59300000Y-5850000D01*
X59300000Y-4700000D01*
X59800000Y-4700000D01*
X60550000Y-4700000D01*
X60550000Y-4502172D01*
X60549999Y-4502155D01*
X60543598Y-4442627D01*
X60543596Y-4442620D01*
X60493354Y-4307913D01*
X60493350Y-4307906D01*
X60407190Y-4192812D01*
X60407187Y-4192809D01*
X60292093Y-4106649D01*
X60292086Y-4106645D01*
X60157379Y-4056403D01*
X60157372Y-4056401D01*
X60097844Y-4050000D01*
X59800000Y-4050000D01*
X59800000Y-4700000D01*
X59300000Y-4700000D01*
X59300000Y-4050000D01*
X59074447Y-4050000D01*
X59065761Y-4047449D01*
X59056800Y-4048738D01*
X59032759Y-4037759D01*
X59007408Y-4030315D01*
X59001480Y-4023474D01*
X58993244Y-4019713D01*
X58978954Y-3997478D01*
X58961653Y-3977511D01*
X58959365Y-3966996D01*
X58955470Y-3960935D01*
X58954043Y-3942534D01*
X58950447Y-3926000D01*
X58950447Y-3917874D01*
X58951650Y-3908737D01*
X58951650Y-3791263D01*
X58950447Y-3782125D01*
X58950447Y-3774000D01*
X58958091Y-3747966D01*
X58962272Y-3721154D01*
X58967790Y-3714936D01*
X58970132Y-3706961D01*
X58990634Y-3689195D01*
X59008650Y-3668896D01*
X59016743Y-3666571D01*
X59022936Y-3661206D01*
X59047951Y-3657609D01*
X59074447Y-3650000D01*
X59300000Y-3650000D01*
X59800000Y-3650000D01*
X60097828Y-3650000D01*
X60097844Y-3649999D01*
X60157372Y-3643598D01*
X60157379Y-3643596D01*
X60292086Y-3593354D01*
X60292093Y-3593350D01*
X60407187Y-3507190D01*
X60407190Y-3507187D01*
X60493350Y-3392093D01*
X60493354Y-3392086D01*
X60543596Y-3257379D01*
X60543598Y-3257372D01*
X60549999Y-3197844D01*
X60550000Y-3197820D01*
X60550000Y-3000000D01*
X59800000Y-3000000D01*
X59800000Y-3650000D01*
X59300000Y-3650000D01*
X59300000Y-3000000D01*
X58550000Y-3000000D01*
X58550000Y-3082135D01*
X58530315Y-3149174D01*
X58477511Y-3194929D01*
X58409816Y-3205074D01*
X58358739Y-3198350D01*
X58358737Y-3198350D01*
X58241263Y-3198350D01*
X58241262Y-3198350D01*
X58188073Y-3205352D01*
X58074607Y-3235755D01*
X58074598Y-3235759D01*
X58025042Y-3256286D01*
X58025038Y-3256288D01*
X57965316Y-3290769D01*
X57926498Y-3313181D01*
X57923302Y-3315026D01*
X57880747Y-3347680D01*
X57797680Y-3430747D01*
X57765026Y-3473302D01*
X57765023Y-3473306D01*
X57765023Y-3473307D01*
X57706286Y-3575042D01*
X57700772Y-3588355D01*
X57685759Y-3624598D01*
X57685755Y-3624607D01*
X57655352Y-3738073D01*
X57648350Y-3791262D01*
X57648350Y-3908737D01*
X57655352Y-3961926D01*
X57683885Y-4068414D01*
X57685756Y-4075395D01*
X57706286Y-4124958D01*
X57757406Y-4213500D01*
X57773879Y-4281399D01*
X57751027Y-4347426D01*
X57696106Y-4390617D01*
X57650019Y-4399500D01*
X57402130Y-4399500D01*
X57402123Y-4399501D01*
X57342520Y-4405908D01*
X57334974Y-4407692D01*
X57334628Y-4406230D01*
X57273622Y-4410584D01*
X57258600Y-4406172D01*
X57257482Y-4405908D01*
X57197883Y-4399501D01*
X57197881Y-4399500D01*
X57197873Y-4399500D01*
X57197864Y-4399500D01*
X56402129Y-4399500D01*
X56402123Y-4399501D01*
X56342520Y-4405908D01*
X56334974Y-4407692D01*
X56334628Y-4406230D01*
X56273622Y-4410584D01*
X56258600Y-4406172D01*
X56257482Y-4405908D01*
X56197883Y-4399501D01*
X56197881Y-4399500D01*
X56197873Y-4399500D01*
X56197865Y-4399500D01*
X55949981Y-4399500D01*
X55882942Y-4379815D01*
X55837187Y-4327011D01*
X55827243Y-4257853D01*
X55842593Y-4213501D01*
X55893714Y-4124958D01*
X55914244Y-4075395D01*
X55944648Y-3961924D01*
X55951650Y-3908737D01*
X55951650Y-3791263D01*
X55944648Y-3738076D01*
X55914244Y-3624605D01*
X55893714Y-3575042D01*
X55834977Y-3473307D01*
X55802319Y-3430747D01*
X55719253Y-3347681D01*
X55676693Y-3315023D01*
X55574958Y-3256286D01*
X55525395Y-3235756D01*
X55525393Y-3235755D01*
X55525392Y-3235755D01*
X55411926Y-3205352D01*
X55358738Y-3198350D01*
X55358737Y-3198350D01*
X55241263Y-3198350D01*
X55241261Y-3198350D01*
X55190184Y-3205074D01*
X55121149Y-3194308D01*
X55068894Y-3147928D01*
X55050000Y-3082135D01*
X55050000Y-3000000D01*
X54300000Y-3000000D01*
X54300000Y-3650000D01*
X53800000Y-3650000D01*
X53800000Y-3000000D01*
X53050000Y-3000000D01*
X53050000Y-3197844D01*
X47147079Y-3197844D01*
X46587590Y-2638355D01*
X46587588Y-2638352D01*
X46468717Y-2519481D01*
X46468716Y-2519480D01*
X46381904Y-2469360D01*
X46381904Y-2469359D01*
X46381900Y-2469358D01*
X46331785Y-2440423D01*
X46179057Y-2399499D01*
X46020943Y-2399499D01*
X46013347Y-2399499D01*
X46013331Y-2399500D01*
X45674499Y-2399500D01*
X45607460Y-2379815D01*
X45561705Y-2327011D01*
X45550499Y-2275500D01*
X45550499Y-2252129D01*
X45550498Y-2252123D01*
X45550497Y-2252116D01*
X45544091Y-2192517D01*
X45493884Y-2057906D01*
X45493797Y-2057671D01*
X45493793Y-2057664D01*
X45407547Y-1942455D01*
X45407544Y-1942452D01*
X45292335Y-1856206D01*
X45284546Y-1851953D01*
X45286124Y-1849061D01*
X45243042Y-1816811D01*
X45218625Y-1751347D01*
X45233476Y-1683074D01*
X45282881Y-1633668D01*
X45342309Y-1618500D01*
X53393177Y-1618500D01*
X53406100Y-1622294D01*
G37*
%TD.AperFunction*%
%TA.AperFunction,Conductor*%
G36*
X37503719Y-24301785D02*
G01*
X37551693Y-24306080D01*
X37606870Y-24348945D01*
X37630112Y-24414835D01*
X37622472Y-24464801D01*
X37584909Y-24565514D01*
X37584908Y-24565516D01*
X37578501Y-24625116D01*
X37578501Y-24625123D01*
X37578500Y-24625135D01*
X37578500Y-25920870D01*
X37578501Y-25920876D01*
X37584908Y-25980483D01*
X37635202Y-26115328D01*
X37635203Y-26115330D01*
X37648113Y-26132575D01*
X37672530Y-26198039D01*
X37657679Y-26266312D01*
X37608274Y-26315718D01*
X37540001Y-26330570D01*
X37524655Y-26328503D01*
X37378846Y-26299500D01*
X37378842Y-26299500D01*
X37221158Y-26299500D01*
X37221155Y-26299500D01*
X37066510Y-26330261D01*
X37066498Y-26330264D01*
X36920827Y-26390602D01*
X36920814Y-26390609D01*
X36799602Y-26471602D01*
X36732925Y-26492480D01*
X36730711Y-26492500D01*
X34371613Y-26492500D01*
X34367230Y-26491213D01*
X34362768Y-26492184D01*
X34334016Y-26481460D01*
X34304574Y-26472815D01*
X34300387Y-26468917D01*
X34297303Y-26467767D01*
X34272346Y-26442811D01*
X34267857Y-26436815D01*
X34201041Y-26347560D01*
X34176625Y-26282097D01*
X34191477Y-26213824D01*
X34201042Y-26198939D01*
X34201716Y-26198039D01*
X34275796Y-26099081D01*
X34326091Y-25964233D01*
X34332500Y-25904623D01*
X34332499Y-25002378D01*
X34326091Y-24942767D01*
X34314260Y-24911047D01*
X34275798Y-24807924D01*
X34275797Y-24807923D01*
X34275796Y-24807919D01*
X34250633Y-24774306D01*
X34241399Y-24749550D01*
X34228735Y-24726356D01*
X34229380Y-24717328D01*
X34226218Y-24708849D01*
X34231834Y-24683026D01*
X34233721Y-24656664D01*
X34240117Y-24644950D01*
X34241069Y-24640575D01*
X34250626Y-24625702D01*
X34272348Y-24596686D01*
X34328281Y-24554817D01*
X34371612Y-24547000D01*
X36866831Y-24547000D01*
X36866847Y-24547001D01*
X36874443Y-24547001D01*
X37032554Y-24547001D01*
X37032557Y-24547001D01*
X37185285Y-24506077D01*
X37260040Y-24462917D01*
X37322216Y-24427020D01*
X37418968Y-24330267D01*
X37423653Y-24326421D01*
X37450440Y-24315035D01*
X37475984Y-24301088D01*
X37478155Y-24300636D01*
X37478839Y-24300500D01*
X37478842Y-24300500D01*
X37482103Y-24299851D01*
X37485460Y-24300151D01*
X37487956Y-24299091D01*
X37503719Y-24301785D01*
G37*
%TD.AperFunction*%
%TA.AperFunction,Conductor*%
G36*
X19461920Y-18220619D02*
G01*
X19496277Y-18281457D01*
X19499500Y-18309544D01*
X19499500Y-19512455D01*
X19479815Y-19579494D01*
X19427011Y-19625249D01*
X19357853Y-19635193D01*
X19294297Y-19606168D01*
X19275182Y-19585340D01*
X19175971Y-19448786D01*
X19031213Y-19304028D01*
X18865613Y-19183715D01*
X18865612Y-19183714D01*
X18865610Y-19183713D01*
X18797886Y-19149206D01*
X18683223Y-19090781D01*
X18492868Y-19028931D01*
X18435193Y-18989493D01*
X18407995Y-18925134D01*
X18419910Y-18856288D01*
X18467154Y-18804812D01*
X18492868Y-18793069D01*
X18535508Y-18779213D01*
X18683219Y-18731220D01*
X18865610Y-18638287D01*
X18958590Y-18570732D01*
X19031213Y-18517971D01*
X19031215Y-18517968D01*
X19031219Y-18517966D01*
X19175966Y-18373219D01*
X19275182Y-18236657D01*
X19330511Y-18193993D01*
X19400124Y-18188014D01*
X19461920Y-18220619D01*
G37*
%TD.AperFunction*%
%TA.AperFunction,Conductor*%
G36*
X22148104Y-16047185D02*
G01*
X22168746Y-16063819D01*
X22358643Y-16253716D01*
X22370486Y-16275405D01*
X22385856Y-16294757D01*
X22386937Y-16305533D01*
X22392128Y-16315039D01*
X22390365Y-16339688D01*
X22392833Y-16364278D01*
X22387483Y-16379976D01*
X22387144Y-16384731D01*
X22381450Y-16397686D01*
X22376575Y-16407255D01*
X22328603Y-16458053D01*
X22260783Y-16474853D01*
X22218635Y-16465528D01*
X22206537Y-16460517D01*
X22133497Y-16430263D01*
X22133492Y-16430262D01*
X22133489Y-16430261D01*
X21978845Y-16399500D01*
X21978842Y-16399500D01*
X21821158Y-16399500D01*
X21821155Y-16399500D01*
X21666510Y-16430261D01*
X21666498Y-16430264D01*
X21520827Y-16490602D01*
X21520814Y-16490609D01*
X21389711Y-16578210D01*
X21389707Y-16578213D01*
X21278213Y-16689707D01*
X21278210Y-16689711D01*
X21190609Y-16820814D01*
X21190602Y-16820827D01*
X21130264Y-16966498D01*
X21130261Y-16966510D01*
X21099500Y-17121153D01*
X21099500Y-17278846D01*
X21130261Y-17433489D01*
X21130264Y-17433501D01*
X21190603Y-17579174D01*
X21190604Y-17579175D01*
X21190606Y-17579179D01*
X21251602Y-17670465D01*
X21272480Y-17737142D01*
X21272500Y-17739356D01*
X21272500Y-18075500D01*
X21252815Y-18142539D01*
X21200011Y-18188294D01*
X21148500Y-18199500D01*
X21121155Y-18199500D01*
X20966510Y-18230261D01*
X20966507Y-18230261D01*
X20871952Y-18269427D01*
X20802482Y-18276895D01*
X20740003Y-18245619D01*
X20704351Y-18185530D01*
X20700500Y-18154865D01*
X20700500Y-16779765D01*
X20720185Y-16712726D01*
X20721398Y-16710874D01*
X20809390Y-16579185D01*
X20809390Y-16579184D01*
X20809394Y-16579179D01*
X20818911Y-16556204D01*
X20823067Y-16546166D01*
X20869737Y-16433497D01*
X20900500Y-16278842D01*
X20900500Y-16151500D01*
X20920185Y-16084461D01*
X20972989Y-16038706D01*
X21024500Y-16027500D01*
X22081065Y-16027500D01*
X22148104Y-16047185D01*
G37*
%TD.AperFunction*%
%TA.AperFunction,Conductor*%
G36*
X30506006Y-14657485D02*
G01*
X30557142Y-14705096D01*
X30574500Y-14768368D01*
X30574500Y-15149369D01*
X30574501Y-15149376D01*
X30580908Y-15208983D01*
X30631202Y-15343828D01*
X30631206Y-15343835D01*
X30717452Y-15459044D01*
X30717453Y-15459044D01*
X30717454Y-15459046D01*
X30717914Y-15459390D01*
X30740748Y-15476484D01*
X30782619Y-15532418D01*
X30787602Y-15602110D01*
X30754116Y-15663433D01*
X30740748Y-15675016D01*
X30717452Y-15692455D01*
X30631206Y-15807664D01*
X30631202Y-15807671D01*
X30580908Y-15942517D01*
X30574501Y-16002116D01*
X30574500Y-16002135D01*
X30574500Y-16383131D01*
X30554815Y-16450170D01*
X30502011Y-16495925D01*
X30437246Y-16506421D01*
X30428875Y-16505521D01*
X30372873Y-16499500D01*
X30372867Y-16499500D01*
X29503438Y-16499500D01*
X29436399Y-16479815D01*
X29390644Y-16427011D01*
X29380700Y-16357853D01*
X29409725Y-16294297D01*
X29434545Y-16272399D01*
X29510289Y-16221789D01*
X29621789Y-16110289D01*
X29709394Y-15979179D01*
X29769737Y-15833497D01*
X29797792Y-15692455D01*
X29800638Y-15678150D01*
X29833023Y-15616239D01*
X29834525Y-15614709D01*
X30058506Y-15390727D01*
X30058511Y-15390724D01*
X30068714Y-15380520D01*
X30068716Y-15380520D01*
X30180520Y-15268716D01*
X30259577Y-15131784D01*
X30293650Y-15004622D01*
X30300500Y-14979058D01*
X30300500Y-14820943D01*
X30300500Y-14771163D01*
X30301146Y-14768960D01*
X30300579Y-14766736D01*
X30310941Y-14735602D01*
X30320185Y-14704124D01*
X30321919Y-14702620D01*
X30322645Y-14700442D01*
X30348201Y-14679847D01*
X30372989Y-14658369D01*
X30375818Y-14657592D01*
X30377049Y-14656601D01*
X30411239Y-14647874D01*
X30432483Y-14645591D01*
X30432486Y-14645589D01*
X30437246Y-14645078D01*
X30506006Y-14657485D01*
G37*
%TD.AperFunction*%
%TA.AperFunction,Conductor*%
G36*
X21033182Y-12837782D02*
G01*
X21079624Y-12867043D01*
X21336181Y-13123600D01*
X21369666Y-13184923D01*
X21372500Y-13211281D01*
X21372500Y-14438197D01*
X21372500Y-14561803D01*
X21379162Y-14595296D01*
X21384933Y-14624310D01*
X21378704Y-14693902D01*
X21335841Y-14749078D01*
X21269951Y-14772322D01*
X21263315Y-14772500D01*
X20993182Y-14772500D01*
X20926143Y-14752815D01*
X20880388Y-14700011D01*
X20870444Y-14630853D01*
X20871565Y-14624308D01*
X20900500Y-14478844D01*
X20900500Y-14321155D01*
X20900499Y-14321153D01*
X20869737Y-14166503D01*
X20869735Y-14166498D01*
X20809397Y-14020827D01*
X20809390Y-14020814D01*
X20721398Y-13889125D01*
X20700520Y-13822447D01*
X20700500Y-13820234D01*
X20700500Y-13279765D01*
X20720185Y-13212726D01*
X20721398Y-13210874D01*
X20734531Y-13191220D01*
X20809394Y-13079179D01*
X20869737Y-12933497D01*
X20870324Y-12930544D01*
X20871058Y-12929141D01*
X20871506Y-12927665D01*
X20871785Y-12927749D01*
X20902701Y-12868632D01*
X20963412Y-12834051D01*
X21033182Y-12837782D01*
G37*
%TD.AperFunction*%
%TA.AperFunction,Conductor*%
G36*
X34466942Y-11420185D02*
G01*
X34487584Y-11436819D01*
X34916259Y-11865495D01*
X34949744Y-11926818D01*
X34944760Y-11996510D01*
X34902888Y-12052443D01*
X34876031Y-12067737D01*
X34820824Y-12090604D01*
X34820814Y-12090609D01*
X34689711Y-12178210D01*
X34689707Y-12178213D01*
X34578213Y-12289707D01*
X34540840Y-12345640D01*
X34487227Y-12390444D01*
X34417902Y-12399151D01*
X34354875Y-12368996D01*
X34338472Y-12351060D01*
X34314846Y-12319501D01*
X34289546Y-12285704D01*
X34289544Y-12285703D01*
X34289544Y-12285702D01*
X34174335Y-12199456D01*
X34174328Y-12199452D01*
X34039482Y-12149158D01*
X34039483Y-12149158D01*
X33979883Y-12142751D01*
X33979881Y-12142750D01*
X33979873Y-12142750D01*
X33979864Y-12142750D01*
X33020129Y-12142750D01*
X33020123Y-12142751D01*
X32960515Y-12149159D01*
X32833234Y-12196631D01*
X32763543Y-12201615D01*
X32702220Y-12168129D01*
X32690634Y-12154758D01*
X32682549Y-12143957D01*
X32682546Y-12143955D01*
X32682546Y-12143954D01*
X32659869Y-12126978D01*
X32567335Y-12057706D01*
X32567328Y-12057702D01*
X32432482Y-12007408D01*
X32432483Y-12007408D01*
X32372883Y-12001001D01*
X32372881Y-12001000D01*
X32372873Y-12001000D01*
X32372864Y-12001000D01*
X31027129Y-12001000D01*
X31027123Y-12001001D01*
X30967516Y-12007408D01*
X30832671Y-12057702D01*
X30832664Y-12057706D01*
X30717455Y-12143952D01*
X30717452Y-12143955D01*
X30631206Y-12259164D01*
X30631202Y-12259171D01*
X30580908Y-12394017D01*
X30574501Y-12453616D01*
X30574500Y-12453635D01*
X30574500Y-12834631D01*
X30554815Y-12901670D01*
X30502011Y-12947425D01*
X30437246Y-12957921D01*
X30430756Y-12957223D01*
X30372873Y-12951000D01*
X30372865Y-12951000D01*
X29027129Y-12951000D01*
X29027123Y-12951001D01*
X28967515Y-12957409D01*
X28824581Y-13010719D01*
X28754890Y-13015703D01*
X28693567Y-12982217D01*
X28660083Y-12920894D01*
X28657249Y-12894537D01*
X28657249Y-12493347D01*
X28676934Y-12426308D01*
X28693568Y-12405666D01*
X29062416Y-12036818D01*
X29123739Y-12003333D01*
X29150097Y-12000499D01*
X29697871Y-12000499D01*
X29697872Y-12000499D01*
X29757483Y-11994091D01*
X29892331Y-11943796D01*
X30007546Y-11857546D01*
X30093796Y-11742331D01*
X30144091Y-11607483D01*
X30150500Y-11547873D01*
X30150500Y-11524500D01*
X30170185Y-11457461D01*
X30222989Y-11411706D01*
X30274500Y-11400500D01*
X34399903Y-11400500D01*
X34466942Y-11420185D01*
G37*
%TD.AperFunction*%
%TA.AperFunction,Conductor*%
G36*
X39775000Y-9977365D02*
G01*
X39780005Y-9981640D01*
X39818197Y-10040147D01*
X39818695Y-10110015D01*
X39787153Y-10163610D01*
X37787584Y-12163181D01*
X37726261Y-12196666D01*
X37699903Y-12199500D01*
X36924500Y-12199500D01*
X36857461Y-12179815D01*
X36811706Y-12127011D01*
X36800500Y-12075500D01*
X36800500Y-12021155D01*
X36800499Y-12021153D01*
X36795116Y-11994091D01*
X36769737Y-11866503D01*
X36769735Y-11866498D01*
X36709397Y-11720827D01*
X36709390Y-11720814D01*
X36621789Y-11589711D01*
X36621786Y-11589707D01*
X36510292Y-11478213D01*
X36510288Y-11478210D01*
X36379185Y-11390609D01*
X36379172Y-11390602D01*
X36233501Y-11330264D01*
X36233491Y-11330261D01*
X36078151Y-11299362D01*
X36016241Y-11266977D01*
X36014662Y-11265426D01*
X35726747Y-10977511D01*
X35383164Y-10633929D01*
X35373169Y-10615625D01*
X35359176Y-10600155D01*
X35356761Y-10585575D01*
X35349680Y-10572607D01*
X35351167Y-10551801D01*
X35347760Y-10531225D01*
X35353609Y-10517656D01*
X35354664Y-10502916D01*
X35367164Y-10486217D01*
X35375422Y-10467064D01*
X35387679Y-10458811D01*
X35396535Y-10446982D01*
X35416078Y-10439692D01*
X35433381Y-10428044D01*
X35457179Y-10424362D01*
X35462000Y-10422565D01*
X35468201Y-10422277D01*
X35469492Y-10422249D01*
X35647872Y-10422249D01*
X35692042Y-10417500D01*
X35697356Y-10417387D01*
X35699880Y-10418070D01*
X35713252Y-10418070D01*
X35752127Y-10422250D01*
X36147872Y-10422249D01*
X36147873Y-10422248D01*
X36147885Y-10422248D01*
X36186744Y-10418070D01*
X36213252Y-10418070D01*
X36252127Y-10422250D01*
X36647872Y-10422249D01*
X36647873Y-10422248D01*
X36647885Y-10422248D01*
X36686744Y-10418070D01*
X36713252Y-10418070D01*
X36752127Y-10422250D01*
X37147872Y-10422249D01*
X37199537Y-10416695D01*
X37230430Y-10417246D01*
X37300000Y-10427250D01*
X37300003Y-10427250D01*
X37900000Y-10427250D01*
X37971940Y-10422105D01*
X37977530Y-10420463D01*
X38030114Y-10416701D01*
X38100003Y-10426750D01*
X38700000Y-10426750D01*
X38700002Y-10426749D01*
X38771870Y-10421609D01*
X38909781Y-10381115D01*
X39030703Y-10303404D01*
X39124832Y-10194773D01*
X39124833Y-10194772D01*
X39188229Y-10055957D01*
X39191607Y-10057499D01*
X39219730Y-10013521D01*
X39247727Y-10000658D01*
X39275000Y-9977364D01*
X39275000Y-9218936D01*
X39279394Y-9223330D01*
X39370606Y-9275991D01*
X39472339Y-9303250D01*
X39577661Y-9303250D01*
X39679394Y-9275991D01*
X39770606Y-9223330D01*
X39775000Y-9218936D01*
X39775000Y-9977365D01*
G37*
%TD.AperFunction*%
%TA.AperFunction,Conductor*%
G36*
X48236832Y-10247758D02*
G01*
X48292766Y-10289629D01*
X48317184Y-10355093D01*
X48317500Y-10363940D01*
X48317500Y-11004620D01*
X48317501Y-11004626D01*
X48323908Y-11064233D01*
X48374202Y-11199078D01*
X48374204Y-11199081D01*
X48450642Y-11301189D01*
X48475060Y-11366653D01*
X48460209Y-11434926D01*
X48410804Y-11484332D01*
X48351376Y-11499500D01*
X46700098Y-11499500D01*
X46670654Y-11490854D01*
X46640672Y-11484332D01*
X46635656Y-11480577D01*
X46633059Y-11479815D01*
X46612421Y-11463185D01*
X46514915Y-11365679D01*
X46481432Y-11304360D01*
X46486416Y-11234668D01*
X46528287Y-11178734D01*
X46593751Y-11154317D01*
X46602598Y-11154001D01*
X46725554Y-11154001D01*
X46725557Y-11154001D01*
X46878285Y-11113077D01*
X46928404Y-11084139D01*
X47015216Y-11034020D01*
X47127020Y-10922216D01*
X47127020Y-10922214D01*
X47137228Y-10912007D01*
X47137229Y-10912004D01*
X47512416Y-10536819D01*
X47573739Y-10503334D01*
X47600097Y-10500500D01*
X47628844Y-10500500D01*
X47628845Y-10500499D01*
X47783497Y-10469737D01*
X47902453Y-10420464D01*
X47929172Y-10409397D01*
X47929172Y-10409396D01*
X47929179Y-10409394D01*
X48060289Y-10321789D01*
X48105818Y-10276260D01*
X48167141Y-10242774D01*
X48236832Y-10247758D01*
G37*
%TD.AperFunction*%
%TA.AperFunction,Conductor*%
G36*
X40830203Y-8120134D02*
G01*
X40848266Y-8139536D01*
X40885702Y-8189544D01*
X40885705Y-8189547D01*
X41000914Y-8275793D01*
X41000921Y-8275797D01*
X41034699Y-8288395D01*
X41135767Y-8326091D01*
X41195377Y-8332500D01*
X41318903Y-8332499D01*
X41385941Y-8352183D01*
X41431696Y-8404987D01*
X41441640Y-8474145D01*
X41412616Y-8537701D01*
X41406583Y-8544180D01*
X40831633Y-9119130D01*
X40770310Y-9152615D01*
X40700618Y-9147631D01*
X40644685Y-9105759D01*
X40620268Y-9040295D01*
X40621479Y-9012051D01*
X40625000Y-8989820D01*
X40625000Y-8753250D01*
X39925000Y-8753250D01*
X39925000Y-8253250D01*
X40625000Y-8253250D01*
X40625000Y-8213847D01*
X40644685Y-8146808D01*
X40697489Y-8101053D01*
X40766647Y-8091109D01*
X40830203Y-8120134D01*
G37*
%TD.AperFunction*%
%TA.AperFunction,Conductor*%
G36*
X36343942Y-7042935D02*
G01*
X36389697Y-7095739D01*
X36399641Y-7164897D01*
X36370616Y-7228453D01*
X36364589Y-7234924D01*
X36219199Y-7380315D01*
X36081286Y-7518228D01*
X35969481Y-7630032D01*
X35969477Y-7630037D01*
X35944746Y-7672876D01*
X35943198Y-7675557D01*
X35927209Y-7703250D01*
X35890423Y-7766964D01*
X35886081Y-7783170D01*
X35849499Y-7919693D01*
X35849499Y-7919695D01*
X35849499Y-7999398D01*
X35848852Y-8001600D01*
X35849420Y-8003825D01*
X35839053Y-8034970D01*
X35829814Y-8066437D01*
X35828080Y-8067939D01*
X35827355Y-8070119D01*
X35801791Y-8090718D01*
X35777010Y-8112192D01*
X35774180Y-8112968D01*
X35772951Y-8113959D01*
X35738753Y-8122688D01*
X35713256Y-8125429D01*
X35686748Y-8125429D01*
X35647874Y-8121250D01*
X35252130Y-8121250D01*
X35252119Y-8121251D01*
X35213253Y-8125429D01*
X35186748Y-8125429D01*
X35147874Y-8121250D01*
X34752130Y-8121250D01*
X34752119Y-8121251D01*
X34713253Y-8125429D01*
X34686748Y-8125429D01*
X34647874Y-8121250D01*
X34252130Y-8121250D01*
X34252119Y-8121251D01*
X34213503Y-8125402D01*
X34186995Y-8125401D01*
X34161243Y-8122632D01*
X34096692Y-8095893D01*
X34056845Y-8038500D01*
X34050500Y-7999343D01*
X34050500Y-7398847D01*
X34070185Y-7331808D01*
X34086819Y-7311166D01*
X34338416Y-7059569D01*
X34399739Y-7026084D01*
X34426097Y-7023250D01*
X36276903Y-7023250D01*
X36343942Y-7042935D01*
G37*
%TD.AperFunction*%
%TA.AperFunction,Conductor*%
G36*
X49392539Y-4570185D02*
G01*
X49438294Y-4622989D01*
X49449500Y-4674500D01*
X49449500Y-5669847D01*
X49449500Y-5669856D01*
X49449501Y-5672872D01*
X49455909Y-5732483D01*
X49455941Y-5732569D01*
X49456482Y-5737834D01*
X49450168Y-5771897D01*
X49444014Y-5806006D01*
X49443805Y-5806230D01*
X49443749Y-5806534D01*
X49419983Y-5831815D01*
X49396403Y-5857143D01*
X49396097Y-5857226D01*
X49395894Y-5857443D01*
X49389261Y-5859102D01*
X49333131Y-5874500D01*
X48952130Y-5874500D01*
X48952123Y-5874501D01*
X48892516Y-5880908D01*
X48757671Y-5931202D01*
X48757664Y-5931206D01*
X48642455Y-6017452D01*
X48642452Y-6017455D01*
X48550888Y-6139769D01*
X48548618Y-6138070D01*
X48509420Y-6177264D01*
X48441146Y-6192111D01*
X48375683Y-6167690D01*
X48350554Y-6138689D01*
X48349112Y-6139769D01*
X48257547Y-6017455D01*
X48257544Y-6017452D01*
X48142335Y-5931206D01*
X48142328Y-5931202D01*
X48007482Y-5880908D01*
X48007483Y-5880908D01*
X47947883Y-5874501D01*
X47947881Y-5874500D01*
X47947873Y-5874500D01*
X47947865Y-5874500D01*
X47566868Y-5874500D01*
X47499829Y-5854815D01*
X47454074Y-5802011D01*
X47443579Y-5737244D01*
X47445461Y-5719737D01*
X47450500Y-5672873D01*
X47450499Y-4674499D01*
X47470183Y-4607461D01*
X47522987Y-4561706D01*
X47574499Y-4550500D01*
X49325500Y-4550500D01*
X49392539Y-4570185D01*
G37*
%TD.AperFunction*%
%TD*%
M02*
