%TF.GenerationSoftware,KiCad,Pcbnew,9.0.6*%
%TF.CreationDate,2025-12-28T15:40:13+00:00*%
%TF.ProjectId,ProPrj_SaturnAdapter_2025-11-23,50726f50-726a-45f5-9361-7475726e4164,rev?*%
%TF.SameCoordinates,Original*%
%TF.FileFunction,Soldermask,Top*%
%TF.FilePolarity,Negative*%
%FSLAX46Y46*%
G04 Gerber Fmt 4.6, Leading zero omitted, Abs format (unit mm)*
G04 Created by KiCad (PCBNEW 9.0.6) date 2025-12-28 15:40:13*
%MOMM*%
%LPD*%
G01*
G04 APERTURE LIST*
G04 Aperture macros list*
%AMFreePoly0*
4,1,5,0.300000,-0.650000,-0.300000,-0.650000,-0.300000,0.650000,0.300000,0.650000,0.300000,-0.650000,0.300000,-0.650000,$1*%
%AMFreePoly1*
4,1,5,0.299500,-0.650000,-0.300500,-0.650000,-0.300500,0.650000,0.299500,0.650000,0.299500,-0.650000,0.299500,-0.650000,$1*%
G04 Aperture macros list end*
%ADD10R,1.250000X0.700000*%
%ADD11R,0.864000X0.806500*%
%ADD12R,0.806500X0.864000*%
%ADD13R,1.200000X1.400000*%
%ADD14O,2.500000X1.800000*%
%ADD15R,0.700000X1.250000*%
%ADD16R,1.200000X2.000000*%
%ADD17R,2.000000X1.200000*%
%ADD18C,1.600000*%
%ADD19C,4.200000*%
%ADD20O,1.200000X2.000000*%
%ADD21O,1.200000X1.800000*%
%ADD22FreePoly0,180.000000*%
%ADD23R,0.300000X1.300000*%
%ADD24FreePoly1,180.000000*%
%ADD25R,0.700000X1.500000*%
%ADD26R,1.000000X0.800000*%
G04 APERTURE END LIST*
D10*
%TO.C,Q3*%
X31700000Y-14751500D03*
X31700000Y-12851500D03*
X29700000Y-13801500D03*
%TD*%
D11*
%TO.C,R7*%
X33500000Y-17553500D03*
X33500000Y-16046500D03*
%TD*%
D12*
%TO.C,R8*%
X27853500Y-19100000D03*
X26346500Y-19100000D03*
%TD*%
D13*
%TO.C,C2*%
X44450000Y-3000000D03*
X41750000Y-3000000D03*
%TD*%
D11*
%TO.C,R14*%
X33400000Y-25453500D03*
X33400000Y-23946500D03*
%TD*%
D10*
%TO.C,Q4*%
X31700000Y-18300000D03*
X31700000Y-16400000D03*
X29700000Y-17350000D03*
%TD*%
D14*
%TO.C,U2*%
X24003000Y-10798000D03*
X24003000Y-12861000D03*
X24003000Y-14924000D03*
X24003000Y-16987000D03*
X24003000Y-19050000D03*
X24003000Y-21113000D03*
X24003000Y-23176000D03*
X24003000Y-25239000D03*
X24003000Y-27302000D03*
%TD*%
D12*
%TO.C,R13*%
X27853500Y-21100000D03*
X26346500Y-21100000D03*
%TD*%
D15*
%TO.C,Q1*%
X45650000Y-7000000D03*
X47550000Y-7000000D03*
X46600000Y-5000000D03*
%TD*%
D11*
%TO.C,R12*%
X33400000Y-28600000D03*
X33400000Y-27093000D03*
%TD*%
D15*
%TO.C,Q2*%
X49350000Y-7000000D03*
X51250000Y-7000000D03*
X50300000Y-5000000D03*
%TD*%
D12*
%TO.C,R16*%
X43153500Y-7400000D03*
X41646500Y-7400000D03*
%TD*%
%TO.C,R2*%
X27753500Y-12900000D03*
X26246500Y-12900000D03*
%TD*%
D16*
%TO.C,U3*%
X60489000Y-31233000D03*
X57949000Y-31233000D03*
X55409000Y-31233000D03*
X52869000Y-31233000D03*
X50329000Y-31233000D03*
X47789000Y-31233000D03*
X45249000Y-31233000D03*
X42709000Y-31233000D03*
X40169000Y-31233000D03*
D17*
X39079000Y-27813000D03*
X39079000Y-25273000D03*
X39079000Y-22733000D03*
X39079000Y-20193000D03*
X39079000Y-17653000D03*
D16*
X40169000Y-14233000D03*
X42709000Y-14233000D03*
X45249000Y-14233000D03*
X47789000Y-14233000D03*
X50329000Y-14233000D03*
X52869000Y-14233000D03*
X55409000Y-14233000D03*
X57949000Y-14233000D03*
X60489000Y-14233000D03*
%TD*%
D12*
%TO.C,R11*%
X27753500Y-23200000D03*
X26246500Y-23200000D03*
%TD*%
D18*
%TO.C,CN1*%
X18184000Y-11986000D03*
X18184000Y-14756000D03*
X18184000Y-17526000D03*
X18184000Y-20296000D03*
X18184000Y-23066000D03*
X15344000Y-13371000D03*
X15344000Y-16141000D03*
X15344000Y-18911000D03*
X15344000Y-21681000D03*
D19*
X16764000Y-30026000D03*
X16764000Y-5026000D03*
%TD*%
D11*
%TO.C,R3*%
X49250000Y-9046500D03*
X49250000Y-10553500D03*
%TD*%
D13*
%TO.C,C1*%
X29050000Y-10800000D03*
X26350000Y-10800000D03*
%TD*%
D10*
%TO.C,Q5*%
X31600000Y-32328000D03*
X31600000Y-30428000D03*
X29600000Y-31378000D03*
%TD*%
D12*
%TO.C,R15*%
X43153500Y-5900000D03*
X41646500Y-5900000D03*
%TD*%
D10*
%TO.C,Q6*%
X31600000Y-28772000D03*
X31600000Y-26872000D03*
X29600000Y-27822000D03*
%TD*%
D12*
%TO.C,R6*%
X27853500Y-17000000D03*
X26346500Y-17000000D03*
%TD*%
D20*
%TO.C,USB-1*%
X30875000Y-8503250D03*
D21*
X30875000Y-4323750D03*
X39525000Y-4323750D03*
D20*
X39525000Y-8503250D03*
D22*
X38400000Y-9271750D03*
X37600000Y-9271750D03*
D23*
X36450000Y-9271750D03*
X35450000Y-9271750D03*
X34950000Y-9271750D03*
X33950500Y-9271750D03*
D22*
X32000000Y-9271750D03*
D24*
X32799500Y-9271750D03*
D23*
X33450000Y-9271750D03*
X34450000Y-9271750D03*
X35950000Y-9271750D03*
X36950000Y-9271750D03*
%TD*%
D11*
%TO.C,R5*%
X33500000Y-14553500D03*
X33500000Y-13046500D03*
%TD*%
D12*
%TO.C,R9*%
X27853500Y-25300000D03*
X26346500Y-25300000D03*
%TD*%
D10*
%TO.C,Q7*%
X31600000Y-25216000D03*
X31600000Y-23316000D03*
X29600000Y-24266000D03*
%TD*%
D25*
%TO.C,SW1*%
X57800000Y-5650000D03*
X56800000Y-5650000D03*
X55800000Y-5650000D03*
D26*
X59550000Y-4950000D03*
X59550000Y-2750000D03*
X54050000Y-4950000D03*
X54050000Y-2750000D03*
%TD*%
D11*
%TO.C,R10*%
X33400000Y-32200000D03*
X33400000Y-30693000D03*
%TD*%
D12*
%TO.C,R4*%
X27753500Y-14900000D03*
X26246500Y-14900000D03*
%TD*%
D11*
%TO.C,R1*%
X45550000Y-9046500D03*
X45550000Y-10553500D03*
%TD*%
M02*
