%TF.GenerationSoftware,KiCad,Pcbnew,9.0.6*%
%TF.CreationDate,2025-12-28T15:40:13+00:00*%
%TF.ProjectId,ProPrj_SaturnAdapter_2025-11-23,50726f50-726a-45f5-9361-7475726e4164,rev?*%
%TF.SameCoordinates,Original*%
%TF.FileFunction,Copper,L2,Bot*%
%TF.FilePolarity,Positive*%
%FSLAX46Y46*%
G04 Gerber Fmt 4.6, Leading zero omitted, Abs format (unit mm)*
G04 Created by KiCad (PCBNEW 9.0.6) date 2025-12-28 15:40:13*
%MOMM*%
%LPD*%
G01*
G04 APERTURE LIST*
%TA.AperFunction,ComponentPad*%
%ADD10O,2.500000X1.800000*%
%TD*%
%TA.AperFunction,ComponentPad*%
%ADD11C,1.600000*%
%TD*%
%TA.AperFunction,ComponentPad*%
%ADD12C,4.200000*%
%TD*%
%TA.AperFunction,ComponentPad*%
%ADD13O,1.200000X2.000000*%
%TD*%
%TA.AperFunction,ComponentPad*%
%ADD14O,1.200000X1.800000*%
%TD*%
%TA.AperFunction,ViaPad*%
%ADD15C,0.600000*%
%TD*%
%TA.AperFunction,ViaPad*%
%ADD16C,0.610000*%
%TD*%
%TA.AperFunction,Conductor*%
%ADD17C,0.200000*%
%TD*%
%TA.AperFunction,Conductor*%
%ADD18C,0.254000*%
%TD*%
G04 APERTURE END LIST*
D10*
%TO.P,U2,1*%
%TO.N,C+5V*%
X24003000Y-10798000D03*
%TO.P,U2,2*%
%TO.N,D1*%
X24003000Y-12861000D03*
%TO.P,U2,3*%
%TO.N,D0*%
X24003000Y-14924000D03*
%TO.P,U2,4*%
%TO.N,TH*%
X24003000Y-16987000D03*
%TO.P,U2,5*%
%TO.N,TR*%
X24003000Y-19050000D03*
%TO.P,U2,6*%
%TO.N,TL*%
X24003000Y-21113000D03*
%TO.P,U2,7*%
%TO.N,D3*%
X24003000Y-23176000D03*
%TO.P,U2,8*%
%TO.N,D2*%
X24003000Y-25239000D03*
%TO.P,U2,9*%
%TO.N,GND*%
X24003000Y-27302000D03*
%TD*%
D11*
%TO.P,CN1,1*%
%TO.N,D0*%
X18184000Y-11986000D03*
%TO.P,CN1,2*%
%TO.N,D1*%
X18184000Y-14756000D03*
%TO.P,CN1,3*%
%TO.N,D2*%
X18184000Y-17526000D03*
%TO.P,CN1,4*%
%TO.N,D3*%
X18184000Y-20296000D03*
%TO.P,CN1,5*%
%TO.N,C+5V*%
X18184000Y-23066000D03*
%TO.P,CN1,6*%
%TO.N,TL*%
X15344000Y-13371000D03*
%TO.P,CN1,7*%
%TO.N,TH*%
X15344000Y-16141000D03*
%TO.P,CN1,8*%
%TO.N,GND*%
X15344000Y-18911000D03*
%TO.P,CN1,9*%
%TO.N,TR*%
X15344000Y-21681000D03*
D12*
%TO.P,CN1,10*%
%TO.N,GND*%
X16764000Y-30026000D03*
%TO.P,CN1,11*%
X16764000Y-5026000D03*
%TD*%
D13*
%TO.P,USB-1,1*%
%TO.N,GND*%
X30875000Y-8503250D03*
D14*
%TO.P,USB-1,2*%
X30875000Y-4323750D03*
%TO.P,USB-1,3*%
X39525000Y-4323750D03*
D13*
%TO.P,USB-1,4*%
X39525000Y-8503250D03*
%TD*%
D15*
%TO.N,LO_D0*%
X51250000Y-7000000D03*
X51218671Y-10080721D03*
%TO.N,D0*%
X50300000Y-5000000D03*
X26246500Y-14900000D03*
%TO.N,LO_D1*%
X47550000Y-9700000D03*
X47550000Y-7000000D03*
%TO.N,D1*%
X26246500Y-12900000D03*
X46600000Y-5000000D03*
%TO.N,LO_D2*%
X47800000Y-14400000D03*
X37200000Y-30600000D03*
D16*
%TO.N,D2*%
X29600000Y-31378000D03*
D15*
X26346500Y-25300000D03*
X21200000Y-19000000D03*
X21200000Y-20900000D03*
%TO.N,LO_D3*%
X37300000Y-27100000D03*
X45200000Y-14400000D03*
%TO.N,D3*%
X29600000Y-27822000D03*
X26246500Y-23200000D03*
%TO.N,LO_TL*%
X42700000Y-14300000D03*
X37400000Y-23500000D03*
%TO.N,TL*%
X21900000Y-17200000D03*
D16*
X29600000Y-24266000D03*
D15*
X26346500Y-21100000D03*
%TO.N,LO_TR*%
X40100000Y-14300000D03*
X33500000Y-16046500D03*
%TO.N,TR*%
X26346500Y-19100000D03*
X29000000Y-19100000D03*
%TO.N,TH*%
X29000000Y-15600000D03*
X26346500Y-17000000D03*
D16*
%TO.N,VCC*%
X31600000Y-32328000D03*
D15*
X31700000Y-14751500D03*
X31700000Y-18300000D03*
D16*
X31600000Y-25216000D03*
X31600000Y-28772000D03*
D15*
X35200000Y-12800000D03*
%TO.N,GND*%
X31800000Y-11600000D03*
X48450000Y-5000000D03*
X19400000Y-19000000D03*
X29200000Y-26052000D03*
X51900000Y-10500000D03*
X21100000Y-16200000D03*
X47500000Y-10600000D03*
X28658000Y-29652000D03*
X30089250Y-15900000D03*
X28658000Y-22452000D03*
X35225000Y-7923750D03*
X21200000Y-14700000D03*
X30400000Y-18800000D03*
X36200000Y-25600000D03*
%TO.N,C+5V*%
X29050000Y-10800000D03*
X36000000Y-12100000D03*
X20100000Y-12700000D03*
X20100000Y-14400000D03*
X20100000Y-22000000D03*
X55800000Y-9800000D03*
X20100000Y-16200000D03*
%TO.N,EXT5V*%
X32799500Y-9271750D03*
X52650000Y-4950000D03*
X44450000Y-3000000D03*
X57800000Y-5650000D03*
X37600000Y-9271750D03*
%TD*%
D17*
%TO.N,LO_D0*%
X51250000Y-10049392D02*
X51218671Y-10080721D01*
X51250000Y-7000000D02*
X51250000Y-10049392D01*
D18*
%TO.N,D0*%
X33272000Y-11228000D02*
X47760127Y-11228000D01*
X47760127Y-11228000D02*
X50300000Y-8688127D01*
X50300000Y-8688127D02*
X50300000Y-5000000D01*
X24003000Y-14924000D02*
X25098500Y-14924000D01*
X29600000Y-14900000D02*
X33272000Y-11228000D01*
X18184000Y-11986000D02*
X18644500Y-11986000D01*
X26246500Y-14900000D02*
X29600000Y-14900000D01*
D17*
%TO.N,LO_D1*%
X47550000Y-7000000D02*
X47550000Y-9700000D01*
%TO.N,D1*%
X18184000Y-14616000D02*
X19500000Y-13300000D01*
X40900000Y-10700000D02*
X31850000Y-10700000D01*
X29650000Y-12900000D02*
X26246500Y-12900000D01*
X18184000Y-14756000D02*
X18184000Y-14616000D01*
X23564000Y-13300000D02*
X24003000Y-12861000D01*
X46600000Y-5000000D02*
X40900000Y-10700000D01*
X19500000Y-13300000D02*
X23564000Y-13300000D01*
D18*
X24003000Y-12861000D02*
X25139000Y-12861000D01*
D17*
X31850000Y-10700000D02*
X29650000Y-12900000D01*
%TO.N,LO_D2*%
X40200000Y-16800000D02*
X41000000Y-16000000D01*
X46200000Y-16000000D02*
X47800000Y-14400000D01*
X41000000Y-16000000D02*
X46200000Y-16000000D01*
X40200000Y-24400000D02*
X40200000Y-16800000D01*
X40200000Y-27600000D02*
X40200000Y-24400000D01*
X37200000Y-30600000D02*
X40200000Y-27600000D01*
%TO.N,D2*%
X24003000Y-25239000D02*
X25039000Y-25239000D01*
X21200000Y-18300000D02*
X21200000Y-19000000D01*
D18*
X26346500Y-25300000D02*
X26346500Y-30646500D01*
D17*
X18184000Y-17526000D02*
X20426000Y-17526000D01*
X24003000Y-25239000D02*
X21939000Y-25239000D01*
D18*
X24353000Y-25239000D02*
X24003000Y-25239000D01*
D17*
X21200000Y-24500000D02*
X21200000Y-20900000D01*
X21939000Y-25239000D02*
X21200000Y-24500000D01*
X20426000Y-17526000D02*
X21200000Y-18300000D01*
D18*
X27102500Y-31402500D02*
X29500000Y-31402500D01*
X24003000Y-25239000D02*
X23787767Y-25239000D01*
X26346500Y-30646500D02*
X27102500Y-31402500D01*
D17*
%TO.N,LO_D3*%
X40800000Y-15500000D02*
X44100000Y-15500000D01*
X39700000Y-25700000D02*
X39700000Y-16600000D01*
X39700000Y-16600000D02*
X40800000Y-15500000D01*
X44100000Y-15500000D02*
X45200000Y-14400000D01*
X38300000Y-27100000D02*
X39700000Y-25700000D01*
X37300000Y-27100000D02*
X38300000Y-27100000D01*
D18*
%TO.N,D3*%
X26246500Y-23200000D02*
X27200000Y-24153500D01*
X18184000Y-20296000D02*
X18596000Y-20296000D01*
X27200000Y-24153500D02*
X27200000Y-25522000D01*
X24003000Y-23176000D02*
X24778000Y-23176000D01*
X27200000Y-25522000D02*
X27300000Y-25522000D01*
X24776000Y-23176000D02*
X24003000Y-23176000D01*
X27300000Y-25522000D02*
X29600000Y-27822000D01*
D17*
%TO.N,LO_TL*%
X39200000Y-16400000D02*
X39200000Y-21700000D01*
X41300000Y-14300000D02*
X42700000Y-14300000D01*
X39200000Y-16400000D02*
X41300000Y-14300000D01*
X37400000Y-23500000D02*
X39200000Y-21700000D01*
%TO.N,TL*%
X17497290Y-16655660D02*
X17727950Y-16425000D01*
X15344000Y-13371000D02*
X15344000Y-14502370D01*
D18*
X29512500Y-24266000D02*
X26346500Y-21100000D01*
X29600000Y-24266000D02*
X29587500Y-24253500D01*
D17*
X21500000Y-16800000D02*
X21900000Y-17200000D01*
X18640050Y-16425000D02*
X19015050Y-16800000D01*
X19015050Y-16800000D02*
X21500000Y-16800000D01*
D18*
X29600000Y-24266000D02*
X29512500Y-24266000D01*
D17*
X17727950Y-16425000D02*
X18640050Y-16425000D01*
X15344000Y-14502370D02*
X17497290Y-16655660D01*
%TO.N,LO_TR*%
X38353500Y-16046500D02*
X33500000Y-16046500D01*
X40100000Y-14300000D02*
X38353500Y-16046500D01*
D18*
%TO.N,TR*%
X22150000Y-19050000D02*
X19519000Y-21681000D01*
X26346500Y-19100000D02*
X29000000Y-19100000D01*
X24003000Y-19050000D02*
X22150000Y-19050000D01*
X19519000Y-21681000D02*
X15344000Y-21681000D01*
%TO.N,TH*%
X26346500Y-17000000D02*
X27746500Y-15600000D01*
X27746500Y-15600000D02*
X29000000Y-15600000D01*
%TO.N,VCC*%
X35200000Y-12800000D02*
X33000000Y-12800000D01*
X31700000Y-14100000D02*
X31700000Y-14751500D01*
X31700000Y-32228000D02*
X31600000Y-32328000D01*
X33000000Y-12800000D02*
X31700000Y-14100000D01*
X31700000Y-14751500D02*
X31700000Y-32228000D01*
D17*
%TO.N,C+5V*%
X24003000Y-10798000D02*
X29048000Y-10798000D01*
X20100000Y-14400000D02*
X20100000Y-16200000D01*
X29048000Y-10798000D02*
X29050000Y-10800000D01*
X20100000Y-12700000D02*
X22002000Y-10798000D01*
X22002000Y-10798000D02*
X24003000Y-10798000D01*
X18184000Y-23066000D02*
X19034000Y-23066000D01*
X36000000Y-12100000D02*
X53800000Y-12100000D01*
X55800000Y-10100000D02*
X55800000Y-9800000D01*
X53800000Y-12100000D02*
X55800000Y-10100000D01*
X19034000Y-23066000D02*
X20100000Y-22000000D01*
%TO.N,EXT5V*%
X40600000Y-5200000D02*
X39976250Y-5823750D01*
X41275000Y-3000000D02*
X40600000Y-3675000D01*
X57800000Y-5150000D02*
X57600000Y-4950000D01*
X32799500Y-9271750D02*
X32799500Y-8592250D01*
X37300000Y-8971750D02*
X37300000Y-7172278D01*
X37600000Y-9271750D02*
X37300000Y-8971750D01*
X40600000Y-3675000D02*
X40600000Y-5200000D01*
X34325000Y-5823750D02*
X38648528Y-5823750D01*
X39976250Y-5823750D02*
X38648528Y-5823750D01*
X33025000Y-7123750D02*
X34325000Y-5823750D01*
X57600000Y-4950000D02*
X52650000Y-4950000D01*
X44450000Y-3000000D02*
X41275000Y-3000000D01*
X33025000Y-8366750D02*
X33025000Y-7123750D01*
X37300000Y-7172278D02*
X38648528Y-5823750D01*
X32799500Y-8592250D02*
X33025000Y-8366750D01*
X57800000Y-5650000D02*
X57800000Y-5150000D01*
%TD*%
%TA.AperFunction,Conductor*%
%TO.N,GND*%
G36*
X62943039Y-1638185D02*
G01*
X62988794Y-1690989D01*
X63000000Y-1742500D01*
X63000000Y-32976000D01*
X62980315Y-33043039D01*
X62927511Y-33088794D01*
X62876000Y-33100000D01*
X13224000Y-33100000D01*
X13156961Y-33080315D01*
X13111206Y-33027511D01*
X13100000Y-32976000D01*
X13100000Y-29776000D01*
X14175716Y-29776000D01*
X15133029Y-29776000D01*
X15114000Y-29896142D01*
X15114000Y-30155858D01*
X15133029Y-30276000D01*
X14175716Y-30276000D01*
X14196694Y-30462189D01*
X14196696Y-30462201D01*
X14261678Y-30746910D01*
X14261681Y-30746918D01*
X14358129Y-31022548D01*
X14484831Y-31285648D01*
X14640199Y-31532914D01*
X14822274Y-31761230D01*
X15028769Y-31967725D01*
X15257085Y-32149800D01*
X15504351Y-32305168D01*
X15767451Y-32431870D01*
X16043081Y-32528318D01*
X16043089Y-32528321D01*
X16327805Y-32593305D01*
X16327802Y-32593305D01*
X16513999Y-32614283D01*
X16514000Y-32614283D01*
X16514000Y-31656971D01*
X16634142Y-31676000D01*
X16893858Y-31676000D01*
X17014000Y-31656971D01*
X17014000Y-32614283D01*
X17200195Y-32593305D01*
X17484910Y-32528321D01*
X17484918Y-32528318D01*
X17760548Y-32431870D01*
X18023648Y-32305168D01*
X18270914Y-32149800D01*
X18499230Y-31967725D01*
X18705725Y-31761230D01*
X18887800Y-31532914D01*
X19043168Y-31285648D01*
X19169870Y-31022548D01*
X19266318Y-30746918D01*
X19266321Y-30746910D01*
X19331303Y-30462201D01*
X19331305Y-30462189D01*
X19352284Y-30276000D01*
X18394971Y-30276000D01*
X18414000Y-30155858D01*
X18414000Y-29896142D01*
X18394971Y-29776000D01*
X19352284Y-29776000D01*
X19331305Y-29589810D01*
X19331303Y-29589798D01*
X19266321Y-29305089D01*
X19266318Y-29305081D01*
X19169870Y-29029451D01*
X19043168Y-28766351D01*
X18887800Y-28519085D01*
X18705725Y-28290769D01*
X18499230Y-28084274D01*
X18270914Y-27902199D01*
X18023645Y-27746829D01*
X17774104Y-27626657D01*
X17774103Y-27626657D01*
X17760548Y-27620129D01*
X17484918Y-27523681D01*
X17484910Y-27523678D01*
X17200201Y-27458696D01*
X17200189Y-27458694D01*
X17014000Y-27437715D01*
X17014000Y-28395028D01*
X16893858Y-28376000D01*
X16634142Y-28376000D01*
X16514000Y-28395028D01*
X16514000Y-27437715D01*
X16327810Y-27458694D01*
X16327798Y-27458696D01*
X16043089Y-27523678D01*
X16043081Y-27523681D01*
X15767451Y-27620129D01*
X15504351Y-27746831D01*
X15257085Y-27902199D01*
X15028769Y-28084274D01*
X14822274Y-28290769D01*
X14640199Y-28519085D01*
X14484831Y-28766351D01*
X14358129Y-29029451D01*
X14261681Y-29305081D01*
X14261678Y-29305089D01*
X14196696Y-29589798D01*
X14196694Y-29589810D01*
X14175716Y-29776000D01*
X13100000Y-29776000D01*
X13100000Y-18661000D01*
X14067391Y-18661000D01*
X14859026Y-18661000D01*
X14836141Y-18700638D01*
X14799000Y-18839249D01*
X14799000Y-18982751D01*
X14836141Y-19121362D01*
X14859026Y-19161000D01*
X14067391Y-19161000D01*
X14076009Y-19215413D01*
X14139244Y-19410029D01*
X14232140Y-19592349D01*
X14352417Y-19757894D01*
X14352417Y-19757895D01*
X14497104Y-19902582D01*
X14662650Y-20022859D01*
X14844968Y-20115754D01*
X15039578Y-20178988D01*
X15094000Y-20187607D01*
X15094000Y-19395974D01*
X15133638Y-19418859D01*
X15272249Y-19456000D01*
X15415751Y-19456000D01*
X15554362Y-19418859D01*
X15594000Y-19395974D01*
X15594000Y-20187606D01*
X15648421Y-20178988D01*
X15843031Y-20115754D01*
X16025349Y-20022859D01*
X16190894Y-19902582D01*
X16190895Y-19902582D01*
X16335582Y-19757895D01*
X16335582Y-19757894D01*
X16455859Y-19592349D01*
X16548755Y-19410029D01*
X16611990Y-19215413D01*
X16620609Y-19161000D01*
X15828974Y-19161000D01*
X15851859Y-19121362D01*
X15889000Y-18982751D01*
X15889000Y-18839249D01*
X15851859Y-18700638D01*
X15828974Y-18661000D01*
X16620609Y-18661000D01*
X16611990Y-18606586D01*
X16548755Y-18411970D01*
X16455859Y-18229650D01*
X16335582Y-18064105D01*
X16335582Y-18064104D01*
X16190895Y-17919417D01*
X16025349Y-17799140D01*
X15843029Y-17706244D01*
X15648413Y-17643009D01*
X15594000Y-17634390D01*
X15594000Y-18426025D01*
X15554362Y-18403141D01*
X15415751Y-18366000D01*
X15272249Y-18366000D01*
X15133638Y-18403141D01*
X15094000Y-18426025D01*
X15094000Y-17634390D01*
X15039586Y-17643009D01*
X14844970Y-17706244D01*
X14662650Y-17799140D01*
X14497105Y-17919417D01*
X14497104Y-17919417D01*
X14352417Y-18064104D01*
X14352417Y-18064105D01*
X14232140Y-18229650D01*
X14139244Y-18411970D01*
X14076009Y-18606586D01*
X14067391Y-18661000D01*
X13100000Y-18661000D01*
X13100000Y-13469543D01*
X14343499Y-13469543D01*
X14381947Y-13662829D01*
X14381950Y-13662839D01*
X14457364Y-13844907D01*
X14457371Y-13844920D01*
X14566860Y-14008781D01*
X14566863Y-14008785D01*
X14706217Y-14148139D01*
X14834880Y-14234108D01*
X14870086Y-14257632D01*
X14966953Y-14297755D01*
X15021355Y-14341594D01*
X15043421Y-14407888D01*
X15043500Y-14412315D01*
X15043500Y-14541932D01*
X15051691Y-14572500D01*
X15063979Y-14618360D01*
X15063980Y-14618361D01*
X15091657Y-14666299D01*
X15091658Y-14666300D01*
X15103539Y-14686880D01*
X15345478Y-14928819D01*
X15378963Y-14990142D01*
X15373979Y-15059834D01*
X15332107Y-15115767D01*
X15266643Y-15140184D01*
X15257797Y-15140500D01*
X15245457Y-15140500D01*
X15052170Y-15178947D01*
X15052160Y-15178950D01*
X14870092Y-15254364D01*
X14870079Y-15254371D01*
X14706218Y-15363860D01*
X14706214Y-15363863D01*
X14566863Y-15503214D01*
X14566860Y-15503218D01*
X14457371Y-15667079D01*
X14457364Y-15667092D01*
X14381950Y-15849160D01*
X14381947Y-15849170D01*
X14343500Y-16042456D01*
X14343500Y-16042459D01*
X14343500Y-16239541D01*
X14343500Y-16239543D01*
X14343499Y-16239543D01*
X14381947Y-16432829D01*
X14381950Y-16432839D01*
X14457364Y-16614907D01*
X14457371Y-16614920D01*
X14566860Y-16778781D01*
X14566863Y-16778785D01*
X14706214Y-16918136D01*
X14706218Y-16918139D01*
X14870079Y-17027628D01*
X14870092Y-17027635D01*
X15046006Y-17100500D01*
X15052165Y-17103051D01*
X15052169Y-17103051D01*
X15052170Y-17103052D01*
X15245456Y-17141500D01*
X15245459Y-17141500D01*
X15442543Y-17141500D01*
X15572582Y-17115632D01*
X15635835Y-17103051D01*
X15817914Y-17027632D01*
X15981782Y-16918139D01*
X16121139Y-16778782D01*
X16230632Y-16614914D01*
X16306051Y-16432835D01*
X16325150Y-16336819D01*
X16344500Y-16239543D01*
X16344500Y-16227203D01*
X16364185Y-16160164D01*
X16416989Y-16114409D01*
X16486147Y-16104465D01*
X16549703Y-16133490D01*
X16556181Y-16139522D01*
X17294053Y-16877394D01*
X17327538Y-16938717D01*
X17322554Y-17008409D01*
X17309477Y-17033961D01*
X17297374Y-17052075D01*
X17297364Y-17052093D01*
X17221950Y-17234160D01*
X17221947Y-17234170D01*
X17183500Y-17427456D01*
X17183500Y-17427459D01*
X17183500Y-17624541D01*
X17183500Y-17624543D01*
X17183499Y-17624543D01*
X17221947Y-17817829D01*
X17221950Y-17817839D01*
X17297364Y-17999907D01*
X17297371Y-17999920D01*
X17406860Y-18163781D01*
X17406863Y-18163785D01*
X17546214Y-18303136D01*
X17546218Y-18303139D01*
X17710079Y-18412628D01*
X17710092Y-18412635D01*
X17862668Y-18475833D01*
X17892165Y-18488051D01*
X17892169Y-18488051D01*
X17892170Y-18488052D01*
X18085456Y-18526500D01*
X18085459Y-18526500D01*
X18282543Y-18526500D01*
X18412582Y-18500632D01*
X18475835Y-18488051D01*
X18629332Y-18424471D01*
X18657907Y-18412635D01*
X18657907Y-18412634D01*
X18657914Y-18412632D01*
X18821782Y-18303139D01*
X18961139Y-18163782D01*
X19070632Y-17999914D01*
X19100324Y-17928232D01*
X19110755Y-17903048D01*
X19154595Y-17848644D01*
X19220889Y-17826579D01*
X19225316Y-17826500D01*
X20250167Y-17826500D01*
X20317206Y-17846185D01*
X20337848Y-17862819D01*
X20863181Y-18388152D01*
X20877884Y-18415079D01*
X20894477Y-18440898D01*
X20895368Y-18447098D01*
X20896666Y-18449475D01*
X20899500Y-18475833D01*
X20899500Y-18541323D01*
X20879815Y-18608362D01*
X20863182Y-18629004D01*
X20799500Y-18692686D01*
X20733608Y-18806812D01*
X20699500Y-18934108D01*
X20699500Y-19065891D01*
X20733608Y-19193187D01*
X20763891Y-19245638D01*
X20799500Y-19307314D01*
X20892686Y-19400500D01*
X21006814Y-19466392D01*
X21007280Y-19466517D01*
X21007630Y-19466730D01*
X21014318Y-19469500D01*
X21013886Y-19470542D01*
X21066941Y-19502879D01*
X21097472Y-19565724D01*
X21089180Y-19635100D01*
X21062871Y-19673973D01*
X19419664Y-21317181D01*
X19358341Y-21350666D01*
X19331983Y-21353500D01*
X18810966Y-21353500D01*
X18743927Y-21333815D01*
X18698172Y-21281011D01*
X18688228Y-21211853D01*
X18717253Y-21148297D01*
X18742075Y-21126398D01*
X18791778Y-21093187D01*
X18821782Y-21073139D01*
X18961139Y-20933782D01*
X19070632Y-20769914D01*
X19146051Y-20587835D01*
X19181987Y-20407174D01*
X19184500Y-20394543D01*
X19184500Y-20197456D01*
X19146052Y-20004170D01*
X19146051Y-20004169D01*
X19146051Y-20004165D01*
X19146049Y-20004160D01*
X19070635Y-19822092D01*
X19070628Y-19822079D01*
X18961139Y-19658218D01*
X18961136Y-19658214D01*
X18821785Y-19518863D01*
X18821781Y-19518860D01*
X18657920Y-19409371D01*
X18657907Y-19409364D01*
X18475839Y-19333950D01*
X18475829Y-19333947D01*
X18282543Y-19295500D01*
X18282541Y-19295500D01*
X18085459Y-19295500D01*
X18085457Y-19295500D01*
X17892170Y-19333947D01*
X17892160Y-19333950D01*
X17710092Y-19409364D01*
X17710079Y-19409371D01*
X17546218Y-19518860D01*
X17546214Y-19518863D01*
X17406863Y-19658214D01*
X17406860Y-19658218D01*
X17297371Y-19822079D01*
X17297364Y-19822092D01*
X17221950Y-20004160D01*
X17221947Y-20004170D01*
X17183500Y-20197456D01*
X17183500Y-20197459D01*
X17183500Y-20394541D01*
X17183500Y-20394543D01*
X17183499Y-20394543D01*
X17221947Y-20587829D01*
X17221950Y-20587839D01*
X17297364Y-20769907D01*
X17297371Y-20769920D01*
X17406860Y-20933781D01*
X17406863Y-20933785D01*
X17546214Y-21073136D01*
X17546218Y-21073139D01*
X17625925Y-21126398D01*
X17670730Y-21180010D01*
X17679437Y-21249335D01*
X17649283Y-21312363D01*
X17589839Y-21349082D01*
X17557034Y-21353500D01*
X16374132Y-21353500D01*
X16307093Y-21333815D01*
X16261338Y-21281011D01*
X16259571Y-21276952D01*
X16230635Y-21207093D01*
X16230634Y-21207092D01*
X16230632Y-21207086D01*
X16212553Y-21180029D01*
X16121139Y-21043217D01*
X15981785Y-20903863D01*
X15981781Y-20903860D01*
X15817920Y-20794371D01*
X15817907Y-20794364D01*
X15635839Y-20718950D01*
X15635829Y-20718947D01*
X15442543Y-20680500D01*
X15442541Y-20680500D01*
X15245459Y-20680500D01*
X15245457Y-20680500D01*
X15052170Y-20718947D01*
X15052160Y-20718950D01*
X14870092Y-20794364D01*
X14870079Y-20794371D01*
X14706218Y-20903860D01*
X14706214Y-20903863D01*
X14566863Y-21043214D01*
X14566860Y-21043218D01*
X14457371Y-21207079D01*
X14457364Y-21207092D01*
X14381950Y-21389160D01*
X14381947Y-21389170D01*
X14343500Y-21582456D01*
X14343500Y-21582459D01*
X14343500Y-21779541D01*
X14343500Y-21779543D01*
X14343499Y-21779543D01*
X14381947Y-21972829D01*
X14381950Y-21972839D01*
X14457364Y-22154907D01*
X14457371Y-22154920D01*
X14566860Y-22318781D01*
X14566863Y-22318785D01*
X14706214Y-22458136D01*
X14706218Y-22458139D01*
X14870079Y-22567628D01*
X14870092Y-22567635D01*
X15052160Y-22643049D01*
X15052165Y-22643051D01*
X15052169Y-22643051D01*
X15052170Y-22643052D01*
X15245456Y-22681500D01*
X15245459Y-22681500D01*
X15442543Y-22681500D01*
X15572582Y-22655632D01*
X15635835Y-22643051D01*
X15817914Y-22567632D01*
X15981782Y-22458139D01*
X16121139Y-22318782D01*
X16230632Y-22154914D01*
X16259571Y-22085047D01*
X16303411Y-22030644D01*
X16369705Y-22008579D01*
X16374132Y-22008500D01*
X17557034Y-22008500D01*
X17624073Y-22028185D01*
X17669828Y-22080989D01*
X17679772Y-22150147D01*
X17650747Y-22213703D01*
X17625925Y-22235602D01*
X17546218Y-22288860D01*
X17546214Y-22288863D01*
X17406863Y-22428214D01*
X17406860Y-22428218D01*
X17297371Y-22592079D01*
X17297364Y-22592092D01*
X17221950Y-22774160D01*
X17221947Y-22774170D01*
X17183500Y-22967456D01*
X17183500Y-22967459D01*
X17183500Y-23164541D01*
X17183500Y-23164543D01*
X17183499Y-23164543D01*
X17221947Y-23357829D01*
X17221950Y-23357839D01*
X17297364Y-23539907D01*
X17297371Y-23539920D01*
X17406860Y-23703781D01*
X17406863Y-23703785D01*
X17546214Y-23843136D01*
X17546218Y-23843139D01*
X17710079Y-23952628D01*
X17710092Y-23952635D01*
X17889845Y-24027090D01*
X17892165Y-24028051D01*
X17892169Y-24028051D01*
X17892170Y-24028052D01*
X18085456Y-24066500D01*
X18085459Y-24066500D01*
X18282543Y-24066500D01*
X18412582Y-24040632D01*
X18475835Y-24028051D01*
X18657914Y-23952632D01*
X18821782Y-23843139D01*
X18961139Y-23703782D01*
X19070632Y-23539914D01*
X19084135Y-23507316D01*
X19135137Y-23384184D01*
X19178977Y-23329780D01*
X19187682Y-23324258D01*
X19218511Y-23306460D01*
X19274460Y-23250511D01*
X19988151Y-22536818D01*
X20049474Y-22503334D01*
X20075832Y-22500500D01*
X20165890Y-22500500D01*
X20165892Y-22500500D01*
X20293186Y-22466392D01*
X20407314Y-22400500D01*
X20500500Y-22307314D01*
X20566392Y-22193186D01*
X20600500Y-22065892D01*
X20600500Y-21934108D01*
X20566392Y-21806814D01*
X20500500Y-21692686D01*
X20407314Y-21599500D01*
X20329391Y-21554511D01*
X20281176Y-21503943D01*
X20267954Y-21435336D01*
X20293922Y-21370472D01*
X20303703Y-21359451D01*
X20559445Y-21103709D01*
X20620766Y-21070226D01*
X20690458Y-21075210D01*
X20746391Y-21117082D01*
X20754511Y-21129391D01*
X20799500Y-21207314D01*
X20799502Y-21207316D01*
X20863181Y-21270995D01*
X20896666Y-21332318D01*
X20899500Y-21358676D01*
X20899500Y-24539562D01*
X20909366Y-24576380D01*
X20919979Y-24615991D01*
X20919981Y-24615994D01*
X20946664Y-24662209D01*
X20946664Y-24662212D01*
X20946666Y-24662212D01*
X20959540Y-24684511D01*
X21698540Y-25423511D01*
X21754489Y-25479460D01*
X21754491Y-25479461D01*
X21754495Y-25479464D01*
X21784351Y-25496701D01*
X21823011Y-25519021D01*
X21899438Y-25539500D01*
X21978562Y-25539500D01*
X22503413Y-25539500D01*
X22570452Y-25559185D01*
X22616207Y-25611989D01*
X22621343Y-25625180D01*
X22633126Y-25661445D01*
X22668911Y-25731676D01*
X22711768Y-25815788D01*
X22813586Y-25955928D01*
X22841499Y-25983841D01*
X22841503Y-25983845D01*
X22874987Y-26045169D01*
X22870001Y-26114860D01*
X22828129Y-26170793D01*
X22826706Y-26171843D01*
X22740958Y-26234142D01*
X22585142Y-26389958D01*
X22455613Y-26568239D01*
X22355567Y-26764589D01*
X22287473Y-26974161D01*
X22287473Y-26974164D01*
X22275145Y-27052000D01*
X23294759Y-27052000D01*
X23281822Y-27083233D01*
X23253000Y-27228131D01*
X23253000Y-27375869D01*
X23281822Y-27520767D01*
X23294759Y-27552000D01*
X22275145Y-27552000D01*
X22287473Y-27629835D01*
X22287473Y-27629838D01*
X22355567Y-27839410D01*
X22455613Y-28035760D01*
X22585142Y-28214041D01*
X22740958Y-28369857D01*
X22919239Y-28499386D01*
X23115589Y-28599432D01*
X23325164Y-28667526D01*
X23542819Y-28702000D01*
X23753000Y-28702000D01*
X23753000Y-28010240D01*
X23784233Y-28023178D01*
X23929131Y-28052000D01*
X24076869Y-28052000D01*
X24221767Y-28023178D01*
X24253000Y-28010240D01*
X24253000Y-28702000D01*
X24463181Y-28702000D01*
X24680835Y-28667526D01*
X24890410Y-28599432D01*
X25086760Y-28499386D01*
X25265041Y-28369857D01*
X25420857Y-28214041D01*
X25550386Y-28035760D01*
X25650432Y-27839410D01*
X25718526Y-27629838D01*
X25718526Y-27629835D01*
X25730855Y-27552000D01*
X24711241Y-27552000D01*
X24724178Y-27520767D01*
X24753000Y-27375869D01*
X24753000Y-27228131D01*
X24724178Y-27083233D01*
X24711241Y-27052000D01*
X25730855Y-27052000D01*
X25718526Y-26974164D01*
X25718526Y-26974161D01*
X25650432Y-26764589D01*
X25550386Y-26568239D01*
X25420857Y-26389958D01*
X25265041Y-26234142D01*
X25179293Y-26171842D01*
X25136628Y-26116512D01*
X25130649Y-26046898D01*
X25163255Y-25985103D01*
X25164360Y-25983981D01*
X25192414Y-25955928D01*
X25294232Y-25815788D01*
X25372873Y-25661445D01*
X25426402Y-25496701D01*
X25453500Y-25325611D01*
X25453500Y-25152389D01*
X25426402Y-24981299D01*
X25372873Y-24816555D01*
X25294232Y-24662212D01*
X25192414Y-24522072D01*
X25069928Y-24399586D01*
X24943619Y-24307817D01*
X24900955Y-24252488D01*
X24894976Y-24182874D01*
X24927582Y-24121079D01*
X24943616Y-24107184D01*
X25069928Y-24015414D01*
X25192414Y-23892928D01*
X25294232Y-23752788D01*
X25372873Y-23598445D01*
X25426402Y-23433701D01*
X25453500Y-23262611D01*
X25453500Y-23134108D01*
X25746000Y-23134108D01*
X25746000Y-23265892D01*
X25756870Y-23306458D01*
X25780108Y-23393187D01*
X25799346Y-23426507D01*
X25846000Y-23507314D01*
X25939186Y-23600500D01*
X26053314Y-23666392D01*
X26180608Y-23700500D01*
X26232483Y-23700500D01*
X26299522Y-23720185D01*
X26320164Y-23736819D01*
X26836181Y-24252836D01*
X26869666Y-24314159D01*
X26872500Y-24340517D01*
X26872500Y-24818824D01*
X26852815Y-24885863D01*
X26800011Y-24931618D01*
X26730853Y-24941562D01*
X26667297Y-24912537D01*
X26660819Y-24906505D01*
X26653816Y-24899502D01*
X26653814Y-24899500D01*
X26572962Y-24852820D01*
X26539687Y-24833608D01*
X26476032Y-24816552D01*
X26412392Y-24799500D01*
X26280608Y-24799500D01*
X26153312Y-24833608D01*
X26039186Y-24899500D01*
X26039183Y-24899502D01*
X25946002Y-24992683D01*
X25946000Y-24992686D01*
X25880108Y-25106812D01*
X25846000Y-25234108D01*
X25846000Y-25365891D01*
X25880108Y-25493187D01*
X25899275Y-25526384D01*
X25946000Y-25607314D01*
X25946002Y-25607316D01*
X25982681Y-25643995D01*
X26016166Y-25705318D01*
X26019000Y-25731676D01*
X26019000Y-30603384D01*
X26019000Y-30689616D01*
X26041319Y-30772910D01*
X26084435Y-30847590D01*
X26901410Y-31664565D01*
X26976089Y-31707681D01*
X27059384Y-31730000D01*
X27145616Y-31730000D01*
X29185753Y-31730000D01*
X29252792Y-31749685D01*
X29273434Y-31766319D01*
X29289616Y-31782501D01*
X29404884Y-31849051D01*
X29533450Y-31883500D01*
X29533452Y-31883500D01*
X29666548Y-31883500D01*
X29666550Y-31883500D01*
X29795116Y-31849051D01*
X29910384Y-31782501D01*
X30004501Y-31688384D01*
X30071051Y-31573116D01*
X30105500Y-31444550D01*
X30105500Y-31311450D01*
X30071051Y-31182884D01*
X30004501Y-31067616D01*
X29910384Y-30973499D01*
X29795748Y-30907314D01*
X29795118Y-30906950D01*
X29795117Y-30906949D01*
X29795116Y-30906949D01*
X29666550Y-30872500D01*
X29533450Y-30872500D01*
X29404884Y-30906949D01*
X29404881Y-30906950D01*
X29289619Y-30973497D01*
X29289617Y-30973498D01*
X29224433Y-31038682D01*
X29163109Y-31072166D01*
X29136752Y-31075000D01*
X27289517Y-31075000D01*
X27222478Y-31055315D01*
X27201836Y-31038681D01*
X26710319Y-30547164D01*
X26676834Y-30485841D01*
X26674000Y-30459483D01*
X26674000Y-25731676D01*
X26682635Y-25702266D01*
X26689140Y-25672299D01*
X26692918Y-25667246D01*
X26693685Y-25664637D01*
X26710273Y-25644040D01*
X26711365Y-25642948D01*
X26772669Y-25609438D01*
X26842363Y-25614390D01*
X26898316Y-25656236D01*
X26906470Y-25668592D01*
X26937932Y-25723086D01*
X26937934Y-25723089D01*
X26937935Y-25723090D01*
X26998910Y-25784065D01*
X27073590Y-25827181D01*
X27134984Y-25843631D01*
X27190570Y-25875725D01*
X29063181Y-27748336D01*
X29096666Y-27809659D01*
X29099500Y-27836017D01*
X29099500Y-27887891D01*
X29133608Y-28015187D01*
X29166554Y-28072250D01*
X29199500Y-28129314D01*
X29292686Y-28222500D01*
X29406814Y-28288392D01*
X29534108Y-28322500D01*
X29534110Y-28322500D01*
X29665890Y-28322500D01*
X29665892Y-28322500D01*
X29793186Y-28288392D01*
X29907314Y-28222500D01*
X30000500Y-28129314D01*
X30066392Y-28015186D01*
X30100500Y-27887892D01*
X30100500Y-27756108D01*
X30066392Y-27628814D01*
X30000500Y-27514686D01*
X29907314Y-27421500D01*
X29850250Y-27388554D01*
X29793187Y-27355608D01*
X29729539Y-27338554D01*
X29665892Y-27321500D01*
X29665891Y-27321500D01*
X29614017Y-27321500D01*
X29546978Y-27301815D01*
X29526336Y-27285181D01*
X27563819Y-25322664D01*
X27530334Y-25261341D01*
X27527500Y-25234983D01*
X27527500Y-24110385D01*
X27526642Y-24107182D01*
X27505181Y-24027090D01*
X27462065Y-23952410D01*
X27401090Y-23891435D01*
X26783319Y-23273664D01*
X26749834Y-23212341D01*
X26747000Y-23185983D01*
X26747000Y-23134110D01*
X26747000Y-23134108D01*
X26712892Y-23006814D01*
X26647000Y-22892686D01*
X26553814Y-22799500D01*
X26496750Y-22766554D01*
X26439687Y-22733608D01*
X26376039Y-22716554D01*
X26312392Y-22699500D01*
X26180608Y-22699500D01*
X26053312Y-22733608D01*
X25939186Y-22799500D01*
X25939183Y-22799502D01*
X25846002Y-22892683D01*
X25846000Y-22892686D01*
X25780108Y-23006812D01*
X25746000Y-23134108D01*
X25453500Y-23134108D01*
X25453500Y-23089389D01*
X25426402Y-22918299D01*
X25372873Y-22753555D01*
X25294232Y-22599212D01*
X25192414Y-22459072D01*
X25069928Y-22336586D01*
X24943619Y-22244817D01*
X24900955Y-22189488D01*
X24894976Y-22119874D01*
X24927582Y-22058079D01*
X24943616Y-22044184D01*
X25069928Y-21952414D01*
X25192414Y-21829928D01*
X25294232Y-21689788D01*
X25372873Y-21535445D01*
X25426402Y-21370701D01*
X25453500Y-21199611D01*
X25453500Y-21034108D01*
X25846000Y-21034108D01*
X25846000Y-21165892D01*
X25858315Y-21211853D01*
X25880108Y-21293187D01*
X25902701Y-21332318D01*
X25946000Y-21407314D01*
X26039186Y-21500500D01*
X26153314Y-21566392D01*
X26280608Y-21600500D01*
X26332483Y-21600500D01*
X26399522Y-21620185D01*
X26420164Y-21636819D01*
X29063174Y-24279829D01*
X29095268Y-24335416D01*
X29128949Y-24461117D01*
X29128950Y-24461118D01*
X29195499Y-24576384D01*
X29289616Y-24670501D01*
X29404884Y-24737051D01*
X29533450Y-24771500D01*
X29533452Y-24771500D01*
X29666548Y-24771500D01*
X29666550Y-24771500D01*
X29795116Y-24737051D01*
X29910384Y-24670501D01*
X30004501Y-24576384D01*
X30071051Y-24461116D01*
X30105500Y-24332550D01*
X30105500Y-24199450D01*
X30071051Y-24070884D01*
X30004501Y-23955616D01*
X29910384Y-23861499D01*
X29795116Y-23794949D01*
X29666550Y-23760500D01*
X29533450Y-23760500D01*
X29525323Y-23760500D01*
X29525323Y-23757887D01*
X29469080Y-23749102D01*
X29434278Y-23724623D01*
X26883319Y-21173664D01*
X26849834Y-21112341D01*
X26847000Y-21085983D01*
X26847000Y-21034110D01*
X26847000Y-21034108D01*
X26812892Y-20906814D01*
X26747000Y-20792686D01*
X26653814Y-20699500D01*
X26596750Y-20666554D01*
X26539687Y-20633608D01*
X26476039Y-20616554D01*
X26412392Y-20599500D01*
X26280608Y-20599500D01*
X26153312Y-20633608D01*
X26039186Y-20699500D01*
X26039183Y-20699502D01*
X25946002Y-20792683D01*
X25946000Y-20792686D01*
X25880108Y-20906812D01*
X25864278Y-20965892D01*
X25846000Y-21034108D01*
X25453500Y-21034108D01*
X25453500Y-21026389D01*
X25426402Y-20855299D01*
X25372873Y-20690555D01*
X25294232Y-20536212D01*
X25192414Y-20396072D01*
X25069928Y-20273586D01*
X24943619Y-20181817D01*
X24900955Y-20126488D01*
X24894976Y-20056874D01*
X24927582Y-19995079D01*
X24943616Y-19981184D01*
X25069928Y-19889414D01*
X25192414Y-19766928D01*
X25294232Y-19626788D01*
X25372873Y-19472445D01*
X25426402Y-19307701D01*
X25453500Y-19136611D01*
X25453500Y-19034108D01*
X25846000Y-19034108D01*
X25846000Y-19165891D01*
X25880108Y-19293187D01*
X25903643Y-19333950D01*
X25946000Y-19407314D01*
X26039186Y-19500500D01*
X26153314Y-19566392D01*
X26280608Y-19600500D01*
X26280610Y-19600500D01*
X26412390Y-19600500D01*
X26412392Y-19600500D01*
X26539686Y-19566392D01*
X26653814Y-19500500D01*
X26690495Y-19463819D01*
X26751818Y-19430334D01*
X26778176Y-19427500D01*
X28568324Y-19427500D01*
X28635363Y-19447185D01*
X28656005Y-19463819D01*
X28692686Y-19500500D01*
X28806814Y-19566392D01*
X28934108Y-19600500D01*
X28934110Y-19600500D01*
X29065890Y-19600500D01*
X29065892Y-19600500D01*
X29193186Y-19566392D01*
X29307314Y-19500500D01*
X29400500Y-19407314D01*
X29466392Y-19293186D01*
X29500500Y-19165892D01*
X29500500Y-19034108D01*
X29466392Y-18906814D01*
X29400500Y-18792686D01*
X29307314Y-18699500D01*
X29198755Y-18636823D01*
X29193187Y-18633608D01*
X29129539Y-18616554D01*
X29065892Y-18599500D01*
X28934108Y-18599500D01*
X28806812Y-18633608D01*
X28692686Y-18699500D01*
X28692683Y-18699502D01*
X28656005Y-18736181D01*
X28594682Y-18769666D01*
X28568324Y-18772500D01*
X26778176Y-18772500D01*
X26711137Y-18752815D01*
X26690495Y-18736181D01*
X26653816Y-18699502D01*
X26653814Y-18699500D01*
X26545255Y-18636823D01*
X26539687Y-18633608D01*
X26476039Y-18616554D01*
X26412392Y-18599500D01*
X26280608Y-18599500D01*
X26153312Y-18633608D01*
X26039186Y-18699500D01*
X26039183Y-18699502D01*
X25946002Y-18792683D01*
X25946000Y-18792686D01*
X25880108Y-18906812D01*
X25846000Y-19034108D01*
X25453500Y-19034108D01*
X25453500Y-18963389D01*
X25426402Y-18792299D01*
X25372873Y-18627555D01*
X25294232Y-18473212D01*
X25192414Y-18333072D01*
X25069928Y-18210586D01*
X24943619Y-18118817D01*
X24900955Y-18063488D01*
X24894976Y-17993874D01*
X24927582Y-17932079D01*
X24943616Y-17918184D01*
X25069928Y-17826414D01*
X25192414Y-17703928D01*
X25294232Y-17563788D01*
X25372873Y-17409445D01*
X25426402Y-17244701D01*
X25453500Y-17073611D01*
X25453500Y-16900389D01*
X25426402Y-16729299D01*
X25372873Y-16564555D01*
X25294232Y-16410212D01*
X25192414Y-16270072D01*
X25069928Y-16147586D01*
X24943619Y-16055817D01*
X24900955Y-16000488D01*
X24894976Y-15930874D01*
X24927582Y-15869079D01*
X24943616Y-15855184D01*
X25069928Y-15763414D01*
X25192414Y-15640928D01*
X25294232Y-15500788D01*
X25372873Y-15346445D01*
X25426402Y-15181701D01*
X25453500Y-15010611D01*
X25453500Y-14837389D01*
X25426402Y-14666299D01*
X25372873Y-14501555D01*
X25294232Y-14347212D01*
X25192414Y-14207072D01*
X25069928Y-14084586D01*
X24943619Y-13992817D01*
X24900955Y-13937488D01*
X24894976Y-13867874D01*
X24927582Y-13806079D01*
X24943616Y-13792184D01*
X25069928Y-13700414D01*
X25192414Y-13577928D01*
X25294232Y-13437788D01*
X25372873Y-13283445D01*
X25426402Y-13118701D01*
X25451555Y-12959889D01*
X25466500Y-12904116D01*
X25466500Y-12834108D01*
X25746000Y-12834108D01*
X25746000Y-12965892D01*
X25746901Y-12969253D01*
X25780108Y-13093187D01*
X25807402Y-13140460D01*
X25846000Y-13207314D01*
X25939186Y-13300500D01*
X26053314Y-13366392D01*
X26180608Y-13400500D01*
X26180610Y-13400500D01*
X26312390Y-13400500D01*
X26312392Y-13400500D01*
X26439686Y-13366392D01*
X26553814Y-13300500D01*
X26617495Y-13236819D01*
X26678818Y-13203334D01*
X26705176Y-13200500D01*
X29689560Y-13200500D01*
X29689562Y-13200500D01*
X29765989Y-13180021D01*
X29834511Y-13140460D01*
X29890460Y-13084511D01*
X31938152Y-11036819D01*
X31999475Y-11003334D01*
X32025833Y-11000500D01*
X32736983Y-11000500D01*
X32804022Y-11020185D01*
X32849777Y-11072989D01*
X32859721Y-11142147D01*
X32830696Y-11205703D01*
X32824664Y-11212181D01*
X29500664Y-14536181D01*
X29439341Y-14569666D01*
X29412983Y-14572500D01*
X26678176Y-14572500D01*
X26611137Y-14552815D01*
X26590495Y-14536181D01*
X26553816Y-14499502D01*
X26553814Y-14499500D01*
X26492612Y-14464165D01*
X26439687Y-14433608D01*
X26364824Y-14413549D01*
X26312392Y-14399500D01*
X26180608Y-14399500D01*
X26053312Y-14433608D01*
X25939186Y-14499500D01*
X25939183Y-14499502D01*
X25846002Y-14592683D01*
X25846000Y-14592686D01*
X25780108Y-14706812D01*
X25746000Y-14834108D01*
X25746000Y-14965891D01*
X25780108Y-15093187D01*
X25799637Y-15127011D01*
X25846000Y-15207314D01*
X25939186Y-15300500D01*
X26038021Y-15357563D01*
X26048933Y-15363863D01*
X26053314Y-15366392D01*
X26180608Y-15400500D01*
X26180610Y-15400500D01*
X26312390Y-15400500D01*
X26312392Y-15400500D01*
X26439686Y-15366392D01*
X26553814Y-15300500D01*
X26590495Y-15263819D01*
X26651818Y-15230334D01*
X26678176Y-15227500D01*
X27356483Y-15227500D01*
X27423522Y-15247185D01*
X27469277Y-15299989D01*
X27479221Y-15369147D01*
X27450196Y-15432703D01*
X27444164Y-15439181D01*
X26420164Y-16463181D01*
X26358841Y-16496666D01*
X26332483Y-16499500D01*
X26280608Y-16499500D01*
X26153312Y-16533608D01*
X26039186Y-16599500D01*
X26039183Y-16599502D01*
X25946002Y-16692683D01*
X25946000Y-16692686D01*
X25880108Y-16806812D01*
X25861196Y-16877394D01*
X25846000Y-16934108D01*
X25846000Y-17065892D01*
X25855273Y-17100500D01*
X25880108Y-17193187D01*
X25903764Y-17234160D01*
X25946000Y-17307314D01*
X26039186Y-17400500D01*
X26153314Y-17466392D01*
X26280608Y-17500500D01*
X26280610Y-17500500D01*
X26412390Y-17500500D01*
X26412392Y-17500500D01*
X26539686Y-17466392D01*
X26653814Y-17400500D01*
X26747000Y-17307314D01*
X26812892Y-17193186D01*
X26847000Y-17065892D01*
X26847000Y-17014017D01*
X26866685Y-16946978D01*
X26883319Y-16926336D01*
X27845836Y-15963819D01*
X27907159Y-15930334D01*
X27933517Y-15927500D01*
X28568324Y-15927500D01*
X28635363Y-15947185D01*
X28656005Y-15963819D01*
X28692686Y-16000500D01*
X28806814Y-16066392D01*
X28934108Y-16100500D01*
X28934110Y-16100500D01*
X29065890Y-16100500D01*
X29065892Y-16100500D01*
X29193186Y-16066392D01*
X29307314Y-16000500D01*
X29400500Y-15907314D01*
X29466392Y-15793186D01*
X29500500Y-15665892D01*
X29500500Y-15534108D01*
X29466392Y-15406814D01*
X29466389Y-15406809D01*
X29463280Y-15399300D01*
X29466477Y-15397975D01*
X29453783Y-15345540D01*
X29476667Y-15279524D01*
X29531610Y-15236360D01*
X29577640Y-15227500D01*
X29643114Y-15227500D01*
X29643116Y-15227500D01*
X29726410Y-15205181D01*
X29801090Y-15162065D01*
X33371336Y-11591819D01*
X33432659Y-11558334D01*
X33459017Y-11555500D01*
X35537324Y-11555500D01*
X35604363Y-11575185D01*
X35650118Y-11627989D01*
X35660062Y-11697147D01*
X35631037Y-11760703D01*
X35625005Y-11767181D01*
X35599502Y-11792683D01*
X35599500Y-11792686D01*
X35533608Y-11906812D01*
X35499500Y-12034108D01*
X35499500Y-12165894D01*
X35500553Y-12169823D01*
X35500470Y-12173263D01*
X35500561Y-12173948D01*
X35500454Y-12173962D01*
X35498886Y-12239673D01*
X35459719Y-12297533D01*
X35395489Y-12325033D01*
X35348685Y-12321684D01*
X35265892Y-12299500D01*
X35134108Y-12299500D01*
X35006812Y-12333608D01*
X34892686Y-12399500D01*
X34892683Y-12399502D01*
X34856005Y-12436181D01*
X34794682Y-12469666D01*
X34768324Y-12472500D01*
X33043116Y-12472500D01*
X32956884Y-12472500D01*
X32912608Y-12484364D01*
X32873589Y-12494819D01*
X32798911Y-12537934D01*
X32798908Y-12537936D01*
X31437936Y-13898908D01*
X31437934Y-13898911D01*
X31394819Y-13973589D01*
X31392360Y-13982768D01*
X31374479Y-14049501D01*
X31372500Y-14056885D01*
X31372500Y-14319824D01*
X31352815Y-14386863D01*
X31336181Y-14407505D01*
X31299502Y-14444183D01*
X31299500Y-14444186D01*
X31233608Y-14558312D01*
X31199500Y-14685608D01*
X31199500Y-14817392D01*
X31210562Y-14858676D01*
X31233608Y-14944687D01*
X31245851Y-14965892D01*
X31299500Y-15058814D01*
X31299502Y-15058816D01*
X31336181Y-15095495D01*
X31369666Y-15156818D01*
X31372500Y-15183176D01*
X31372500Y-17868324D01*
X31352815Y-17935363D01*
X31336181Y-17956005D01*
X31299502Y-17992683D01*
X31299500Y-17992686D01*
X31233608Y-18106812D01*
X31199500Y-18234108D01*
X31199500Y-18365892D01*
X31215196Y-18424471D01*
X31233608Y-18493187D01*
X31252842Y-18526500D01*
X31299500Y-18607314D01*
X31299502Y-18607316D01*
X31336181Y-18643995D01*
X31369666Y-18705318D01*
X31372500Y-18731676D01*
X31372500Y-24692054D01*
X31352815Y-24759093D01*
X31310502Y-24799440D01*
X31289619Y-24811497D01*
X31289613Y-24811501D01*
X31195501Y-24905613D01*
X31195497Y-24905619D01*
X31128950Y-25020881D01*
X31128949Y-25020884D01*
X31094500Y-25149450D01*
X31094500Y-25282550D01*
X31128949Y-25411116D01*
X31195499Y-25526384D01*
X31289616Y-25620501D01*
X31289617Y-25620502D01*
X31289619Y-25620503D01*
X31310498Y-25632557D01*
X31358714Y-25683123D01*
X31372500Y-25739945D01*
X31372500Y-28248054D01*
X31352815Y-28315093D01*
X31310502Y-28355440D01*
X31289619Y-28367497D01*
X31289613Y-28367501D01*
X31195501Y-28461613D01*
X31195497Y-28461619D01*
X31128950Y-28576881D01*
X31128949Y-28576884D01*
X31094500Y-28705450D01*
X31094500Y-28838550D01*
X31128949Y-28967116D01*
X31195499Y-29082384D01*
X31289616Y-29176501D01*
X31289617Y-29176502D01*
X31289619Y-29176503D01*
X31310498Y-29188557D01*
X31358714Y-29239123D01*
X31372500Y-29295945D01*
X31372500Y-31804054D01*
X31352815Y-31871093D01*
X31310502Y-31911440D01*
X31289619Y-31923497D01*
X31289613Y-31923501D01*
X31195501Y-32017613D01*
X31195497Y-32017619D01*
X31128950Y-32132881D01*
X31128949Y-32132884D01*
X31094500Y-32261450D01*
X31094500Y-32394550D01*
X31128949Y-32523116D01*
X31195499Y-32638384D01*
X31289616Y-32732501D01*
X31404884Y-32799051D01*
X31533450Y-32833500D01*
X31533452Y-32833500D01*
X31666548Y-32833500D01*
X31666550Y-32833500D01*
X31795116Y-32799051D01*
X31910384Y-32732501D01*
X32004501Y-32638384D01*
X32071051Y-32523116D01*
X32105500Y-32394550D01*
X32105500Y-32261450D01*
X32071051Y-32132884D01*
X32044112Y-32086224D01*
X32027500Y-32024225D01*
X32027500Y-29075773D01*
X32044113Y-29013772D01*
X32071051Y-28967116D01*
X32105500Y-28838550D01*
X32105500Y-28705450D01*
X32071051Y-28576884D01*
X32044112Y-28530224D01*
X32027500Y-28468225D01*
X32027500Y-25519773D01*
X32044113Y-25457772D01*
X32071051Y-25411116D01*
X32105500Y-25282550D01*
X32105500Y-25149450D01*
X32071051Y-25020884D01*
X32044112Y-24974224D01*
X32027500Y-24912225D01*
X32027500Y-20601577D01*
X33949500Y-20601577D01*
X33949500Y-20798422D01*
X33980290Y-20992826D01*
X34041117Y-21180029D01*
X34104505Y-21304434D01*
X34130476Y-21355405D01*
X34246172Y-21514646D01*
X34385354Y-21653828D01*
X34544595Y-21769524D01*
X34564255Y-21779541D01*
X34719970Y-21858882D01*
X34719972Y-21858882D01*
X34719975Y-21858884D01*
X34820317Y-21891487D01*
X34907173Y-21919709D01*
X35101578Y-21950500D01*
X35101583Y-21950500D01*
X35298422Y-21950500D01*
X35492826Y-21919709D01*
X35680025Y-21858884D01*
X35855405Y-21769524D01*
X36014646Y-21653828D01*
X36153828Y-21514646D01*
X36269524Y-21355405D01*
X36358884Y-21180025D01*
X36419709Y-20992826D01*
X36433332Y-20906812D01*
X36450500Y-20798422D01*
X36450500Y-20601577D01*
X36419709Y-20407173D01*
X36376303Y-20273586D01*
X36358884Y-20219975D01*
X36358882Y-20219972D01*
X36358882Y-20219970D01*
X36288328Y-20081500D01*
X36269524Y-20044595D01*
X36153828Y-19885354D01*
X36014646Y-19746172D01*
X35855405Y-19630476D01*
X35848167Y-19626788D01*
X35680029Y-19541117D01*
X35492826Y-19480290D01*
X35298422Y-19449500D01*
X35298417Y-19449500D01*
X35101583Y-19449500D01*
X35101578Y-19449500D01*
X34907173Y-19480290D01*
X34719970Y-19541117D01*
X34544594Y-19630476D01*
X34484727Y-19673973D01*
X34385354Y-19746172D01*
X34385352Y-19746174D01*
X34385351Y-19746174D01*
X34246174Y-19885351D01*
X34246174Y-19885352D01*
X34246172Y-19885354D01*
X34233655Y-19902582D01*
X34130476Y-20044594D01*
X34041117Y-20219970D01*
X33980290Y-20407173D01*
X33949500Y-20601577D01*
X32027500Y-20601577D01*
X32027500Y-18731676D01*
X32047185Y-18664637D01*
X32063819Y-18643995D01*
X32080264Y-18627550D01*
X32100500Y-18607314D01*
X32166392Y-18493186D01*
X32200500Y-18365892D01*
X32200500Y-18234108D01*
X32166392Y-18106814D01*
X32100500Y-17992686D01*
X32063819Y-17956005D01*
X32030334Y-17894682D01*
X32027500Y-17868324D01*
X32027500Y-15980608D01*
X32999500Y-15980608D01*
X32999500Y-16112392D01*
X33012133Y-16159540D01*
X33033608Y-16239687D01*
X33060902Y-16286960D01*
X33099500Y-16353814D01*
X33192686Y-16447000D01*
X33306814Y-16512892D01*
X33434108Y-16547000D01*
X33434110Y-16547000D01*
X33565890Y-16547000D01*
X33565892Y-16547000D01*
X33693186Y-16512892D01*
X33807314Y-16447000D01*
X33870995Y-16383319D01*
X33932318Y-16349834D01*
X33958676Y-16347000D01*
X38393060Y-16347000D01*
X38393062Y-16347000D01*
X38469489Y-16326521D01*
X38538011Y-16286960D01*
X38593960Y-16231011D01*
X38776235Y-16048734D01*
X38837557Y-16015251D01*
X38907248Y-16020235D01*
X38963182Y-16062106D01*
X38987599Y-16127571D01*
X38972747Y-16195844D01*
X38962293Y-16211901D01*
X38959536Y-16215493D01*
X38919982Y-16284004D01*
X38919979Y-16284009D01*
X38914801Y-16303334D01*
X38901275Y-16353816D01*
X38899500Y-16360439D01*
X38899500Y-21524166D01*
X38879815Y-21591205D01*
X38863181Y-21611847D01*
X37511847Y-22963181D01*
X37450524Y-22996666D01*
X37424166Y-22999500D01*
X37334108Y-22999500D01*
X37206812Y-23033608D01*
X37092686Y-23099500D01*
X37092683Y-23099502D01*
X36999502Y-23192683D01*
X36999500Y-23192686D01*
X36933608Y-23306812D01*
X36906283Y-23408793D01*
X36899500Y-23434108D01*
X36899500Y-23565892D01*
X36908223Y-23598447D01*
X36933608Y-23693187D01*
X36965891Y-23749102D01*
X36999500Y-23807314D01*
X37092686Y-23900500D01*
X37206814Y-23966392D01*
X37334108Y-24000500D01*
X37334110Y-24000500D01*
X37465890Y-24000500D01*
X37465892Y-24000500D01*
X37593186Y-23966392D01*
X37707314Y-23900500D01*
X37800500Y-23807314D01*
X37866392Y-23693186D01*
X37900500Y-23565892D01*
X37900500Y-23475832D01*
X37920185Y-23408793D01*
X37936819Y-23388151D01*
X38643470Y-22681500D01*
X39187820Y-22137149D01*
X39249142Y-22103666D01*
X39318834Y-22108650D01*
X39374767Y-22150522D01*
X39399184Y-22215986D01*
X39399500Y-22224832D01*
X39399500Y-25524167D01*
X39379815Y-25591206D01*
X39363181Y-25611848D01*
X38211848Y-26763181D01*
X38150525Y-26796666D01*
X38124167Y-26799500D01*
X37758676Y-26799500D01*
X37691637Y-26779815D01*
X37670995Y-26763181D01*
X37607316Y-26699502D01*
X37607314Y-26699500D01*
X37550250Y-26666554D01*
X37493187Y-26633608D01*
X37429539Y-26616554D01*
X37365892Y-26599500D01*
X37234108Y-26599500D01*
X37106812Y-26633608D01*
X36992686Y-26699500D01*
X36992683Y-26699502D01*
X36899502Y-26792683D01*
X36899500Y-26792686D01*
X36833608Y-26906812D01*
X36799500Y-27034108D01*
X36799500Y-27165891D01*
X36833608Y-27293187D01*
X36860902Y-27340460D01*
X36899500Y-27407314D01*
X36992686Y-27500500D01*
X37106814Y-27566392D01*
X37234108Y-27600500D01*
X37234110Y-27600500D01*
X37365890Y-27600500D01*
X37365892Y-27600500D01*
X37493186Y-27566392D01*
X37607314Y-27500500D01*
X37670995Y-27436819D01*
X37732318Y-27403334D01*
X37758676Y-27400500D01*
X38339560Y-27400500D01*
X38339562Y-27400500D01*
X38415989Y-27380021D01*
X38484511Y-27340460D01*
X38540460Y-27284511D01*
X39687819Y-26137152D01*
X39749142Y-26103667D01*
X39818834Y-26108651D01*
X39874767Y-26150523D01*
X39899184Y-26215987D01*
X39899500Y-26224833D01*
X39899500Y-27424166D01*
X39879815Y-27491205D01*
X39863181Y-27511847D01*
X37311847Y-30063181D01*
X37250524Y-30096666D01*
X37224166Y-30099500D01*
X37134108Y-30099500D01*
X37006812Y-30133608D01*
X36892686Y-30199500D01*
X36892683Y-30199502D01*
X36799502Y-30292683D01*
X36799500Y-30292686D01*
X36733608Y-30406812D01*
X36699500Y-30534108D01*
X36699500Y-30665891D01*
X36733608Y-30793187D01*
X36765017Y-30847588D01*
X36799500Y-30907314D01*
X36892686Y-31000500D01*
X37006814Y-31066392D01*
X37134108Y-31100500D01*
X37134110Y-31100500D01*
X37265890Y-31100500D01*
X37265892Y-31100500D01*
X37393186Y-31066392D01*
X37507314Y-31000500D01*
X37600500Y-30907314D01*
X37666392Y-30793186D01*
X37700500Y-30665892D01*
X37700500Y-30575832D01*
X37720185Y-30508793D01*
X37736819Y-30488151D01*
X39063758Y-29161212D01*
X40440460Y-27784511D01*
X40480022Y-27715988D01*
X40500500Y-27639562D01*
X40500500Y-27560438D01*
X40500500Y-24360438D01*
X40500500Y-16975833D01*
X40509144Y-16946392D01*
X40515668Y-16916406D01*
X40519422Y-16911390D01*
X40520185Y-16908794D01*
X40536819Y-16888152D01*
X40591976Y-16832995D01*
X41031000Y-16832995D01*
X41031000Y-29233004D01*
X41036151Y-29278728D01*
X41075833Y-29361126D01*
X41075834Y-29361127D01*
X41147337Y-29418149D01*
X41213928Y-29433348D01*
X41236495Y-29438499D01*
X41236500Y-29438500D01*
X61436503Y-29438500D01*
X61436503Y-29438499D01*
X61482228Y-29433348D01*
X61564627Y-29393666D01*
X61621649Y-29322163D01*
X61642000Y-29233000D01*
X61642000Y-16833000D01*
X61636848Y-16787272D01*
X61632759Y-16778782D01*
X61597166Y-16704873D01*
X61525663Y-16647851D01*
X61436504Y-16627500D01*
X61436500Y-16627500D01*
X41236500Y-16627500D01*
X41236495Y-16627500D01*
X41190771Y-16632651D01*
X41108373Y-16672333D01*
X41051351Y-16743836D01*
X41031000Y-16832995D01*
X40591976Y-16832995D01*
X41088152Y-16336819D01*
X41149475Y-16303334D01*
X41175833Y-16300500D01*
X46239560Y-16300500D01*
X46239562Y-16300500D01*
X46315989Y-16280021D01*
X46384511Y-16240460D01*
X46440460Y-16184511D01*
X47688151Y-14936818D01*
X47749474Y-14903334D01*
X47775832Y-14900500D01*
X47865890Y-14900500D01*
X47865892Y-14900500D01*
X47993186Y-14866392D01*
X48107314Y-14800500D01*
X48200500Y-14707314D01*
X48266392Y-14593186D01*
X48300500Y-14465892D01*
X48300500Y-14334108D01*
X48266392Y-14206814D01*
X48265637Y-14205507D01*
X48257563Y-14191521D01*
X48200500Y-14092686D01*
X48107314Y-13999500D01*
X48044408Y-13963181D01*
X47993187Y-13933608D01*
X47883160Y-13904127D01*
X47865892Y-13899500D01*
X47734108Y-13899500D01*
X47606812Y-13933608D01*
X47492686Y-13999500D01*
X47492683Y-13999502D01*
X47399502Y-14092683D01*
X47399500Y-14092686D01*
X47333608Y-14206812D01*
X47299500Y-14334108D01*
X47299500Y-14424166D01*
X47279815Y-14491205D01*
X47263181Y-14511847D01*
X46111848Y-15663181D01*
X46050525Y-15696666D01*
X46024167Y-15699500D01*
X44624833Y-15699500D01*
X44557794Y-15679815D01*
X44512039Y-15627011D01*
X44502095Y-15557853D01*
X44531120Y-15494297D01*
X44537152Y-15487819D01*
X45088151Y-14936819D01*
X45149474Y-14903334D01*
X45175832Y-14900500D01*
X45265890Y-14900500D01*
X45265892Y-14900500D01*
X45393186Y-14866392D01*
X45507314Y-14800500D01*
X45600500Y-14707314D01*
X45666392Y-14593186D01*
X45700500Y-14465892D01*
X45700500Y-14334108D01*
X45666392Y-14206814D01*
X45665637Y-14205507D01*
X45657563Y-14191521D01*
X45600500Y-14092686D01*
X45507314Y-13999500D01*
X45444408Y-13963181D01*
X45393187Y-13933608D01*
X45283160Y-13904127D01*
X45265892Y-13899500D01*
X45134108Y-13899500D01*
X45006812Y-13933608D01*
X44892686Y-13999500D01*
X44892683Y-13999502D01*
X44799502Y-14092683D01*
X44799500Y-14092686D01*
X44733608Y-14206812D01*
X44699500Y-14334108D01*
X44699500Y-14424166D01*
X44679815Y-14491205D01*
X44663181Y-14511847D01*
X44011848Y-15163181D01*
X43950525Y-15196666D01*
X43924167Y-15199500D01*
X41124833Y-15199500D01*
X41057794Y-15179815D01*
X41012039Y-15127011D01*
X41002095Y-15057853D01*
X41031120Y-14994297D01*
X41037152Y-14987819D01*
X41388152Y-14636819D01*
X41449475Y-14603334D01*
X41475833Y-14600500D01*
X42241324Y-14600500D01*
X42308363Y-14620185D01*
X42329005Y-14636819D01*
X42392686Y-14700500D01*
X42506814Y-14766392D01*
X42634108Y-14800500D01*
X42634110Y-14800500D01*
X42765890Y-14800500D01*
X42765892Y-14800500D01*
X42893186Y-14766392D01*
X43007314Y-14700500D01*
X43100500Y-14607314D01*
X43166392Y-14493186D01*
X43200500Y-14365892D01*
X43200500Y-14234108D01*
X43166392Y-14106814D01*
X43100500Y-13992686D01*
X43007314Y-13899500D01*
X42950250Y-13866554D01*
X42893187Y-13833608D01*
X42790445Y-13806079D01*
X42765892Y-13799500D01*
X42634108Y-13799500D01*
X42506812Y-13833608D01*
X42392686Y-13899500D01*
X42392683Y-13899502D01*
X42329005Y-13963181D01*
X42267682Y-13996666D01*
X42241324Y-13999500D01*
X41260438Y-13999500D01*
X41225802Y-14008781D01*
X41184009Y-14019979D01*
X41149923Y-14039659D01*
X41132879Y-14049500D01*
X41132877Y-14049500D01*
X41132877Y-14049501D01*
X41115492Y-14059537D01*
X41115487Y-14059541D01*
X40812181Y-14362848D01*
X40750858Y-14396333D01*
X40681166Y-14391349D01*
X40625233Y-14349477D01*
X40600816Y-14284013D01*
X40600500Y-14275167D01*
X40600500Y-14234110D01*
X40600500Y-14234108D01*
X40566392Y-14106814D01*
X40500500Y-13992686D01*
X40407314Y-13899500D01*
X40350250Y-13866554D01*
X40293187Y-13833608D01*
X40190445Y-13806079D01*
X40165892Y-13799500D01*
X40034108Y-13799500D01*
X39906812Y-13833608D01*
X39792686Y-13899500D01*
X39792683Y-13899502D01*
X39699502Y-13992683D01*
X39699500Y-13992686D01*
X39633608Y-14106812D01*
X39599500Y-14234108D01*
X39599500Y-14324166D01*
X39579815Y-14391205D01*
X39563181Y-14411847D01*
X38265348Y-15709681D01*
X38204025Y-15743166D01*
X38177667Y-15746000D01*
X33958676Y-15746000D01*
X33891637Y-15726315D01*
X33870995Y-15709681D01*
X33807316Y-15646002D01*
X33807314Y-15646000D01*
X33750250Y-15613054D01*
X33693187Y-15580108D01*
X33610128Y-15557853D01*
X33565892Y-15546000D01*
X33434108Y-15546000D01*
X33306812Y-15580108D01*
X33192686Y-15646000D01*
X33192683Y-15646002D01*
X33099502Y-15739183D01*
X33099500Y-15739186D01*
X33033608Y-15853312D01*
X33003112Y-15967127D01*
X32999500Y-15980608D01*
X32027500Y-15980608D01*
X32027500Y-15183176D01*
X32047185Y-15116137D01*
X32063819Y-15095495D01*
X32066128Y-15093186D01*
X32100500Y-15058814D01*
X32166392Y-14944686D01*
X32200500Y-14817392D01*
X32200500Y-14685608D01*
X32166392Y-14558314D01*
X32100500Y-14444186D01*
X32063819Y-14407505D01*
X32049115Y-14380577D01*
X32032523Y-14354759D01*
X32031631Y-14348558D01*
X32030334Y-14346182D01*
X32027500Y-14319824D01*
X32027500Y-14287017D01*
X32047185Y-14219978D01*
X32063819Y-14199336D01*
X33099336Y-13163819D01*
X33160659Y-13130334D01*
X33187017Y-13127500D01*
X34768324Y-13127500D01*
X34835363Y-13147185D01*
X34856005Y-13163819D01*
X34892686Y-13200500D01*
X35006814Y-13266392D01*
X35134108Y-13300500D01*
X35134110Y-13300500D01*
X35265890Y-13300500D01*
X35265892Y-13300500D01*
X35393186Y-13266392D01*
X35507314Y-13200500D01*
X35600500Y-13107314D01*
X35666392Y-12993186D01*
X35700500Y-12865892D01*
X35700500Y-12734108D01*
X35699448Y-12730181D01*
X35699529Y-12726742D01*
X35699439Y-12726052D01*
X35699546Y-12726037D01*
X35701111Y-12660333D01*
X35740274Y-12602471D01*
X35804503Y-12574967D01*
X35851309Y-12578314D01*
X35934108Y-12600500D01*
X35934111Y-12600500D01*
X36065890Y-12600500D01*
X36065892Y-12600500D01*
X36193186Y-12566392D01*
X36307314Y-12500500D01*
X36370995Y-12436819D01*
X36432318Y-12403334D01*
X36458676Y-12400500D01*
X53839560Y-12400500D01*
X53839562Y-12400500D01*
X53915989Y-12380021D01*
X53984511Y-12340460D01*
X54040460Y-12284511D01*
X56040460Y-10284511D01*
X56063174Y-10245167D01*
X56101749Y-10206594D01*
X56100868Y-10205446D01*
X56107314Y-10200500D01*
X56107315Y-10200499D01*
X56200500Y-10107314D01*
X56266392Y-9993186D01*
X56300500Y-9865892D01*
X56300500Y-9734108D01*
X56266392Y-9606814D01*
X56200500Y-9492686D01*
X56107314Y-9399500D01*
X56050250Y-9366554D01*
X55993187Y-9333608D01*
X55929539Y-9316554D01*
X55865892Y-9299500D01*
X55734108Y-9299500D01*
X55606812Y-9333608D01*
X55492686Y-9399500D01*
X55492683Y-9399502D01*
X55399502Y-9492683D01*
X55399500Y-9492686D01*
X55333608Y-9606812D01*
X55314070Y-9679732D01*
X55299500Y-9734108D01*
X55299500Y-9865892D01*
X55333608Y-9993186D01*
X55340291Y-10004762D01*
X55356764Y-10072660D01*
X55333912Y-10138687D01*
X55320585Y-10154442D01*
X53711848Y-11763181D01*
X53650525Y-11796666D01*
X53624167Y-11799500D01*
X47834496Y-11799500D01*
X47767457Y-11779815D01*
X47721702Y-11727011D01*
X47711758Y-11657853D01*
X47740783Y-11594297D01*
X47799561Y-11556523D01*
X47802402Y-11555725D01*
X47803242Y-11555500D01*
X47803243Y-11555500D01*
X47886537Y-11533181D01*
X47961217Y-11490065D01*
X50562065Y-8889217D01*
X50605181Y-8814537D01*
X50627500Y-8731243D01*
X50627500Y-8645011D01*
X50627500Y-7383289D01*
X50633896Y-7361506D01*
X50635726Y-7338879D01*
X50643551Y-7328625D01*
X50647185Y-7316250D01*
X50664339Y-7301385D01*
X50678114Y-7283336D01*
X50690242Y-7278940D01*
X50699989Y-7270495D01*
X50722457Y-7267264D01*
X50743803Y-7259528D01*
X50756380Y-7262386D01*
X50769147Y-7260551D01*
X50789796Y-7269981D01*
X50811935Y-7275013D01*
X50824394Y-7285781D01*
X50832703Y-7289576D01*
X50839992Y-7296426D01*
X50847815Y-7304395D01*
X50849500Y-7307314D01*
X50913618Y-7371432D01*
X50913992Y-7371813D01*
X50930215Y-7402190D01*
X50946666Y-7432318D01*
X50946757Y-7433165D01*
X50946906Y-7433444D01*
X50946854Y-7434075D01*
X50949500Y-7458676D01*
X50949500Y-9590716D01*
X50929815Y-9657755D01*
X50913181Y-9678397D01*
X50818173Y-9773404D01*
X50818171Y-9773407D01*
X50752279Y-9887533D01*
X50728209Y-9977365D01*
X50718171Y-10014829D01*
X50718171Y-10146613D01*
X50723471Y-10166392D01*
X50752279Y-10273908D01*
X50767055Y-10299500D01*
X50818171Y-10388035D01*
X50911357Y-10481221D01*
X51025485Y-10547113D01*
X51152779Y-10581221D01*
X51152781Y-10581221D01*
X51284561Y-10581221D01*
X51284563Y-10581221D01*
X51411857Y-10547113D01*
X51525985Y-10481221D01*
X51619171Y-10388035D01*
X51685063Y-10273907D01*
X51719171Y-10146613D01*
X51719171Y-10014829D01*
X51685063Y-9887535D01*
X51619171Y-9773407D01*
X51586819Y-9741055D01*
X51553334Y-9679732D01*
X51550500Y-9653374D01*
X51550500Y-7458676D01*
X51570185Y-7391637D01*
X51586819Y-7370995D01*
X51609703Y-7348111D01*
X51650500Y-7307314D01*
X51716392Y-7193186D01*
X51750500Y-7065892D01*
X51750500Y-6934108D01*
X51716392Y-6806814D01*
X51650500Y-6692686D01*
X51557314Y-6599500D01*
X51480437Y-6555115D01*
X51443187Y-6533608D01*
X51379539Y-6516554D01*
X51315892Y-6499500D01*
X51184108Y-6499500D01*
X51056812Y-6533608D01*
X50942686Y-6599500D01*
X50942683Y-6599502D01*
X50843753Y-6698433D01*
X50842732Y-6697412D01*
X50793445Y-6733400D01*
X50723699Y-6737553D01*
X50662779Y-6703339D01*
X50630028Y-6641621D01*
X50627500Y-6616710D01*
X50627500Y-5431676D01*
X50647185Y-5364637D01*
X50663819Y-5343995D01*
X50681449Y-5326365D01*
X50700500Y-5307314D01*
X50766392Y-5193186D01*
X50800500Y-5065892D01*
X50800500Y-4934108D01*
X50787103Y-4884108D01*
X52149500Y-4884108D01*
X52149500Y-5015891D01*
X52183608Y-5143187D01*
X52190924Y-5155858D01*
X52249500Y-5257314D01*
X52342686Y-5350500D01*
X52456814Y-5416392D01*
X52584108Y-5450500D01*
X52584110Y-5450500D01*
X52715890Y-5450500D01*
X52715892Y-5450500D01*
X52843186Y-5416392D01*
X52957314Y-5350500D01*
X53020995Y-5286819D01*
X53082318Y-5253334D01*
X53108676Y-5250500D01*
X57237949Y-5250500D01*
X57304988Y-5270185D01*
X57350743Y-5322989D01*
X57360687Y-5392147D01*
X57345336Y-5436501D01*
X57333608Y-5456813D01*
X57299500Y-5584108D01*
X57299500Y-5715891D01*
X57333608Y-5843187D01*
X57361091Y-5890788D01*
X57399500Y-5957314D01*
X57492686Y-6050500D01*
X57606814Y-6116392D01*
X57734108Y-6150500D01*
X57734110Y-6150500D01*
X57865890Y-6150500D01*
X57865892Y-6150500D01*
X57993186Y-6116392D01*
X58107314Y-6050500D01*
X58200500Y-5957314D01*
X58266392Y-5843186D01*
X58300500Y-5715892D01*
X58300500Y-5584108D01*
X58266392Y-5456814D01*
X58200500Y-5342686D01*
X58136818Y-5279004D01*
X58103334Y-5217680D01*
X58100500Y-5191323D01*
X58100500Y-5110440D01*
X58100500Y-5110438D01*
X58088590Y-5065989D01*
X58080022Y-5034012D01*
X58040460Y-4965489D01*
X57784511Y-4709540D01*
X57759013Y-4694819D01*
X57759013Y-4694817D01*
X57759010Y-4694817D01*
X57715994Y-4669981D01*
X57715991Y-4669979D01*
X57677775Y-4659739D01*
X57639562Y-4649500D01*
X57639560Y-4649500D01*
X55681301Y-4649500D01*
X55614262Y-4629815D01*
X55568507Y-4577011D01*
X55558563Y-4507853D01*
X55587588Y-4444297D01*
X55619300Y-4418113D01*
X55676693Y-4384977D01*
X55719253Y-4352319D01*
X55802319Y-4269253D01*
X55834977Y-4226693D01*
X55893714Y-4124958D01*
X55914244Y-4075395D01*
X55944648Y-3961924D01*
X55951650Y-3908737D01*
X55951650Y-3791263D01*
X55951650Y-3791262D01*
X57648350Y-3791262D01*
X57648350Y-3908737D01*
X57655352Y-3961926D01*
X57685315Y-4073750D01*
X57685756Y-4075395D01*
X57706286Y-4124958D01*
X57765023Y-4226693D01*
X57797681Y-4269253D01*
X57880747Y-4352319D01*
X57923307Y-4384977D01*
X58025042Y-4443714D01*
X58074605Y-4464244D01*
X58188076Y-4494648D01*
X58224932Y-4499500D01*
X58241262Y-4501650D01*
X58241263Y-4501650D01*
X58358738Y-4501650D01*
X58366801Y-4500588D01*
X58411924Y-4494648D01*
X58525395Y-4464244D01*
X58574958Y-4443714D01*
X58676693Y-4384977D01*
X58719253Y-4352319D01*
X58802319Y-4269253D01*
X58834977Y-4226693D01*
X58893714Y-4124958D01*
X58914244Y-4075395D01*
X58944648Y-3961924D01*
X58951650Y-3908737D01*
X58951650Y-3791263D01*
X58944648Y-3738076D01*
X58914244Y-3624605D01*
X58893714Y-3575042D01*
X58834977Y-3473307D01*
X58802319Y-3430747D01*
X58719253Y-3347681D01*
X58676693Y-3315023D01*
X58574958Y-3256286D01*
X58525395Y-3235756D01*
X58525393Y-3235755D01*
X58525392Y-3235755D01*
X58411926Y-3205352D01*
X58358738Y-3198350D01*
X58358737Y-3198350D01*
X58241263Y-3198350D01*
X58241262Y-3198350D01*
X58188073Y-3205352D01*
X58074607Y-3235755D01*
X58074598Y-3235759D01*
X58025042Y-3256286D01*
X58025038Y-3256288D01*
X57923302Y-3315026D01*
X57880747Y-3347680D01*
X57797680Y-3430747D01*
X57765026Y-3473302D01*
X57706288Y-3575038D01*
X57706286Y-3575042D01*
X57685759Y-3624598D01*
X57685755Y-3624607D01*
X57655352Y-3738073D01*
X57648350Y-3791262D01*
X55951650Y-3791262D01*
X55944648Y-3738076D01*
X55914244Y-3624605D01*
X55893714Y-3575042D01*
X55834977Y-3473307D01*
X55802319Y-3430747D01*
X55719253Y-3347681D01*
X55676693Y-3315023D01*
X55574958Y-3256286D01*
X55525395Y-3235756D01*
X55525393Y-3235755D01*
X55525392Y-3235755D01*
X55411926Y-3205352D01*
X55358738Y-3198350D01*
X55358737Y-3198350D01*
X55241263Y-3198350D01*
X55241262Y-3198350D01*
X55188073Y-3205352D01*
X55074607Y-3235755D01*
X55074598Y-3235759D01*
X55025042Y-3256286D01*
X55025038Y-3256288D01*
X54923302Y-3315026D01*
X54880747Y-3347680D01*
X54797680Y-3430747D01*
X54765026Y-3473302D01*
X54706288Y-3575038D01*
X54706286Y-3575042D01*
X54685759Y-3624598D01*
X54685755Y-3624607D01*
X54655352Y-3738073D01*
X54648350Y-3791262D01*
X54648350Y-3908737D01*
X54655352Y-3961926D01*
X54685315Y-4073750D01*
X54685756Y-4075395D01*
X54706286Y-4124958D01*
X54765023Y-4226693D01*
X54797681Y-4269253D01*
X54880747Y-4352319D01*
X54923307Y-4384977D01*
X54980700Y-4418113D01*
X55028915Y-4468681D01*
X55042137Y-4537288D01*
X55016169Y-4602153D01*
X54959254Y-4642680D01*
X54918699Y-4649500D01*
X53108676Y-4649500D01*
X53041637Y-4629815D01*
X53020995Y-4613181D01*
X52957316Y-4549502D01*
X52957314Y-4549500D01*
X52900250Y-4516554D01*
X52843187Y-4483608D01*
X52770903Y-4464240D01*
X52715892Y-4449500D01*
X52584108Y-4449500D01*
X52456812Y-4483608D01*
X52342686Y-4549500D01*
X52342683Y-4549502D01*
X52249502Y-4642683D01*
X52249500Y-4642686D01*
X52183608Y-4756812D01*
X52149500Y-4884108D01*
X50787103Y-4884108D01*
X50766392Y-4806814D01*
X50700500Y-4692686D01*
X50607314Y-4599500D01*
X50550250Y-4566554D01*
X50493187Y-4533608D01*
X50397066Y-4507853D01*
X50365892Y-4499500D01*
X50234108Y-4499500D01*
X50106812Y-4533608D01*
X49992686Y-4599500D01*
X49992683Y-4599502D01*
X49899502Y-4692683D01*
X49899500Y-4692686D01*
X49833608Y-4806812D01*
X49812897Y-4884108D01*
X49799500Y-4934108D01*
X49799500Y-5065892D01*
X49816554Y-5129539D01*
X49833608Y-5193187D01*
X49860382Y-5239560D01*
X49899500Y-5307314D01*
X49899502Y-5307316D01*
X49936181Y-5343995D01*
X49969666Y-5405318D01*
X49972500Y-5431676D01*
X49972500Y-8501110D01*
X49952815Y-8568149D01*
X49936181Y-8588791D01*
X47660791Y-10864181D01*
X47599468Y-10897666D01*
X47573110Y-10900500D01*
X41423833Y-10900500D01*
X41356794Y-10880815D01*
X41311039Y-10828011D01*
X41301095Y-10758853D01*
X41330120Y-10695297D01*
X41336152Y-10688819D01*
X43261111Y-8763860D01*
X45090862Y-6934108D01*
X47049500Y-6934108D01*
X47049500Y-7065892D01*
X47054403Y-7084189D01*
X47083608Y-7193187D01*
X47106331Y-7232544D01*
X47149500Y-7307314D01*
X47149502Y-7307316D01*
X47213181Y-7370995D01*
X47246666Y-7432318D01*
X47249500Y-7458676D01*
X47249500Y-9241323D01*
X47229815Y-9308362D01*
X47213182Y-9329004D01*
X47149500Y-9392686D01*
X47083608Y-9506812D01*
X47064249Y-9579063D01*
X47049500Y-9634108D01*
X47049500Y-9765892D01*
X47052779Y-9778128D01*
X47083608Y-9893187D01*
X47116554Y-9950250D01*
X47149500Y-10007314D01*
X47242686Y-10100500D01*
X47356814Y-10166392D01*
X47484108Y-10200500D01*
X47484110Y-10200500D01*
X47615890Y-10200500D01*
X47615892Y-10200500D01*
X47743186Y-10166392D01*
X47857314Y-10100500D01*
X47950500Y-10007314D01*
X48016392Y-9893186D01*
X48050500Y-9765892D01*
X48050500Y-9634108D01*
X48016392Y-9506814D01*
X47950500Y-9392686D01*
X47886818Y-9329004D01*
X47853334Y-9267680D01*
X47850500Y-9241323D01*
X47850500Y-7458676D01*
X47870185Y-7391637D01*
X47886819Y-7370995D01*
X47909703Y-7348111D01*
X47950500Y-7307314D01*
X48016392Y-7193186D01*
X48050500Y-7065892D01*
X48050500Y-6934108D01*
X48016392Y-6806814D01*
X47950500Y-6692686D01*
X47857314Y-6599500D01*
X47780437Y-6555115D01*
X47743187Y-6533608D01*
X47679539Y-6516554D01*
X47615892Y-6499500D01*
X47484108Y-6499500D01*
X47356812Y-6533608D01*
X47242686Y-6599500D01*
X47242683Y-6599502D01*
X47149502Y-6692683D01*
X47149500Y-6692686D01*
X47083608Y-6806812D01*
X47050114Y-6931818D01*
X47049500Y-6934108D01*
X45090862Y-6934108D01*
X46488151Y-5536818D01*
X46549474Y-5503334D01*
X46575832Y-5500500D01*
X46665890Y-5500500D01*
X46665892Y-5500500D01*
X46793186Y-5466392D01*
X46907314Y-5400500D01*
X47000500Y-5307314D01*
X47066392Y-5193186D01*
X47100500Y-5065892D01*
X47100500Y-4934108D01*
X47066392Y-4806814D01*
X47000500Y-4692686D01*
X46907314Y-4599500D01*
X46850250Y-4566554D01*
X46793187Y-4533608D01*
X46697066Y-4507853D01*
X46665892Y-4499500D01*
X46534108Y-4499500D01*
X46406812Y-4533608D01*
X46292686Y-4599500D01*
X46292683Y-4599502D01*
X46199502Y-4692683D01*
X46199500Y-4692686D01*
X46133608Y-4806812D01*
X46099500Y-4934108D01*
X46099500Y-5024166D01*
X46079815Y-5091205D01*
X46063181Y-5111847D01*
X40811848Y-10363181D01*
X40750525Y-10396666D01*
X40724167Y-10399500D01*
X31810438Y-10399500D01*
X31772224Y-10409739D01*
X31734009Y-10419979D01*
X31699923Y-10439659D01*
X31682879Y-10449500D01*
X31682877Y-10449500D01*
X31682877Y-10449501D01*
X31665492Y-10459537D01*
X31665487Y-10459541D01*
X29561848Y-12563181D01*
X29500525Y-12596666D01*
X29474167Y-12599500D01*
X26705176Y-12599500D01*
X26638137Y-12579815D01*
X26617495Y-12563181D01*
X26553816Y-12499502D01*
X26553814Y-12499500D01*
X26485237Y-12459907D01*
X26439687Y-12433608D01*
X26347649Y-12408947D01*
X26312392Y-12399500D01*
X26180608Y-12399500D01*
X26053312Y-12433608D01*
X25939186Y-12499500D01*
X25939183Y-12499502D01*
X25846002Y-12592683D01*
X25846000Y-12592686D01*
X25780108Y-12706812D01*
X25750347Y-12817884D01*
X25746000Y-12834108D01*
X25466500Y-12834108D01*
X25466500Y-12817884D01*
X25453233Y-12768374D01*
X25450537Y-12755684D01*
X25426403Y-12603303D01*
X25426402Y-12603302D01*
X25426402Y-12603299D01*
X25372873Y-12438555D01*
X25294232Y-12284212D01*
X25192414Y-12144072D01*
X25069928Y-12021586D01*
X24943619Y-11929817D01*
X24900955Y-11874488D01*
X24894976Y-11804874D01*
X24927582Y-11743079D01*
X24943616Y-11729184D01*
X25069928Y-11637414D01*
X25192414Y-11514928D01*
X25294232Y-11374788D01*
X25372873Y-11220445D01*
X25379355Y-11200497D01*
X25384657Y-11184180D01*
X25424095Y-11126505D01*
X25488454Y-11099308D01*
X25502587Y-11098500D01*
X28589323Y-11098500D01*
X28656362Y-11118185D01*
X28677004Y-11134818D01*
X28742686Y-11200500D01*
X28856814Y-11266392D01*
X28984108Y-11300500D01*
X28984110Y-11300500D01*
X29115890Y-11300500D01*
X29115892Y-11300500D01*
X29243186Y-11266392D01*
X29357314Y-11200500D01*
X29450500Y-11107314D01*
X29516392Y-10993186D01*
X29550500Y-10865892D01*
X29550500Y-10734108D01*
X29516392Y-10606814D01*
X29450500Y-10492686D01*
X29357314Y-10399500D01*
X29294408Y-10363181D01*
X29243187Y-10333608D01*
X29179539Y-10316554D01*
X29115892Y-10299500D01*
X28984108Y-10299500D01*
X28856812Y-10333608D01*
X28742686Y-10399500D01*
X28742683Y-10399502D01*
X28681005Y-10461181D01*
X28619682Y-10494666D01*
X28593324Y-10497500D01*
X25502587Y-10497500D01*
X25435548Y-10477815D01*
X25389793Y-10425011D01*
X25384657Y-10411820D01*
X25372873Y-10375554D01*
X25294231Y-10221211D01*
X25282777Y-10205446D01*
X25192414Y-10081072D01*
X25069928Y-9958586D01*
X24929788Y-9856768D01*
X24775445Y-9778127D01*
X24610701Y-9724598D01*
X24610699Y-9724597D01*
X24610698Y-9724597D01*
X24479271Y-9703781D01*
X24439611Y-9697500D01*
X23566389Y-9697500D01*
X23526728Y-9703781D01*
X23395302Y-9724597D01*
X23395299Y-9724598D01*
X23248646Y-9772249D01*
X23230552Y-9778128D01*
X23076211Y-9856768D01*
X22996256Y-9914859D01*
X22936072Y-9958586D01*
X22936070Y-9958588D01*
X22936069Y-9958588D01*
X22813588Y-10081069D01*
X22813588Y-10081070D01*
X22813586Y-10081072D01*
X22799471Y-10100500D01*
X22711768Y-10221211D01*
X22633126Y-10375554D01*
X22621343Y-10411820D01*
X22581905Y-10469495D01*
X22517546Y-10496692D01*
X22503413Y-10497500D01*
X21962438Y-10497500D01*
X21924224Y-10507739D01*
X21886009Y-10517979D01*
X21886008Y-10517980D01*
X21835549Y-10547113D01*
X21817492Y-10557538D01*
X21817486Y-10557542D01*
X20211847Y-12163181D01*
X20150524Y-12196666D01*
X20124166Y-12199500D01*
X20034108Y-12199500D01*
X19906812Y-12233608D01*
X19792686Y-12299500D01*
X19792683Y-12299502D01*
X19699502Y-12392683D01*
X19699500Y-12392686D01*
X19633608Y-12506812D01*
X19609962Y-12595064D01*
X19599500Y-12634108D01*
X19599500Y-12765892D01*
X19617778Y-12834108D01*
X19620270Y-12843407D01*
X19618607Y-12913257D01*
X19579444Y-12971119D01*
X19534061Y-12994870D01*
X19517595Y-12999500D01*
X19460438Y-12999500D01*
X19384011Y-13019979D01*
X19339788Y-13045511D01*
X19326325Y-13053283D01*
X19326324Y-13053284D01*
X19315489Y-13059539D01*
X19315487Y-13059541D01*
X18608840Y-13766187D01*
X18547517Y-13799672D01*
X18481881Y-13794978D01*
X18481658Y-13795716D01*
X18478406Y-13794729D01*
X18477825Y-13794688D01*
X18476325Y-13794098D01*
X18475828Y-13793947D01*
X18282543Y-13755500D01*
X18282541Y-13755500D01*
X18085459Y-13755500D01*
X18085457Y-13755500D01*
X17892170Y-13793947D01*
X17892160Y-13793950D01*
X17710092Y-13869364D01*
X17710079Y-13869371D01*
X17546218Y-13978860D01*
X17546214Y-13978863D01*
X17406863Y-14118214D01*
X17406860Y-14118218D01*
X17297371Y-14282079D01*
X17297364Y-14282092D01*
X17221950Y-14464160D01*
X17221947Y-14464170D01*
X17183500Y-14657456D01*
X17183500Y-14657459D01*
X17183500Y-14854541D01*
X17183500Y-14854543D01*
X17183499Y-14854543D01*
X17221947Y-15047829D01*
X17221950Y-15047839D01*
X17297364Y-15229907D01*
X17297371Y-15229920D01*
X17406860Y-15393781D01*
X17406863Y-15393785D01*
X17546214Y-15533136D01*
X17546218Y-15533139D01*
X17710079Y-15642628D01*
X17710092Y-15642635D01*
X17871958Y-15709681D01*
X17892165Y-15718051D01*
X17892169Y-15718051D01*
X17892170Y-15718052D01*
X18085456Y-15756500D01*
X18085459Y-15756500D01*
X18282543Y-15756500D01*
X18412582Y-15730632D01*
X18475835Y-15718051D01*
X18657914Y-15642632D01*
X18821782Y-15533139D01*
X18961139Y-15393782D01*
X19070632Y-15229914D01*
X19146051Y-15047835D01*
X19169725Y-14928819D01*
X19184500Y-14854543D01*
X19184500Y-14657456D01*
X19146052Y-14464170D01*
X19146051Y-14464169D01*
X19146051Y-14464165D01*
X19146049Y-14464160D01*
X19070636Y-14282095D01*
X19070634Y-14282092D01*
X19070632Y-14282086D01*
X19070627Y-14282079D01*
X19069491Y-14279953D01*
X19069229Y-14278699D01*
X19068301Y-14276457D01*
X19068726Y-14276280D01*
X19055242Y-14211552D01*
X19080235Y-14146306D01*
X19091154Y-14133815D01*
X19588152Y-13636819D01*
X19649475Y-13603334D01*
X19675833Y-13600500D01*
X22784796Y-13600500D01*
X22851835Y-13620185D01*
X22872477Y-13636819D01*
X22936072Y-13700414D01*
X23011891Y-13755500D01*
X23062379Y-13792182D01*
X23105044Y-13847513D01*
X23111023Y-13917126D01*
X23078417Y-13978921D01*
X23062379Y-13992818D01*
X22936070Y-14084587D01*
X22813588Y-14207069D01*
X22813588Y-14207070D01*
X22813586Y-14207072D01*
X22793943Y-14234108D01*
X22711768Y-14347211D01*
X22633128Y-14501552D01*
X22633127Y-14501554D01*
X22633127Y-14501555D01*
X22614685Y-14558312D01*
X22579598Y-14666299D01*
X22552500Y-14837389D01*
X22552500Y-15010610D01*
X22579161Y-15178947D01*
X22579598Y-15181701D01*
X22633127Y-15346445D01*
X22711768Y-15500788D01*
X22813586Y-15640928D01*
X22936072Y-15763414D01*
X23018084Y-15822999D01*
X23062379Y-15855182D01*
X23105044Y-15910513D01*
X23111023Y-15980126D01*
X23078417Y-16041921D01*
X23062379Y-16055818D01*
X22936070Y-16147587D01*
X22813588Y-16270069D01*
X22813588Y-16270070D01*
X22813586Y-16270072D01*
X22791479Y-16300500D01*
X22711768Y-16410211D01*
X22633128Y-16564552D01*
X22579597Y-16729302D01*
X22553986Y-16891005D01*
X22524057Y-16954140D01*
X22464745Y-16991071D01*
X22394883Y-16990073D01*
X22336650Y-16951463D01*
X22324126Y-16933607D01*
X22300502Y-16892689D01*
X22300497Y-16892683D01*
X22207316Y-16799502D01*
X22207314Y-16799500D01*
X22150250Y-16766554D01*
X22093187Y-16733608D01*
X21985944Y-16704873D01*
X21965892Y-16699500D01*
X21875833Y-16699500D01*
X21849410Y-16691741D01*
X21822229Y-16687315D01*
X21813654Y-16681242D01*
X21808794Y-16679815D01*
X21792899Y-16667684D01*
X21790467Y-16665496D01*
X21684511Y-16559540D01*
X21662791Y-16547000D01*
X21651529Y-16540498D01*
X21651527Y-16540496D01*
X21615991Y-16519980D01*
X21615990Y-16519979D01*
X21590513Y-16513152D01*
X21539562Y-16499500D01*
X21539560Y-16499500D01*
X20699505Y-16499500D01*
X20632466Y-16479815D01*
X20586711Y-16427011D01*
X20576767Y-16357853D01*
X20579730Y-16343407D01*
X20581495Y-16336819D01*
X20600500Y-16265892D01*
X20600500Y-16134108D01*
X20566392Y-16006814D01*
X20500500Y-15892686D01*
X20436818Y-15829004D01*
X20403334Y-15767680D01*
X20400500Y-15741323D01*
X20400500Y-14858676D01*
X20420185Y-14791637D01*
X20436819Y-14770995D01*
X20441423Y-14766391D01*
X20500500Y-14707314D01*
X20566392Y-14593186D01*
X20600500Y-14465892D01*
X20600500Y-14334108D01*
X20566392Y-14206814D01*
X20565637Y-14205507D01*
X20557563Y-14191521D01*
X20500500Y-14092686D01*
X20407314Y-13999500D01*
X20344408Y-13963181D01*
X20293187Y-13933608D01*
X20183160Y-13904127D01*
X20165892Y-13899500D01*
X20034108Y-13899500D01*
X19906812Y-13933608D01*
X19792686Y-13999500D01*
X19792683Y-13999502D01*
X19699502Y-14092683D01*
X19699500Y-14092686D01*
X19633608Y-14206812D01*
X19612923Y-14284013D01*
X19599500Y-14334108D01*
X19599500Y-14465892D01*
X19616554Y-14529539D01*
X19633608Y-14593187D01*
X19666554Y-14650250D01*
X19699500Y-14707314D01*
X19699502Y-14707316D01*
X19763181Y-14770995D01*
X19796666Y-14832318D01*
X19799500Y-14858676D01*
X19799500Y-15741323D01*
X19779815Y-15808362D01*
X19763182Y-15829004D01*
X19699500Y-15892686D01*
X19633608Y-16006812D01*
X19617644Y-16066392D01*
X19599500Y-16134108D01*
X19599500Y-16265892D01*
X19615744Y-16326517D01*
X19620270Y-16343407D01*
X19618607Y-16413257D01*
X19579444Y-16471119D01*
X19515216Y-16498623D01*
X19500495Y-16499500D01*
X19190883Y-16499500D01*
X19123844Y-16479815D01*
X19103202Y-16463181D01*
X18824562Y-16184541D01*
X18824554Y-16184535D01*
X18786367Y-16162488D01*
X18786363Y-16162487D01*
X18775782Y-16156378D01*
X18756040Y-16144979D01*
X18756041Y-16144979D01*
X18713162Y-16133490D01*
X18679612Y-16124500D01*
X17767512Y-16124500D01*
X17688388Y-16124500D01*
X17611960Y-16144978D01*
X17567326Y-16170749D01*
X17499426Y-16187222D01*
X17433399Y-16164370D01*
X17417644Y-16151043D01*
X15741473Y-14474872D01*
X15707988Y-14413549D01*
X15712972Y-14343857D01*
X15754844Y-14287924D01*
X15781692Y-14272635D01*
X15817914Y-14257632D01*
X15981782Y-14148139D01*
X16121139Y-14008782D01*
X16230632Y-13844914D01*
X16306051Y-13662835D01*
X16344500Y-13469541D01*
X16344500Y-13272459D01*
X16344500Y-13272456D01*
X16306052Y-13079170D01*
X16306051Y-13079169D01*
X16306051Y-13079165D01*
X16273053Y-12999500D01*
X16230635Y-12897092D01*
X16230628Y-12897079D01*
X16121139Y-12733218D01*
X16121136Y-12733214D01*
X15981785Y-12593863D01*
X15981781Y-12593860D01*
X15817920Y-12484371D01*
X15817907Y-12484364D01*
X15635839Y-12408950D01*
X15635829Y-12408947D01*
X15442543Y-12370500D01*
X15442541Y-12370500D01*
X15245459Y-12370500D01*
X15245457Y-12370500D01*
X15052170Y-12408947D01*
X15052160Y-12408950D01*
X14870092Y-12484364D01*
X14870079Y-12484371D01*
X14706218Y-12593860D01*
X14706214Y-12593863D01*
X14566863Y-12733214D01*
X14566860Y-12733218D01*
X14457371Y-12897079D01*
X14457364Y-12897092D01*
X14381950Y-13079160D01*
X14381947Y-13079170D01*
X14343500Y-13272456D01*
X14343500Y-13272459D01*
X14343500Y-13469541D01*
X14343500Y-13469543D01*
X14343499Y-13469543D01*
X13100000Y-13469543D01*
X13100000Y-12084543D01*
X17183499Y-12084543D01*
X17221947Y-12277829D01*
X17221950Y-12277839D01*
X17297364Y-12459907D01*
X17297371Y-12459920D01*
X17406860Y-12623781D01*
X17406863Y-12623785D01*
X17546214Y-12763136D01*
X17546218Y-12763139D01*
X17710079Y-12872628D01*
X17710092Y-12872635D01*
X17875915Y-12941320D01*
X17892165Y-12948051D01*
X17892169Y-12948051D01*
X17892170Y-12948052D01*
X18085456Y-12986500D01*
X18085459Y-12986500D01*
X18282543Y-12986500D01*
X18416322Y-12959889D01*
X18475835Y-12948051D01*
X18657914Y-12872632D01*
X18821782Y-12763139D01*
X18961139Y-12623782D01*
X19070632Y-12459914D01*
X19146051Y-12277835D01*
X19168318Y-12165892D01*
X19184500Y-12084543D01*
X19184500Y-11887456D01*
X19146052Y-11694170D01*
X19146051Y-11694169D01*
X19146051Y-11694165D01*
X19122544Y-11637414D01*
X19070635Y-11512092D01*
X19070628Y-11512079D01*
X18961139Y-11348218D01*
X18961136Y-11348214D01*
X18821785Y-11208863D01*
X18821781Y-11208860D01*
X18657920Y-11099371D01*
X18657907Y-11099364D01*
X18475839Y-11023950D01*
X18475829Y-11023947D01*
X18282543Y-10985500D01*
X18282541Y-10985500D01*
X18085459Y-10985500D01*
X18085457Y-10985500D01*
X17892170Y-11023947D01*
X17892160Y-11023950D01*
X17710092Y-11099364D01*
X17710079Y-11099371D01*
X17546218Y-11208860D01*
X17546214Y-11208863D01*
X17406863Y-11348214D01*
X17406860Y-11348218D01*
X17297371Y-11512079D01*
X17297364Y-11512092D01*
X17221950Y-11694160D01*
X17221947Y-11694170D01*
X17183500Y-11887456D01*
X17183500Y-11887459D01*
X17183500Y-12084541D01*
X17183500Y-12084543D01*
X17183499Y-12084543D01*
X13100000Y-12084543D01*
X13100000Y-8016678D01*
X29775000Y-8016678D01*
X29775000Y-8253250D01*
X30475000Y-8253250D01*
X30475000Y-8753250D01*
X29775000Y-8753250D01*
X29775000Y-8989821D01*
X29802085Y-9160834D01*
X29855591Y-9325507D01*
X29934195Y-9479774D01*
X30035967Y-9619852D01*
X30158397Y-9742282D01*
X30298475Y-9844054D01*
X30452744Y-9922658D01*
X30617415Y-9976164D01*
X30617414Y-9976164D01*
X30624999Y-9977365D01*
X30625000Y-9977364D01*
X30625000Y-9218936D01*
X30629394Y-9223330D01*
X30720606Y-9275991D01*
X30822339Y-9303250D01*
X30927661Y-9303250D01*
X31029394Y-9275991D01*
X31120606Y-9223330D01*
X31125000Y-9218936D01*
X31125000Y-9977365D01*
X31132584Y-9976164D01*
X31297255Y-9922658D01*
X31451524Y-9844054D01*
X31591602Y-9742282D01*
X31714032Y-9619852D01*
X31815804Y-9479774D01*
X31894408Y-9325507D01*
X31947914Y-9160834D01*
X31975000Y-8989821D01*
X31975000Y-8675422D01*
X31994685Y-8608383D01*
X32047489Y-8562628D01*
X32116647Y-8552684D01*
X32131066Y-8555641D01*
X32197866Y-8573540D01*
X32235430Y-8578485D01*
X32251052Y-8580542D01*
X32251053Y-8580542D01*
X32348944Y-8580542D01*
X32348947Y-8580542D01*
X32358809Y-8579243D01*
X32375711Y-8581878D01*
X32392647Y-8579443D01*
X32409518Y-8587147D01*
X32427842Y-8590004D01*
X32440637Y-8601359D01*
X32456203Y-8608468D01*
X32466231Y-8624072D01*
X32480101Y-8636381D01*
X32484916Y-8653147D01*
X32493977Y-8667246D01*
X32499000Y-8702181D01*
X32499000Y-8813073D01*
X32479315Y-8880112D01*
X32462682Y-8900754D01*
X32399000Y-8964436D01*
X32333108Y-9078562D01*
X32299000Y-9205858D01*
X32299000Y-9337641D01*
X32333108Y-9464937D01*
X32357285Y-9506812D01*
X32399000Y-9579064D01*
X32492186Y-9672250D01*
X32606314Y-9738142D01*
X32733608Y-9772250D01*
X32733610Y-9772250D01*
X32865390Y-9772250D01*
X32865392Y-9772250D01*
X32992686Y-9738142D01*
X33106814Y-9672250D01*
X33200000Y-9579064D01*
X33265892Y-9464936D01*
X33300000Y-9337642D01*
X33300000Y-9205858D01*
X33265892Y-9078564D01*
X33200000Y-8964436D01*
X33136318Y-8900754D01*
X33121613Y-8873823D01*
X33105023Y-8848008D01*
X33104131Y-8841805D01*
X33102834Y-8839430D01*
X33100000Y-8813073D01*
X33100000Y-8768083D01*
X33119685Y-8701044D01*
X33136319Y-8680402D01*
X33192649Y-8624072D01*
X33265460Y-8551261D01*
X33279078Y-8527674D01*
X33305021Y-8482739D01*
X33325500Y-8406312D01*
X33325500Y-7299583D01*
X33345185Y-7232544D01*
X33361819Y-7211902D01*
X34413152Y-6160569D01*
X34474475Y-6127084D01*
X34500833Y-6124250D01*
X37623695Y-6124250D01*
X37690734Y-6143935D01*
X37736489Y-6196739D01*
X37746433Y-6265897D01*
X37717408Y-6329453D01*
X37711376Y-6335931D01*
X37059541Y-6987765D01*
X37059535Y-6987773D01*
X37019982Y-7056282D01*
X37019979Y-7056287D01*
X37012596Y-7083841D01*
X36999500Y-7132716D01*
X36999500Y-9011312D01*
X37011915Y-9057644D01*
X37019979Y-9087740D01*
X37019980Y-9087741D01*
X37048109Y-9136462D01*
X37059540Y-9156261D01*
X37059542Y-9156263D01*
X37063181Y-9159902D01*
X37096666Y-9221225D01*
X37099500Y-9247583D01*
X37099500Y-9337641D01*
X37133608Y-9464937D01*
X37157785Y-9506812D01*
X37199500Y-9579064D01*
X37292686Y-9672250D01*
X37406814Y-9738142D01*
X37534108Y-9772250D01*
X37534110Y-9772250D01*
X37665890Y-9772250D01*
X37665892Y-9772250D01*
X37793186Y-9738142D01*
X37907314Y-9672250D01*
X38000500Y-9579064D01*
X38066392Y-9464936D01*
X38100500Y-9337642D01*
X38100500Y-9205858D01*
X38066392Y-9078564D01*
X38000500Y-8964436D01*
X37907314Y-8871250D01*
X37793186Y-8805358D01*
X37724194Y-8786871D01*
X37692406Y-8778354D01*
X37668629Y-8763860D01*
X37643297Y-8752292D01*
X37639205Y-8745925D01*
X37632746Y-8741988D01*
X37620580Y-8716944D01*
X37605523Y-8693514D01*
X37603977Y-8682765D01*
X37602217Y-8679141D01*
X37600500Y-8658579D01*
X37600500Y-8596237D01*
X37620185Y-8529198D01*
X37672989Y-8483443D01*
X37742147Y-8473499D01*
X37786497Y-8488848D01*
X37853745Y-8527674D01*
X37853750Y-8527676D01*
X37853756Y-8527679D01*
X37903291Y-8548197D01*
X37903297Y-8548198D01*
X37903307Y-8548203D01*
X37997866Y-8573540D01*
X38035430Y-8578485D01*
X38051052Y-8580542D01*
X38051053Y-8580542D01*
X38148948Y-8580542D01*
X38161022Y-8578952D01*
X38202134Y-8573540D01*
X38268911Y-8555647D01*
X38338755Y-8557310D01*
X38396618Y-8596472D01*
X38424123Y-8660700D01*
X38425000Y-8675422D01*
X38425000Y-8989821D01*
X38452085Y-9160834D01*
X38505591Y-9325507D01*
X38584195Y-9479774D01*
X38685967Y-9619852D01*
X38808397Y-9742282D01*
X38948475Y-9844054D01*
X39102744Y-9922658D01*
X39267415Y-9976164D01*
X39267414Y-9976164D01*
X39274999Y-9977365D01*
X39275000Y-9977364D01*
X39275000Y-9218936D01*
X39279394Y-9223330D01*
X39370606Y-9275991D01*
X39472339Y-9303250D01*
X39577661Y-9303250D01*
X39679394Y-9275991D01*
X39770606Y-9223330D01*
X39775000Y-9218936D01*
X39775000Y-9977365D01*
X39782584Y-9976164D01*
X39947255Y-9922658D01*
X40101524Y-9844054D01*
X40241602Y-9742282D01*
X40364032Y-9619852D01*
X40465804Y-9479774D01*
X40544408Y-9325507D01*
X40597914Y-9160834D01*
X40625000Y-8989821D01*
X40625000Y-8753250D01*
X39925000Y-8753250D01*
X39925000Y-8253250D01*
X40625000Y-8253250D01*
X40625000Y-8016678D01*
X40597914Y-7845665D01*
X40544408Y-7680992D01*
X40465804Y-7526725D01*
X40364032Y-7386647D01*
X40241602Y-7264217D01*
X40101524Y-7162445D01*
X39947257Y-7083841D01*
X39782589Y-7030337D01*
X39782581Y-7030335D01*
X39775000Y-7029134D01*
X39775000Y-7787564D01*
X39770606Y-7783170D01*
X39679394Y-7730509D01*
X39577661Y-7703250D01*
X39472339Y-7703250D01*
X39370606Y-7730509D01*
X39279394Y-7783170D01*
X39275000Y-7787564D01*
X39275000Y-7029134D01*
X39274999Y-7029134D01*
X39267418Y-7030335D01*
X39267410Y-7030337D01*
X39102742Y-7083841D01*
X38948475Y-7162445D01*
X38808397Y-7264217D01*
X38685965Y-7386649D01*
X38685961Y-7386654D01*
X38603702Y-7499875D01*
X38548372Y-7542541D01*
X38478759Y-7548520D01*
X38435283Y-7528712D01*
X38434406Y-7530026D01*
X38431032Y-7527771D01*
X38346253Y-7478825D01*
X38346243Y-7478820D01*
X38296708Y-7458302D01*
X38296696Y-7458298D01*
X38296693Y-7458297D01*
X38202134Y-7432960D01*
X38202128Y-7432959D01*
X38202123Y-7432958D01*
X38148948Y-7425958D01*
X38148947Y-7425958D01*
X38051053Y-7425958D01*
X38051052Y-7425958D01*
X37997876Y-7432958D01*
X37997869Y-7432959D01*
X37997866Y-7432960D01*
X37952197Y-7445197D01*
X37903307Y-7458297D01*
X37903291Y-7458302D01*
X37853756Y-7478820D01*
X37853746Y-7478825D01*
X37786499Y-7517650D01*
X37780597Y-7519081D01*
X37776011Y-7523056D01*
X37747042Y-7527221D01*
X37718599Y-7534121D01*
X37712863Y-7532135D01*
X37706853Y-7533000D01*
X37680227Y-7520840D01*
X37652572Y-7511269D01*
X37648819Y-7506496D01*
X37643297Y-7503975D01*
X37627473Y-7479352D01*
X37609382Y-7456347D01*
X37607965Y-7448997D01*
X37605523Y-7445197D01*
X37600500Y-7410262D01*
X37600500Y-7348111D01*
X37620185Y-7281072D01*
X37636819Y-7260430D01*
X38736680Y-6160569D01*
X38798003Y-6127084D01*
X38824361Y-6124250D01*
X40015810Y-6124250D01*
X40015812Y-6124250D01*
X40092239Y-6103771D01*
X40160761Y-6064210D01*
X40216710Y-6008261D01*
X40840460Y-5384511D01*
X40880022Y-5315988D01*
X40900500Y-5239562D01*
X40900500Y-5160438D01*
X40900500Y-3850833D01*
X40920185Y-3783794D01*
X40936819Y-3763152D01*
X41363152Y-3336819D01*
X41424475Y-3303334D01*
X41450833Y-3300500D01*
X43991324Y-3300500D01*
X44058363Y-3320185D01*
X44079005Y-3336819D01*
X44142686Y-3400500D01*
X44256814Y-3466392D01*
X44384108Y-3500500D01*
X44384110Y-3500500D01*
X44515890Y-3500500D01*
X44515892Y-3500500D01*
X44643186Y-3466392D01*
X44757314Y-3400500D01*
X44850500Y-3307314D01*
X44916392Y-3193186D01*
X44950500Y-3065892D01*
X44950500Y-2934108D01*
X44916392Y-2806814D01*
X44850500Y-2692686D01*
X44757314Y-2599500D01*
X44700250Y-2566554D01*
X44643187Y-2533608D01*
X44579539Y-2516554D01*
X44515892Y-2499500D01*
X44384108Y-2499500D01*
X44256812Y-2533608D01*
X44142686Y-2599500D01*
X44142683Y-2599502D01*
X44079005Y-2663181D01*
X44017682Y-2696666D01*
X43991324Y-2699500D01*
X41235438Y-2699500D01*
X41197224Y-2709739D01*
X41159009Y-2719979D01*
X41159004Y-2719982D01*
X41090495Y-2759535D01*
X41090487Y-2759541D01*
X40541137Y-3308890D01*
X40479814Y-3342375D01*
X40410122Y-3337391D01*
X40365775Y-3308890D01*
X40241602Y-3184717D01*
X40101524Y-3082945D01*
X39947257Y-3004341D01*
X39782589Y-2950837D01*
X39782581Y-2950835D01*
X39775000Y-2949634D01*
X39775000Y-3708064D01*
X39770606Y-3703670D01*
X39679394Y-3651009D01*
X39577661Y-3623750D01*
X39472339Y-3623750D01*
X39370606Y-3651009D01*
X39279394Y-3703670D01*
X39275000Y-3708064D01*
X39275000Y-2949634D01*
X39274999Y-2949634D01*
X39267418Y-2950835D01*
X39267410Y-2950837D01*
X39102742Y-3004341D01*
X38948475Y-3082945D01*
X38808397Y-3184717D01*
X38685967Y-3307147D01*
X38584195Y-3447225D01*
X38505591Y-3601492D01*
X38452085Y-3766165D01*
X38425000Y-3937178D01*
X38425000Y-4073750D01*
X39125000Y-4073750D01*
X39125000Y-4573750D01*
X38425000Y-4573750D01*
X38425000Y-4710321D01*
X38452085Y-4881334D01*
X38505591Y-5046007D01*
X38584198Y-5200278D01*
X38675804Y-5326365D01*
X38699284Y-5392172D01*
X38683458Y-5460225D01*
X38633352Y-5508920D01*
X38575486Y-5523250D01*
X34285438Y-5523250D01*
X34209010Y-5543728D01*
X34140489Y-5583290D01*
X34140486Y-5583292D01*
X32784541Y-6939237D01*
X32784535Y-6939245D01*
X32744982Y-7007754D01*
X32744979Y-7007759D01*
X32724500Y-7084189D01*
X32724500Y-7367318D01*
X32704815Y-7434357D01*
X32652011Y-7480112D01*
X32582853Y-7490056D01*
X32550189Y-7479935D01*
X32550006Y-7480379D01*
X32496708Y-7458302D01*
X32496696Y-7458298D01*
X32496693Y-7458297D01*
X32402134Y-7432960D01*
X32402128Y-7432959D01*
X32402123Y-7432958D01*
X32348948Y-7425958D01*
X32348947Y-7425958D01*
X32251053Y-7425958D01*
X32251052Y-7425958D01*
X32197876Y-7432958D01*
X32197869Y-7432959D01*
X32197866Y-7432960D01*
X32152197Y-7445197D01*
X32103307Y-7458297D01*
X32103291Y-7458302D01*
X32053756Y-7478820D01*
X32053746Y-7478825D01*
X31968967Y-7527771D01*
X31965594Y-7530026D01*
X31964535Y-7528442D01*
X31906285Y-7550612D01*
X31837914Y-7536216D01*
X31796296Y-7499875D01*
X31714032Y-7386647D01*
X31591602Y-7264217D01*
X31451524Y-7162445D01*
X31297257Y-7083841D01*
X31132589Y-7030337D01*
X31132581Y-7030335D01*
X31125000Y-7029134D01*
X31125000Y-7787564D01*
X31120606Y-7783170D01*
X31029394Y-7730509D01*
X30927661Y-7703250D01*
X30822339Y-7703250D01*
X30720606Y-7730509D01*
X30629394Y-7783170D01*
X30625000Y-7787564D01*
X30625000Y-7029134D01*
X30624999Y-7029134D01*
X30617418Y-7030335D01*
X30617410Y-7030337D01*
X30452742Y-7083841D01*
X30298475Y-7162445D01*
X30158397Y-7264217D01*
X30035967Y-7386647D01*
X29934195Y-7526725D01*
X29855591Y-7680992D01*
X29802085Y-7845665D01*
X29775000Y-8016678D01*
X13100000Y-8016678D01*
X13100000Y-4776000D01*
X14175716Y-4776000D01*
X15133029Y-4776000D01*
X15114000Y-4896142D01*
X15114000Y-5155858D01*
X15133029Y-5276000D01*
X14175716Y-5276000D01*
X14196694Y-5462189D01*
X14196696Y-5462201D01*
X14261678Y-5746910D01*
X14261681Y-5746918D01*
X14358129Y-6022548D01*
X14484831Y-6285648D01*
X14640199Y-6532914D01*
X14822274Y-6761230D01*
X15028769Y-6967725D01*
X15257085Y-7149800D01*
X15504351Y-7305168D01*
X15767451Y-7431870D01*
X16043081Y-7528318D01*
X16043089Y-7528321D01*
X16327805Y-7593305D01*
X16327802Y-7593305D01*
X16513999Y-7614283D01*
X16514000Y-7614283D01*
X16514000Y-6656971D01*
X16634142Y-6676000D01*
X16893858Y-6676000D01*
X17014000Y-6656971D01*
X17014000Y-7614283D01*
X17200195Y-7593305D01*
X17484910Y-7528321D01*
X17484918Y-7528318D01*
X17760548Y-7431870D01*
X18023648Y-7305168D01*
X18270914Y-7149800D01*
X18499230Y-6967725D01*
X18705725Y-6761230D01*
X18887800Y-6532914D01*
X19043168Y-6285648D01*
X19169870Y-6022548D01*
X19266318Y-5746918D01*
X19266321Y-5746910D01*
X19331303Y-5462201D01*
X19331305Y-5462189D01*
X19352284Y-5276000D01*
X18394971Y-5276000D01*
X18414000Y-5155858D01*
X18414000Y-4896142D01*
X18394971Y-4776000D01*
X19352284Y-4776000D01*
X19331305Y-4589810D01*
X19331303Y-4589794D01*
X19322216Y-4549980D01*
X19266321Y-4305089D01*
X19266318Y-4305081D01*
X19169870Y-4029451D01*
X19148997Y-3986108D01*
X19148996Y-3986106D01*
X19125434Y-3937178D01*
X29775000Y-3937178D01*
X29775000Y-4073750D01*
X30475000Y-4073750D01*
X30475000Y-4573750D01*
X29775000Y-4573750D01*
X29775000Y-4710321D01*
X29802085Y-4881334D01*
X29855591Y-5046007D01*
X29934195Y-5200274D01*
X30035967Y-5340352D01*
X30158397Y-5462782D01*
X30298475Y-5564554D01*
X30452744Y-5643158D01*
X30617415Y-5696664D01*
X30617414Y-5696664D01*
X30624999Y-5697865D01*
X30625000Y-5697864D01*
X30625000Y-4939436D01*
X30629394Y-4943830D01*
X30720606Y-4996491D01*
X30822339Y-5023750D01*
X30927661Y-5023750D01*
X31029394Y-4996491D01*
X31120606Y-4943830D01*
X31125000Y-4939436D01*
X31125000Y-5697865D01*
X31132584Y-5696664D01*
X31297255Y-5643158D01*
X31451524Y-5564554D01*
X31591602Y-5462782D01*
X31714032Y-5340352D01*
X31815804Y-5200274D01*
X31894408Y-5046007D01*
X31947914Y-4881334D01*
X31975000Y-4710321D01*
X31975000Y-4573750D01*
X31275000Y-4573750D01*
X31275000Y-4073750D01*
X31975000Y-4073750D01*
X31975000Y-3937178D01*
X31947914Y-3766165D01*
X31894408Y-3601492D01*
X31815804Y-3447225D01*
X31714032Y-3307147D01*
X31591602Y-3184717D01*
X31451524Y-3082945D01*
X31297257Y-3004341D01*
X31132589Y-2950837D01*
X31132581Y-2950835D01*
X31125000Y-2949634D01*
X31125000Y-3708064D01*
X31120606Y-3703670D01*
X31029394Y-3651009D01*
X30927661Y-3623750D01*
X30822339Y-3623750D01*
X30720606Y-3651009D01*
X30629394Y-3703670D01*
X30625000Y-3708064D01*
X30625000Y-2949634D01*
X30624999Y-2949634D01*
X30617418Y-2950835D01*
X30617410Y-2950837D01*
X30452742Y-3004341D01*
X30298475Y-3082945D01*
X30158397Y-3184717D01*
X30035967Y-3307147D01*
X29934195Y-3447225D01*
X29855591Y-3601492D01*
X29802085Y-3766165D01*
X29775000Y-3937178D01*
X19125434Y-3937178D01*
X19043170Y-3766354D01*
X18887800Y-3519085D01*
X18705725Y-3290769D01*
X18499230Y-3084274D01*
X18270914Y-2902199D01*
X18023648Y-2746831D01*
X17760548Y-2620129D01*
X17484918Y-2523681D01*
X17484910Y-2523678D01*
X17200201Y-2458696D01*
X17200189Y-2458694D01*
X17014000Y-2437715D01*
X17014000Y-3395028D01*
X16893858Y-3376000D01*
X16634142Y-3376000D01*
X16514000Y-3395028D01*
X16514000Y-2437715D01*
X16327810Y-2458694D01*
X16327798Y-2458696D01*
X16043089Y-2523678D01*
X16043081Y-2523681D01*
X15767451Y-2620129D01*
X15504351Y-2746831D01*
X15257085Y-2902199D01*
X15028769Y-3084274D01*
X14822274Y-3290769D01*
X14640199Y-3519085D01*
X14484831Y-3766351D01*
X14358129Y-4029451D01*
X14261681Y-4305081D01*
X14261678Y-4305089D01*
X14196696Y-4589798D01*
X14196694Y-4589810D01*
X14175716Y-4776000D01*
X13100000Y-4776000D01*
X13100000Y-1742500D01*
X13119685Y-1675461D01*
X13172489Y-1629706D01*
X13224000Y-1618500D01*
X62876000Y-1618500D01*
X62943039Y-1638185D01*
G37*
%TD.AperFunction*%
%TD*%
M02*
