M48
; DRILL file {KiCad 9.0.6} date 2025-12-28T15:40:13+0000
; FORMAT={-:-/ absolute / inch / decimal}
; #@! TF.CreationDate,2025-12-28T15:40:13+00:00
; #@! TF.GenerationSoftware,Kicad,Pcbnew,9.0.6
; #@! TF.FileFunction,Plated,1,2,PTH
FMAT,2
INCH
; #@! TA.AperFunction,Plated,PTH,ViaDrill
T1C0.0118
; #@! TA.AperFunction,Plated,PTH,ViaDrill
T2C0.0120
; #@! TA.AperFunction,Plated,PTH,ComponentDrill
T3C0.0315
; #@! TA.AperFunction,Plated,PTH,ComponentDrill
T4C0.0429
; #@! TA.AperFunction,Plated,PTH,ComponentDrill
T5C0.0591
; #@! TA.AperFunction,Plated,PTH,ComponentDrill
T6C0.1299
%
G90
G05
T1
X0.7638Y-0.748
X0.7913Y-0.5
X0.7913Y-0.5669
X0.7913Y-0.6378
X0.7913Y-0.8661
X0.8307Y-0.6378
X0.8346Y-0.5787
X0.8346Y-0.748
X0.8346Y-0.8228
X0.8622Y-0.6772
X1.0333Y-0.5079
X1.0333Y-0.5866
X1.0333Y-0.9134
X1.0373Y-0.6693
X1.0373Y-0.752
X1.0373Y-0.8307
X1.0373Y-0.9961
X1.1283Y-0.8839
X1.1283Y-1.1674
X1.1417Y-0.6142
X1.1417Y-0.752
X1.1437Y-0.4252
X1.1496Y-1.0257
X1.1654Y-1.0954
X1.1846Y-0.626
X1.1969Y-0.7402
X1.248Y-0.5808
X1.248Y-0.7205
X1.252Y-0.4567
X1.2913Y-0.365
X1.3189Y-0.6318
X1.3858Y-0.5039
X1.3868Y-0.312
X1.4173Y-0.4764
X1.4252Y-1.0079
X1.4646Y-1.2047
X1.4685Y-1.0669
X1.4724Y-0.9252
X1.4803Y-0.365
X1.5787Y-0.563
X1.6811Y-0.563
X1.75Y-0.1181
X1.7795Y-0.5669
X1.8346Y-0.1969
X1.8701Y-0.4173
X1.872Y-0.2756
X1.872Y-0.3819
X1.8819Y-0.5669
X1.9075Y-0.1969
X1.9803Y-0.1969
X2.0165Y-0.3969
X2.0177Y-0.2756
X2.0433Y-0.4134
X2.0728Y-0.1949
X2.1969Y-0.3858
X2.2756Y-0.2224
T2
X1.1654Y-0.9554
X1.1654Y-1.2354
X1.2441Y-0.9928
X1.2441Y-1.1328
X1.2441Y-1.2728
T4
X0.6041Y-0.5264
X0.6041Y-0.6355
X0.6041Y-0.7445
X0.6041Y-0.8536
X0.7159Y-0.4719
X0.7159Y-0.5809
X0.7159Y-0.69
X0.7159Y-0.7991
X0.7159Y-0.9081
T5
X0.945Y-0.4251
X0.945Y-0.5063
X0.945Y-0.5876
X0.945Y-0.6688
X0.945Y-0.75
X0.945Y-0.8312
X0.945Y-0.9124
X0.945Y-0.9937
X0.945Y-1.0749
T6
X0.66Y-0.1979
X0.66Y-1.1821
T3
G00X1.2156Y-0.182
M15
G01X1.2156Y-0.1584
M16
G05
G00X1.2156Y-0.3505
M15
G01X1.2156Y-0.319
M16
G05
G00X1.5561Y-0.182
M15
G01X1.5561Y-0.1584
M16
G05
G00X1.5561Y-0.3505
M15
G01X1.5561Y-0.319
M16
G05
M30
