%TF.GenerationSoftware,KiCad,Pcbnew,9.0.6*%
%TF.CreationDate,2025-12-29T02:01:38+00:00*%
%TF.ProjectId,ProPrj_SaturnAdapter_2025-11-23,50726f50-726a-45f5-9361-7475726e4164,rev?*%
%TF.SameCoordinates,Original*%
%TF.FileFunction,Soldermask,Top*%
%TF.FilePolarity,Negative*%
%FSLAX46Y46*%
G04 Gerber Fmt 4.6, Leading zero omitted, Abs format (unit mm)*
G04 Created by KiCad (PCBNEW 9.0.6) date 2025-12-29 02:01:38*
%MOMM*%
%LPD*%
G01*
G04 APERTURE LIST*
G04 Aperture macros list*
%AMRoundRect*
0 Rectangle with rounded corners*
0 $1 Rounding radius*
0 $2 $3 $4 $5 $6 $7 $8 $9 X,Y pos of 4 corners*
0 Add a 4 corners polygon primitive as box body*
4,1,4,$2,$3,$4,$5,$6,$7,$8,$9,$2,$3,0*
0 Add four circle primitives for the rounded corners*
1,1,$1+$1,$2,$3*
1,1,$1+$1,$4,$5*
1,1,$1+$1,$6,$7*
1,1,$1+$1,$8,$9*
0 Add four rect primitives between the rounded corners*
20,1,$1+$1,$2,$3,$4,$5,0*
20,1,$1+$1,$4,$5,$6,$7,0*
20,1,$1+$1,$6,$7,$8,$9,0*
20,1,$1+$1,$8,$9,$2,$3,0*%
%AMFreePoly0*
4,1,5,0.300000,-0.650000,-0.300000,-0.650000,-0.300000,0.650000,0.300000,0.650000,0.300000,-0.650000,0.300000,-0.650000,$1*%
%AMFreePoly1*
4,1,5,0.299500,-0.650000,-0.300500,-0.650000,-0.300500,0.650000,0.299500,0.650000,0.299500,-0.650000,0.299500,-0.650000,$1*%
G04 Aperture macros list end*
%ADD10R,1.250000X0.700000*%
%ADD11R,0.806500X0.864000*%
%ADD12O,2.500000X1.800000*%
%ADD13R,0.700000X1.250000*%
%ADD14R,0.864000X0.806500*%
%ADD15R,1.200000X2.000000*%
%ADD16R,2.000000X1.200000*%
%ADD17RoundRect,0.250000X0.650000X-0.412500X0.650000X0.412500X-0.650000X0.412500X-0.650000X-0.412500X0*%
%ADD18RoundRect,0.250000X0.412500X0.650000X-0.412500X0.650000X-0.412500X-0.650000X0.412500X-0.650000X0*%
%ADD19C,1.600000*%
%ADD20C,4.200000*%
%ADD21O,1.200000X2.000000*%
%ADD22O,1.200000X1.800000*%
%ADD23FreePoly0,180.000000*%
%ADD24R,0.300000X1.300000*%
%ADD25FreePoly1,180.000000*%
%ADD26R,0.700000X1.500000*%
%ADD27R,1.000000X0.800000*%
G04 APERTURE END LIST*
D10*
%TO.C,Q3*%
X31600000Y-32350000D03*
X31600000Y-30450000D03*
X29600000Y-31400000D03*
%TD*%
D11*
%TO.C,R8*%
X26296500Y-23200000D03*
X27803500Y-23200000D03*
%TD*%
%TO.C,R2*%
X26296500Y-14850000D03*
X27803500Y-14850000D03*
%TD*%
D10*
%TO.C,Q4*%
X31600000Y-28750000D03*
X31600000Y-26850000D03*
X29600000Y-27800000D03*
%TD*%
D12*
%TO.C,U2*%
X24003000Y-10798000D03*
X24003000Y-12861000D03*
X24003000Y-14924000D03*
X24003000Y-16987000D03*
X24003000Y-19050000D03*
X24003000Y-21113000D03*
X24003000Y-23176000D03*
X24003000Y-25239000D03*
X24003000Y-27302000D03*
%TD*%
D11*
%TO.C,R4*%
X27803500Y-12900000D03*
X26296500Y-12900000D03*
%TD*%
D13*
%TO.C,Q1*%
X49353500Y-7200000D03*
X51253500Y-7200000D03*
X50303500Y-5200000D03*
%TD*%
D14*
%TO.C,R11*%
X33450000Y-16146500D03*
X33450000Y-17653500D03*
%TD*%
D11*
%TO.C,R3*%
X45850000Y-8900000D03*
X47357000Y-8900000D03*
%TD*%
%TO.C,R12*%
X26296500Y-19000000D03*
X27803500Y-19000000D03*
%TD*%
D13*
%TO.C,Q2*%
X45653500Y-7250000D03*
X47553500Y-7250000D03*
X46603500Y-5250000D03*
%TD*%
D15*
%TO.C,U3*%
X60489000Y-31233000D03*
X57949000Y-31233000D03*
X55409000Y-31233000D03*
X52869000Y-31233000D03*
X50329000Y-31233000D03*
X47789000Y-31233000D03*
X45249000Y-31233000D03*
X42709000Y-31233000D03*
X40169000Y-31233000D03*
D16*
X39079000Y-27813000D03*
X39079000Y-25273000D03*
X39079000Y-22733000D03*
X39079000Y-20193000D03*
X39079000Y-17653000D03*
D15*
X40169000Y-14233000D03*
X42709000Y-14233000D03*
X45249000Y-14233000D03*
X47789000Y-14233000D03*
X50329000Y-14233000D03*
X52869000Y-14233000D03*
X55409000Y-14233000D03*
X57949000Y-14233000D03*
X60489000Y-14233000D03*
%TD*%
D14*
%TO.C,R7*%
X33400000Y-27146500D03*
X33400000Y-28653500D03*
%TD*%
%TO.C,R9*%
X33400000Y-23796500D03*
X33400000Y-25303500D03*
%TD*%
D11*
%TO.C,R1*%
X51057000Y-8850000D03*
X49550000Y-8850000D03*
%TD*%
D17*
%TO.C,C2*%
X27050000Y-10762500D03*
X27050000Y-7637500D03*
%TD*%
D14*
%TO.C,R13*%
X33400000Y-13046500D03*
X33400000Y-14553500D03*
%TD*%
D18*
%TO.C,C1*%
X44762500Y-3150000D03*
X41637500Y-3150000D03*
%TD*%
D19*
%TO.C,CN1*%
X18184000Y-11986000D03*
X18184000Y-14756000D03*
X18184000Y-17526000D03*
X18184000Y-20296000D03*
X18184000Y-23066000D03*
X15344000Y-13371000D03*
X15344000Y-16141000D03*
X15344000Y-18911000D03*
X15344000Y-21681000D03*
D20*
X16764000Y-30026000D03*
X16764000Y-5026000D03*
%TD*%
D11*
%TO.C,R14*%
X26296500Y-16950000D03*
X27803500Y-16950000D03*
%TD*%
D10*
%TO.C,Q5*%
X31600000Y-25200000D03*
X31600000Y-23300000D03*
X29600000Y-24250000D03*
%TD*%
%TO.C,Q6*%
X31700000Y-18300000D03*
X31700000Y-16400000D03*
X29700000Y-17350000D03*
%TD*%
D21*
%TO.C,USB-1*%
X30875000Y-8503250D03*
D22*
X30875000Y-4323750D03*
X39525000Y-4323750D03*
D21*
X39525000Y-8503250D03*
D23*
X38400000Y-9271750D03*
X37600000Y-9271750D03*
D24*
X36450000Y-9271750D03*
X35450000Y-9271750D03*
X34950000Y-9271750D03*
X33950500Y-9271750D03*
D23*
X32000000Y-9271750D03*
D25*
X32799500Y-9271750D03*
D24*
X33450000Y-9271750D03*
X34450000Y-9271750D03*
X35950000Y-9271750D03*
X36950000Y-9271750D03*
%TD*%
D10*
%TO.C,Q7*%
X31700000Y-14700000D03*
X31700000Y-12800000D03*
X29700000Y-13750000D03*
%TD*%
D11*
%TO.C,R6*%
X26296500Y-25250000D03*
X27803500Y-25250000D03*
%TD*%
%TO.C,R15*%
X42853500Y-5800000D03*
X41346500Y-5800000D03*
%TD*%
%TO.C,R10*%
X26300000Y-21100000D03*
X27807000Y-21100000D03*
%TD*%
%TO.C,R16*%
X42853500Y-7350000D03*
X41346500Y-7350000D03*
%TD*%
D26*
%TO.C,SW1*%
X57800000Y-5650000D03*
X56800000Y-5650000D03*
X55800000Y-5650000D03*
D27*
X59550000Y-4950000D03*
X59550000Y-2750000D03*
X54050000Y-4950000D03*
X54050000Y-2750000D03*
%TD*%
D14*
%TO.C,R5*%
X33400000Y-30696500D03*
X33400000Y-32203500D03*
%TD*%
M02*
