%TF.GenerationSoftware,KiCad,Pcbnew,9.0.6*%
%TF.CreationDate,2025-12-29T02:01:38+00:00*%
%TF.ProjectId,ProPrj_SaturnAdapter_2025-11-23,50726f50-726a-45f5-9361-7475726e4164,rev?*%
%TF.SameCoordinates,Original*%
%TF.FileFunction,Copper,L1,Top*%
%TF.FilePolarity,Positive*%
%FSLAX46Y46*%
G04 Gerber Fmt 4.6, Leading zero omitted, Abs format (unit mm)*
G04 Created by KiCad (PCBNEW 9.0.6) date 2025-12-29 02:01:38*
%MOMM*%
%LPD*%
G01*
G04 APERTURE LIST*
G04 Aperture macros list*
%AMRoundRect*
0 Rectangle with rounded corners*
0 $1 Rounding radius*
0 $2 $3 $4 $5 $6 $7 $8 $9 X,Y pos of 4 corners*
0 Add a 4 corners polygon primitive as box body*
4,1,4,$2,$3,$4,$5,$6,$7,$8,$9,$2,$3,0*
0 Add four circle primitives for the rounded corners*
1,1,$1+$1,$2,$3*
1,1,$1+$1,$4,$5*
1,1,$1+$1,$6,$7*
1,1,$1+$1,$8,$9*
0 Add four rect primitives between the rounded corners*
20,1,$1+$1,$2,$3,$4,$5,0*
20,1,$1+$1,$4,$5,$6,$7,0*
20,1,$1+$1,$6,$7,$8,$9,0*
20,1,$1+$1,$8,$9,$2,$3,0*%
%AMFreePoly0*
4,1,5,0.300000,-0.650000,-0.300000,-0.650000,-0.300000,0.650000,0.300000,0.650000,0.300000,-0.650000,0.300000,-0.650000,$1*%
%AMFreePoly1*
4,1,5,0.299500,-0.650000,-0.300500,-0.650000,-0.300500,0.650000,0.299500,0.650000,0.299500,-0.650000,0.299500,-0.650000,$1*%
G04 Aperture macros list end*
%TA.AperFunction,SMDPad,CuDef*%
%ADD10R,1.250000X0.700000*%
%TD*%
%TA.AperFunction,SMDPad,CuDef*%
%ADD11R,0.806500X0.864000*%
%TD*%
%TA.AperFunction,ComponentPad*%
%ADD12O,2.500000X1.800000*%
%TD*%
%TA.AperFunction,SMDPad,CuDef*%
%ADD13R,0.700000X1.250000*%
%TD*%
%TA.AperFunction,SMDPad,CuDef*%
%ADD14R,0.864000X0.806500*%
%TD*%
%TA.AperFunction,SMDPad,CuDef*%
%ADD15R,1.200000X2.000000*%
%TD*%
%TA.AperFunction,SMDPad,CuDef*%
%ADD16R,2.000000X1.200000*%
%TD*%
%TA.AperFunction,SMDPad,CuDef*%
%ADD17RoundRect,0.250000X0.650000X-0.412500X0.650000X0.412500X-0.650000X0.412500X-0.650000X-0.412500X0*%
%TD*%
%TA.AperFunction,SMDPad,CuDef*%
%ADD18RoundRect,0.250000X0.412500X0.650000X-0.412500X0.650000X-0.412500X-0.650000X0.412500X-0.650000X0*%
%TD*%
%TA.AperFunction,ComponentPad*%
%ADD19C,1.600000*%
%TD*%
%TA.AperFunction,ComponentPad*%
%ADD20C,4.200000*%
%TD*%
%TA.AperFunction,ComponentPad*%
%ADD21O,1.200000X2.000000*%
%TD*%
%TA.AperFunction,ComponentPad*%
%ADD22O,1.200000X1.800000*%
%TD*%
%TA.AperFunction,SMDPad,CuDef*%
%ADD23FreePoly0,180.000000*%
%TD*%
%TA.AperFunction,SMDPad,CuDef*%
%ADD24R,0.300000X1.300000*%
%TD*%
%TA.AperFunction,SMDPad,CuDef*%
%ADD25FreePoly1,180.000000*%
%TD*%
%TA.AperFunction,SMDPad,CuDef*%
%ADD26R,0.700000X1.500000*%
%TD*%
%TA.AperFunction,SMDPad,CuDef*%
%ADD27R,1.000000X0.800000*%
%TD*%
%TA.AperFunction,ViaPad*%
%ADD28C,0.600000*%
%TD*%
%TA.AperFunction,ViaPad*%
%ADD29C,0.610000*%
%TD*%
%TA.AperFunction,Conductor*%
%ADD30C,0.200000*%
%TD*%
%TA.AperFunction,Conductor*%
%ADD31C,0.254000*%
%TD*%
G04 APERTURE END LIST*
D10*
%TO.P,Q3,1,G*%
%TO.N,VCC*%
X31600000Y-32350000D03*
%TO.P,Q3,2,S*%
%TO.N,LO_D2*%
X31600000Y-30450000D03*
%TO.P,Q3,3,D*%
%TO.N,D2*%
X29600000Y-31400000D03*
%TD*%
D11*
%TO.P,R8,1*%
%TO.N,D3*%
X26296500Y-23200000D03*
%TO.P,R8,2*%
%TO.N,C+5V*%
X27803500Y-23200000D03*
%TD*%
%TO.P,R2,1*%
%TO.N,D0*%
X26296500Y-14850000D03*
%TO.P,R2,2*%
%TO.N,C+5V*%
X27803500Y-14850000D03*
%TD*%
D10*
%TO.P,Q4,1,G*%
%TO.N,VCC*%
X31600000Y-28750000D03*
%TO.P,Q4,2,S*%
%TO.N,LO_D3*%
X31600000Y-26850000D03*
%TO.P,Q4,3,D*%
%TO.N,D3*%
X29600000Y-27800000D03*
%TD*%
D12*
%TO.P,U2,1,1*%
%TO.N,C+5V*%
X24003000Y-10798000D03*
%TO.P,U2,2,2*%
%TO.N,D1*%
X24003000Y-12861000D03*
%TO.P,U2,3,3*%
%TO.N,D0*%
X24003000Y-14924000D03*
%TO.P,U2,4,4*%
%TO.N,TH*%
X24003000Y-16987000D03*
%TO.P,U2,5,5*%
%TO.N,TR*%
X24003000Y-19050000D03*
%TO.P,U2,6,6*%
%TO.N,TL*%
X24003000Y-21113000D03*
%TO.P,U2,7,7*%
%TO.N,D3*%
X24003000Y-23176000D03*
%TO.P,U2,8,8*%
%TO.N,D2*%
X24003000Y-25239000D03*
%TO.P,U2,9,9*%
%TO.N,GND*%
X24003000Y-27302000D03*
%TD*%
D11*
%TO.P,R4,1*%
%TO.N,C+5V*%
X27803500Y-12900000D03*
%TO.P,R4,2*%
%TO.N,D1*%
X26296500Y-12900000D03*
%TD*%
D13*
%TO.P,Q1,1,G*%
%TO.N,VCC*%
X49353500Y-7200000D03*
%TO.P,Q1,2,S*%
%TO.N,LO_D0*%
X51253500Y-7200000D03*
%TO.P,Q1,3,D*%
%TO.N,D0*%
X50303500Y-5200000D03*
%TD*%
D14*
%TO.P,R11,1*%
%TO.N,LO_TR*%
X33450000Y-16146500D03*
%TO.P,R11,2*%
%TO.N,VCC*%
X33450000Y-17653500D03*
%TD*%
D11*
%TO.P,R3,1*%
%TO.N,VCC*%
X45850000Y-8900000D03*
%TO.P,R3,2*%
%TO.N,LO_D1*%
X47357000Y-8900000D03*
%TD*%
%TO.P,R12,1*%
%TO.N,TR*%
X26296500Y-19000000D03*
%TO.P,R12,2*%
%TO.N,C+5V*%
X27803500Y-19000000D03*
%TD*%
D13*
%TO.P,Q2,1,G*%
%TO.N,VCC*%
X45653500Y-7250000D03*
%TO.P,Q2,2,S*%
%TO.N,LO_D1*%
X47553500Y-7250000D03*
%TO.P,Q2,3,D*%
%TO.N,D1*%
X46603500Y-5250000D03*
%TD*%
D15*
%TO.P,U3,1,GP0*%
%TO.N,unconnected-(U3-GP0-Pad1)*%
X60489000Y-31233000D03*
%TO.P,U3,2,GP1*%
%TO.N,unconnected-(U3-GP1-Pad2)*%
X57949000Y-31233000D03*
%TO.P,U3,3,GP2*%
%TO.N,unconnected-(U3-GP2-Pad3)*%
X55409000Y-31233000D03*
%TO.P,U3,4,GP3*%
%TO.N,unconnected-(U3-GP3-Pad4)*%
X52869000Y-31233000D03*
%TO.P,U3,5,GP4*%
%TO.N,unconnected-(U3-GP4-Pad5)*%
X50329000Y-31233000D03*
%TO.P,U3,6,GP5*%
%TO.N,unconnected-(U3-GP5-Pad6)*%
X47789000Y-31233000D03*
%TO.P,U3,7,GP6*%
%TO.N,unconnected-(U3-GP6-Pad7)*%
X45249000Y-31233000D03*
%TO.P,U3,8,GP7*%
%TO.N,unconnected-(U3-GP7-Pad8)*%
X42709000Y-31233000D03*
%TO.P,U3,9,GP8*%
%TO.N,unconnected-(U3-GP8-Pad9)*%
X40169000Y-31233000D03*
D16*
%TO.P,U3,10,GP9*%
%TO.N,unconnected-(U3-GP9-Pad10)*%
X39079000Y-27813000D03*
%TO.P,U3,11,GP10*%
%TO.N,unconnected-(U3-GP10-Pad11)*%
X39079000Y-25273000D03*
%TO.P,U3,12,GP11*%
%TO.N,unconnected-(U3-GP11-Pad12)*%
X39079000Y-22733000D03*
%TO.P,U3,13,GP12*%
%TO.N,unconnected-(U3-GP12-Pad13)*%
X39079000Y-20193000D03*
%TO.P,U3,14,GP13*%
%TO.N,LO_TH*%
X39079000Y-17653000D03*
D15*
%TO.P,U3,15,GP14*%
%TO.N,LO_TR*%
X40169000Y-14233000D03*
%TO.P,U3,16,GP15*%
%TO.N,LO_TL*%
X42709000Y-14233000D03*
%TO.P,U3,17,GP26*%
%TO.N,LO_D3*%
X45249000Y-14233000D03*
%TO.P,U3,18,GP27*%
%TO.N,LO_D2*%
X47789000Y-14233000D03*
%TO.P,U3,19,GP28*%
%TO.N,LO_D1*%
X50329000Y-14233000D03*
%TO.P,U3,20,GP29*%
%TO.N,LO_D0*%
X52869000Y-14233000D03*
%TO.P,U3,21,3V3*%
%TO.N,VCC*%
X55409000Y-14233000D03*
%TO.P,U3,22,GND*%
%TO.N,GND*%
X57949000Y-14233000D03*
%TO.P,U3,23,5V*%
%TO.N,MINI+5V*%
X60489000Y-14233000D03*
%TD*%
D14*
%TO.P,R7,1*%
%TO.N,LO_D3*%
X33400000Y-27146500D03*
%TO.P,R7,2*%
%TO.N,VCC*%
X33400000Y-28653500D03*
%TD*%
%TO.P,R9,1*%
%TO.N,LO_TL*%
X33400000Y-23796500D03*
%TO.P,R9,2*%
%TO.N,VCC*%
X33400000Y-25303500D03*
%TD*%
D11*
%TO.P,R1,1*%
%TO.N,LO_D0*%
X51057000Y-8850000D03*
%TO.P,R1,2*%
%TO.N,VCC*%
X49550000Y-8850000D03*
%TD*%
D17*
%TO.P,C2,1*%
%TO.N,C+5V*%
X27050000Y-10762500D03*
%TO.P,C2,2*%
%TO.N,GND*%
X27050000Y-7637500D03*
%TD*%
D14*
%TO.P,R13,1*%
%TO.N,LO_TH*%
X33400000Y-13046500D03*
%TO.P,R13,2*%
%TO.N,VCC*%
X33400000Y-14553500D03*
%TD*%
D18*
%TO.P,C1,1*%
%TO.N,EXT5V*%
X44762500Y-3150000D03*
%TO.P,C1,2*%
%TO.N,GND*%
X41637500Y-3150000D03*
%TD*%
D19*
%TO.P,CN1,1*%
%TO.N,D0*%
X18184000Y-11986000D03*
%TO.P,CN1,2*%
%TO.N,D1*%
X18184000Y-14756000D03*
%TO.P,CN1,3*%
%TO.N,D2*%
X18184000Y-17526000D03*
%TO.P,CN1,4*%
%TO.N,D3*%
X18184000Y-20296000D03*
%TO.P,CN1,5*%
%TO.N,C+5V*%
X18184000Y-23066000D03*
%TO.P,CN1,6*%
%TO.N,TL*%
X15344000Y-13371000D03*
%TO.P,CN1,7*%
%TO.N,TH*%
X15344000Y-16141000D03*
%TO.P,CN1,8*%
%TO.N,GND*%
X15344000Y-18911000D03*
%TO.P,CN1,9*%
%TO.N,TR*%
X15344000Y-21681000D03*
D20*
%TO.P,CN1,10*%
%TO.N,GND*%
X16764000Y-30026000D03*
%TO.P,CN1,11*%
X16764000Y-5026000D03*
%TD*%
D11*
%TO.P,R14,1*%
%TO.N,TH*%
X26296500Y-16950000D03*
%TO.P,R14,2*%
%TO.N,C+5V*%
X27803500Y-16950000D03*
%TD*%
D10*
%TO.P,Q5,1,G*%
%TO.N,VCC*%
X31600000Y-25200000D03*
%TO.P,Q5,2,S*%
%TO.N,LO_TL*%
X31600000Y-23300000D03*
%TO.P,Q5,3,D*%
%TO.N,TL*%
X29600000Y-24250000D03*
%TD*%
%TO.P,Q6,1,G*%
%TO.N,VCC*%
X31700000Y-18300000D03*
%TO.P,Q6,2,S*%
%TO.N,LO_TR*%
X31700000Y-16400000D03*
%TO.P,Q6,3,D*%
%TO.N,TR*%
X29700000Y-17350000D03*
%TD*%
D21*
%TO.P,USB-1,1*%
%TO.N,GND*%
X30875000Y-8503250D03*
D22*
%TO.P,USB-1,2*%
X30875000Y-4323750D03*
%TO.P,USB-1,3*%
X39525000Y-4323750D03*
D21*
%TO.P,USB-1,4*%
X39525000Y-8503250D03*
D23*
%TO.P,USB-1,A1B12*%
X38400000Y-9271750D03*
%TO.P,USB-1,A4B9*%
%TO.N,EXT5V*%
X37600000Y-9271750D03*
D24*
%TO.P,USB-1,A5*%
%TO.N,Net-(USBC1-CC1)*%
X36450000Y-9271750D03*
%TO.P,USB-1,A6*%
%TO.N,N/C*%
X35450000Y-9271750D03*
%TO.P,USB-1,A7*%
X34950000Y-9271750D03*
%TO.P,USB-1,A8*%
X33950500Y-9271750D03*
D23*
%TO.P,USB-1,B1A12*%
%TO.N,GND*%
X32000000Y-9271750D03*
D25*
%TO.P,USB-1,B4A9*%
%TO.N,EXT5V*%
X32799500Y-9271750D03*
D24*
%TO.P,USB-1,B5*%
%TO.N,Net-(USBC1-CC2)*%
X33450000Y-9271750D03*
%TO.P,USB-1,B6*%
%TO.N,N/C*%
X34450000Y-9271750D03*
%TO.P,USB-1,B7*%
X35950000Y-9271750D03*
%TO.P,USB-1,B8*%
X36950000Y-9271750D03*
%TD*%
D10*
%TO.P,Q7,1,G*%
%TO.N,VCC*%
X31700000Y-14700000D03*
%TO.P,Q7,2,S*%
%TO.N,LO_TH*%
X31700000Y-12800000D03*
%TO.P,Q7,3,D*%
%TO.N,TH*%
X29700000Y-13750000D03*
%TD*%
D11*
%TO.P,R6,1*%
%TO.N,D2*%
X26296500Y-25250000D03*
%TO.P,R6,2*%
%TO.N,C+5V*%
X27803500Y-25250000D03*
%TD*%
%TO.P,R15,1*%
%TO.N,GND*%
X42853500Y-5800000D03*
%TO.P,R15,2*%
%TO.N,Net-(USBC1-CC2)*%
X41346500Y-5800000D03*
%TD*%
%TO.P,R10,1*%
%TO.N,TL*%
X26300000Y-21100000D03*
%TO.P,R10,2*%
%TO.N,C+5V*%
X27807000Y-21100000D03*
%TD*%
%TO.P,R16,1*%
%TO.N,GND*%
X42853500Y-7350000D03*
%TO.P,R16,2*%
%TO.N,Net-(USBC1-CC1)*%
X41346500Y-7350000D03*
%TD*%
D26*
%TO.P,SW1,1,1*%
%TO.N,EXT5V*%
X57800000Y-5650000D03*
%TO.P,SW1,2,2*%
%TO.N,MINI+5V*%
X56800000Y-5650000D03*
%TO.P,SW1,3,3*%
%TO.N,C+5V*%
X55800000Y-5650000D03*
D27*
%TO.P,SW1,4,4*%
%TO.N,GND*%
X59550000Y-4950000D03*
X59550000Y-2750000D03*
%TO.P,SW1,5,5*%
X54050000Y-4950000D03*
X54050000Y-2750000D03*
%TD*%
D14*
%TO.P,R5,1*%
%TO.N,LO_D2*%
X33400000Y-30696500D03*
%TO.P,R5,2*%
%TO.N,VCC*%
X33400000Y-32203500D03*
%TD*%
D28*
%TO.N,LO_D0*%
X51053500Y-8450000D03*
X51150000Y-11150000D03*
%TO.N,D0*%
X50300000Y-5000000D03*
X26246500Y-14900000D03*
%TO.N,LO_D1*%
X47350000Y-10500000D03*
X47353500Y-8500000D03*
%TO.N,D1*%
X26246500Y-12900000D03*
X46600000Y-5000000D03*
%TO.N,LO_D2*%
X47800000Y-14400000D03*
X37200000Y-30600000D03*
D29*
%TO.N,D2*%
X29600000Y-31378000D03*
D28*
X26346500Y-25300000D03*
X21200000Y-19000000D03*
X21200000Y-20900000D03*
%TO.N,LO_D3*%
X37300000Y-27100000D03*
X45200000Y-14400000D03*
%TO.N,D3*%
X29600000Y-27822000D03*
X26246500Y-23200000D03*
%TO.N,LO_TL*%
X42700000Y-14300000D03*
X37400000Y-23500000D03*
%TO.N,TL*%
X21900000Y-17200000D03*
D29*
X29600000Y-24266000D03*
D28*
X26346500Y-21100000D03*
%TO.N,LO_TR*%
X40100000Y-14300000D03*
X33500000Y-16046500D03*
%TO.N,TR*%
X26346500Y-19100000D03*
X29000000Y-19100000D03*
%TO.N,TH*%
X29000000Y-15600000D03*
X26346500Y-17000000D03*
D29*
%TO.N,VCC*%
X31600000Y-32328000D03*
D28*
X31700000Y-14751500D03*
X31700000Y-18300000D03*
D29*
X31600000Y-25216000D03*
X31600000Y-28772000D03*
D28*
X35200000Y-12800000D03*
%TO.N,GND*%
X31800000Y-11600000D03*
X48450000Y-5000000D03*
X19400000Y-19000000D03*
X29200000Y-26052000D03*
X38550000Y-7250000D03*
X51900000Y-10500000D03*
X21100000Y-16200000D03*
X28658000Y-29652000D03*
X30089250Y-15900000D03*
X28658000Y-22452000D03*
X35225000Y-7923750D03*
X49950000Y-2450000D03*
X21200000Y-14700000D03*
X30400000Y-18800000D03*
X36200000Y-25600000D03*
%TO.N,C+5V*%
X36000000Y-12100000D03*
X20100000Y-12700000D03*
X20100000Y-14400000D03*
X20100000Y-22000000D03*
X55800000Y-9800000D03*
X20100000Y-16200000D03*
%TO.N,EXT5V*%
X32799500Y-9271750D03*
X52650000Y-4950000D03*
X44762500Y-3150000D03*
X57800000Y-5650000D03*
X37600000Y-9271750D03*
%TO.N,Net-(USBC1-CC1)*%
X37850000Y-6650000D03*
X41346500Y-7350000D03*
%TD*%
D30*
%TO.N,LO_D0*%
X51250000Y-8253500D02*
X51053500Y-8450000D01*
X51150000Y-11150000D02*
X52869000Y-12869000D01*
X52869000Y-12869000D02*
X52869000Y-14233000D01*
X51250000Y-6850000D02*
X51250000Y-8253500D01*
D31*
%TO.N,D0*%
X18184000Y-11986000D02*
X19686000Y-11986000D01*
X21100000Y-12000000D02*
X22000000Y-12900000D01*
X26222500Y-14924000D02*
X26246500Y-14900000D01*
X19686000Y-11986000D02*
X19700000Y-12000000D01*
X22000000Y-14500000D02*
X22424000Y-14924000D01*
X19700000Y-12000000D02*
X21100000Y-12000000D01*
X24003000Y-14924000D02*
X26222500Y-14924000D01*
X22424000Y-14924000D02*
X24003000Y-14924000D01*
X22000000Y-12900000D02*
X22000000Y-14500000D01*
X23835500Y-14756500D02*
G75*
G02*
X24003000Y-14924000I0J-167500D01*
G01*
D30*
%TO.N,LO_D1*%
X50329000Y-13479000D02*
X50329000Y-14233000D01*
X47550000Y-6900000D02*
X47550000Y-8303500D01*
X47550000Y-8303500D02*
X47353500Y-8500000D01*
X47350000Y-10500000D02*
X50329000Y-13479000D01*
%TO.N,D1*%
X24003000Y-12861000D02*
X26207500Y-12861000D01*
X26207500Y-12861000D02*
X26246500Y-12900000D01*
%TO.N,LO_D2*%
X37107000Y-30693000D02*
X37200000Y-30600000D01*
X33135000Y-30428000D02*
X33400000Y-30693000D01*
X31600000Y-30428000D02*
X33135000Y-30428000D01*
X33400000Y-30693000D02*
X37107000Y-30693000D01*
X37170000Y-30570000D02*
X37200000Y-30600000D01*
%TO.N,D2*%
X26285500Y-25239000D02*
X26346500Y-25300000D01*
X24003000Y-25239000D02*
X26285500Y-25239000D01*
X21200000Y-20900000D02*
X21200000Y-19000000D01*
D31*
X24003000Y-25239000D02*
X23089500Y-25239000D01*
D30*
%TO.N,LO_D3*%
X31600000Y-26872000D02*
X33179000Y-26872000D01*
X37293000Y-27093000D02*
X37300000Y-27100000D01*
X33400000Y-27093000D02*
X37293000Y-27093000D01*
X33179000Y-26872000D02*
X33400000Y-27093000D01*
X37295500Y-27104500D02*
X37300000Y-27100000D01*
D31*
%TO.N,D3*%
X24003000Y-23176000D02*
X26222500Y-23176000D01*
X26222500Y-23176000D02*
X26246500Y-23200000D01*
X20376000Y-23176000D02*
X24003000Y-23176000D01*
X18184000Y-20984000D02*
X20376000Y-23176000D01*
X18184000Y-20296000D02*
X18184000Y-20984000D01*
D30*
%TO.N,LO_TL*%
X32230500Y-23946500D02*
X31600000Y-23316000D01*
X33400000Y-23946500D02*
X32230500Y-23946500D01*
X33400000Y-23946500D02*
X36953500Y-23946500D01*
X36953500Y-23946500D02*
X37400000Y-23500000D01*
D31*
%TO.N,TL*%
X24003000Y-21113000D02*
X26333500Y-21113000D01*
X26333500Y-21113000D02*
X26346500Y-21100000D01*
X24003000Y-21113000D02*
X22113000Y-21113000D01*
X21900000Y-20900000D02*
X21900000Y-17200000D01*
X22113000Y-21113000D02*
X21900000Y-20900000D01*
X23996500Y-21106500D02*
G75*
G02*
X24003000Y-21113000I0J-6500D01*
G01*
D30*
%TO.N,LO_TR*%
X31700000Y-16400000D02*
X33146500Y-16400000D01*
X33146500Y-16400000D02*
X33500000Y-16046500D01*
D31*
%TO.N,TR*%
X29700000Y-18400000D02*
X29700000Y-17350000D01*
X29000000Y-19100000D02*
X29700000Y-18400000D01*
X24003000Y-19050000D02*
X26296500Y-19050000D01*
X26296500Y-19050000D02*
X26346500Y-19100000D01*
X23978500Y-19074500D02*
G75*
G03*
X24003000Y-19050000I0J24500D01*
G01*
D30*
%TO.N,LO_TH*%
X35700000Y-13800000D02*
X39079000Y-17179000D01*
X31700000Y-12800000D02*
X33153500Y-12800000D01*
X33153500Y-12800000D02*
X33400000Y-13046500D01*
X39079000Y-17179000D02*
X39079000Y-17653000D01*
X33400000Y-13046500D02*
X34153500Y-13800000D01*
X34153500Y-13800000D02*
X35700000Y-13800000D01*
D31*
%TO.N,TH*%
X26333500Y-16987000D02*
X26346500Y-17000000D01*
X19135233Y-15400000D02*
X18651233Y-15884000D01*
X23168000Y-16152000D02*
X23144346Y-16152000D01*
X23144346Y-16152000D02*
X22425000Y-15432654D01*
X18651233Y-15884000D02*
X17716767Y-15884000D01*
X29800000Y-13812250D02*
X29789250Y-13801500D01*
D30*
X29700000Y-13801500D02*
X29700000Y-14900000D01*
D31*
X24003000Y-16987000D02*
X26333500Y-16987000D01*
X22425000Y-15432654D02*
X22425000Y-15409000D01*
X17716767Y-15884000D02*
X17232767Y-15400000D01*
X22416000Y-15400000D02*
X19135233Y-15400000D01*
X22425000Y-15409000D02*
X22416000Y-15400000D01*
X16085000Y-15400000D02*
X15344000Y-16141000D01*
X24003000Y-16987000D02*
X23168000Y-16152000D01*
X17232767Y-15400000D02*
X16085000Y-15400000D01*
D30*
X29700000Y-14900000D02*
X29000000Y-15600000D01*
D31*
X23947500Y-17042500D02*
G75*
G03*
X24003000Y-16987000I0J55500D01*
G01*
D30*
%TO.N,VCC*%
X35200000Y-12800000D02*
X38000000Y-12800000D01*
X31600000Y-25216000D02*
X33162500Y-25216000D01*
X31700000Y-18300000D02*
X32000000Y-18300000D01*
X46500000Y-9850000D02*
X45850000Y-9200000D01*
X55409000Y-12109000D02*
X55409000Y-14233000D01*
X32000000Y-18300000D02*
X32746500Y-17553500D01*
X49350000Y-6850000D02*
X49350000Y-8253500D01*
X49546500Y-8450000D02*
X49546500Y-9096500D01*
X45650000Y-8303500D02*
X45846500Y-8500000D01*
X46500000Y-9850000D02*
X40950000Y-9850000D01*
X50300000Y-9850000D02*
X46500000Y-9850000D01*
X45846500Y-9203500D02*
X45846500Y-8500000D01*
X45650000Y-6900000D02*
X45650000Y-8303500D01*
D31*
X31600000Y-28772000D02*
X33228000Y-28772000D01*
D30*
X50300000Y-9850000D02*
X53150000Y-9850000D01*
X49350000Y-8253500D02*
X49546500Y-8450000D01*
X38000000Y-12800000D02*
X40950000Y-9850000D01*
X45850000Y-9200000D02*
X45846500Y-9203500D01*
X45650000Y-7596500D02*
X45650000Y-7000000D01*
D31*
X31600000Y-32328000D02*
X33272000Y-32328000D01*
D30*
X49250000Y-7100000D02*
X49350000Y-7000000D01*
D31*
X31700000Y-14751500D02*
X33302000Y-14751500D01*
D30*
X49546500Y-9096500D02*
X50300000Y-9850000D01*
X53150000Y-9850000D02*
X55409000Y-12109000D01*
X32746500Y-17553500D02*
X33500000Y-17553500D01*
%TO.N,GND*%
X38400000Y-9271750D02*
X38756500Y-9271750D01*
X32000000Y-9271750D02*
X31643500Y-9271750D01*
X38756500Y-9271750D02*
X39525000Y-8503250D01*
X30875000Y-8503250D02*
X31231500Y-8503250D01*
X31643500Y-9271750D02*
X30875000Y-8503250D01*
%TO.N,C+5V*%
X27753500Y-12900000D02*
X27753500Y-25200000D01*
X27753500Y-12496500D02*
X27753500Y-12900000D01*
X29448000Y-10798000D02*
X24003000Y-10798000D01*
X36000000Y-12100000D02*
X34700000Y-10800000D01*
X29450000Y-10800000D02*
X27753500Y-12496500D01*
X34700000Y-10800000D02*
X29450000Y-10800000D01*
X55800000Y-5150000D02*
X55800000Y-9800000D01*
X20100000Y-12700000D02*
X20100000Y-14400000D01*
X20100000Y-16200000D02*
X20100000Y-22000000D01*
X29450000Y-10800000D02*
X29448000Y-10798000D01*
D31*
X23897500Y-10692500D02*
G75*
G02*
X24003000Y-10798000I0J-105500D01*
G01*
D30*
%TO.N,EXT5V*%
X44762500Y-3150000D02*
X44912500Y-3000000D01*
X46100000Y-3000000D02*
X46850000Y-3750000D01*
X51450000Y-3750000D02*
X52650000Y-4950000D01*
X44912500Y-3000000D02*
X46100000Y-3000000D01*
X46850000Y-3750000D02*
X51450000Y-3750000D01*
%TO.N,MINI+5V*%
X56800000Y-5150000D02*
X56800000Y-7300000D01*
X56800000Y-7300000D02*
X60489000Y-10989000D01*
X60489000Y-10989000D02*
X60489000Y-14233000D01*
%TO.N,Net-(USBC1-CC1)*%
X36450000Y-9271750D02*
X36450000Y-7500000D01*
X36450000Y-7500000D02*
X37300000Y-6650000D01*
X37300000Y-6650000D02*
X37850000Y-6650000D01*
%TO.N,Net-(USBC1-CC2)*%
X33450000Y-7098750D02*
X33450000Y-9271750D01*
X41346500Y-5800000D02*
X34748750Y-5800000D01*
X34748750Y-5800000D02*
X33450000Y-7098750D01*
%TD*%
%TA.AperFunction,Conductor*%
%TO.N,GND*%
G36*
X40855297Y-1638185D02*
G01*
X40901052Y-1690989D01*
X40910996Y-1760147D01*
X40881971Y-1823703D01*
X40853355Y-1848039D01*
X40756654Y-1907684D01*
X40632684Y-2031654D01*
X40540643Y-2180875D01*
X40540641Y-2180880D01*
X40485494Y-2347302D01*
X40485493Y-2347309D01*
X40475000Y-2450013D01*
X40475000Y-2900000D01*
X42799999Y-2900000D01*
X42799999Y-2450028D01*
X42799998Y-2450013D01*
X42789505Y-2347302D01*
X42734358Y-2180880D01*
X42734356Y-2180875D01*
X42642315Y-2031654D01*
X42518345Y-1907684D01*
X42421645Y-1848039D01*
X42374921Y-1796091D01*
X42363698Y-1727128D01*
X42391542Y-1663046D01*
X42449611Y-1624190D01*
X42486742Y-1618500D01*
X43912306Y-1618500D01*
X43979345Y-1638185D01*
X44025100Y-1690989D01*
X44035044Y-1760147D01*
X44006019Y-1823703D01*
X43977404Y-1848037D01*
X43922344Y-1881998D01*
X43881342Y-1907289D01*
X43757289Y-2031342D01*
X43665187Y-2180663D01*
X43665185Y-2180668D01*
X43637349Y-2264670D01*
X43610001Y-2347203D01*
X43610001Y-2347204D01*
X43610000Y-2347204D01*
X43599500Y-2449983D01*
X43599500Y-3850001D01*
X43599501Y-3850018D01*
X43610000Y-3952796D01*
X43610001Y-3952799D01*
X43644169Y-4055909D01*
X43665186Y-4119334D01*
X43757288Y-4268656D01*
X43881344Y-4392712D01*
X44030666Y-4484814D01*
X44197203Y-4539999D01*
X44299991Y-4550500D01*
X45225008Y-4550499D01*
X45225016Y-4550498D01*
X45225019Y-4550498D01*
X45281302Y-4544748D01*
X45327797Y-4539999D01*
X45494334Y-4484814D01*
X45566557Y-4440266D01*
X45633948Y-4421826D01*
X45700612Y-4442748D01*
X45745381Y-4496390D01*
X45754942Y-4559056D01*
X45753001Y-4577123D01*
X45753000Y-4577130D01*
X45753000Y-5922870D01*
X45753001Y-5922876D01*
X45759921Y-5987247D01*
X45747514Y-6056006D01*
X45699903Y-6107143D01*
X45636631Y-6124500D01*
X45255630Y-6124500D01*
X45255623Y-6124501D01*
X45196016Y-6130908D01*
X45061171Y-6181202D01*
X45061164Y-6181206D01*
X44945955Y-6267452D01*
X44945952Y-6267455D01*
X44859706Y-6382664D01*
X44859702Y-6382671D01*
X44809408Y-6517517D01*
X44803001Y-6577116D01*
X44803000Y-6577131D01*
X44803000Y-7922870D01*
X44803001Y-7922876D01*
X44809408Y-7982483D01*
X44859702Y-8117328D01*
X44859704Y-8117331D01*
X44941709Y-8226876D01*
X44966126Y-8292341D01*
X44958626Y-8344514D01*
X44952659Y-8360513D01*
X44952658Y-8360516D01*
X44946251Y-8420116D01*
X44946250Y-8420127D01*
X44946250Y-8799999D01*
X44946251Y-9125500D01*
X44926567Y-9192539D01*
X44873763Y-9238294D01*
X44822251Y-9249500D01*
X41036669Y-9249500D01*
X41036653Y-9249499D01*
X41029057Y-9249499D01*
X40870943Y-9249499D01*
X40755583Y-9280409D01*
X40685734Y-9278747D01*
X40627871Y-9239585D01*
X40600367Y-9175356D01*
X40601017Y-9141236D01*
X40625000Y-8989819D01*
X40625000Y-8753250D01*
X39925000Y-8753250D01*
X39925000Y-8253250D01*
X40638075Y-8253250D01*
X40670590Y-8235494D01*
X40740280Y-8240476D01*
X40835767Y-8276091D01*
X40835766Y-8276091D01*
X40842694Y-8276835D01*
X40895377Y-8282500D01*
X41797622Y-8282499D01*
X41857233Y-8276091D01*
X41928514Y-8249505D01*
X41992079Y-8225797D01*
X41992079Y-8225796D01*
X41992081Y-8225796D01*
X42026105Y-8200324D01*
X42091567Y-8175907D01*
X42159840Y-8190757D01*
X42174727Y-8200325D01*
X42208156Y-8225350D01*
X42208163Y-8225354D01*
X42342870Y-8275596D01*
X42342877Y-8275598D01*
X42402405Y-8281999D01*
X42402422Y-8282000D01*
X42603500Y-8282000D01*
X43103500Y-8282000D01*
X43304578Y-8282000D01*
X43304594Y-8281999D01*
X43364122Y-8275598D01*
X43364129Y-8275596D01*
X43498836Y-8225354D01*
X43498843Y-8225350D01*
X43613937Y-8139190D01*
X43613940Y-8139187D01*
X43700100Y-8024093D01*
X43700104Y-8024086D01*
X43750346Y-7889379D01*
X43750348Y-7889372D01*
X43756749Y-7829844D01*
X43756750Y-7829827D01*
X43756750Y-7600000D01*
X43103500Y-7600000D01*
X43103500Y-8282000D01*
X42603500Y-8282000D01*
X42603500Y-7100000D01*
X43103500Y-7100000D01*
X43756750Y-7100000D01*
X43756750Y-6870172D01*
X43756749Y-6870155D01*
X43750348Y-6810627D01*
X43750347Y-6810623D01*
X43700101Y-6675908D01*
X43680191Y-6649313D01*
X43655772Y-6583849D01*
X43670622Y-6515576D01*
X43680191Y-6500687D01*
X43700101Y-6474091D01*
X43750347Y-6339376D01*
X43750348Y-6339372D01*
X43756749Y-6279844D01*
X43756750Y-6279827D01*
X43756750Y-6050000D01*
X43103500Y-6050000D01*
X43103500Y-7100000D01*
X42603500Y-7100000D01*
X42603500Y-5550000D01*
X43103500Y-5550000D01*
X43756750Y-5550000D01*
X43756750Y-5320172D01*
X43756749Y-5320155D01*
X43750348Y-5260627D01*
X43750346Y-5260620D01*
X43700104Y-5125913D01*
X43700100Y-5125906D01*
X43613940Y-5010812D01*
X43613937Y-5010809D01*
X43498843Y-4924649D01*
X43498836Y-4924645D01*
X43364129Y-4874403D01*
X43364122Y-4874401D01*
X43304594Y-4868000D01*
X43103500Y-4868000D01*
X43103500Y-5550000D01*
X42603500Y-5550000D01*
X42603500Y-4868000D01*
X42402405Y-4868000D01*
X42342877Y-4874401D01*
X42342870Y-4874403D01*
X42208163Y-4924645D01*
X42208161Y-4924646D01*
X42174726Y-4949676D01*
X42109261Y-4974092D01*
X42040988Y-4959240D01*
X42026104Y-4949674D01*
X41992081Y-4924204D01*
X41992078Y-4924202D01*
X41857232Y-4873908D01*
X41857233Y-4873908D01*
X41797633Y-4867501D01*
X41797631Y-4867500D01*
X41797623Y-4867500D01*
X41797614Y-4867500D01*
X40895379Y-4867500D01*
X40895373Y-4867501D01*
X40835764Y-4873909D01*
X40783267Y-4893489D01*
X40750459Y-4895835D01*
X40717744Y-4899305D01*
X40715774Y-4898315D01*
X40713575Y-4898473D01*
X40684704Y-4882707D01*
X40655309Y-4867941D01*
X40654186Y-4866042D01*
X40652253Y-4864987D01*
X40636492Y-4836123D01*
X40619743Y-4807801D01*
X40619625Y-4805233D01*
X40618768Y-4803663D01*
X40616020Y-4772704D01*
X40625085Y-4528682D01*
X40635469Y-4497630D01*
X40644685Y-4466246D01*
X40646487Y-4464684D01*
X40647245Y-4462419D01*
X40672774Y-4441905D01*
X40697489Y-4420491D01*
X40699849Y-4420151D01*
X40701711Y-4418656D01*
X40734258Y-4415204D01*
X40766647Y-4410547D01*
X40769254Y-4411492D01*
X40771191Y-4411287D01*
X40777677Y-4414545D01*
X40814097Y-4427747D01*
X40905869Y-4484353D01*
X40905880Y-4484358D01*
X41072302Y-4539505D01*
X41072309Y-4539506D01*
X41175019Y-4549999D01*
X41387499Y-4549999D01*
X41887500Y-4549999D01*
X42099972Y-4549999D01*
X42099986Y-4549998D01*
X42202697Y-4539505D01*
X42369119Y-4484358D01*
X42369124Y-4484356D01*
X42518345Y-4392315D01*
X42642315Y-4268345D01*
X42734356Y-4119124D01*
X42734358Y-4119119D01*
X42789505Y-3952697D01*
X42789506Y-3952690D01*
X42799999Y-3849986D01*
X42800000Y-3849973D01*
X42800000Y-3400000D01*
X41887500Y-3400000D01*
X41887500Y-4549999D01*
X41387499Y-4549999D01*
X41387500Y-4549998D01*
X41387500Y-3400000D01*
X40469000Y-3400000D01*
X40401961Y-3380315D01*
X40356206Y-3327511D01*
X40350551Y-3301516D01*
X40344999Y-3288114D01*
X40241602Y-3184717D01*
X40101524Y-3082945D01*
X39947257Y-3004341D01*
X39782589Y-2950837D01*
X39782581Y-2950835D01*
X39775000Y-2949634D01*
X39775000Y-3708064D01*
X39770606Y-3703670D01*
X39679394Y-3651009D01*
X39577661Y-3623750D01*
X39472339Y-3623750D01*
X39370606Y-3651009D01*
X39279394Y-3703670D01*
X39275000Y-3708064D01*
X39275000Y-2949634D01*
X39274999Y-2949634D01*
X39267418Y-2950835D01*
X39267410Y-2950837D01*
X39102742Y-3004341D01*
X38948475Y-3082945D01*
X38808397Y-3184717D01*
X38685967Y-3307147D01*
X38584195Y-3447225D01*
X38505591Y-3601492D01*
X38452085Y-3766165D01*
X38425000Y-3937178D01*
X38425000Y-4073750D01*
X39125000Y-4073750D01*
X39125000Y-4573750D01*
X38425000Y-4573750D01*
X38425000Y-4710321D01*
X38452086Y-4881335D01*
X38452086Y-4881338D01*
X38502723Y-5037182D01*
X38504718Y-5107023D01*
X38468637Y-5166856D01*
X38405936Y-5197684D01*
X38384792Y-5199500D01*
X34835419Y-5199500D01*
X34835403Y-5199499D01*
X34827807Y-5199499D01*
X34669693Y-5199499D01*
X34516965Y-5240423D01*
X34516964Y-5240423D01*
X34516962Y-5240424D01*
X34486303Y-5258126D01*
X34486301Y-5258127D01*
X34380037Y-5319477D01*
X34380032Y-5319481D01*
X32969479Y-6730034D01*
X32951826Y-6760610D01*
X32944365Y-6773535D01*
X32890423Y-6866965D01*
X32849499Y-7019693D01*
X32849499Y-7019695D01*
X32849499Y-7187796D01*
X32849500Y-7187809D01*
X32849500Y-7443960D01*
X32829815Y-7510999D01*
X32777011Y-7556754D01*
X32707853Y-7566698D01*
X32650014Y-7542336D01*
X32631038Y-7527775D01*
X32631032Y-7527771D01*
X32577280Y-7496738D01*
X32546255Y-7478826D01*
X32546253Y-7478825D01*
X32546243Y-7478820D01*
X32496708Y-7458302D01*
X32496696Y-7458298D01*
X32496693Y-7458297D01*
X32402134Y-7432960D01*
X32402128Y-7432959D01*
X32402123Y-7432958D01*
X32348948Y-7425958D01*
X32348947Y-7425958D01*
X32251053Y-7425958D01*
X32251052Y-7425958D01*
X32197876Y-7432958D01*
X32197869Y-7432959D01*
X32197866Y-7432960D01*
X32132406Y-7450500D01*
X32103307Y-7458297D01*
X32103291Y-7458302D01*
X32053756Y-7478820D01*
X32053746Y-7478825D01*
X31968967Y-7527771D01*
X31965594Y-7530026D01*
X31964535Y-7528442D01*
X31906285Y-7550612D01*
X31837914Y-7536216D01*
X31796296Y-7499875D01*
X31714032Y-7386647D01*
X31591602Y-7264217D01*
X31451524Y-7162445D01*
X31297257Y-7083841D01*
X31132589Y-7030337D01*
X31132581Y-7030335D01*
X31125000Y-7029134D01*
X31125000Y-7787564D01*
X31120606Y-7783170D01*
X31029394Y-7730509D01*
X30927661Y-7703250D01*
X30822339Y-7703250D01*
X30720606Y-7730509D01*
X30629394Y-7783170D01*
X30625000Y-7787564D01*
X30625000Y-7029134D01*
X30624999Y-7029134D01*
X30617418Y-7030335D01*
X30617410Y-7030337D01*
X30452742Y-7083841D01*
X30298475Y-7162445D01*
X30158397Y-7264217D01*
X30035967Y-7386647D01*
X29934195Y-7526725D01*
X29855591Y-7680992D01*
X29802085Y-7845665D01*
X29775000Y-8016678D01*
X29775000Y-8253250D01*
X30475000Y-8253250D01*
X30475000Y-8753250D01*
X29775000Y-8753250D01*
X29775000Y-8989821D01*
X29802085Y-9160834D01*
X29855591Y-9325507D01*
X29934195Y-9479774D01*
X30035967Y-9619852D01*
X30158397Y-9742282D01*
X30298475Y-9844054D01*
X30452742Y-9922658D01*
X30560186Y-9957569D01*
X30617861Y-9997007D01*
X30645059Y-10061366D01*
X30633144Y-10130212D01*
X30585900Y-10181688D01*
X30521867Y-10199500D01*
X29550381Y-10199500D01*
X29549069Y-10199493D01*
X29533899Y-10199332D01*
X29527057Y-10197499D01*
X29368943Y-10197499D01*
X29368939Y-10197500D01*
X28529638Y-10197500D01*
X28462599Y-10177815D01*
X28416844Y-10125011D01*
X28411932Y-10112504D01*
X28384814Y-10030666D01*
X28292712Y-9881344D01*
X28168656Y-9757288D01*
X28019334Y-9665186D01*
X27852797Y-9610001D01*
X27852795Y-9610000D01*
X27750010Y-9599500D01*
X26349998Y-9599500D01*
X26349981Y-9599501D01*
X26247203Y-9610000D01*
X26247200Y-9610001D01*
X26080668Y-9665185D01*
X26080663Y-9665187D01*
X25931342Y-9757289D01*
X25807289Y-9881342D01*
X25725720Y-10013587D01*
X25673772Y-10060312D01*
X25604809Y-10071533D01*
X25540727Y-10043690D01*
X25519863Y-10021375D01*
X25421247Y-9885640D01*
X25265363Y-9729756D01*
X25265358Y-9729752D01*
X25087025Y-9600187D01*
X25087024Y-9600186D01*
X25087022Y-9600185D01*
X25020908Y-9566498D01*
X24890606Y-9500104D01*
X24890603Y-9500103D01*
X24680952Y-9431985D01*
X24572086Y-9414742D01*
X24463222Y-9397500D01*
X23542778Y-9397500D01*
X23470201Y-9408995D01*
X23325047Y-9431985D01*
X23115396Y-9500103D01*
X23115393Y-9500104D01*
X22918974Y-9600187D01*
X22740641Y-9729752D01*
X22740636Y-9729756D01*
X22584756Y-9885636D01*
X22584752Y-9885641D01*
X22455187Y-10063974D01*
X22355104Y-10260393D01*
X22355103Y-10260396D01*
X22286985Y-10470047D01*
X22252500Y-10687778D01*
X22252500Y-10908221D01*
X22286985Y-11125952D01*
X22355103Y-11335603D01*
X22355104Y-11335606D01*
X22403159Y-11429917D01*
X22453739Y-11529185D01*
X22455187Y-11532025D01*
X22584752Y-11710358D01*
X22584756Y-11710363D01*
X22616212Y-11741819D01*
X22649697Y-11803142D01*
X22644713Y-11872834D01*
X22616212Y-11917181D01*
X22584756Y-11948636D01*
X22584752Y-11948641D01*
X22455185Y-12126976D01*
X22417637Y-12200668D01*
X22369663Y-12251463D01*
X22301842Y-12268258D01*
X22235707Y-12245720D01*
X22219472Y-12232053D01*
X21500005Y-11512586D01*
X21496667Y-11510356D01*
X21496656Y-11510350D01*
X21493888Y-11508500D01*
X21397233Y-11443917D01*
X21363434Y-11429917D01*
X21355265Y-11426533D01*
X21355263Y-11426532D01*
X21283035Y-11396614D01*
X21283027Y-11396612D01*
X21161807Y-11372500D01*
X21161803Y-11372500D01*
X19830398Y-11372500D01*
X19806207Y-11370117D01*
X19783464Y-11365593D01*
X19747804Y-11358500D01*
X19747803Y-11358500D01*
X19398781Y-11358500D01*
X19331742Y-11338815D01*
X19298462Y-11307385D01*
X19296289Y-11304394D01*
X19296287Y-11304390D01*
X19175966Y-11138781D01*
X19031219Y-10994034D01*
X19031213Y-10994028D01*
X18865613Y-10873715D01*
X18865612Y-10873714D01*
X18865610Y-10873713D01*
X18808653Y-10844691D01*
X18683223Y-10780781D01*
X18488534Y-10717522D01*
X18300734Y-10687778D01*
X18286352Y-10685500D01*
X18081648Y-10685500D01*
X18067266Y-10687778D01*
X17879465Y-10717522D01*
X17684776Y-10780781D01*
X17502386Y-10873715D01*
X17336786Y-10994028D01*
X17192028Y-11138786D01*
X17071715Y-11304386D01*
X16978781Y-11486776D01*
X16915522Y-11681465D01*
X16886214Y-11866510D01*
X16883500Y-11883648D01*
X16883500Y-12088352D01*
X16884150Y-12092454D01*
X16915522Y-12290534D01*
X16978781Y-12485223D01*
X17071715Y-12667613D01*
X17192028Y-12833213D01*
X17336786Y-12977971D01*
X17476080Y-13079172D01*
X17502390Y-13098287D01*
X17618607Y-13157503D01*
X17684776Y-13191218D01*
X17684778Y-13191218D01*
X17684781Y-13191220D01*
X17750970Y-13212726D01*
X17875131Y-13253069D01*
X17932806Y-13292507D01*
X17960004Y-13356866D01*
X17948089Y-13425712D01*
X17900845Y-13477188D01*
X17875131Y-13488931D01*
X17684776Y-13550781D01*
X17502386Y-13643715D01*
X17336786Y-13764028D01*
X17192028Y-13908786D01*
X17071715Y-14074386D01*
X16978781Y-14256776D01*
X16915522Y-14451465D01*
X16883501Y-14653638D01*
X16883140Y-14658232D01*
X16858254Y-14723520D01*
X16802022Y-14764989D01*
X16759522Y-14772500D01*
X16023196Y-14772500D01*
X15975317Y-14782023D01*
X15905726Y-14775794D01*
X15850549Y-14732930D01*
X15827306Y-14667040D01*
X15843375Y-14599043D01*
X15893655Y-14550529D01*
X15894719Y-14549979D01*
X16025610Y-14483287D01*
X16124134Y-14411706D01*
X16191213Y-14362971D01*
X16191215Y-14362968D01*
X16191219Y-14362966D01*
X16335966Y-14218219D01*
X16335968Y-14218215D01*
X16335971Y-14218213D01*
X16388732Y-14145590D01*
X16456287Y-14052610D01*
X16549220Y-13870219D01*
X16612477Y-13675534D01*
X16644500Y-13473352D01*
X16644500Y-13268648D01*
X16643892Y-13264812D01*
X16612477Y-13066465D01*
X16583127Y-12976137D01*
X16549220Y-12871781D01*
X16549218Y-12871778D01*
X16549218Y-12871776D01*
X16510183Y-12795167D01*
X16456287Y-12689390D01*
X16440463Y-12667610D01*
X16335971Y-12523786D01*
X16191213Y-12379028D01*
X16025613Y-12258715D01*
X16025612Y-12258714D01*
X16025610Y-12258713D01*
X15925431Y-12207669D01*
X15843223Y-12165781D01*
X15648534Y-12102522D01*
X15473995Y-12074878D01*
X15446352Y-12070500D01*
X15241648Y-12070500D01*
X15217329Y-12074351D01*
X15039465Y-12102522D01*
X14844776Y-12165781D01*
X14662386Y-12258715D01*
X14496786Y-12379028D01*
X14352028Y-12523786D01*
X14231715Y-12689386D01*
X14138781Y-12871776D01*
X14075522Y-13066465D01*
X14043500Y-13268648D01*
X14043500Y-13473351D01*
X14075522Y-13675534D01*
X14138781Y-13870223D01*
X14231715Y-14052613D01*
X14352028Y-14218213D01*
X14496786Y-14362971D01*
X14626843Y-14457461D01*
X14662390Y-14483287D01*
X14770612Y-14538429D01*
X14844776Y-14576218D01*
X14844778Y-14576218D01*
X14844781Y-14576220D01*
X14906806Y-14596373D01*
X15035131Y-14638069D01*
X15092806Y-14677507D01*
X15120004Y-14741866D01*
X15108089Y-14810712D01*
X15060845Y-14862188D01*
X15035131Y-14873931D01*
X14844776Y-14935781D01*
X14662386Y-15028715D01*
X14496786Y-15149028D01*
X14352028Y-15293786D01*
X14231715Y-15459386D01*
X14138781Y-15641776D01*
X14075522Y-15836465D01*
X14043500Y-16038648D01*
X14043500Y-16243351D01*
X14075522Y-16445534D01*
X14138781Y-16640223D01*
X14191576Y-16743837D01*
X14230801Y-16820821D01*
X14231715Y-16822613D01*
X14352028Y-16988213D01*
X14496786Y-17132971D01*
X14649733Y-17244091D01*
X14662390Y-17253287D01*
X14844781Y-17346220D01*
X14990807Y-17393666D01*
X15035938Y-17408331D01*
X15093614Y-17447769D01*
X15120812Y-17512127D01*
X15108897Y-17580974D01*
X15061653Y-17632449D01*
X15035939Y-17644193D01*
X14844968Y-17706244D01*
X14662650Y-17799140D01*
X14497105Y-17919417D01*
X14497104Y-17919417D01*
X14352417Y-18064104D01*
X14352417Y-18064105D01*
X14232140Y-18229650D01*
X14139244Y-18411970D01*
X14076009Y-18606586D01*
X14067391Y-18661000D01*
X14859026Y-18661000D01*
X14836141Y-18700638D01*
X14799000Y-18839249D01*
X14799000Y-18982751D01*
X14836141Y-19121362D01*
X14859026Y-19161000D01*
X14067391Y-19161000D01*
X14076009Y-19215413D01*
X14139244Y-19410029D01*
X14232140Y-19592349D01*
X14352417Y-19757894D01*
X14352417Y-19757895D01*
X14497104Y-19902582D01*
X14662650Y-20022859D01*
X14844968Y-20115755D01*
X15035939Y-20177806D01*
X15093614Y-20217244D01*
X15120812Y-20281603D01*
X15108897Y-20350449D01*
X15061653Y-20401925D01*
X15035939Y-20413668D01*
X14844776Y-20475781D01*
X14662386Y-20568715D01*
X14496786Y-20689028D01*
X14352028Y-20833786D01*
X14231715Y-20999386D01*
X14138781Y-21181776D01*
X14075522Y-21376465D01*
X14043500Y-21578648D01*
X14043500Y-21783351D01*
X14075522Y-21985534D01*
X14138781Y-22180223D01*
X14188069Y-22276954D01*
X14224480Y-22348415D01*
X14231715Y-22362613D01*
X14352028Y-22528213D01*
X14496786Y-22672971D01*
X14651749Y-22785556D01*
X14662390Y-22793287D01*
X14759009Y-22842517D01*
X14844776Y-22886218D01*
X14844778Y-22886218D01*
X14844781Y-22886220D01*
X14949137Y-22920127D01*
X15039465Y-22949477D01*
X15128937Y-22963648D01*
X15241648Y-22981500D01*
X15241649Y-22981500D01*
X15446351Y-22981500D01*
X15446352Y-22981500D01*
X15648534Y-22949477D01*
X15843219Y-22886220D01*
X16025610Y-22793287D01*
X16126306Y-22720128D01*
X16191213Y-22672971D01*
X16191215Y-22672968D01*
X16191219Y-22672966D01*
X16335966Y-22528219D01*
X16335968Y-22528215D01*
X16335971Y-22528213D01*
X16388732Y-22455590D01*
X16456287Y-22362610D01*
X16549220Y-22180219D01*
X16612477Y-21985534D01*
X16644500Y-21783352D01*
X16644500Y-21578648D01*
X16612477Y-21376466D01*
X16549220Y-21181781D01*
X16549218Y-21181778D01*
X16549218Y-21181776D01*
X16513437Y-21111553D01*
X16456287Y-20999390D01*
X16440463Y-20977610D01*
X16335971Y-20833786D01*
X16191213Y-20689028D01*
X16025613Y-20568715D01*
X16025612Y-20568714D01*
X16025610Y-20568713D01*
X15968653Y-20539691D01*
X15843223Y-20475781D01*
X15652060Y-20413668D01*
X15594385Y-20374230D01*
X15567187Y-20309871D01*
X15579102Y-20241025D01*
X15626346Y-20189549D01*
X15652061Y-20177806D01*
X15843029Y-20115755D01*
X16025349Y-20022859D01*
X16190894Y-19902582D01*
X16190895Y-19902582D01*
X16335582Y-19757895D01*
X16335582Y-19757894D01*
X16455859Y-19592349D01*
X16548755Y-19410029D01*
X16611990Y-19215413D01*
X16620609Y-19161000D01*
X15828974Y-19161000D01*
X15851859Y-19121362D01*
X15889000Y-18982751D01*
X15889000Y-18839249D01*
X15851859Y-18700638D01*
X15828974Y-18661000D01*
X16620609Y-18661000D01*
X16611990Y-18606586D01*
X16548755Y-18411970D01*
X16455859Y-18229650D01*
X16335582Y-18064105D01*
X16335582Y-18064104D01*
X16190895Y-17919417D01*
X16025349Y-17799140D01*
X15843031Y-17706244D01*
X15652060Y-17644193D01*
X15594385Y-17604755D01*
X15567187Y-17540396D01*
X15579102Y-17471550D01*
X15626347Y-17420074D01*
X15652061Y-17408331D01*
X15843219Y-17346220D01*
X16025610Y-17253287D01*
X16118590Y-17185732D01*
X16191213Y-17132971D01*
X16191215Y-17132968D01*
X16191219Y-17132966D01*
X16335966Y-16988219D01*
X16335968Y-16988215D01*
X16335971Y-16988213D01*
X16400060Y-16900000D01*
X16456287Y-16822610D01*
X16549220Y-16640219D01*
X16612477Y-16445534D01*
X16644500Y-16243352D01*
X16644500Y-16151500D01*
X16647050Y-16142814D01*
X16645762Y-16133853D01*
X16656740Y-16109812D01*
X16664185Y-16084461D01*
X16671025Y-16078533D01*
X16674787Y-16070297D01*
X16697021Y-16056007D01*
X16716989Y-16038706D01*
X16727503Y-16036418D01*
X16733565Y-16032523D01*
X16768500Y-16027500D01*
X16921486Y-16027500D01*
X16988525Y-16047185D01*
X17009167Y-16063819D01*
X17320400Y-16375052D01*
X17353885Y-16436375D01*
X17348901Y-16506067D01*
X17320401Y-16550414D01*
X17192027Y-16678788D01*
X17071715Y-16844386D01*
X16978781Y-17026776D01*
X16915522Y-17221465D01*
X16883500Y-17423648D01*
X16883500Y-17628351D01*
X16915522Y-17830534D01*
X16978781Y-18025223D01*
X17036059Y-18137635D01*
X17070379Y-18204992D01*
X17071715Y-18207613D01*
X17192028Y-18373213D01*
X17336786Y-18517971D01*
X17464207Y-18610546D01*
X17502390Y-18638287D01*
X17583770Y-18679752D01*
X17684776Y-18731218D01*
X17684778Y-18731218D01*
X17684781Y-18731220D01*
X17733627Y-18747091D01*
X17875131Y-18793069D01*
X17932806Y-18832507D01*
X17960004Y-18896866D01*
X17948089Y-18965712D01*
X17900845Y-19017188D01*
X17875131Y-19028931D01*
X17684776Y-19090781D01*
X17502386Y-19183715D01*
X17336786Y-19304028D01*
X17192028Y-19448786D01*
X17071715Y-19614386D01*
X16978781Y-19796776D01*
X16915522Y-19991465D01*
X16883500Y-20193648D01*
X16883500Y-20398351D01*
X16915522Y-20600534D01*
X16978781Y-20795223D01*
X17071715Y-20977613D01*
X17192028Y-21143213D01*
X17336786Y-21287971D01*
X17491749Y-21400556D01*
X17502390Y-21408287D01*
X17684781Y-21501220D01*
X17847587Y-21554119D01*
X17858988Y-21561105D01*
X17868695Y-21563217D01*
X17896949Y-21584368D01*
X17910460Y-21597879D01*
X17943945Y-21659202D01*
X17938961Y-21728894D01*
X17897089Y-21784827D01*
X17861098Y-21803491D01*
X17684776Y-21860781D01*
X17502386Y-21953715D01*
X17336786Y-22074028D01*
X17192028Y-22218786D01*
X17071715Y-22384386D01*
X16978781Y-22566776D01*
X16915522Y-22761465D01*
X16883500Y-22963648D01*
X16883500Y-23168351D01*
X16915522Y-23370534D01*
X16978781Y-23565223D01*
X17071715Y-23747613D01*
X17192028Y-23913213D01*
X17336786Y-24057971D01*
X17477162Y-24159958D01*
X17502390Y-24178287D01*
X17602316Y-24229202D01*
X17684776Y-24271218D01*
X17684778Y-24271218D01*
X17684781Y-24271220D01*
X17771002Y-24299235D01*
X17879465Y-24334477D01*
X17906387Y-24338741D01*
X18081648Y-24366500D01*
X18081649Y-24366500D01*
X18286351Y-24366500D01*
X18286352Y-24366500D01*
X18488534Y-24334477D01*
X18683219Y-24271220D01*
X18865610Y-24178287D01*
X18987194Y-24089952D01*
X19031213Y-24057971D01*
X19031215Y-24057968D01*
X19031219Y-24057966D01*
X19175966Y-23913219D01*
X19175968Y-23913215D01*
X19175971Y-23913213D01*
X19255681Y-23803500D01*
X19296287Y-23747610D01*
X19389220Y-23565219D01*
X19446509Y-23388902D01*
X19485947Y-23331227D01*
X19550306Y-23304029D01*
X19619152Y-23315944D01*
X19652121Y-23339540D01*
X19888589Y-23576008D01*
X19975992Y-23663411D01*
X19975994Y-23663413D01*
X19975996Y-23663414D01*
X20078756Y-23732076D01*
X20078760Y-23732078D01*
X20078767Y-23732083D01*
X20186714Y-23776795D01*
X20186720Y-23776800D01*
X20186720Y-23776798D01*
X20192965Y-23779385D01*
X20192967Y-23779385D01*
X20192968Y-23779386D01*
X20314194Y-23803500D01*
X20314197Y-23803500D01*
X20437803Y-23803500D01*
X22324922Y-23803500D01*
X22391961Y-23823185D01*
X22435406Y-23871204D01*
X22453338Y-23906397D01*
X22455187Y-23910026D01*
X22584752Y-24088358D01*
X22584756Y-24088363D01*
X22616212Y-24119819D01*
X22649697Y-24181142D01*
X22644713Y-24250834D01*
X22616212Y-24295181D01*
X22584756Y-24326636D01*
X22584752Y-24326641D01*
X22455187Y-24504974D01*
X22355104Y-24701393D01*
X22355103Y-24701396D01*
X22286985Y-24911047D01*
X22252500Y-25128778D01*
X22252500Y-25349221D01*
X22286985Y-25566952D01*
X22355103Y-25776603D01*
X22355104Y-25776606D01*
X22421822Y-25907544D01*
X22442988Y-25949085D01*
X22455187Y-25973025D01*
X22584752Y-26151358D01*
X22584756Y-26151363D01*
X22616566Y-26183173D01*
X22650051Y-26244496D01*
X22645067Y-26314188D01*
X22616566Y-26358535D01*
X22585142Y-26389958D01*
X22455613Y-26568239D01*
X22355567Y-26764589D01*
X22287473Y-26974161D01*
X22287473Y-26974164D01*
X22275145Y-27052000D01*
X23294759Y-27052000D01*
X23281822Y-27083233D01*
X23253000Y-27228131D01*
X23253000Y-27375869D01*
X23281822Y-27520767D01*
X23294759Y-27552000D01*
X22275145Y-27552000D01*
X22287473Y-27629835D01*
X22287473Y-27629838D01*
X22355567Y-27839410D01*
X22455613Y-28035760D01*
X22585142Y-28214041D01*
X22740958Y-28369857D01*
X22919239Y-28499386D01*
X23115589Y-28599432D01*
X23325164Y-28667526D01*
X23542819Y-28702000D01*
X23753000Y-28702000D01*
X23753000Y-28010240D01*
X23784233Y-28023178D01*
X23929131Y-28052000D01*
X24076869Y-28052000D01*
X24221767Y-28023178D01*
X24253000Y-28010240D01*
X24253000Y-28702000D01*
X24463181Y-28702000D01*
X24680835Y-28667526D01*
X24890410Y-28599432D01*
X25086760Y-28499386D01*
X25265041Y-28369857D01*
X25420857Y-28214041D01*
X25550386Y-28035760D01*
X25650432Y-27839410D01*
X25718526Y-27629838D01*
X25718526Y-27629835D01*
X25730855Y-27552000D01*
X24711241Y-27552000D01*
X24724178Y-27520767D01*
X24753000Y-27375869D01*
X24753000Y-27228131D01*
X24724178Y-27083233D01*
X24711241Y-27052000D01*
X25730855Y-27052000D01*
X25718526Y-26974164D01*
X25718526Y-26974161D01*
X25650432Y-26764589D01*
X25550386Y-26568239D01*
X25420857Y-26389958D01*
X25389434Y-26358535D01*
X25387149Y-26354351D01*
X25383149Y-26351763D01*
X25370567Y-26323983D01*
X25355949Y-26297212D01*
X25356288Y-26292457D01*
X25354323Y-26288117D01*
X25358757Y-26257944D01*
X25360933Y-26227520D01*
X25363980Y-26222401D01*
X25364482Y-26218990D01*
X25375015Y-26203869D01*
X25383656Y-26189359D01*
X25386435Y-26186171D01*
X25421242Y-26151365D01*
X25443495Y-26120735D01*
X25447111Y-26116589D01*
X25472105Y-26100636D01*
X25495579Y-26082534D01*
X25501227Y-26082048D01*
X25506007Y-26078998D01*
X25535653Y-26079090D01*
X25565193Y-26076553D01*
X25571104Y-26079202D01*
X25575877Y-26079217D01*
X25586546Y-26086121D01*
X25614879Y-26098816D01*
X25650835Y-26125733D01*
X25650918Y-26125795D01*
X25650921Y-26125797D01*
X25785767Y-26176091D01*
X25785766Y-26176091D01*
X25792694Y-26176835D01*
X25845377Y-26182500D01*
X26747622Y-26182499D01*
X26807233Y-26176091D01*
X26942081Y-26125796D01*
X26975693Y-26100633D01*
X27041151Y-26076218D01*
X27109425Y-26091069D01*
X27124291Y-26100622D01*
X27157919Y-26125796D01*
X27157923Y-26125797D01*
X27157924Y-26125798D01*
X27292767Y-26176091D01*
X27292766Y-26176091D01*
X27299694Y-26176835D01*
X27352377Y-26182500D01*
X28254622Y-26182499D01*
X28314233Y-26176091D01*
X28449081Y-26125796D01*
X28564296Y-26039546D01*
X28650546Y-25924331D01*
X28700841Y-25789483D01*
X28707250Y-25729873D01*
X28707249Y-25212907D01*
X28726933Y-25145869D01*
X28779737Y-25100114D01*
X28848896Y-25090170D01*
X28859810Y-25092962D01*
X28859965Y-25092307D01*
X28867516Y-25094091D01*
X28874444Y-25094835D01*
X28927127Y-25100500D01*
X30272872Y-25100499D01*
X30332483Y-25094091D01*
X30332487Y-25094089D01*
X30337245Y-25093578D01*
X30406004Y-25105984D01*
X30457142Y-25153594D01*
X30474500Y-25216868D01*
X30474500Y-25597869D01*
X30474501Y-25597876D01*
X30480908Y-25657483D01*
X30531202Y-25792328D01*
X30531206Y-25792335D01*
X30617452Y-25907544D01*
X30617453Y-25907544D01*
X30617454Y-25907546D01*
X30635245Y-25920864D01*
X30641750Y-25925734D01*
X30683620Y-25981668D01*
X30688604Y-26051360D01*
X30655118Y-26112683D01*
X30641750Y-26124266D01*
X30617452Y-26142455D01*
X30531206Y-26257664D01*
X30531202Y-26257671D01*
X30480908Y-26392517D01*
X30474501Y-26452116D01*
X30474500Y-26452135D01*
X30474500Y-26833131D01*
X30454815Y-26900170D01*
X30402011Y-26945925D01*
X30337246Y-26956421D01*
X30330756Y-26955723D01*
X30272873Y-26949500D01*
X30272865Y-26949500D01*
X28927129Y-26949500D01*
X28927123Y-26949501D01*
X28867516Y-26955908D01*
X28732671Y-27006202D01*
X28732664Y-27006206D01*
X28617455Y-27092452D01*
X28617452Y-27092455D01*
X28531206Y-27207664D01*
X28531202Y-27207671D01*
X28480908Y-27342517D01*
X28474501Y-27402116D01*
X28474500Y-27402135D01*
X28474500Y-28197870D01*
X28474501Y-28197876D01*
X28480908Y-28257483D01*
X28531202Y-28392328D01*
X28531206Y-28392335D01*
X28617452Y-28507544D01*
X28617455Y-28507547D01*
X28732664Y-28593793D01*
X28732671Y-28593797D01*
X28867517Y-28644091D01*
X28867516Y-28644091D01*
X28874444Y-28644835D01*
X28927127Y-28650500D01*
X30272872Y-28650499D01*
X30332483Y-28644091D01*
X30332487Y-28644089D01*
X30337245Y-28643578D01*
X30406004Y-28655984D01*
X30457142Y-28703594D01*
X30474500Y-28766868D01*
X30474500Y-29147869D01*
X30474501Y-29147876D01*
X30480908Y-29207483D01*
X30531202Y-29342328D01*
X30531206Y-29342335D01*
X30617452Y-29457544D01*
X30617453Y-29457544D01*
X30617454Y-29457546D01*
X30636146Y-29471539D01*
X30675145Y-29500734D01*
X30717015Y-29556668D01*
X30721999Y-29626360D01*
X30688513Y-29687683D01*
X30675145Y-29699266D01*
X30617452Y-29742455D01*
X30531206Y-29857664D01*
X30531202Y-29857671D01*
X30480908Y-29992517D01*
X30474501Y-30052116D01*
X30474500Y-30052135D01*
X30474500Y-30433131D01*
X30454815Y-30500170D01*
X30402011Y-30545925D01*
X30337246Y-30556421D01*
X30330756Y-30555723D01*
X30272873Y-30549500D01*
X30272865Y-30549500D01*
X28927129Y-30549500D01*
X28927123Y-30549501D01*
X28867516Y-30555908D01*
X28732671Y-30606202D01*
X28732664Y-30606206D01*
X28617455Y-30692452D01*
X28617452Y-30692455D01*
X28531206Y-30807664D01*
X28531202Y-30807671D01*
X28480908Y-30942517D01*
X28474501Y-31002116D01*
X28474500Y-31002135D01*
X28474500Y-31797870D01*
X28474501Y-31797876D01*
X28480908Y-31857483D01*
X28531202Y-31992328D01*
X28531206Y-31992335D01*
X28617452Y-32107544D01*
X28617455Y-32107547D01*
X28732664Y-32193793D01*
X28732671Y-32193797D01*
X28867517Y-32244091D01*
X28867516Y-32244091D01*
X28874444Y-32244835D01*
X28927127Y-32250500D01*
X30272872Y-32250499D01*
X30332483Y-32244091D01*
X30332487Y-32244089D01*
X30337245Y-32243578D01*
X30406004Y-32255984D01*
X30457142Y-32303594D01*
X30474500Y-32366868D01*
X30474500Y-32747869D01*
X30474501Y-32747876D01*
X30480908Y-32807483D01*
X30527599Y-32932667D01*
X30532583Y-33002359D01*
X30499098Y-33063682D01*
X30437774Y-33097166D01*
X30411417Y-33100000D01*
X13224000Y-33100000D01*
X13156961Y-33080315D01*
X13111206Y-33027511D01*
X13100000Y-32976000D01*
X13100000Y-29776000D01*
X14175716Y-29776000D01*
X15133029Y-29776000D01*
X15114000Y-29896142D01*
X15114000Y-30155858D01*
X15133029Y-30276000D01*
X14175716Y-30276000D01*
X14196694Y-30462189D01*
X14196696Y-30462201D01*
X14261678Y-30746910D01*
X14261681Y-30746918D01*
X14358129Y-31022548D01*
X14484831Y-31285648D01*
X14640199Y-31532914D01*
X14822274Y-31761230D01*
X15028769Y-31967725D01*
X15257085Y-32149800D01*
X15504351Y-32305168D01*
X15767451Y-32431870D01*
X16043081Y-32528318D01*
X16043089Y-32528321D01*
X16327805Y-32593305D01*
X16327802Y-32593305D01*
X16513999Y-32614283D01*
X16514000Y-32614283D01*
X16514000Y-31656971D01*
X16634142Y-31676000D01*
X16893858Y-31676000D01*
X17014000Y-31656971D01*
X17014000Y-32614283D01*
X17200195Y-32593305D01*
X17484910Y-32528321D01*
X17484918Y-32528318D01*
X17760548Y-32431870D01*
X18023648Y-32305168D01*
X18270914Y-32149800D01*
X18499230Y-31967725D01*
X18705725Y-31761230D01*
X18887800Y-31532914D01*
X19043168Y-31285648D01*
X19169870Y-31022548D01*
X19266318Y-30746918D01*
X19266321Y-30746910D01*
X19331303Y-30462201D01*
X19331305Y-30462189D01*
X19352284Y-30276000D01*
X18394971Y-30276000D01*
X18414000Y-30155858D01*
X18414000Y-29896142D01*
X18394971Y-29776000D01*
X19352284Y-29776000D01*
X19331305Y-29589810D01*
X19331303Y-29589798D01*
X19266321Y-29305089D01*
X19266318Y-29305081D01*
X19169870Y-29029451D01*
X19043168Y-28766351D01*
X18887800Y-28519085D01*
X18705725Y-28290769D01*
X18499230Y-28084274D01*
X18270914Y-27902199D01*
X18023645Y-27746829D01*
X17774104Y-27626657D01*
X17774103Y-27626657D01*
X17760548Y-27620129D01*
X17484918Y-27523681D01*
X17484910Y-27523678D01*
X17200201Y-27458696D01*
X17200189Y-27458694D01*
X17014000Y-27437715D01*
X17014000Y-28395028D01*
X16893858Y-28376000D01*
X16634142Y-28376000D01*
X16514000Y-28395028D01*
X16514000Y-27437715D01*
X16327810Y-27458694D01*
X16327798Y-27458696D01*
X16043089Y-27523678D01*
X16043081Y-27523681D01*
X15767451Y-27620129D01*
X15504351Y-27746831D01*
X15257085Y-27902199D01*
X15028769Y-28084274D01*
X14822274Y-28290769D01*
X14640199Y-28519085D01*
X14484831Y-28766351D01*
X14358129Y-29029451D01*
X14261681Y-29305081D01*
X14261678Y-29305089D01*
X14196696Y-29589798D01*
X14196694Y-29589810D01*
X14175716Y-29776000D01*
X13100000Y-29776000D01*
X13100000Y-8099986D01*
X25650001Y-8099986D01*
X25660494Y-8202697D01*
X25715641Y-8369119D01*
X25715643Y-8369124D01*
X25807684Y-8518345D01*
X25931654Y-8642315D01*
X26080875Y-8734356D01*
X26080880Y-8734358D01*
X26247302Y-8789505D01*
X26247309Y-8789506D01*
X26350019Y-8799999D01*
X26799999Y-8799999D01*
X27300000Y-8799999D01*
X27749972Y-8799999D01*
X27749986Y-8799998D01*
X27852697Y-8789505D01*
X28019119Y-8734358D01*
X28019124Y-8734356D01*
X28168345Y-8642315D01*
X28292315Y-8518345D01*
X28384356Y-8369124D01*
X28384358Y-8369119D01*
X28439505Y-8202697D01*
X28439506Y-8202690D01*
X28449999Y-8099986D01*
X28450000Y-8099973D01*
X28450000Y-7887500D01*
X27300000Y-7887500D01*
X27300000Y-8799999D01*
X26799999Y-8799999D01*
X26800000Y-8799998D01*
X26800000Y-7887500D01*
X25650001Y-7887500D01*
X25650001Y-8099986D01*
X13100000Y-8099986D01*
X13100000Y-4776000D01*
X14175716Y-4776000D01*
X15133029Y-4776000D01*
X15114000Y-4896142D01*
X15114000Y-5155858D01*
X15133029Y-5276000D01*
X14175716Y-5276000D01*
X14196694Y-5462189D01*
X14196696Y-5462201D01*
X14261678Y-5746910D01*
X14261681Y-5746918D01*
X14358129Y-6022548D01*
X14484831Y-6285648D01*
X14640199Y-6532914D01*
X14822274Y-6761230D01*
X15028769Y-6967725D01*
X15257085Y-7149800D01*
X15504351Y-7305168D01*
X15767451Y-7431870D01*
X16043081Y-7528318D01*
X16043089Y-7528321D01*
X16327805Y-7593305D01*
X16327802Y-7593305D01*
X16513999Y-7614283D01*
X16514000Y-7614283D01*
X16514000Y-6656971D01*
X16634142Y-6676000D01*
X16893858Y-6676000D01*
X17014000Y-6656971D01*
X17014000Y-7614283D01*
X17200195Y-7593305D01*
X17484910Y-7528321D01*
X17484918Y-7528318D01*
X17760548Y-7431870D01*
X18023648Y-7305168D01*
X18230788Y-7175013D01*
X25650000Y-7175013D01*
X25650000Y-7387500D01*
X26800000Y-7387500D01*
X27300000Y-7387500D01*
X28449999Y-7387500D01*
X28449999Y-7175028D01*
X28449998Y-7175013D01*
X28439505Y-7072302D01*
X28384358Y-6905880D01*
X28384356Y-6905875D01*
X28292315Y-6756654D01*
X28168345Y-6632684D01*
X28019124Y-6540643D01*
X28019119Y-6540641D01*
X27852697Y-6485494D01*
X27852690Y-6485493D01*
X27749986Y-6475000D01*
X27300000Y-6475000D01*
X27300000Y-7387500D01*
X26800000Y-7387500D01*
X26800000Y-6475000D01*
X26350028Y-6475000D01*
X26350012Y-6475001D01*
X26247302Y-6485494D01*
X26080880Y-6540641D01*
X26080875Y-6540643D01*
X25931654Y-6632684D01*
X25807684Y-6756654D01*
X25715643Y-6905875D01*
X25715641Y-6905880D01*
X25660494Y-7072302D01*
X25660493Y-7072309D01*
X25650000Y-7175013D01*
X18230788Y-7175013D01*
X18270914Y-7149800D01*
X18364816Y-7074917D01*
X18499230Y-6967725D01*
X18705725Y-6761230D01*
X18887800Y-6532914D01*
X19043168Y-6285648D01*
X19169870Y-6022548D01*
X19266318Y-5746918D01*
X19266321Y-5746910D01*
X19331303Y-5462201D01*
X19331305Y-5462189D01*
X19352284Y-5276000D01*
X18394971Y-5276000D01*
X18414000Y-5155858D01*
X18414000Y-4896142D01*
X18394971Y-4776000D01*
X19352284Y-4776000D01*
X19331305Y-4589810D01*
X19331303Y-4589794D01*
X19322216Y-4549980D01*
X19266321Y-4305089D01*
X19266318Y-4305081D01*
X19169870Y-4029451D01*
X19148997Y-3986108D01*
X19148996Y-3986106D01*
X19125434Y-3937178D01*
X29775000Y-3937178D01*
X29775000Y-4073750D01*
X30475000Y-4073750D01*
X30475000Y-4573750D01*
X29775000Y-4573750D01*
X29775000Y-4710321D01*
X29802085Y-4881334D01*
X29855591Y-5046007D01*
X29934195Y-5200274D01*
X30035967Y-5340352D01*
X30158397Y-5462782D01*
X30298475Y-5564554D01*
X30452744Y-5643158D01*
X30617415Y-5696664D01*
X30617414Y-5696664D01*
X30624999Y-5697865D01*
X30625000Y-5697864D01*
X30625000Y-4939436D01*
X30629394Y-4943830D01*
X30720606Y-4996491D01*
X30822339Y-5023750D01*
X30927661Y-5023750D01*
X31029394Y-4996491D01*
X31120606Y-4943830D01*
X31125000Y-4939436D01*
X31125000Y-5697865D01*
X31132584Y-5696664D01*
X31297255Y-5643158D01*
X31451524Y-5564554D01*
X31591602Y-5462782D01*
X31714032Y-5340352D01*
X31815804Y-5200274D01*
X31894408Y-5046007D01*
X31947914Y-4881334D01*
X31975000Y-4710321D01*
X31975000Y-4573750D01*
X31275000Y-4573750D01*
X31275000Y-4073750D01*
X31975000Y-4073750D01*
X31975000Y-3937178D01*
X31947914Y-3766165D01*
X31894408Y-3601492D01*
X31815804Y-3447225D01*
X31714032Y-3307147D01*
X31591602Y-3184717D01*
X31451524Y-3082945D01*
X31297257Y-3004341D01*
X31132589Y-2950837D01*
X31132581Y-2950835D01*
X31125000Y-2949634D01*
X31125000Y-3708064D01*
X31120606Y-3703670D01*
X31029394Y-3651009D01*
X30927661Y-3623750D01*
X30822339Y-3623750D01*
X30720606Y-3651009D01*
X30629394Y-3703670D01*
X30625000Y-3708064D01*
X30625000Y-2949634D01*
X30624999Y-2949634D01*
X30617418Y-2950835D01*
X30617410Y-2950837D01*
X30452742Y-3004341D01*
X30298475Y-3082945D01*
X30158397Y-3184717D01*
X30035967Y-3307147D01*
X29934195Y-3447225D01*
X29855591Y-3601492D01*
X29802085Y-3766165D01*
X29775000Y-3937178D01*
X19125434Y-3937178D01*
X19043170Y-3766354D01*
X18887800Y-3519085D01*
X18705725Y-3290769D01*
X18499230Y-3084274D01*
X18270914Y-2902199D01*
X18023648Y-2746831D01*
X17760548Y-2620129D01*
X17484918Y-2523681D01*
X17484910Y-2523678D01*
X17200201Y-2458696D01*
X17200189Y-2458694D01*
X17014000Y-2437715D01*
X17014000Y-3395028D01*
X16893858Y-3376000D01*
X16634142Y-3376000D01*
X16514000Y-3395028D01*
X16514000Y-2437715D01*
X16327810Y-2458694D01*
X16327798Y-2458696D01*
X16043089Y-2523678D01*
X16043081Y-2523681D01*
X15767451Y-2620129D01*
X15504351Y-2746831D01*
X15257085Y-2902199D01*
X15028769Y-3084274D01*
X14822274Y-3290769D01*
X14640199Y-3519085D01*
X14484831Y-3766351D01*
X14358129Y-4029451D01*
X14261681Y-4305081D01*
X14261678Y-4305089D01*
X14196696Y-4589798D01*
X14196694Y-4589810D01*
X14175716Y-4776000D01*
X13100000Y-4776000D01*
X13100000Y-1742500D01*
X13119685Y-1675461D01*
X13172489Y-1629706D01*
X13224000Y-1618500D01*
X40788258Y-1618500D01*
X40855297Y-1638185D01*
G37*
%TD.AperFunction*%
%TA.AperFunction,Conductor*%
G36*
X62943039Y-1638185D02*
G01*
X62988794Y-1690989D01*
X63000000Y-1742500D01*
X63000000Y-32976000D01*
X62980315Y-33043039D01*
X62927511Y-33088794D01*
X62876000Y-33100000D01*
X34335680Y-33100000D01*
X34268641Y-33080315D01*
X34222886Y-33027511D01*
X34212942Y-32958353D01*
X34236414Y-32901688D01*
X34275796Y-32849081D01*
X34326091Y-32714233D01*
X34332500Y-32654623D01*
X34332499Y-31752378D01*
X34326091Y-31692767D01*
X34319837Y-31676000D01*
X34275797Y-31557922D01*
X34275796Y-31557919D01*
X34250635Y-31524308D01*
X34241401Y-31499551D01*
X34228736Y-31476356D01*
X34229381Y-31467327D01*
X34226219Y-31458847D01*
X34231836Y-31433023D01*
X34233722Y-31406665D01*
X34240117Y-31394952D01*
X34241070Y-31390574D01*
X34250633Y-31375693D01*
X34274967Y-31343187D01*
X34330901Y-31301318D01*
X34374233Y-31293500D01*
X36760024Y-31293500D01*
X36815096Y-31307293D01*
X36815192Y-31307063D01*
X36816749Y-31307707D01*
X36818474Y-31308140D01*
X36820822Y-31309395D01*
X36966498Y-31369735D01*
X36966503Y-31369737D01*
X37093267Y-31394952D01*
X37121153Y-31400499D01*
X37121156Y-31400500D01*
X37121158Y-31400500D01*
X37278844Y-31400500D01*
X37278845Y-31400499D01*
X37433497Y-31369737D01*
X37579179Y-31309394D01*
X37710289Y-31221789D01*
X37821789Y-31110289D01*
X37909394Y-30979179D01*
X37969737Y-30833497D01*
X38000500Y-30678842D01*
X38000500Y-30521158D01*
X38000500Y-30521155D01*
X38000499Y-30521153D01*
X37996325Y-30500170D01*
X37969737Y-30366503D01*
X37909394Y-30220821D01*
X37909392Y-30220818D01*
X37909390Y-30220814D01*
X37885550Y-30185135D01*
X39068500Y-30185135D01*
X39068500Y-32280870D01*
X39068501Y-32280876D01*
X39074908Y-32340483D01*
X39125202Y-32475328D01*
X39125206Y-32475335D01*
X39211452Y-32590544D01*
X39211455Y-32590547D01*
X39326664Y-32676793D01*
X39326671Y-32676797D01*
X39461517Y-32727091D01*
X39461516Y-32727091D01*
X39468444Y-32727835D01*
X39521127Y-32733500D01*
X40816872Y-32733499D01*
X40876483Y-32727091D01*
X41011331Y-32676796D01*
X41126546Y-32590546D01*
X41212796Y-32475331D01*
X41263091Y-32340483D01*
X41269500Y-32280873D01*
X41269499Y-30185135D01*
X41608500Y-30185135D01*
X41608500Y-32280870D01*
X41608501Y-32280876D01*
X41614908Y-32340483D01*
X41665202Y-32475328D01*
X41665206Y-32475335D01*
X41751452Y-32590544D01*
X41751455Y-32590547D01*
X41866664Y-32676793D01*
X41866671Y-32676797D01*
X42001517Y-32727091D01*
X42001516Y-32727091D01*
X42008444Y-32727835D01*
X42061127Y-32733500D01*
X43356872Y-32733499D01*
X43416483Y-32727091D01*
X43551331Y-32676796D01*
X43666546Y-32590546D01*
X43752796Y-32475331D01*
X43803091Y-32340483D01*
X43809500Y-32280873D01*
X43809499Y-30185135D01*
X44148500Y-30185135D01*
X44148500Y-32280870D01*
X44148501Y-32280876D01*
X44154908Y-32340483D01*
X44205202Y-32475328D01*
X44205206Y-32475335D01*
X44291452Y-32590544D01*
X44291455Y-32590547D01*
X44406664Y-32676793D01*
X44406671Y-32676797D01*
X44541517Y-32727091D01*
X44541516Y-32727091D01*
X44548444Y-32727835D01*
X44601127Y-32733500D01*
X45896872Y-32733499D01*
X45956483Y-32727091D01*
X46091331Y-32676796D01*
X46206546Y-32590546D01*
X46292796Y-32475331D01*
X46343091Y-32340483D01*
X46349500Y-32280873D01*
X46349499Y-30185135D01*
X46688500Y-30185135D01*
X46688500Y-32280870D01*
X46688501Y-32280876D01*
X46694908Y-32340483D01*
X46745202Y-32475328D01*
X46745206Y-32475335D01*
X46831452Y-32590544D01*
X46831455Y-32590547D01*
X46946664Y-32676793D01*
X46946671Y-32676797D01*
X47081517Y-32727091D01*
X47081516Y-32727091D01*
X47088444Y-32727835D01*
X47141127Y-32733500D01*
X48436872Y-32733499D01*
X48496483Y-32727091D01*
X48631331Y-32676796D01*
X48746546Y-32590546D01*
X48832796Y-32475331D01*
X48883091Y-32340483D01*
X48889500Y-32280873D01*
X48889499Y-30185135D01*
X49228500Y-30185135D01*
X49228500Y-32280870D01*
X49228501Y-32280876D01*
X49234908Y-32340483D01*
X49285202Y-32475328D01*
X49285206Y-32475335D01*
X49371452Y-32590544D01*
X49371455Y-32590547D01*
X49486664Y-32676793D01*
X49486671Y-32676797D01*
X49621517Y-32727091D01*
X49621516Y-32727091D01*
X49628444Y-32727835D01*
X49681127Y-32733500D01*
X50976872Y-32733499D01*
X51036483Y-32727091D01*
X51171331Y-32676796D01*
X51286546Y-32590546D01*
X51372796Y-32475331D01*
X51423091Y-32340483D01*
X51429500Y-32280873D01*
X51429499Y-30185135D01*
X51768500Y-30185135D01*
X51768500Y-32280870D01*
X51768501Y-32280876D01*
X51774908Y-32340483D01*
X51825202Y-32475328D01*
X51825206Y-32475335D01*
X51911452Y-32590544D01*
X51911455Y-32590547D01*
X52026664Y-32676793D01*
X52026671Y-32676797D01*
X52161517Y-32727091D01*
X52161516Y-32727091D01*
X52168444Y-32727835D01*
X52221127Y-32733500D01*
X53516872Y-32733499D01*
X53576483Y-32727091D01*
X53711331Y-32676796D01*
X53826546Y-32590546D01*
X53912796Y-32475331D01*
X53963091Y-32340483D01*
X53969500Y-32280873D01*
X53969499Y-30185135D01*
X54308500Y-30185135D01*
X54308500Y-32280870D01*
X54308501Y-32280876D01*
X54314908Y-32340483D01*
X54365202Y-32475328D01*
X54365206Y-32475335D01*
X54451452Y-32590544D01*
X54451455Y-32590547D01*
X54566664Y-32676793D01*
X54566671Y-32676797D01*
X54701517Y-32727091D01*
X54701516Y-32727091D01*
X54708444Y-32727835D01*
X54761127Y-32733500D01*
X56056872Y-32733499D01*
X56116483Y-32727091D01*
X56251331Y-32676796D01*
X56366546Y-32590546D01*
X56452796Y-32475331D01*
X56503091Y-32340483D01*
X56509500Y-32280873D01*
X56509499Y-30185135D01*
X56848500Y-30185135D01*
X56848500Y-32280870D01*
X56848501Y-32280876D01*
X56854908Y-32340483D01*
X56905202Y-32475328D01*
X56905206Y-32475335D01*
X56991452Y-32590544D01*
X56991455Y-32590547D01*
X57106664Y-32676793D01*
X57106671Y-32676797D01*
X57241517Y-32727091D01*
X57241516Y-32727091D01*
X57248444Y-32727835D01*
X57301127Y-32733500D01*
X58596872Y-32733499D01*
X58656483Y-32727091D01*
X58791331Y-32676796D01*
X58906546Y-32590546D01*
X58992796Y-32475331D01*
X59043091Y-32340483D01*
X59049500Y-32280873D01*
X59049499Y-30185135D01*
X59388500Y-30185135D01*
X59388500Y-32280870D01*
X59388501Y-32280876D01*
X59394908Y-32340483D01*
X59445202Y-32475328D01*
X59445206Y-32475335D01*
X59531452Y-32590544D01*
X59531455Y-32590547D01*
X59646664Y-32676793D01*
X59646671Y-32676797D01*
X59781517Y-32727091D01*
X59781516Y-32727091D01*
X59788444Y-32727835D01*
X59841127Y-32733500D01*
X61136872Y-32733499D01*
X61196483Y-32727091D01*
X61331331Y-32676796D01*
X61446546Y-32590546D01*
X61532796Y-32475331D01*
X61583091Y-32340483D01*
X61589500Y-32280873D01*
X61589499Y-30185128D01*
X61583091Y-30125517D01*
X61570776Y-30092500D01*
X61532797Y-29990671D01*
X61532793Y-29990664D01*
X61446547Y-29875455D01*
X61446544Y-29875452D01*
X61331335Y-29789206D01*
X61331328Y-29789202D01*
X61196482Y-29738908D01*
X61196483Y-29738908D01*
X61136883Y-29732501D01*
X61136881Y-29732500D01*
X61136873Y-29732500D01*
X61136864Y-29732500D01*
X59841129Y-29732500D01*
X59841123Y-29732501D01*
X59781516Y-29738908D01*
X59646671Y-29789202D01*
X59646664Y-29789206D01*
X59531455Y-29875452D01*
X59531452Y-29875455D01*
X59445206Y-29990664D01*
X59445202Y-29990671D01*
X59394908Y-30125517D01*
X59388501Y-30185116D01*
X59388501Y-30185123D01*
X59388500Y-30185135D01*
X59049499Y-30185135D01*
X59049499Y-30185128D01*
X59043091Y-30125517D01*
X59030776Y-30092500D01*
X58992797Y-29990671D01*
X58992793Y-29990664D01*
X58906547Y-29875455D01*
X58906544Y-29875452D01*
X58791335Y-29789206D01*
X58791328Y-29789202D01*
X58656482Y-29738908D01*
X58656483Y-29738908D01*
X58596883Y-29732501D01*
X58596881Y-29732500D01*
X58596873Y-29732500D01*
X58596864Y-29732500D01*
X57301129Y-29732500D01*
X57301123Y-29732501D01*
X57241516Y-29738908D01*
X57106671Y-29789202D01*
X57106664Y-29789206D01*
X56991455Y-29875452D01*
X56991452Y-29875455D01*
X56905206Y-29990664D01*
X56905202Y-29990671D01*
X56854908Y-30125517D01*
X56848501Y-30185116D01*
X56848501Y-30185123D01*
X56848500Y-30185135D01*
X56509499Y-30185135D01*
X56509499Y-30185128D01*
X56503091Y-30125517D01*
X56490776Y-30092500D01*
X56452797Y-29990671D01*
X56452793Y-29990664D01*
X56366547Y-29875455D01*
X56366544Y-29875452D01*
X56251335Y-29789206D01*
X56251328Y-29789202D01*
X56116482Y-29738908D01*
X56116483Y-29738908D01*
X56056883Y-29732501D01*
X56056881Y-29732500D01*
X56056873Y-29732500D01*
X56056864Y-29732500D01*
X54761129Y-29732500D01*
X54761123Y-29732501D01*
X54701516Y-29738908D01*
X54566671Y-29789202D01*
X54566664Y-29789206D01*
X54451455Y-29875452D01*
X54451452Y-29875455D01*
X54365206Y-29990664D01*
X54365202Y-29990671D01*
X54314908Y-30125517D01*
X54308501Y-30185116D01*
X54308501Y-30185123D01*
X54308500Y-30185135D01*
X53969499Y-30185135D01*
X53969499Y-30185128D01*
X53963091Y-30125517D01*
X53950776Y-30092500D01*
X53912797Y-29990671D01*
X53912793Y-29990664D01*
X53826547Y-29875455D01*
X53826544Y-29875452D01*
X53711335Y-29789206D01*
X53711328Y-29789202D01*
X53576482Y-29738908D01*
X53576483Y-29738908D01*
X53516883Y-29732501D01*
X53516881Y-29732500D01*
X53516873Y-29732500D01*
X53516864Y-29732500D01*
X52221129Y-29732500D01*
X52221123Y-29732501D01*
X52161516Y-29738908D01*
X52026671Y-29789202D01*
X52026664Y-29789206D01*
X51911455Y-29875452D01*
X51911452Y-29875455D01*
X51825206Y-29990664D01*
X51825202Y-29990671D01*
X51774908Y-30125517D01*
X51768501Y-30185116D01*
X51768501Y-30185123D01*
X51768500Y-30185135D01*
X51429499Y-30185135D01*
X51429499Y-30185128D01*
X51423091Y-30125517D01*
X51410776Y-30092500D01*
X51372797Y-29990671D01*
X51372793Y-29990664D01*
X51286547Y-29875455D01*
X51286544Y-29875452D01*
X51171335Y-29789206D01*
X51171328Y-29789202D01*
X51036482Y-29738908D01*
X51036483Y-29738908D01*
X50976883Y-29732501D01*
X50976881Y-29732500D01*
X50976873Y-29732500D01*
X50976864Y-29732500D01*
X49681129Y-29732500D01*
X49681123Y-29732501D01*
X49621516Y-29738908D01*
X49486671Y-29789202D01*
X49486664Y-29789206D01*
X49371455Y-29875452D01*
X49371452Y-29875455D01*
X49285206Y-29990664D01*
X49285202Y-29990671D01*
X49234908Y-30125517D01*
X49228501Y-30185116D01*
X49228501Y-30185123D01*
X49228500Y-30185135D01*
X48889499Y-30185135D01*
X48889499Y-30185128D01*
X48883091Y-30125517D01*
X48870776Y-30092500D01*
X48832797Y-29990671D01*
X48832793Y-29990664D01*
X48746547Y-29875455D01*
X48746544Y-29875452D01*
X48631335Y-29789206D01*
X48631328Y-29789202D01*
X48496482Y-29738908D01*
X48496483Y-29738908D01*
X48436883Y-29732501D01*
X48436881Y-29732500D01*
X48436873Y-29732500D01*
X48436864Y-29732500D01*
X47141129Y-29732500D01*
X47141123Y-29732501D01*
X47081516Y-29738908D01*
X46946671Y-29789202D01*
X46946664Y-29789206D01*
X46831455Y-29875452D01*
X46831452Y-29875455D01*
X46745206Y-29990664D01*
X46745202Y-29990671D01*
X46694908Y-30125517D01*
X46688501Y-30185116D01*
X46688501Y-30185123D01*
X46688500Y-30185135D01*
X46349499Y-30185135D01*
X46349499Y-30185128D01*
X46343091Y-30125517D01*
X46330776Y-30092500D01*
X46292797Y-29990671D01*
X46292793Y-29990664D01*
X46206547Y-29875455D01*
X46206544Y-29875452D01*
X46091335Y-29789206D01*
X46091328Y-29789202D01*
X45956482Y-29738908D01*
X45956483Y-29738908D01*
X45896883Y-29732501D01*
X45896881Y-29732500D01*
X45896873Y-29732500D01*
X45896864Y-29732500D01*
X44601129Y-29732500D01*
X44601123Y-29732501D01*
X44541516Y-29738908D01*
X44406671Y-29789202D01*
X44406664Y-29789206D01*
X44291455Y-29875452D01*
X44291452Y-29875455D01*
X44205206Y-29990664D01*
X44205202Y-29990671D01*
X44154908Y-30125517D01*
X44148501Y-30185116D01*
X44148501Y-30185123D01*
X44148500Y-30185135D01*
X43809499Y-30185135D01*
X43809499Y-30185128D01*
X43803091Y-30125517D01*
X43790776Y-30092500D01*
X43752797Y-29990671D01*
X43752793Y-29990664D01*
X43666547Y-29875455D01*
X43666544Y-29875452D01*
X43551335Y-29789206D01*
X43551328Y-29789202D01*
X43416482Y-29738908D01*
X43416483Y-29738908D01*
X43356883Y-29732501D01*
X43356881Y-29732500D01*
X43356873Y-29732500D01*
X43356864Y-29732500D01*
X42061129Y-29732500D01*
X42061123Y-29732501D01*
X42001516Y-29738908D01*
X41866671Y-29789202D01*
X41866664Y-29789206D01*
X41751455Y-29875452D01*
X41751452Y-29875455D01*
X41665206Y-29990664D01*
X41665202Y-29990671D01*
X41614908Y-30125517D01*
X41608501Y-30185116D01*
X41608501Y-30185123D01*
X41608500Y-30185135D01*
X41269499Y-30185135D01*
X41269499Y-30185128D01*
X41263091Y-30125517D01*
X41250776Y-30092500D01*
X41212797Y-29990671D01*
X41212793Y-29990664D01*
X41126547Y-29875455D01*
X41126544Y-29875452D01*
X41011335Y-29789206D01*
X41011328Y-29789202D01*
X40876482Y-29738908D01*
X40876483Y-29738908D01*
X40816883Y-29732501D01*
X40816881Y-29732500D01*
X40816873Y-29732500D01*
X40816864Y-29732500D01*
X39521129Y-29732500D01*
X39521123Y-29732501D01*
X39461516Y-29738908D01*
X39326671Y-29789202D01*
X39326664Y-29789206D01*
X39211455Y-29875452D01*
X39211452Y-29875455D01*
X39125206Y-29990664D01*
X39125202Y-29990671D01*
X39074908Y-30125517D01*
X39068501Y-30185116D01*
X39068501Y-30185123D01*
X39068500Y-30185135D01*
X37885550Y-30185135D01*
X37821789Y-30089711D01*
X37821786Y-30089707D01*
X37710292Y-29978213D01*
X37710288Y-29978210D01*
X37579185Y-29890609D01*
X37579172Y-29890602D01*
X37433501Y-29830264D01*
X37433489Y-29830261D01*
X37278845Y-29799500D01*
X37278842Y-29799500D01*
X37121158Y-29799500D01*
X37121155Y-29799500D01*
X36966510Y-29830261D01*
X36966498Y-29830264D01*
X36820827Y-29890602D01*
X36820814Y-29890609D01*
X36689712Y-29978209D01*
X36650727Y-30017195D01*
X36611739Y-30056182D01*
X36550419Y-30089666D01*
X36524060Y-30092500D01*
X34368993Y-30092500D01*
X34301954Y-30072815D01*
X34269726Y-30042811D01*
X34189546Y-29935704D01*
X34129298Y-29890602D01*
X34074335Y-29849456D01*
X34074328Y-29849452D01*
X33939483Y-29799158D01*
X33931393Y-29798289D01*
X33866843Y-29771550D01*
X33826995Y-29714158D01*
X33824502Y-29644332D01*
X33860155Y-29584244D01*
X33922635Y-29552970D01*
X33931399Y-29551710D01*
X33939483Y-29550841D01*
X34073827Y-29500734D01*
X34074331Y-29500546D01*
X34189546Y-29414296D01*
X34275796Y-29299081D01*
X34326091Y-29164233D01*
X34332500Y-29104623D01*
X34332499Y-28202378D01*
X34326091Y-28142767D01*
X34275796Y-28007919D01*
X34250635Y-27974308D01*
X34243686Y-27955677D01*
X34232316Y-27939362D01*
X34231726Y-27923612D01*
X34226219Y-27908847D01*
X34230446Y-27889414D01*
X34229702Y-27869542D01*
X34239010Y-27850042D01*
X34241070Y-27840574D01*
X34243152Y-27836911D01*
X34246586Y-27831098D01*
X34275796Y-27792081D01*
X34286316Y-27763873D01*
X34291909Y-27754411D01*
X34309731Y-27737760D01*
X34324349Y-27718233D01*
X34334807Y-27714332D01*
X34342964Y-27706712D01*
X34366960Y-27702339D01*
X34389814Y-27693816D01*
X34398660Y-27693500D01*
X36710872Y-27693500D01*
X36777911Y-27713185D01*
X36789532Y-27721643D01*
X36789707Y-27721786D01*
X36920814Y-27809390D01*
X36920827Y-27809397D01*
X37021499Y-27851096D01*
X37066503Y-27869737D01*
X37200999Y-27896490D01*
X37221153Y-27900499D01*
X37221156Y-27900500D01*
X37221158Y-27900500D01*
X37378844Y-27900500D01*
X37430308Y-27890263D01*
X37499900Y-27896490D01*
X37555077Y-27939353D01*
X37578322Y-28005242D01*
X37578500Y-28011880D01*
X37578500Y-28460870D01*
X37578501Y-28460876D01*
X37584908Y-28520483D01*
X37635202Y-28655328D01*
X37635206Y-28655335D01*
X37721452Y-28770544D01*
X37721455Y-28770547D01*
X37836664Y-28856793D01*
X37836671Y-28856797D01*
X37971517Y-28907091D01*
X37971516Y-28907091D01*
X37978444Y-28907835D01*
X38031127Y-28913500D01*
X40126872Y-28913499D01*
X40186483Y-28907091D01*
X40321331Y-28856796D01*
X40436546Y-28770546D01*
X40522796Y-28655331D01*
X40573091Y-28520483D01*
X40579500Y-28460873D01*
X40579499Y-27165128D01*
X40573091Y-27105517D01*
X40568219Y-27092455D01*
X40522797Y-26970671D01*
X40522793Y-26970664D01*
X40436547Y-26855455D01*
X40436544Y-26855452D01*
X40321335Y-26769206D01*
X40321328Y-26769202D01*
X40186482Y-26718908D01*
X40186483Y-26718908D01*
X40126883Y-26712501D01*
X40126881Y-26712500D01*
X40126873Y-26712500D01*
X40126865Y-26712500D01*
X38070113Y-26712500D01*
X38064737Y-26710921D01*
X38059242Y-26712023D01*
X38031574Y-26701183D01*
X38003074Y-26692815D01*
X37998031Y-26688042D01*
X37994186Y-26686536D01*
X37977266Y-26668390D01*
X37969642Y-26661174D01*
X37968288Y-26659302D01*
X37921789Y-26589711D01*
X37907913Y-26575835D01*
X37902115Y-26567819D01*
X37893614Y-26543835D01*
X37881420Y-26521503D01*
X37882138Y-26511456D01*
X37878774Y-26501964D01*
X37884588Y-26477194D01*
X37886404Y-26451811D01*
X37892440Y-26443747D01*
X37894742Y-26433943D01*
X37913027Y-26416247D01*
X37928276Y-26395878D01*
X37937712Y-26392358D01*
X37944950Y-26385354D01*
X37969900Y-26380352D01*
X37993740Y-26371461D01*
X38012580Y-26371797D01*
X38013457Y-26371622D01*
X38013968Y-26371822D01*
X38015834Y-26371855D01*
X38031127Y-26373500D01*
X40126872Y-26373499D01*
X40186483Y-26367091D01*
X40321331Y-26316796D01*
X40436546Y-26230546D01*
X40522796Y-26115331D01*
X40573091Y-25980483D01*
X40579500Y-25920873D01*
X40579499Y-24625128D01*
X40573091Y-24565517D01*
X40550921Y-24506077D01*
X40522797Y-24430671D01*
X40522793Y-24430664D01*
X40436547Y-24315455D01*
X40436544Y-24315452D01*
X40321335Y-24229206D01*
X40321328Y-24229202D01*
X40186482Y-24178908D01*
X40186483Y-24178908D01*
X40126883Y-24172501D01*
X40126881Y-24172500D01*
X40126873Y-24172500D01*
X40126865Y-24172500D01*
X38145390Y-24172500D01*
X38135638Y-24169636D01*
X38125554Y-24170903D01*
X38102678Y-24159958D01*
X38078351Y-24152815D01*
X38071696Y-24145134D01*
X38062527Y-24140748D01*
X38049199Y-24119171D01*
X38032596Y-24100011D01*
X38031149Y-24089952D01*
X38025808Y-24081305D01*
X38026260Y-24055952D01*
X38022652Y-24030853D01*
X38026907Y-24019746D01*
X38027056Y-24011446D01*
X38042284Y-23979615D01*
X38103094Y-23888606D01*
X38156707Y-23843803D01*
X38206196Y-23833499D01*
X40126871Y-23833499D01*
X40126872Y-23833499D01*
X40186483Y-23827091D01*
X40321331Y-23776796D01*
X40436546Y-23690546D01*
X40522796Y-23575331D01*
X40573091Y-23440483D01*
X40579500Y-23380873D01*
X40579499Y-22085128D01*
X40573091Y-22025517D01*
X40573034Y-22025365D01*
X40522797Y-21890671D01*
X40522793Y-21890664D01*
X40436547Y-21775455D01*
X40436544Y-21775452D01*
X40321335Y-21689206D01*
X40321328Y-21689202D01*
X40186482Y-21638908D01*
X40186483Y-21638908D01*
X40126883Y-21632501D01*
X40126881Y-21632500D01*
X40126873Y-21632500D01*
X40126864Y-21632500D01*
X38031129Y-21632500D01*
X38031123Y-21632501D01*
X37971516Y-21638908D01*
X37836671Y-21689202D01*
X37836664Y-21689206D01*
X37721455Y-21775452D01*
X37721452Y-21775455D01*
X37635206Y-21890664D01*
X37635202Y-21890671D01*
X37584908Y-22025517D01*
X37579175Y-22078846D01*
X37578501Y-22085123D01*
X37578500Y-22085135D01*
X37578500Y-22575500D01*
X37558815Y-22642539D01*
X37506011Y-22688294D01*
X37454500Y-22699500D01*
X37321155Y-22699500D01*
X37166510Y-22730261D01*
X37166498Y-22730264D01*
X37020827Y-22790602D01*
X37020814Y-22790609D01*
X36889711Y-22878210D01*
X36889707Y-22878213D01*
X36778213Y-22989707D01*
X36778210Y-22989711D01*
X36690609Y-23120814D01*
X36690602Y-23120827D01*
X36629041Y-23269452D01*
X36585200Y-23323856D01*
X36518906Y-23345921D01*
X36514480Y-23346000D01*
X34434652Y-23346000D01*
X34367613Y-23326315D01*
X34321858Y-23273511D01*
X34318470Y-23265333D01*
X34275797Y-23150921D01*
X34275793Y-23150914D01*
X34189547Y-23035705D01*
X34189544Y-23035702D01*
X34074335Y-22949456D01*
X34074328Y-22949452D01*
X33939482Y-22899158D01*
X33939483Y-22899158D01*
X33879883Y-22892751D01*
X33879881Y-22892750D01*
X33879873Y-22892750D01*
X33879864Y-22892750D01*
X32920129Y-22892750D01*
X32920123Y-22892751D01*
X32860511Y-22899159D01*
X32856425Y-22900125D01*
X32853159Y-22899949D01*
X32852804Y-22899988D01*
X32852797Y-22899930D01*
X32786656Y-22896383D01*
X32729985Y-22855515D01*
X32711730Y-22822781D01*
X32668797Y-22707671D01*
X32668793Y-22707664D01*
X32582547Y-22592455D01*
X32582544Y-22592452D01*
X32467335Y-22506206D01*
X32467328Y-22506202D01*
X32332482Y-22455908D01*
X32332483Y-22455908D01*
X32272883Y-22449501D01*
X32272881Y-22449500D01*
X32272873Y-22449500D01*
X32272864Y-22449500D01*
X30927129Y-22449500D01*
X30927123Y-22449501D01*
X30867516Y-22455908D01*
X30732671Y-22506202D01*
X30732664Y-22506206D01*
X30617455Y-22592452D01*
X30617452Y-22592455D01*
X30531206Y-22707664D01*
X30531202Y-22707671D01*
X30480908Y-22842517D01*
X30474501Y-22902116D01*
X30474500Y-22902135D01*
X30474500Y-23283131D01*
X30454815Y-23350170D01*
X30402011Y-23395925D01*
X30337246Y-23406421D01*
X30330756Y-23405723D01*
X30272873Y-23399500D01*
X30272865Y-23399500D01*
X28927129Y-23399500D01*
X28927123Y-23399501D01*
X28867512Y-23405909D01*
X28859969Y-23407692D01*
X28859199Y-23404433D01*
X28804516Y-23408175D01*
X28743297Y-23374500D01*
X28710002Y-23313074D01*
X28707249Y-23287091D01*
X28707249Y-22720129D01*
X28707248Y-22720123D01*
X28705909Y-22707669D01*
X28700841Y-22660517D01*
X28675454Y-22592452D01*
X28650547Y-22525671D01*
X28650543Y-22525664D01*
X28564297Y-22410455D01*
X28564294Y-22410452D01*
X28449085Y-22324206D01*
X28449075Y-22324201D01*
X28434665Y-22318826D01*
X28416940Y-22305557D01*
X28396797Y-22296358D01*
X28389514Y-22285025D01*
X28378732Y-22276954D01*
X28370994Y-22256208D01*
X28359023Y-22237580D01*
X28355871Y-22215658D01*
X28354316Y-22211489D01*
X28354000Y-22202645D01*
X28354000Y-22098659D01*
X28373685Y-22031620D01*
X28426489Y-21985865D01*
X28434671Y-21982476D01*
X28452577Y-21975798D01*
X28452579Y-21975796D01*
X28452581Y-21975796D01*
X28567796Y-21889546D01*
X28654046Y-21774331D01*
X28704341Y-21639483D01*
X28710750Y-21579873D01*
X28710749Y-20620128D01*
X28710748Y-20620126D01*
X28710748Y-20620113D01*
X28709657Y-20609968D01*
X28709657Y-20609965D01*
X28708755Y-20601577D01*
X33949500Y-20601577D01*
X33949500Y-20798422D01*
X33980290Y-20992826D01*
X34041117Y-21180029D01*
X34098934Y-21293500D01*
X34130476Y-21355405D01*
X34246172Y-21514646D01*
X34385354Y-21653828D01*
X34544595Y-21769524D01*
X34620511Y-21808205D01*
X34719970Y-21858882D01*
X34719972Y-21858882D01*
X34719975Y-21858884D01*
X34817783Y-21890664D01*
X34907173Y-21919709D01*
X35101578Y-21950500D01*
X35101583Y-21950500D01*
X35298422Y-21950500D01*
X35492826Y-21919709D01*
X35568850Y-21895007D01*
X35680025Y-21858884D01*
X35855405Y-21769524D01*
X36014646Y-21653828D01*
X36153828Y-21514646D01*
X36269524Y-21355405D01*
X36358884Y-21180025D01*
X36419709Y-20992826D01*
X36450500Y-20798422D01*
X36450500Y-20601577D01*
X36419709Y-20407173D01*
X36377840Y-20278316D01*
X36358884Y-20219975D01*
X36358882Y-20219972D01*
X36358882Y-20219970D01*
X36269523Y-20044594D01*
X36153828Y-19885354D01*
X36014646Y-19746172D01*
X35855405Y-19630476D01*
X35845146Y-19625249D01*
X35687915Y-19545135D01*
X37578500Y-19545135D01*
X37578500Y-20840870D01*
X37578501Y-20840876D01*
X37584908Y-20900483D01*
X37635202Y-21035328D01*
X37635206Y-21035335D01*
X37721452Y-21150544D01*
X37721455Y-21150547D01*
X37836664Y-21236793D01*
X37836671Y-21236797D01*
X37971517Y-21287091D01*
X37971516Y-21287091D01*
X37978444Y-21287835D01*
X38031127Y-21293500D01*
X40126872Y-21293499D01*
X40186483Y-21287091D01*
X40321331Y-21236796D01*
X40436546Y-21150546D01*
X40522796Y-21035331D01*
X40573091Y-20900483D01*
X40579500Y-20840873D01*
X40579499Y-19545128D01*
X40573091Y-19485517D01*
X40571141Y-19480290D01*
X40522797Y-19350671D01*
X40522793Y-19350664D01*
X40436547Y-19235455D01*
X40436544Y-19235452D01*
X40321335Y-19149206D01*
X40321328Y-19149202D01*
X40186482Y-19098908D01*
X40186483Y-19098908D01*
X40126883Y-19092501D01*
X40126881Y-19092500D01*
X40126873Y-19092500D01*
X40126864Y-19092500D01*
X38031129Y-19092500D01*
X38031123Y-19092501D01*
X37971516Y-19098908D01*
X37836671Y-19149202D01*
X37836664Y-19149206D01*
X37721455Y-19235452D01*
X37721452Y-19235455D01*
X37635206Y-19350664D01*
X37635202Y-19350671D01*
X37584908Y-19485517D01*
X37578931Y-19541116D01*
X37578501Y-19545123D01*
X37578500Y-19545135D01*
X35687915Y-19545135D01*
X35680029Y-19541117D01*
X35492826Y-19480290D01*
X35298422Y-19449500D01*
X35298417Y-19449500D01*
X35101583Y-19449500D01*
X35101578Y-19449500D01*
X34907173Y-19480290D01*
X34719970Y-19541117D01*
X34544594Y-19630476D01*
X34453741Y-19696485D01*
X34385354Y-19746172D01*
X34385352Y-19746174D01*
X34385351Y-19746174D01*
X34246174Y-19885351D01*
X34246174Y-19885352D01*
X34246172Y-19885354D01*
X34211919Y-19932499D01*
X34130476Y-20044594D01*
X34041117Y-20219970D01*
X33980290Y-20407173D01*
X33949500Y-20601577D01*
X28708755Y-20601577D01*
X28704341Y-20560516D01*
X28654047Y-20425671D01*
X28654043Y-20425664D01*
X28567797Y-20310455D01*
X28567794Y-20310452D01*
X28452584Y-20224205D01*
X28452580Y-20224203D01*
X28434663Y-20217520D01*
X28416940Y-20204252D01*
X28396797Y-20195053D01*
X28389513Y-20183718D01*
X28378731Y-20175647D01*
X28370994Y-20154903D01*
X28359023Y-20136275D01*
X28355870Y-20114350D01*
X28354316Y-20110182D01*
X28354000Y-20101340D01*
X28354000Y-19997353D01*
X28373685Y-19930314D01*
X28426489Y-19884559D01*
X28434646Y-19881179D01*
X28449081Y-19875796D01*
X28510837Y-19829564D01*
X28576296Y-19805149D01*
X28632597Y-19814272D01*
X28739828Y-19858688D01*
X28766503Y-19869737D01*
X28902004Y-19896690D01*
X28921153Y-19900499D01*
X28921156Y-19900500D01*
X28921158Y-19900500D01*
X29078844Y-19900500D01*
X29078845Y-19900499D01*
X29233497Y-19869737D01*
X29346166Y-19823067D01*
X29379172Y-19809397D01*
X29379172Y-19809396D01*
X29379179Y-19809394D01*
X29510289Y-19721789D01*
X29621789Y-19610289D01*
X29709394Y-19479179D01*
X29769737Y-19333497D01*
X29791156Y-19225812D01*
X29823539Y-19163906D01*
X29824980Y-19162437D01*
X30187410Y-18800009D01*
X30191107Y-18794477D01*
X30256083Y-18697233D01*
X30303385Y-18583035D01*
X30304613Y-18576860D01*
X30327500Y-18461804D01*
X30327500Y-18460857D01*
X30328845Y-18454041D01*
X30342321Y-18428180D01*
X30353230Y-18401138D01*
X30358277Y-18397563D01*
X30361135Y-18392080D01*
X30386449Y-18377613D01*
X30410250Y-18360758D01*
X30416428Y-18360479D01*
X30421797Y-18357412D01*
X30450912Y-18358927D01*
X30480049Y-18357616D01*
X30485397Y-18360722D01*
X30491572Y-18361044D01*
X30515247Y-18378060D01*
X30540467Y-18392709D01*
X30543286Y-18398213D01*
X30548307Y-18401822D01*
X30559023Y-18428937D01*
X30572320Y-18454895D01*
X30573269Y-18464981D01*
X30573989Y-18466801D01*
X30573794Y-18470547D01*
X30574500Y-18478043D01*
X30574500Y-18697869D01*
X30574501Y-18697876D01*
X30580908Y-18757483D01*
X30631202Y-18892328D01*
X30631206Y-18892335D01*
X30717452Y-19007544D01*
X30717455Y-19007547D01*
X30832664Y-19093793D01*
X30832671Y-19093797D01*
X30967517Y-19144091D01*
X30967516Y-19144091D01*
X30974444Y-19144835D01*
X31027127Y-19150500D01*
X32372872Y-19150499D01*
X32432483Y-19144091D01*
X32567331Y-19093796D01*
X32682546Y-19007546D01*
X32768796Y-18892331D01*
X32819091Y-18757483D01*
X32825500Y-18697873D01*
X32825499Y-18679748D01*
X32845180Y-18612711D01*
X32897982Y-18566954D01*
X32962755Y-18556457D01*
X32970127Y-18557250D01*
X33929872Y-18557249D01*
X33989483Y-18550841D01*
X34124331Y-18500546D01*
X34239546Y-18414296D01*
X34325796Y-18299081D01*
X34376091Y-18164233D01*
X34382500Y-18104623D01*
X34382499Y-17202378D01*
X34376091Y-17142767D01*
X34372437Y-17132971D01*
X34325798Y-17007924D01*
X34325797Y-17007923D01*
X34325796Y-17007919D01*
X34300633Y-16974306D01*
X34276218Y-16908849D01*
X34291069Y-16840575D01*
X34300622Y-16825708D01*
X34325796Y-16792081D01*
X34376091Y-16657233D01*
X34382500Y-16597623D01*
X34382499Y-15695378D01*
X34377084Y-15645007D01*
X34376091Y-15635766D01*
X34325797Y-15500921D01*
X34325795Y-15500918D01*
X34243446Y-15390914D01*
X34219029Y-15325451D01*
X34233880Y-15257178D01*
X34243442Y-15242300D01*
X34275796Y-15199081D01*
X34326091Y-15064233D01*
X34332500Y-15004623D01*
X34332499Y-14524499D01*
X34352183Y-14457461D01*
X34404987Y-14411706D01*
X34456499Y-14400500D01*
X35399903Y-14400500D01*
X35466942Y-14420185D01*
X35487584Y-14436819D01*
X37656079Y-16605315D01*
X37689564Y-16666638D01*
X37684580Y-16736330D01*
X37667665Y-16767307D01*
X37635203Y-16810669D01*
X37635202Y-16810671D01*
X37584908Y-16945517D01*
X37578501Y-17005116D01*
X37578501Y-17005123D01*
X37578500Y-17005135D01*
X37578500Y-18300870D01*
X37578501Y-18300876D01*
X37584908Y-18360483D01*
X37635202Y-18495328D01*
X37635206Y-18495335D01*
X37721452Y-18610544D01*
X37721455Y-18610547D01*
X37836664Y-18696793D01*
X37836671Y-18696797D01*
X37971517Y-18747091D01*
X37971516Y-18747091D01*
X37978444Y-18747835D01*
X38031127Y-18753500D01*
X40126872Y-18753499D01*
X40186483Y-18747091D01*
X40321331Y-18696796D01*
X40436546Y-18610546D01*
X40522796Y-18495331D01*
X40573091Y-18360483D01*
X40579500Y-18300873D01*
X40579499Y-17005128D01*
X40573091Y-16945517D01*
X40556114Y-16900000D01*
X40544690Y-16869369D01*
X40531123Y-16832995D01*
X41031000Y-16832995D01*
X41031000Y-29233004D01*
X41036151Y-29278728D01*
X41075833Y-29361126D01*
X41075834Y-29361127D01*
X41147337Y-29418149D01*
X41213928Y-29433348D01*
X41236495Y-29438499D01*
X41236500Y-29438500D01*
X61436503Y-29438500D01*
X61436503Y-29438499D01*
X61482228Y-29433348D01*
X61564627Y-29393666D01*
X61621649Y-29322163D01*
X61642000Y-29233000D01*
X61642000Y-16833000D01*
X61636848Y-16787272D01*
X61627233Y-16767307D01*
X61597166Y-16704873D01*
X61525663Y-16647851D01*
X61436504Y-16627500D01*
X61436500Y-16627500D01*
X41236500Y-16627500D01*
X41236495Y-16627500D01*
X41190771Y-16632651D01*
X41108373Y-16672333D01*
X41051351Y-16743836D01*
X41031000Y-16832995D01*
X40531123Y-16832995D01*
X40522797Y-16810671D01*
X40522793Y-16810664D01*
X40436547Y-16695455D01*
X40436544Y-16695452D01*
X40321335Y-16609206D01*
X40321328Y-16609202D01*
X40186482Y-16558908D01*
X40186483Y-16558908D01*
X40126883Y-16552501D01*
X40126881Y-16552500D01*
X40126873Y-16552500D01*
X40126865Y-16552500D01*
X39353098Y-16552500D01*
X39286059Y-16532815D01*
X39265417Y-16516181D01*
X37813469Y-15064233D01*
X36361415Y-13612180D01*
X36327931Y-13550858D01*
X36332915Y-13481166D01*
X36374787Y-13425233D01*
X36440251Y-13400816D01*
X36449097Y-13400500D01*
X37913331Y-13400500D01*
X37913347Y-13400501D01*
X37920943Y-13400501D01*
X38079054Y-13400501D01*
X38079057Y-13400501D01*
X38231785Y-13359577D01*
X38297235Y-13321789D01*
X38368716Y-13280520D01*
X38464101Y-13185135D01*
X39068500Y-13185135D01*
X39068500Y-15280870D01*
X39068501Y-15280876D01*
X39074908Y-15340483D01*
X39125202Y-15475328D01*
X39125206Y-15475335D01*
X39211452Y-15590544D01*
X39211455Y-15590547D01*
X39326664Y-15676793D01*
X39326671Y-15676797D01*
X39461517Y-15727091D01*
X39461516Y-15727091D01*
X39468444Y-15727835D01*
X39521127Y-15733500D01*
X40816872Y-15733499D01*
X40876483Y-15727091D01*
X41011331Y-15676796D01*
X41126546Y-15590546D01*
X41212796Y-15475331D01*
X41263091Y-15340483D01*
X41269500Y-15280873D01*
X41269499Y-13185135D01*
X41608500Y-13185135D01*
X41608500Y-15280870D01*
X41608501Y-15280876D01*
X41614908Y-15340483D01*
X41665202Y-15475328D01*
X41665206Y-15475335D01*
X41751452Y-15590544D01*
X41751455Y-15590547D01*
X41866664Y-15676793D01*
X41866671Y-15676797D01*
X42001517Y-15727091D01*
X42001516Y-15727091D01*
X42008444Y-15727835D01*
X42061127Y-15733500D01*
X43356872Y-15733499D01*
X43416483Y-15727091D01*
X43551331Y-15676796D01*
X43666546Y-15590546D01*
X43752796Y-15475331D01*
X43803091Y-15340483D01*
X43809500Y-15280873D01*
X43809499Y-13185135D01*
X44148500Y-13185135D01*
X44148500Y-15280870D01*
X44148501Y-15280876D01*
X44154908Y-15340483D01*
X44205202Y-15475328D01*
X44205206Y-15475335D01*
X44291452Y-15590544D01*
X44291455Y-15590547D01*
X44406664Y-15676793D01*
X44406671Y-15676797D01*
X44541517Y-15727091D01*
X44541516Y-15727091D01*
X44548444Y-15727835D01*
X44601127Y-15733500D01*
X45896872Y-15733499D01*
X45956483Y-15727091D01*
X46091331Y-15676796D01*
X46206546Y-15590546D01*
X46292796Y-15475331D01*
X46343091Y-15340483D01*
X46349500Y-15280873D01*
X46349499Y-13185128D01*
X46343091Y-13125517D01*
X46330788Y-13092532D01*
X46292797Y-12990671D01*
X46292793Y-12990664D01*
X46206547Y-12875455D01*
X46206544Y-12875452D01*
X46091335Y-12789206D01*
X46091328Y-12789202D01*
X45956482Y-12738908D01*
X45956483Y-12738908D01*
X45896883Y-12732501D01*
X45896881Y-12732500D01*
X45896873Y-12732500D01*
X45896864Y-12732500D01*
X44601129Y-12732500D01*
X44601123Y-12732501D01*
X44541516Y-12738908D01*
X44406671Y-12789202D01*
X44406664Y-12789206D01*
X44291455Y-12875452D01*
X44291452Y-12875455D01*
X44205206Y-12990664D01*
X44205202Y-12990671D01*
X44154908Y-13125517D01*
X44148522Y-13184923D01*
X44148501Y-13185123D01*
X44148500Y-13185135D01*
X43809499Y-13185135D01*
X43809499Y-13185128D01*
X43803091Y-13125517D01*
X43790788Y-13092532D01*
X43752797Y-12990671D01*
X43752793Y-12990664D01*
X43666547Y-12875455D01*
X43666544Y-12875452D01*
X43551335Y-12789206D01*
X43551328Y-12789202D01*
X43416482Y-12738908D01*
X43416483Y-12738908D01*
X43356883Y-12732501D01*
X43356881Y-12732500D01*
X43356873Y-12732500D01*
X43356864Y-12732500D01*
X42061129Y-12732500D01*
X42061123Y-12732501D01*
X42001516Y-12738908D01*
X41866671Y-12789202D01*
X41866664Y-12789206D01*
X41751455Y-12875452D01*
X41751452Y-12875455D01*
X41665206Y-12990664D01*
X41665202Y-12990671D01*
X41614908Y-13125517D01*
X41608522Y-13184923D01*
X41608501Y-13185123D01*
X41608500Y-13185135D01*
X41269499Y-13185135D01*
X41269499Y-13185128D01*
X41263091Y-13125517D01*
X41250788Y-13092532D01*
X41212797Y-12990671D01*
X41212793Y-12990664D01*
X41126547Y-12875455D01*
X41126544Y-12875452D01*
X41011335Y-12789206D01*
X41011328Y-12789202D01*
X40876482Y-12738908D01*
X40876483Y-12738908D01*
X40816883Y-12732501D01*
X40816881Y-12732500D01*
X40816873Y-12732500D01*
X40816864Y-12732500D01*
X39521129Y-12732500D01*
X39521123Y-12732501D01*
X39461516Y-12738908D01*
X39326671Y-12789202D01*
X39326664Y-12789206D01*
X39211455Y-12875452D01*
X39211452Y-12875455D01*
X39125206Y-12990664D01*
X39125202Y-12990671D01*
X39074908Y-13125517D01*
X39068522Y-13184923D01*
X39068501Y-13185123D01*
X39068500Y-13185135D01*
X38464101Y-13185135D01*
X38480520Y-13168716D01*
X38480520Y-13168714D01*
X38490723Y-13158512D01*
X38490727Y-13158506D01*
X41162416Y-10486819D01*
X41223739Y-10453334D01*
X41250097Y-10450500D01*
X46413341Y-10450500D01*
X46420941Y-10450500D01*
X46420943Y-10450501D01*
X46425510Y-10450501D01*
X46462695Y-10461422D01*
X46492539Y-10470186D01*
X46492541Y-10470189D01*
X46492548Y-10470191D01*
X46520900Y-10502916D01*
X46538294Y-10522990D01*
X46538294Y-10522994D01*
X46538299Y-10522999D01*
X46538304Y-10523040D01*
X46549500Y-10574501D01*
X46549500Y-10578846D01*
X46580261Y-10733489D01*
X46580264Y-10733501D01*
X46640602Y-10879172D01*
X46640609Y-10879185D01*
X46728210Y-11010288D01*
X46728213Y-11010292D01*
X46839707Y-11121786D01*
X46839711Y-11121789D01*
X46970814Y-11209390D01*
X46970827Y-11209397D01*
X47116498Y-11269735D01*
X47116503Y-11269737D01*
X47181147Y-11282595D01*
X47271849Y-11300638D01*
X47333760Y-11333023D01*
X47335339Y-11334574D01*
X48521584Y-12520819D01*
X48555069Y-12582142D01*
X48550085Y-12651834D01*
X48508213Y-12707767D01*
X48442749Y-12732184D01*
X48433903Y-12732500D01*
X47141129Y-12732500D01*
X47141123Y-12732501D01*
X47081516Y-12738908D01*
X46946671Y-12789202D01*
X46946664Y-12789206D01*
X46831455Y-12875452D01*
X46831452Y-12875455D01*
X46745206Y-12990664D01*
X46745202Y-12990671D01*
X46694908Y-13125517D01*
X46688522Y-13184923D01*
X46688501Y-13185123D01*
X46688500Y-13185135D01*
X46688500Y-15280870D01*
X46688501Y-15280876D01*
X46694908Y-15340483D01*
X46745202Y-15475328D01*
X46745206Y-15475335D01*
X46831452Y-15590544D01*
X46831455Y-15590547D01*
X46946664Y-15676793D01*
X46946671Y-15676797D01*
X47081517Y-15727091D01*
X47081516Y-15727091D01*
X47088444Y-15727835D01*
X47141127Y-15733500D01*
X48436872Y-15733499D01*
X48496483Y-15727091D01*
X48631331Y-15676796D01*
X48746546Y-15590546D01*
X48832796Y-15475331D01*
X48883091Y-15340483D01*
X48889500Y-15280873D01*
X48889499Y-13188095D01*
X48895737Y-13166850D01*
X48897317Y-13144762D01*
X48905389Y-13133978D01*
X48909184Y-13121057D01*
X48925917Y-13106556D01*
X48939189Y-13088829D01*
X48951808Y-13084122D01*
X48961987Y-13075302D01*
X48983905Y-13072150D01*
X49004653Y-13064412D01*
X49017813Y-13067274D01*
X49031146Y-13065358D01*
X49051289Y-13074557D01*
X49072926Y-13079264D01*
X49090651Y-13092532D01*
X49094702Y-13094383D01*
X49101180Y-13100415D01*
X49192181Y-13191416D01*
X49225666Y-13252739D01*
X49228500Y-13279097D01*
X49228500Y-15280870D01*
X49228501Y-15280876D01*
X49234908Y-15340483D01*
X49285202Y-15475328D01*
X49285206Y-15475335D01*
X49371452Y-15590544D01*
X49371455Y-15590547D01*
X49486664Y-15676793D01*
X49486671Y-15676797D01*
X49621517Y-15727091D01*
X49621516Y-15727091D01*
X49628444Y-15727835D01*
X49681127Y-15733500D01*
X50976872Y-15733499D01*
X51036483Y-15727091D01*
X51171331Y-15676796D01*
X51286546Y-15590546D01*
X51372796Y-15475331D01*
X51423091Y-15340483D01*
X51429500Y-15280873D01*
X51429499Y-13185128D01*
X51423091Y-13125517D01*
X51410788Y-13092532D01*
X51372797Y-12990671D01*
X51372793Y-12990664D01*
X51286547Y-12875455D01*
X51286544Y-12875452D01*
X51171335Y-12789206D01*
X51171328Y-12789202D01*
X51036482Y-12738908D01*
X51036483Y-12738908D01*
X50976883Y-12732501D01*
X50976881Y-12732500D01*
X50976873Y-12732500D01*
X50976865Y-12732500D01*
X50483097Y-12732500D01*
X50416058Y-12712815D01*
X50395416Y-12696181D01*
X48361416Y-10662181D01*
X48327931Y-10600858D01*
X48332915Y-10531166D01*
X48374787Y-10475233D01*
X48440251Y-10450816D01*
X48449097Y-10450500D01*
X50220939Y-10450500D01*
X50220943Y-10450501D01*
X50379057Y-10450501D01*
X50379061Y-10450500D01*
X50422650Y-10450500D01*
X50489689Y-10470185D01*
X50535444Y-10522989D01*
X50545388Y-10592147D01*
X50525752Y-10643391D01*
X50440609Y-10770814D01*
X50440602Y-10770827D01*
X50380264Y-10916498D01*
X50380261Y-10916510D01*
X50349500Y-11071153D01*
X50349500Y-11228846D01*
X50380261Y-11383489D01*
X50380264Y-11383501D01*
X50440602Y-11529172D01*
X50440609Y-11529185D01*
X50528210Y-11660288D01*
X50528213Y-11660292D01*
X50639707Y-11771786D01*
X50639711Y-11771789D01*
X50770814Y-11859390D01*
X50770827Y-11859397D01*
X50889384Y-11908504D01*
X50916503Y-11919737D01*
X50981147Y-11932595D01*
X51071849Y-11950638D01*
X51133760Y-11983023D01*
X51135339Y-11984574D01*
X51884609Y-12733844D01*
X51918094Y-12795167D01*
X51913110Y-12864859D01*
X51896195Y-12895835D01*
X51825206Y-12990665D01*
X51825202Y-12990671D01*
X51774908Y-13125517D01*
X51768522Y-13184923D01*
X51768501Y-13185123D01*
X51768500Y-13185135D01*
X51768500Y-15280870D01*
X51768501Y-15280876D01*
X51774908Y-15340483D01*
X51825202Y-15475328D01*
X51825206Y-15475335D01*
X51911452Y-15590544D01*
X51911455Y-15590547D01*
X52026664Y-15676793D01*
X52026671Y-15676797D01*
X52161517Y-15727091D01*
X52161516Y-15727091D01*
X52168444Y-15727835D01*
X52221127Y-15733500D01*
X53516872Y-15733499D01*
X53576483Y-15727091D01*
X53711331Y-15676796D01*
X53826546Y-15590546D01*
X53912796Y-15475331D01*
X53963091Y-15340483D01*
X53969500Y-15280873D01*
X53969499Y-13185128D01*
X53963091Y-13125517D01*
X53950788Y-13092532D01*
X53912797Y-12990671D01*
X53912793Y-12990664D01*
X53826547Y-12875455D01*
X53826544Y-12875452D01*
X53711335Y-12789206D01*
X53711328Y-12789202D01*
X53576483Y-12738908D01*
X53536763Y-12734638D01*
X53472213Y-12707900D01*
X53439674Y-12667915D01*
X53433658Y-12656180D01*
X53428577Y-12637215D01*
X53388740Y-12568216D01*
X53349520Y-12500284D01*
X53237716Y-12388480D01*
X53233385Y-12384149D01*
X53233374Y-12384139D01*
X51984574Y-11135339D01*
X51951089Y-11074016D01*
X51950638Y-11071849D01*
X51919738Y-10916510D01*
X51919737Y-10916503D01*
X51916307Y-10908221D01*
X51859397Y-10770827D01*
X51859390Y-10770814D01*
X51774248Y-10643391D01*
X51753370Y-10576714D01*
X51771854Y-10509334D01*
X51823833Y-10462643D01*
X51877350Y-10450500D01*
X52849903Y-10450500D01*
X52916942Y-10470185D01*
X52937584Y-10486819D01*
X54772181Y-12321416D01*
X54786884Y-12348343D01*
X54803477Y-12374162D01*
X54804368Y-12380362D01*
X54805666Y-12382739D01*
X54808500Y-12409097D01*
X54808500Y-12616023D01*
X54788815Y-12683062D01*
X54736011Y-12728817D01*
X54708865Y-12736266D01*
X54709068Y-12737124D01*
X54701520Y-12738907D01*
X54566671Y-12789202D01*
X54566664Y-12789206D01*
X54451455Y-12875452D01*
X54451452Y-12875455D01*
X54365206Y-12990664D01*
X54365202Y-12990671D01*
X54314908Y-13125517D01*
X54308522Y-13184923D01*
X54308501Y-13185123D01*
X54308500Y-13185135D01*
X54308500Y-15280870D01*
X54308501Y-15280876D01*
X54314908Y-15340483D01*
X54365202Y-15475328D01*
X54365206Y-15475335D01*
X54451452Y-15590544D01*
X54451455Y-15590547D01*
X54566664Y-15676793D01*
X54566671Y-15676797D01*
X54701517Y-15727091D01*
X54701516Y-15727091D01*
X54708444Y-15727835D01*
X54761127Y-15733500D01*
X56056872Y-15733499D01*
X56116483Y-15727091D01*
X56251331Y-15676796D01*
X56366546Y-15590546D01*
X56452796Y-15475331D01*
X56503091Y-15340483D01*
X56509500Y-15280873D01*
X56509500Y-15280844D01*
X56849000Y-15280844D01*
X56855401Y-15340372D01*
X56855403Y-15340379D01*
X56905645Y-15475086D01*
X56905649Y-15475093D01*
X56991809Y-15590187D01*
X56991812Y-15590190D01*
X57106906Y-15676350D01*
X57106913Y-15676354D01*
X57241620Y-15726596D01*
X57241627Y-15726598D01*
X57301155Y-15732999D01*
X57301172Y-15733000D01*
X57699000Y-15733000D01*
X58199000Y-15733000D01*
X58596828Y-15733000D01*
X58596844Y-15732999D01*
X58656372Y-15726598D01*
X58656379Y-15726596D01*
X58791086Y-15676354D01*
X58791093Y-15676350D01*
X58906187Y-15590190D01*
X58906190Y-15590187D01*
X58992350Y-15475093D01*
X58992354Y-15475086D01*
X59042596Y-15340379D01*
X59042598Y-15340372D01*
X59048999Y-15280844D01*
X59049000Y-15280827D01*
X59049000Y-14483000D01*
X58199000Y-14483000D01*
X58199000Y-15733000D01*
X57699000Y-15733000D01*
X57699000Y-14483000D01*
X56849000Y-14483000D01*
X56849000Y-15280844D01*
X56509500Y-15280844D01*
X56509499Y-14218219D01*
X56509499Y-13185155D01*
X56849000Y-13185155D01*
X56849000Y-13983000D01*
X57699000Y-13983000D01*
X58199000Y-13983000D01*
X59049000Y-13983000D01*
X59049000Y-13185172D01*
X59048999Y-13185155D01*
X59042598Y-13125627D01*
X59042596Y-13125620D01*
X58992354Y-12990913D01*
X58992350Y-12990906D01*
X58906190Y-12875812D01*
X58906187Y-12875809D01*
X58791093Y-12789649D01*
X58791086Y-12789645D01*
X58656379Y-12739403D01*
X58656372Y-12739401D01*
X58596844Y-12733000D01*
X58199000Y-12733000D01*
X58199000Y-13983000D01*
X57699000Y-13983000D01*
X57699000Y-12733000D01*
X57301155Y-12733000D01*
X57241627Y-12739401D01*
X57241620Y-12739403D01*
X57106913Y-12789645D01*
X57106906Y-12789649D01*
X56991812Y-12875809D01*
X56991809Y-12875812D01*
X56905649Y-12990906D01*
X56905645Y-12990913D01*
X56855403Y-13125620D01*
X56855401Y-13125627D01*
X56849000Y-13185155D01*
X56509499Y-13185155D01*
X56509499Y-13185129D01*
X56509498Y-13185123D01*
X56509497Y-13185116D01*
X56503091Y-13125517D01*
X56490788Y-13092532D01*
X56452797Y-12990671D01*
X56452793Y-12990664D01*
X56366547Y-12875455D01*
X56366544Y-12875452D01*
X56251335Y-12789206D01*
X56251328Y-12789202D01*
X56116482Y-12738908D01*
X56108938Y-12737126D01*
X56109474Y-12734853D01*
X56055688Y-12712571D01*
X56015843Y-12655177D01*
X56009500Y-12616024D01*
X56009500Y-12029942D01*
X56007437Y-12022245D01*
X56007088Y-12020943D01*
X55989924Y-11956884D01*
X55968577Y-11877216D01*
X55956246Y-11855858D01*
X55889524Y-11740290D01*
X55889521Y-11740286D01*
X55889520Y-11740284D01*
X55777716Y-11628480D01*
X55777715Y-11628479D01*
X55773385Y-11624149D01*
X55773374Y-11624139D01*
X53637590Y-9488355D01*
X53637588Y-9488352D01*
X53518717Y-9369481D01*
X53518716Y-9369480D01*
X53431904Y-9319360D01*
X53431904Y-9319359D01*
X53431900Y-9319358D01*
X53381785Y-9290423D01*
X53229057Y-9249499D01*
X53070943Y-9249499D01*
X53063347Y-9249499D01*
X53063331Y-9249500D01*
X52084750Y-9249500D01*
X52017711Y-9229815D01*
X51971956Y-9177011D01*
X51960750Y-9125500D01*
X51960749Y-8370129D01*
X51960748Y-8370123D01*
X51960747Y-8370116D01*
X51954341Y-8310517D01*
X51948374Y-8294520D01*
X51943389Y-8224832D01*
X51965287Y-8176879D01*
X52047296Y-8067331D01*
X52097591Y-7932483D01*
X52104000Y-7872873D01*
X52103999Y-6527128D01*
X52098395Y-6475000D01*
X52097591Y-6467516D01*
X52047297Y-6332671D01*
X52047293Y-6332664D01*
X51961047Y-6217455D01*
X51961044Y-6217452D01*
X51845835Y-6131206D01*
X51845828Y-6131202D01*
X51710982Y-6080908D01*
X51710983Y-6080908D01*
X51651383Y-6074501D01*
X51651381Y-6074500D01*
X51651373Y-6074500D01*
X51651365Y-6074500D01*
X51270368Y-6074500D01*
X51203329Y-6054815D01*
X51157574Y-6002011D01*
X51147079Y-5937244D01*
X51148624Y-5922872D01*
X51154000Y-5872873D01*
X51153999Y-4602595D01*
X51173684Y-4535557D01*
X51226487Y-4489802D01*
X51295646Y-4479858D01*
X51359202Y-4508883D01*
X51365680Y-4514915D01*
X51815425Y-4964660D01*
X51848910Y-5025983D01*
X51849361Y-5028149D01*
X51880261Y-5183491D01*
X51880264Y-5183501D01*
X51940602Y-5329172D01*
X51940609Y-5329185D01*
X52028210Y-5460288D01*
X52028213Y-5460292D01*
X52139707Y-5571786D01*
X52139711Y-5571789D01*
X52270814Y-5659390D01*
X52270827Y-5659397D01*
X52387076Y-5707548D01*
X52416503Y-5719737D01*
X52553110Y-5746910D01*
X52571153Y-5750499D01*
X52571156Y-5750500D01*
X52571158Y-5750500D01*
X52728844Y-5750500D01*
X52728845Y-5750499D01*
X52883497Y-5719737D01*
X52940649Y-5696064D01*
X53034808Y-5657063D01*
X53035632Y-5659053D01*
X53094479Y-5646771D01*
X53159735Y-5671738D01*
X53183858Y-5696064D01*
X53192450Y-5707542D01*
X53192452Y-5707544D01*
X53192454Y-5707546D01*
X53221095Y-5728987D01*
X53307664Y-5793793D01*
X53307671Y-5793797D01*
X53442517Y-5844091D01*
X53442516Y-5844091D01*
X53449444Y-5844835D01*
X53502127Y-5850500D01*
X54597872Y-5850499D01*
X54657483Y-5844091D01*
X54782167Y-5797587D01*
X54851859Y-5792603D01*
X54913182Y-5826088D01*
X54946666Y-5887411D01*
X54949500Y-5913769D01*
X54949500Y-6447870D01*
X54949501Y-6447876D01*
X54955908Y-6507483D01*
X55006202Y-6642328D01*
X55006203Y-6642329D01*
X55006204Y-6642331D01*
X55071859Y-6730034D01*
X55092452Y-6757543D01*
X55092455Y-6757547D01*
X55149810Y-6800482D01*
X55191682Y-6856415D01*
X55199500Y-6899749D01*
X55199500Y-9220234D01*
X55179815Y-9287273D01*
X55178602Y-9289125D01*
X55090609Y-9420814D01*
X55090602Y-9420827D01*
X55030264Y-9566498D01*
X55030261Y-9566510D01*
X54999500Y-9721153D01*
X54999500Y-9878846D01*
X55030261Y-10033489D01*
X55030264Y-10033501D01*
X55090602Y-10179172D01*
X55090609Y-10179185D01*
X55178210Y-10310288D01*
X55178213Y-10310292D01*
X55289707Y-10421786D01*
X55289711Y-10421789D01*
X55420814Y-10509390D01*
X55420827Y-10509397D01*
X55523201Y-10551801D01*
X55566503Y-10569737D01*
X55679165Y-10592147D01*
X55721153Y-10600499D01*
X55721156Y-10600500D01*
X55721158Y-10600500D01*
X55878844Y-10600500D01*
X55878845Y-10600499D01*
X56033497Y-10569737D01*
X56179179Y-10509394D01*
X56310289Y-10421789D01*
X56421789Y-10310289D01*
X56509394Y-10179179D01*
X56569737Y-10033497D01*
X56600500Y-9878842D01*
X56600500Y-9721158D01*
X56600500Y-9721155D01*
X56600499Y-9721153D01*
X56569737Y-9566503D01*
X56569735Y-9566498D01*
X56509397Y-9420827D01*
X56509390Y-9420814D01*
X56421398Y-9289125D01*
X56400520Y-9222447D01*
X56400500Y-9220234D01*
X56400500Y-8049097D01*
X56420185Y-7982058D01*
X56472989Y-7936303D01*
X56542147Y-7926359D01*
X56605703Y-7955384D01*
X56612181Y-7961416D01*
X59852181Y-11201416D01*
X59885666Y-11262739D01*
X59888500Y-11289097D01*
X59888500Y-12616023D01*
X59868815Y-12683062D01*
X59816011Y-12728817D01*
X59788865Y-12736266D01*
X59789068Y-12737124D01*
X59781520Y-12738907D01*
X59646671Y-12789202D01*
X59646664Y-12789206D01*
X59531455Y-12875452D01*
X59531452Y-12875455D01*
X59445206Y-12990664D01*
X59445202Y-12990671D01*
X59394908Y-13125517D01*
X59388522Y-13184923D01*
X59388501Y-13185123D01*
X59388500Y-13185135D01*
X59388500Y-15280870D01*
X59388501Y-15280876D01*
X59394908Y-15340483D01*
X59445202Y-15475328D01*
X59445206Y-15475335D01*
X59531452Y-15590544D01*
X59531455Y-15590547D01*
X59646664Y-15676793D01*
X59646671Y-15676797D01*
X59781517Y-15727091D01*
X59781516Y-15727091D01*
X59788444Y-15727835D01*
X59841127Y-15733500D01*
X61136872Y-15733499D01*
X61196483Y-15727091D01*
X61331331Y-15676796D01*
X61446546Y-15590546D01*
X61532796Y-15475331D01*
X61583091Y-15340483D01*
X61589500Y-15280873D01*
X61589499Y-13185128D01*
X61583091Y-13125517D01*
X61570788Y-13092532D01*
X61532797Y-12990671D01*
X61532793Y-12990664D01*
X61446547Y-12875455D01*
X61446544Y-12875452D01*
X61331335Y-12789206D01*
X61331328Y-12789202D01*
X61196482Y-12738908D01*
X61188938Y-12737126D01*
X61189474Y-12734853D01*
X61135688Y-12712571D01*
X61095843Y-12655177D01*
X61089500Y-12616024D01*
X61089500Y-11078059D01*
X61089501Y-11078046D01*
X61089501Y-10909945D01*
X61089501Y-10909943D01*
X61048577Y-10757215D01*
X61015303Y-10699583D01*
X60969520Y-10620284D01*
X60857716Y-10508480D01*
X60857715Y-10508479D01*
X60853385Y-10504149D01*
X60853374Y-10504139D01*
X57461415Y-7112180D01*
X57427930Y-7050857D01*
X57432914Y-6981165D01*
X57474786Y-6925232D01*
X57540250Y-6900815D01*
X57549073Y-6900499D01*
X58197872Y-6900499D01*
X58257483Y-6894091D01*
X58392331Y-6843796D01*
X58507546Y-6757546D01*
X58593796Y-6642331D01*
X58644091Y-6507483D01*
X58650500Y-6447873D01*
X58650499Y-5913767D01*
X58670183Y-5846730D01*
X58722987Y-5800975D01*
X58792146Y-5791031D01*
X58817832Y-5797587D01*
X58942517Y-5844091D01*
X58942516Y-5844091D01*
X58949444Y-5844835D01*
X59002127Y-5850500D01*
X60097872Y-5850499D01*
X60157483Y-5844091D01*
X60292331Y-5793796D01*
X60407546Y-5707546D01*
X60493796Y-5592331D01*
X60544091Y-5457483D01*
X60550500Y-5397873D01*
X60550499Y-4502128D01*
X60544091Y-4442517D01*
X60538582Y-4427747D01*
X60493797Y-4307671D01*
X60493793Y-4307664D01*
X60407547Y-4192455D01*
X60407544Y-4192452D01*
X60292335Y-4106206D01*
X60292328Y-4106202D01*
X60157482Y-4055908D01*
X60157483Y-4055908D01*
X60097883Y-4049501D01*
X60097881Y-4049500D01*
X60097873Y-4049500D01*
X60097865Y-4049500D01*
X59074512Y-4049500D01*
X59065826Y-4046949D01*
X59056865Y-4048238D01*
X59032824Y-4037259D01*
X59007473Y-4029815D01*
X59001545Y-4022974D01*
X58993309Y-4019213D01*
X58979019Y-3996978D01*
X58961718Y-3977011D01*
X58959430Y-3966496D01*
X58955535Y-3960435D01*
X58954111Y-3942046D01*
X58950512Y-3925500D01*
X58950512Y-3917381D01*
X58951650Y-3908737D01*
X58951650Y-3791263D01*
X58950512Y-3782618D01*
X58950512Y-3774499D01*
X58958154Y-3748472D01*
X58962329Y-3721670D01*
X58967852Y-3715444D01*
X58970197Y-3707460D01*
X58990693Y-3689700D01*
X59008699Y-3669405D01*
X59016800Y-3667077D01*
X59023001Y-3661705D01*
X59048031Y-3658105D01*
X59074508Y-3650499D01*
X60097872Y-3650499D01*
X60157483Y-3644091D01*
X60292331Y-3593796D01*
X60407546Y-3507546D01*
X60493796Y-3392331D01*
X60544091Y-3257483D01*
X60550500Y-3197873D01*
X60550499Y-2302128D01*
X60544091Y-2242517D01*
X60493796Y-2107669D01*
X60493795Y-2107668D01*
X60493793Y-2107664D01*
X60407547Y-1992455D01*
X60407544Y-1992452D01*
X60292335Y-1906206D01*
X60292328Y-1906202D01*
X60164918Y-1858682D01*
X60108984Y-1816811D01*
X60084567Y-1751347D01*
X60099418Y-1683074D01*
X60148823Y-1633668D01*
X60208251Y-1618500D01*
X62876000Y-1618500D01*
X62943039Y-1638185D01*
G37*
%TD.AperFunction*%
%TA.AperFunction,Conductor*%
G36*
X37501229Y-24301563D02*
G01*
X37551693Y-24306080D01*
X37606870Y-24348945D01*
X37630112Y-24414835D01*
X37622472Y-24464801D01*
X37584909Y-24565514D01*
X37584908Y-24565516D01*
X37578501Y-24625116D01*
X37578501Y-24625123D01*
X37578500Y-24625135D01*
X37578500Y-25920870D01*
X37578501Y-25920876D01*
X37584908Y-25980483D01*
X37635202Y-26115328D01*
X37635203Y-26115330D01*
X37648113Y-26132575D01*
X37672530Y-26198039D01*
X37657679Y-26266312D01*
X37608274Y-26315718D01*
X37540001Y-26330570D01*
X37524655Y-26328503D01*
X37378846Y-26299500D01*
X37378842Y-26299500D01*
X37221158Y-26299500D01*
X37221155Y-26299500D01*
X37066510Y-26330261D01*
X37066498Y-26330264D01*
X36920827Y-26390602D01*
X36920814Y-26390609D01*
X36799602Y-26471602D01*
X36732925Y-26492480D01*
X36730711Y-26492500D01*
X34331563Y-26492500D01*
X34264524Y-26472815D01*
X34245778Y-26458037D01*
X34238410Y-26450978D01*
X34189546Y-26385704D01*
X34101443Y-26319750D01*
X34096002Y-26314537D01*
X34082208Y-26290512D01*
X34065605Y-26268333D01*
X34065054Y-26260636D01*
X34061212Y-26253944D01*
X34062597Y-26226273D01*
X34060621Y-26198641D01*
X34064319Y-26191868D01*
X34064705Y-26184162D01*
X34080827Y-26161635D01*
X34094106Y-26137318D01*
X34104968Y-26127905D01*
X34105370Y-26127345D01*
X34105823Y-26127164D01*
X34107470Y-26125737D01*
X34189546Y-26064296D01*
X34275796Y-25949081D01*
X34326091Y-25814233D01*
X34332500Y-25754623D01*
X34332499Y-24852378D01*
X34326091Y-24792767D01*
X34296836Y-24714332D01*
X34291853Y-24644642D01*
X34325338Y-24583319D01*
X34386661Y-24549834D01*
X34413019Y-24547000D01*
X36866831Y-24547000D01*
X36866847Y-24547001D01*
X36874443Y-24547001D01*
X37032554Y-24547001D01*
X37032557Y-24547001D01*
X37185285Y-24506077D01*
X37271234Y-24456454D01*
X37322216Y-24427020D01*
X37418544Y-24330691D01*
X37422741Y-24327178D01*
X37449933Y-24315312D01*
X37475984Y-24301088D01*
X37478155Y-24300636D01*
X37478839Y-24300500D01*
X37478842Y-24300500D01*
X37482103Y-24299851D01*
X37484812Y-24300093D01*
X37486780Y-24299235D01*
X37501229Y-24301563D01*
G37*
%TD.AperFunction*%
%TA.AperFunction,Conductor*%
G36*
X19461920Y-18220619D02*
G01*
X19496277Y-18281457D01*
X19499500Y-18309544D01*
X19499500Y-19512455D01*
X19479815Y-19579494D01*
X19427011Y-19625249D01*
X19357853Y-19635193D01*
X19294297Y-19606168D01*
X19275182Y-19585340D01*
X19175971Y-19448786D01*
X19031213Y-19304028D01*
X18865613Y-19183715D01*
X18865612Y-19183714D01*
X18865610Y-19183713D01*
X18797886Y-19149206D01*
X18683223Y-19090781D01*
X18492868Y-19028931D01*
X18435193Y-18989493D01*
X18407995Y-18925134D01*
X18419910Y-18856288D01*
X18467154Y-18804812D01*
X18492868Y-18793069D01*
X18535508Y-18779213D01*
X18683219Y-18731220D01*
X18865610Y-18638287D01*
X19029616Y-18519131D01*
X19031213Y-18517971D01*
X19031215Y-18517968D01*
X19031219Y-18517966D01*
X19175966Y-18373219D01*
X19275182Y-18236657D01*
X19330511Y-18193993D01*
X19400124Y-18188014D01*
X19461920Y-18220619D01*
G37*
%TD.AperFunction*%
%TA.AperFunction,Conductor*%
G36*
X22148104Y-16047185D02*
G01*
X22168746Y-16063819D01*
X22358643Y-16253716D01*
X22370486Y-16275405D01*
X22385856Y-16294757D01*
X22386937Y-16305533D01*
X22392128Y-16315039D01*
X22390365Y-16339688D01*
X22392833Y-16364278D01*
X22387483Y-16379976D01*
X22387144Y-16384731D01*
X22381450Y-16397686D01*
X22376575Y-16407255D01*
X22328603Y-16458053D01*
X22260783Y-16474853D01*
X22218635Y-16465528D01*
X22215177Y-16464095D01*
X22133497Y-16430263D01*
X22133492Y-16430262D01*
X22133489Y-16430261D01*
X21978845Y-16399500D01*
X21978842Y-16399500D01*
X21821158Y-16399500D01*
X21821155Y-16399500D01*
X21666510Y-16430261D01*
X21666498Y-16430264D01*
X21520827Y-16490602D01*
X21520814Y-16490609D01*
X21389711Y-16578210D01*
X21389707Y-16578213D01*
X21278213Y-16689707D01*
X21278210Y-16689711D01*
X21190609Y-16820814D01*
X21190602Y-16820827D01*
X21130264Y-16966498D01*
X21130261Y-16966510D01*
X21099500Y-17121153D01*
X21099500Y-17278846D01*
X21130261Y-17433489D01*
X21130264Y-17433501D01*
X21190603Y-17579174D01*
X21190604Y-17579175D01*
X21190606Y-17579179D01*
X21251602Y-17670465D01*
X21272480Y-17737142D01*
X21272500Y-17739356D01*
X21272500Y-18075500D01*
X21252815Y-18142539D01*
X21200011Y-18188294D01*
X21148500Y-18199500D01*
X21121155Y-18199500D01*
X20966510Y-18230261D01*
X20966507Y-18230261D01*
X20871952Y-18269427D01*
X20802482Y-18276895D01*
X20740003Y-18245619D01*
X20704351Y-18185530D01*
X20700500Y-18154865D01*
X20700500Y-16779765D01*
X20720185Y-16712726D01*
X20721398Y-16710874D01*
X20809390Y-16579185D01*
X20809390Y-16579184D01*
X20809394Y-16579179D01*
X20818911Y-16556204D01*
X20823067Y-16546166D01*
X20869737Y-16433497D01*
X20900500Y-16278842D01*
X20900500Y-16151500D01*
X20920185Y-16084461D01*
X20972989Y-16038706D01*
X21024500Y-16027500D01*
X22081065Y-16027500D01*
X22148104Y-16047185D01*
G37*
%TD.AperFunction*%
%TA.AperFunction,Conductor*%
G36*
X30506006Y-14605985D02*
G01*
X30557142Y-14653596D01*
X30574500Y-14716868D01*
X30574500Y-15097869D01*
X30574501Y-15097876D01*
X30580908Y-15157483D01*
X30631202Y-15292328D01*
X30631206Y-15292335D01*
X30717452Y-15407544D01*
X30717453Y-15407544D01*
X30717454Y-15407546D01*
X30746615Y-15429376D01*
X30775145Y-15450734D01*
X30817015Y-15506668D01*
X30821999Y-15576360D01*
X30788513Y-15637683D01*
X30775145Y-15649266D01*
X30717452Y-15692455D01*
X30631206Y-15807664D01*
X30631202Y-15807671D01*
X30580908Y-15942517D01*
X30574501Y-16002116D01*
X30574500Y-16002135D01*
X30574500Y-16383131D01*
X30554815Y-16450170D01*
X30502011Y-16495925D01*
X30437246Y-16506421D01*
X30428875Y-16505521D01*
X30372873Y-16499500D01*
X30372867Y-16499500D01*
X29503438Y-16499500D01*
X29436399Y-16479815D01*
X29390644Y-16427011D01*
X29380700Y-16357853D01*
X29409725Y-16294297D01*
X29434545Y-16272399D01*
X29510289Y-16221789D01*
X29621789Y-16110289D01*
X29709394Y-15979179D01*
X29769737Y-15833497D01*
X29794266Y-15710183D01*
X29800638Y-15678150D01*
X29833023Y-15616239D01*
X29834525Y-15614709D01*
X30058506Y-15390727D01*
X30058511Y-15390724D01*
X30068714Y-15380520D01*
X30068716Y-15380520D01*
X30180520Y-15268716D01*
X30259577Y-15131784D01*
X30293650Y-15004622D01*
X30300500Y-14979058D01*
X30300500Y-14820943D01*
X30300500Y-14719663D01*
X30301146Y-14717460D01*
X30300579Y-14715236D01*
X30310941Y-14684102D01*
X30320185Y-14652624D01*
X30321919Y-14651120D01*
X30322645Y-14648942D01*
X30348201Y-14628347D01*
X30372989Y-14606869D01*
X30375818Y-14606092D01*
X30377049Y-14605101D01*
X30411239Y-14596374D01*
X30432483Y-14594091D01*
X30432486Y-14594089D01*
X30437246Y-14593578D01*
X30506006Y-14605985D01*
G37*
%TD.AperFunction*%
%TA.AperFunction,Conductor*%
G36*
X21033182Y-12837782D02*
G01*
X21079624Y-12867043D01*
X21336181Y-13123600D01*
X21369666Y-13184923D01*
X21372500Y-13211281D01*
X21372500Y-14438197D01*
X21372500Y-14561803D01*
X21375368Y-14576220D01*
X21384933Y-14624310D01*
X21378704Y-14693902D01*
X21335841Y-14749078D01*
X21269951Y-14772322D01*
X21263315Y-14772500D01*
X20993182Y-14772500D01*
X20926143Y-14752815D01*
X20880388Y-14700011D01*
X20870444Y-14630853D01*
X20871565Y-14624308D01*
X20900500Y-14478844D01*
X20900500Y-14321155D01*
X20900499Y-14321153D01*
X20869737Y-14166503D01*
X20869735Y-14166498D01*
X20809397Y-14020827D01*
X20809390Y-14020814D01*
X20721398Y-13889125D01*
X20700520Y-13822447D01*
X20700500Y-13820234D01*
X20700500Y-13279765D01*
X20720185Y-13212726D01*
X20721398Y-13210874D01*
X20734400Y-13191416D01*
X20809394Y-13079179D01*
X20811309Y-13074557D01*
X20845955Y-12990913D01*
X20869737Y-12933497D01*
X20870324Y-12930544D01*
X20871058Y-12929141D01*
X20871506Y-12927665D01*
X20871785Y-12927749D01*
X20902701Y-12868632D01*
X20963412Y-12834051D01*
X21033182Y-12837782D01*
G37*
%TD.AperFunction*%
%TA.AperFunction,Conductor*%
G36*
X34466942Y-11420185D02*
G01*
X34487584Y-11436819D01*
X34916259Y-11865495D01*
X34949744Y-11926818D01*
X34944760Y-11996510D01*
X34902888Y-12052443D01*
X34876031Y-12067737D01*
X34820824Y-12090604D01*
X34820814Y-12090609D01*
X34689711Y-12178210D01*
X34689707Y-12178213D01*
X34578213Y-12289707D01*
X34492123Y-12418549D01*
X34438510Y-12463353D01*
X34369185Y-12472060D01*
X34306158Y-12441905D01*
X34282599Y-12407310D01*
X34280047Y-12408704D01*
X34275793Y-12400914D01*
X34189547Y-12285705D01*
X34189544Y-12285702D01*
X34074335Y-12199456D01*
X34074328Y-12199452D01*
X33939482Y-12149158D01*
X33939483Y-12149158D01*
X33879883Y-12142751D01*
X33879881Y-12142750D01*
X33879873Y-12142750D01*
X33879864Y-12142750D01*
X32920129Y-12142750D01*
X32920123Y-12142751D01*
X32860518Y-12149158D01*
X32841545Y-12156235D01*
X32771853Y-12161218D01*
X32710531Y-12127731D01*
X32698947Y-12114363D01*
X32691932Y-12104992D01*
X32682546Y-12092454D01*
X32680075Y-12090604D01*
X32567335Y-12006206D01*
X32567328Y-12006202D01*
X32432482Y-11955908D01*
X32432483Y-11955908D01*
X32372883Y-11949501D01*
X32372881Y-11949500D01*
X32372873Y-11949500D01*
X32372864Y-11949500D01*
X31027129Y-11949500D01*
X31027123Y-11949501D01*
X30967516Y-11955908D01*
X30832671Y-12006202D01*
X30832664Y-12006206D01*
X30717455Y-12092452D01*
X30717452Y-12092455D01*
X30631206Y-12207664D01*
X30631202Y-12207671D01*
X30580908Y-12342517D01*
X30574501Y-12402116D01*
X30574500Y-12402135D01*
X30574500Y-12783131D01*
X30554815Y-12850170D01*
X30502011Y-12895925D01*
X30437246Y-12906421D01*
X30430756Y-12905723D01*
X30372873Y-12899500D01*
X30372865Y-12899500D01*
X29027129Y-12899500D01*
X29027123Y-12899501D01*
X28967516Y-12905908D01*
X28874582Y-12940571D01*
X28804890Y-12945555D01*
X28743567Y-12912070D01*
X28710083Y-12850746D01*
X28707249Y-12824389D01*
X28707249Y-12443347D01*
X28726934Y-12376308D01*
X28743568Y-12355666D01*
X29662416Y-11436819D01*
X29723739Y-11403334D01*
X29750097Y-11400500D01*
X34399903Y-11400500D01*
X34466942Y-11420185D01*
G37*
%TD.AperFunction*%
%TA.AperFunction,Conductor*%
G36*
X39775000Y-9977365D02*
G01*
X39780005Y-9981640D01*
X39818197Y-10040147D01*
X39818695Y-10110015D01*
X39787153Y-10163610D01*
X37787584Y-12163181D01*
X37726261Y-12196666D01*
X37699903Y-12199500D01*
X36924500Y-12199500D01*
X36857461Y-12179815D01*
X36811706Y-12127011D01*
X36800500Y-12075500D01*
X36800500Y-12021155D01*
X36800499Y-12021153D01*
X36792914Y-11983023D01*
X36769737Y-11866503D01*
X36769735Y-11866498D01*
X36709397Y-11720827D01*
X36709390Y-11720814D01*
X36621789Y-11589711D01*
X36621786Y-11589707D01*
X36510292Y-11478213D01*
X36510288Y-11478210D01*
X36379185Y-11390609D01*
X36379172Y-11390602D01*
X36233501Y-11330264D01*
X36233491Y-11330261D01*
X36078151Y-11299362D01*
X36016241Y-11266977D01*
X36014662Y-11265426D01*
X35743264Y-10994028D01*
X35383164Y-10633929D01*
X35373169Y-10615625D01*
X35359176Y-10600155D01*
X35356761Y-10585575D01*
X35349680Y-10572607D01*
X35351167Y-10551801D01*
X35347760Y-10531225D01*
X35353609Y-10517656D01*
X35354664Y-10502916D01*
X35367164Y-10486217D01*
X35375422Y-10467064D01*
X35387679Y-10458811D01*
X35396535Y-10446982D01*
X35416078Y-10439692D01*
X35433381Y-10428044D01*
X35457179Y-10424362D01*
X35462000Y-10422565D01*
X35468201Y-10422277D01*
X35469492Y-10422249D01*
X35647872Y-10422249D01*
X35692042Y-10417500D01*
X35697356Y-10417387D01*
X35699880Y-10418070D01*
X35713252Y-10418070D01*
X35752127Y-10422250D01*
X36147872Y-10422249D01*
X36147873Y-10422248D01*
X36147885Y-10422248D01*
X36186744Y-10418070D01*
X36213252Y-10418070D01*
X36252127Y-10422250D01*
X36647872Y-10422249D01*
X36647873Y-10422248D01*
X36647885Y-10422248D01*
X36686744Y-10418070D01*
X36713252Y-10418070D01*
X36752127Y-10422250D01*
X37147872Y-10422249D01*
X37199537Y-10416695D01*
X37230430Y-10417246D01*
X37300000Y-10427250D01*
X37300003Y-10427250D01*
X37900000Y-10427250D01*
X37971940Y-10422105D01*
X37977530Y-10420463D01*
X38030114Y-10416701D01*
X38100003Y-10426750D01*
X38700000Y-10426750D01*
X38700002Y-10426749D01*
X38771870Y-10421609D01*
X38909781Y-10381115D01*
X39030703Y-10303404D01*
X39124832Y-10194773D01*
X39124833Y-10194772D01*
X39188229Y-10055957D01*
X39191607Y-10057499D01*
X39219730Y-10013521D01*
X39247727Y-10000658D01*
X39275000Y-9977364D01*
X39275000Y-9218936D01*
X39279394Y-9223330D01*
X39370606Y-9275991D01*
X39472339Y-9303250D01*
X39577661Y-9303250D01*
X39679394Y-9275991D01*
X39770606Y-9223330D01*
X39775000Y-9218936D01*
X39775000Y-9977365D01*
G37*
%TD.AperFunction*%
%TA.AperFunction,Conductor*%
G36*
X36467941Y-6420185D02*
G01*
X36513696Y-6472989D01*
X36523640Y-6542147D01*
X36494615Y-6605703D01*
X36488583Y-6612181D01*
X35969481Y-7131282D01*
X35969480Y-7131284D01*
X35942619Y-7177810D01*
X35924279Y-7209576D01*
X35924277Y-7209578D01*
X35890425Y-7268209D01*
X35890424Y-7268210D01*
X35881137Y-7302869D01*
X35849499Y-7420943D01*
X35849499Y-7420945D01*
X35849499Y-7589046D01*
X35849500Y-7589059D01*
X35849500Y-7999398D01*
X35848853Y-8001600D01*
X35849421Y-8003825D01*
X35839058Y-8034958D01*
X35829815Y-8066437D01*
X35828080Y-8067940D01*
X35827355Y-8070119D01*
X35801798Y-8090713D01*
X35777011Y-8112192D01*
X35774181Y-8112968D01*
X35772951Y-8113960D01*
X35738757Y-8122687D01*
X35738753Y-8122688D01*
X35713255Y-8125429D01*
X35686748Y-8125429D01*
X35647874Y-8121250D01*
X35252130Y-8121250D01*
X35252119Y-8121251D01*
X35213253Y-8125429D01*
X35186748Y-8125429D01*
X35147874Y-8121250D01*
X34752130Y-8121250D01*
X34752119Y-8121251D01*
X34713253Y-8125429D01*
X34686748Y-8125429D01*
X34647874Y-8121250D01*
X34252130Y-8121250D01*
X34252119Y-8121251D01*
X34213503Y-8125402D01*
X34186995Y-8125401D01*
X34161243Y-8122632D01*
X34096692Y-8095893D01*
X34056845Y-8038500D01*
X34050500Y-7999343D01*
X34050500Y-7398847D01*
X34070185Y-7331808D01*
X34086819Y-7311166D01*
X34961166Y-6436819D01*
X35022489Y-6403334D01*
X35048847Y-6400500D01*
X36400902Y-6400500D01*
X36467941Y-6420185D01*
G37*
%TD.AperFunction*%
%TA.AperFunction,Conductor*%
G36*
X40452860Y-6420185D02*
G01*
X40488589Y-6455112D01*
X40496848Y-6467344D01*
X40499454Y-6474331D01*
X40520987Y-6503095D01*
X40522686Y-6505612D01*
X40532404Y-6536132D01*
X40543602Y-6566155D01*
X40542937Y-6569209D01*
X40543886Y-6572188D01*
X40535560Y-6603121D01*
X40528750Y-6634428D01*
X40525970Y-6638753D01*
X40525727Y-6639657D01*
X40524917Y-6640390D01*
X40519186Y-6649310D01*
X40499453Y-6675669D01*
X40499452Y-6675671D01*
X40449158Y-6810517D01*
X40442751Y-6870116D01*
X40442750Y-6870135D01*
X40442750Y-7167036D01*
X40423065Y-7234075D01*
X40370261Y-7279830D01*
X40301103Y-7289774D01*
X40246873Y-7265251D01*
X40245544Y-7267081D01*
X40101524Y-7162445D01*
X39947257Y-7083841D01*
X39782589Y-7030337D01*
X39782581Y-7030335D01*
X39775000Y-7029134D01*
X39775000Y-7787564D01*
X39770606Y-7783170D01*
X39679394Y-7730509D01*
X39577661Y-7703250D01*
X39472339Y-7703250D01*
X39370606Y-7730509D01*
X39279394Y-7783170D01*
X39275000Y-7787564D01*
X39275000Y-7029134D01*
X39274999Y-7029134D01*
X39267418Y-7030335D01*
X39267410Y-7030337D01*
X39102742Y-7083841D01*
X38948475Y-7162445D01*
X38808397Y-7264217D01*
X38685965Y-7386649D01*
X38685961Y-7386654D01*
X38603702Y-7499875D01*
X38601471Y-7501595D01*
X38600409Y-7504205D01*
X38573965Y-7522805D01*
X38548372Y-7542541D01*
X38545565Y-7542782D01*
X38543261Y-7544403D01*
X38510963Y-7545753D01*
X38478759Y-7548520D01*
X38475408Y-7547241D01*
X38473453Y-7547323D01*
X38465221Y-7543352D01*
X38440763Y-7534016D01*
X38434059Y-7530093D01*
X38431035Y-7527773D01*
X38359955Y-7486735D01*
X38359631Y-7486546D01*
X38335902Y-7461369D01*
X38312037Y-7436341D01*
X38311966Y-7435973D01*
X38311709Y-7435701D01*
X38305361Y-7401706D01*
X38298813Y-7367734D01*
X38298952Y-7367385D01*
X38298884Y-7367019D01*
X38311905Y-7335031D01*
X38324781Y-7302869D01*
X38325128Y-7302547D01*
X38325227Y-7302305D01*
X38325908Y-7301825D01*
X38353364Y-7276416D01*
X38360290Y-7271788D01*
X38471786Y-7160292D01*
X38471789Y-7160289D01*
X38559394Y-7029179D01*
X38619737Y-6883497D01*
X38650500Y-6728842D01*
X38650500Y-6571158D01*
X38646031Y-6548690D01*
X38652260Y-6479099D01*
X38695123Y-6423922D01*
X38761013Y-6400678D01*
X38767649Y-6400500D01*
X40385821Y-6400500D01*
X40452860Y-6420185D01*
G37*
%TD.AperFunction*%
%TA.AperFunction,Conductor*%
G36*
X49400983Y-4370185D02*
G01*
X49446738Y-4422989D01*
X49457233Y-4487756D01*
X49453000Y-4527118D01*
X49453000Y-5872870D01*
X49453001Y-5872876D01*
X49459921Y-5937247D01*
X49447514Y-6006006D01*
X49399903Y-6057143D01*
X49336631Y-6074500D01*
X48955630Y-6074500D01*
X48955623Y-6074501D01*
X48896016Y-6080908D01*
X48761171Y-6131202D01*
X48761164Y-6131206D01*
X48645955Y-6217452D01*
X48645952Y-6217455D01*
X48559706Y-6332664D01*
X48559699Y-6332676D01*
X48555977Y-6342657D01*
X48514104Y-6398590D01*
X48448639Y-6423004D01*
X48380367Y-6408150D01*
X48340531Y-6373631D01*
X48261047Y-6267455D01*
X48261044Y-6267452D01*
X48145835Y-6181206D01*
X48145828Y-6181202D01*
X48010982Y-6130908D01*
X48010983Y-6130908D01*
X47951383Y-6124501D01*
X47951381Y-6124500D01*
X47951373Y-6124500D01*
X47951365Y-6124500D01*
X47570368Y-6124500D01*
X47503329Y-6104815D01*
X47457574Y-6052011D01*
X47447079Y-5987244D01*
X47447591Y-5982483D01*
X47454000Y-5922873D01*
X47453999Y-4577128D01*
X47447591Y-4517517D01*
X47447590Y-4517515D01*
X47447590Y-4517512D01*
X47445808Y-4509969D01*
X47447124Y-4509657D01*
X47442725Y-4448142D01*
X47476209Y-4386819D01*
X47537532Y-4353334D01*
X47563891Y-4350500D01*
X49333944Y-4350500D01*
X49400983Y-4370185D01*
G37*
%TD.AperFunction*%
%TA.AperFunction,Conductor*%
G36*
X53458788Y-1638185D02*
G01*
X53504543Y-1690989D01*
X53514487Y-1760147D01*
X53485462Y-1823703D01*
X53435082Y-1858682D01*
X53307671Y-1906202D01*
X53307664Y-1906206D01*
X53192455Y-1992452D01*
X53192452Y-1992455D01*
X53106206Y-2107664D01*
X53106202Y-2107671D01*
X53055908Y-2242517D01*
X53049501Y-2302116D01*
X53049501Y-2302123D01*
X53049500Y-2302135D01*
X53049500Y-3197870D01*
X53049501Y-3197876D01*
X53055908Y-3257483D01*
X53106202Y-3392328D01*
X53106206Y-3392335D01*
X53192452Y-3507544D01*
X53192455Y-3507547D01*
X53307664Y-3593793D01*
X53307671Y-3593797D01*
X53442517Y-3644091D01*
X53442516Y-3644091D01*
X53449444Y-3644835D01*
X53502127Y-3650500D01*
X54525487Y-3650499D01*
X54534173Y-3653049D01*
X54543134Y-3651761D01*
X54567170Y-3662738D01*
X54592526Y-3670183D01*
X54598454Y-3677025D01*
X54606690Y-3680786D01*
X54620976Y-3703017D01*
X54638281Y-3722987D01*
X54640568Y-3733502D01*
X54644464Y-3739564D01*
X54645890Y-3757968D01*
X54649487Y-3774499D01*
X54649487Y-3782626D01*
X54648350Y-3791263D01*
X54648350Y-3908737D01*
X54649487Y-3917373D01*
X54649487Y-3925500D01*
X54641841Y-3951538D01*
X54637660Y-3978350D01*
X54632143Y-3984565D01*
X54629802Y-3992539D01*
X54609295Y-4010307D01*
X54591280Y-4030606D01*
X54583188Y-4032929D01*
X54576998Y-4038294D01*
X54551984Y-4041890D01*
X54525487Y-4049500D01*
X53502129Y-4049500D01*
X53502123Y-4049501D01*
X53442516Y-4055908D01*
X53307671Y-4106202D01*
X53307664Y-4106206D01*
X53192457Y-4192451D01*
X53192447Y-4192460D01*
X53183856Y-4203937D01*
X53127921Y-4245807D01*
X53058229Y-4250788D01*
X53035082Y-4242272D01*
X53034807Y-4242937D01*
X52883501Y-4180264D01*
X52883491Y-4180261D01*
X52728149Y-4149361D01*
X52666238Y-4116976D01*
X52664660Y-4115425D01*
X51937590Y-3388355D01*
X51937588Y-3388352D01*
X51818717Y-3269481D01*
X51818716Y-3269480D01*
X51731904Y-3219360D01*
X51731904Y-3219359D01*
X51731900Y-3219358D01*
X51681785Y-3190423D01*
X51529057Y-3149499D01*
X51370943Y-3149499D01*
X51363347Y-3149499D01*
X51363331Y-3149500D01*
X47150097Y-3149500D01*
X47083058Y-3129815D01*
X47062416Y-3113181D01*
X46587590Y-2638355D01*
X46587588Y-2638352D01*
X46468717Y-2519481D01*
X46468716Y-2519480D01*
X46381904Y-2469360D01*
X46381904Y-2469359D01*
X46381900Y-2469358D01*
X46331785Y-2440423D01*
X46179057Y-2399499D01*
X46021869Y-2399499D01*
X45954830Y-2379814D01*
X45909075Y-2327010D01*
X45904163Y-2314503D01*
X45900063Y-2302129D01*
X45859814Y-2180666D01*
X45767712Y-2031344D01*
X45643656Y-1907288D01*
X45547596Y-1848038D01*
X45500873Y-1796091D01*
X45489650Y-1727128D01*
X45517494Y-1663046D01*
X45575562Y-1624190D01*
X45612694Y-1618500D01*
X53391749Y-1618500D01*
X53458788Y-1638185D01*
G37*
%TD.AperFunction*%
%TD*%
M02*
